<?xml version="1.0" encoding="UTF-8" standalone="no"?>
<!DOCTYPE svg PUBLIC "-//W3C//DTD SVG 1.1//EN"
 "http://www.w3.org/Graphics/SVG/1.1/DTD/svg11.dtd">
<!-- Generated by graphviz version 2.43.0 (0)
 -->
<!-- Title: G Pages: 1 -->
<svg width="923pt" height="395pt"
 viewBox="0.00 0.00 923.20 394.67" xmlns="http://www.w3.org/2000/svg" xmlns:xlink="http://www.w3.org/1999/xlink">
<g id="graph0" class="graph" transform="scale(1 1) rotate(0) translate(21.6 373.07)">
<title>G</title>
<polygon fill="white" stroke="transparent" points="-21.6,21.6 -21.6,-373.07 901.6,-373.07 901.6,21.6 -21.6,21.6"/>
<!-- input -->
<g id="node1" class="node">
<title>input</title>
<path fill="none" stroke="black" stroke-width="1.5" d="M254,-351.47C254,-351.47 12,-351.47 12,-351.47 6,-351.47 0,-345.47 0,-339.47 0,-339.47 0,-115.47 0,-115.47 0,-109.47 6,-103.47 12,-103.47 12,-103.47 254,-103.47 254,-103.47 260,-103.47 266,-109.47 266,-115.47 266,-115.47 266,-339.47 266,-339.47 266,-345.47 260,-351.47 254,-351.47"/>
<text text-anchor="start" x="109.5" y="-333.67" font-family="Liberation Sans" font-weight="bold" font-size="16.00">INPUT</text>
<text text-anchor="start" x="28" y="-307.87" font-family="Liberation Sans" font-size="12.00">• Needs of the partner farm&#39;s members</text>
<text text-anchor="start" x="28" y="-294.87" font-family="Liberation Sans" font-size="12.00"> &#160;&#160;and local buyers: selling, order</text>
<text text-anchor="start" x="28" y="-281.87" font-family="Liberation Sans" font-size="12.00"> &#160;&#160;coordination, crop&#45;care reference,</text>
<text text-anchor="start" x="28" y="-268.87" font-family="Liberation Sans" font-size="12.00"> &#160;&#160;and reporting</text>
<text text-anchor="start" x="28" y="-245.87" font-family="Liberation Sans" font-size="12.00">• System data: crop taxonomy, listings,</text>
<text text-anchor="start" x="28" y="-232.87" font-family="Liberation Sans" font-size="12.00"> &#160;&#160;orders, tawad rules, crop&#45;care articles,</text>
<text text-anchor="start" x="28" y="-219.87" font-family="Liberation Sans" font-size="12.00"> &#160;&#160;farm announcements, FAQ answers</text>
<text text-anchor="start" x="28" y="-196.87" font-family="Liberation Sans" font-size="12.00">• Tools: Flutter, Laravel, Sanctum,</text>
<text text-anchor="start" x="28" y="-183.87" font-family="Liberation Sans" font-size="12.00"> &#160;&#160;Spatie Permission, Filament,</text>
<text text-anchor="start" x="28" y="-170.87" font-family="Liberation Sans" font-size="12.00"> &#160;&#160;Laravel Reverb, MySQL</text>
<text text-anchor="start" x="28" y="-147.87" font-family="Liberation Sans" font-size="12.00">• Standards: ISO/IEC 25010:2023,</text>
<text text-anchor="start" x="28" y="-134.87" font-family="Liberation Sans" font-size="12.00"> &#160;&#160;Data Privacy Act of 2012</text>
<polygon fill="black" stroke="black" points="23,-322.47 23,-322.47 244,-322.47 244,-322.47 23,-322.47"/>
</g>
<!-- process -->
<g id="node2" class="node">
<title>process</title>
<path fill="none" stroke="black" stroke-width="1.5" d="M561,-351.47C561,-351.47 319,-351.47 319,-351.47 313,-351.47 307,-345.47 307,-339.47 307,-339.47 307,-115.47 307,-115.47 307,-109.47 313,-103.47 319,-103.47 319,-103.47 561,-103.47 561,-103.47 567,-103.47 573,-109.47 573,-115.47 573,-115.47 573,-339.47 573,-339.47 573,-345.47 567,-351.47 561,-351.47"/>
<text text-anchor="start" x="401" y="-333.17" font-family="Liberation Sans" font-weight="bold" font-size="16.00">PROCESS</text>
<text text-anchor="start" x="345" y="-307.37" font-family="Liberation Sans" font-size="12.00">• Design: architecture, database,</text>
<text text-anchor="start" x="345" y="-294.37" font-family="Liberation Sans" font-size="12.00"> &#160;&#160;four&#45;actor access model, shared</text>
<text text-anchor="start" x="345" y="-281.37" font-family="Liberation Sans" font-size="12.00"> &#160;&#160;taxonomy with two&#45;level price</text>
<text text-anchor="start" x="345" y="-268.37" font-family="Liberation Sans" font-size="12.00"> &#160;&#160;guards, interfaces</text>
<text text-anchor="start" x="345" y="-245.37" font-family="Liberation Sans" font-size="12.00">• Develop: the five modules,</text>
<text text-anchor="start" x="345" y="-232.37" font-family="Liberation Sans" font-size="12.00"> &#160;&#160;iterative and incremental</text>
<text text-anchor="start" x="345" y="-209.37" font-family="Liberation Sans" font-size="12.00">• Test: module functions, role&#45;based</text>
<text text-anchor="start" x="345" y="-196.37" font-family="Liberation Sans" font-size="12.00"> &#160;&#160;access, multi&#45;farm isolation,</text>
<text text-anchor="start" x="345" y="-183.37" font-family="Liberation Sans" font-size="12.00"> &#160;&#160;end&#45;to&#45;end marketplace flow</text>
<text text-anchor="start" x="345" y="-160.37" font-family="Liberation Sans" font-size="12.00">• Evaluate: ISO/IEC 25010:2023</text>
<text text-anchor="start" x="345" y="-147.37" font-family="Liberation Sans" font-size="12.00"> &#160;&#160;on a four&#45;point Likert scale</text>
<polygon fill="black" stroke="black" points="340,-321.97 340,-321.97 540,-321.97 540,-321.97 340,-321.97"/>
</g>
<!-- input&#45;&gt;process -->
<g id="edge1" class="edge">
<title>input&#45;&gt;process</title>
<path fill="none" stroke="#222222" stroke-width="1.3" d="M266,-227.47C276.46,-227.47 287.05,-227.47 297.57,-227.47"/>
<polygon fill="#222222" stroke="#222222" stroke-width="1.3" points="297.8,-230.62 306.8,-227.47 297.8,-224.32 297.8,-230.62"/>
</g>
<!-- output -->
<g id="node3" class="node">
<title>output</title>
<path fill="none" stroke="black" stroke-width="1.5" d="M868,-351.47C868,-351.47 626,-351.47 626,-351.47 620,-351.47 614,-345.47 614,-339.47 614,-339.47 614,-115.47 614,-115.47 614,-109.47 620,-103.47 626,-103.47 626,-103.47 868,-103.47 868,-103.47 874,-103.47 880,-109.47 880,-115.47 880,-115.47 880,-339.47 880,-339.47 880,-345.47 874,-351.47 868,-351.47"/>
<text text-anchor="start" x="714" y="-333.17" font-family="Liberation Sans" font-weight="bold" font-size="16.00">OUTPUT</text>
<text text-anchor="start" x="653" y="-307.37" font-family="Liberation Sans" font-size="12.00">• AniHow: a mobile and web&#45;based</text>
<text text-anchor="start" x="653" y="-294.37" font-family="Liberation Sans" font-size="12.00"> &#160;&#160;digital market hub with</text>
<text text-anchor="start" x="653" y="-281.37" font-family="Liberation Sans" font-size="12.00"> &#160;&#160;descriptive analytics</text>
<text text-anchor="start" x="653" y="-258.37" font-family="Liberation Sans" font-size="12.00">• Evaluated for acceptability</text>
<text text-anchor="start" x="653" y="-245.37" font-family="Liberation Sans" font-size="12.00"> &#160;&#160;by its respondents</text>
<text text-anchor="start" x="653" y="-222.37" font-family="Liberation Sans" font-size="12.00">• Serves local farmer&#45;sellers</text>
<text text-anchor="start" x="653" y="-209.37" font-family="Liberation Sans" font-size="12.00"> &#160;&#160;and buyers in Cavite</text>
<text text-anchor="start" x="653" y="-186.37" font-family="Liberation Sans" font-size="12.00">• PYAP Manggahan Chapter</text>
<text text-anchor="start" x="653" y="-173.37" font-family="Liberation Sans" font-size="12.00"> &#160;&#160;as the pilot partner</text>
<polygon fill="black" stroke="black" points="648,-321.97 648,-321.97 846,-321.97 846,-321.97 648,-321.97"/>
</g>
<!-- process&#45;&gt;output -->
<g id="edge2" class="edge">
<title>process&#45;&gt;output</title>
<path fill="none" stroke="#222222" stroke-width="1.3" d="M573,-227.47C583.46,-227.47 594.05,-227.47 604.57,-227.47"/>
<polygon fill="#222222" stroke="#222222" stroke-width="1.3" points="604.8,-230.62 613.8,-227.47 604.8,-224.32 604.8,-230.62"/>
</g>
<!-- output&#45;&gt;input -->
<g id="edge3" class="edge">
<title>output:s&#45;&gt;input:s</title>
<path fill="none" stroke="#222222" stroke-width="1.3" d="M747,-102.47C747,30.91 160.27,33.91 133.92,-93.48"/>
<polygon fill="#222222" stroke="#222222" stroke-width="1.3" points="130.78,-93.2 133,-102.47 137.05,-93.83 130.78,-93.2"/>
<text text-anchor="start" x="413" y="-13.87" font-family="Liberation Sans" font-style="italic" font-size="12.00">Feedback</text>
</g>
</g>
</svg>
