<?xml version="1.0" encoding="UTF-8" standalone="no"?>
<!DOCTYPE svg PUBLIC "-//W3C//DTD SVG 1.1//EN"
 "http://www.w3.org/Graphics/SVG/1.1/DTD/svg11.dtd">
<!-- Generated by graphviz version 2.43.0 (0)
 -->
<!-- Title: G Pages: 1 -->
<svg width="923pt" height="968pt"
 viewBox="0.00 0.00 923.15 968.20" xmlns="http://www.w3.org/2000/svg" xmlns:xlink="http://www.w3.org/1999/xlink">
<g id="graph0" class="graph" transform="scale(1 1) rotate(0) translate(21.6 946.6)">
<title>G</title>
<polygon fill="white" stroke="transparent" points="-21.6,21.6 -21.6,-946.6 901.55,-946.6 901.55,21.6 -21.6,21.6"/>
<g id="clust1" class="cluster">
<title>cluster_sys</title>
<path fill="none" stroke="#777777" d="M198,-8C198,-8 681.95,-8 681.95,-8 687.95,-8 693.95,-14 693.95,-20 693.95,-20 693.95,-905 693.95,-905 693.95,-911 687.95,-917 681.95,-917 681.95,-917 198,-917 198,-917 192,-917 186,-911 186,-905 186,-905 186,-20 186,-20 186,-14 192,-8 198,-8"/>
<text text-anchor="middle" x="439.98" y="-901.8" font-family="Liberation Sans" font-size="14.00">AniHow System</text>
</g>
<!-- sa -->
<g id="node1" class="node">
<title>sa</title>
<polygon fill="#e1e6ed" stroke="black" stroke-width="1.4" points="115,-667 0,-667 0,-631 115,-631 115,-667"/>
<text text-anchor="middle" x="57.5" y="-645.6" font-family="Liberation Sans" font-size="13.00">Super Admin</text>
</g>
<!-- sa1 -->
<g id="node5" class="node">
<title>sa1</title>
<ellipse fill="none" stroke="black" stroke-width="1.1" cx="295.12" cy="-756" rx="83" ry="20"/>
<text text-anchor="middle" x="295.12" y="-753.2" font-family="Liberation Sans" font-size="11.00">Manage user accounts</text>
</g>
<!-- sa&#45;&gt;sa1 -->
<g id="edge1" class="edge">
<title>sa&#45;&gt;sa1</title>
<path fill="none" stroke="#333333" d="M81.63,-667.04C106.22,-685.39 146.89,-713.42 186,-730 199.42,-735.69 214.33,-740.28 228.68,-743.94"/>
</g>
<!-- sa2 -->
<g id="node6" class="node">
<title>sa2</title>
<ellipse fill="none" stroke="black" stroke-width="1.1" cx="295.12" cy="-704" rx="83" ry="20"/>
<text text-anchor="middle" x="295.12" y="-701.2" font-family="Liberation Sans" font-size="11.00">Set system price guards</text>
</g>
<!-- sa&#45;&gt;sa2 -->
<g id="edge2" class="edge">
<title>sa&#45;&gt;sa2</title>
<path fill="none" stroke="#333333" d="M115.24,-662.24C151.46,-670.7 198.32,-681.64 235,-690.2"/>
</g>
<!-- sa3 -->
<g id="node7" class="node">
<title>sa3</title>
<ellipse fill="none" stroke="black" stroke-width="1.1" cx="295.12" cy="-866" rx="83" ry="20"/>
<text text-anchor="middle" x="295.12" y="-863.2" font-family="Liberation Sans" font-size="11.00">Manage crop taxonomy</text>
</g>
<!-- sa&#45;&gt;sa3 -->
<g id="edge3" class="edge">
<title>sa&#45;&gt;sa3</title>
<path fill="none" stroke="#333333" d="M65.2,-667.02C80.39,-705.28 121.26,-794.84 186,-840 196.61,-847.4 209.07,-852.71 221.69,-856.51"/>
</g>
<!-- sa4 -->
<g id="node8" class="node">
<title>sa4</title>
<ellipse fill="none" stroke="black" stroke-width="1.1" cx="295.12" cy="-592" rx="101.23" ry="22.76"/>
<text text-anchor="middle" x="295.12" y="-595.2" font-family="Liberation Sans" font-size="11.00">Moderate listings, reviews,</text>
<text text-anchor="middle" x="295.12" y="-583.2" font-family="Liberation Sans" font-size="11.00">and farm FAQ answers</text>
</g>
<!-- sa&#45;&gt;sa4 -->
<g id="edge4" class="edge">
<title>sa&#45;&gt;sa4</title>
<path fill="none" stroke="#333333" d="M115.24,-635.27C148.46,-627.24 190.64,-617.03 225.7,-608.55"/>
</g>
<!-- sa5 -->
<g id="node9" class="node">
<title>sa5</title>
<ellipse fill="none" stroke="black" stroke-width="1.1" cx="295.12" cy="-811" rx="83" ry="22.76"/>
<text text-anchor="middle" x="295.12" y="-814.2" font-family="Liberation Sans" font-size="11.00">Manage system</text>
<text text-anchor="middle" x="295.12" y="-802.2" font-family="Liberation Sans" font-size="11.00">FAQ answers</text>
</g>
<!-- sa&#45;&gt;sa5 -->
<g id="edge5" class="edge">
<title>sa&#45;&gt;sa5</title>
<path fill="none" stroke="#333333" d="M70.73,-667.06C91.17,-695.83 135.07,-751.87 186,-782 198.04,-789.13 211.86,-794.54 225.51,-798.63"/>
</g>
<!-- sa6 -->
<g id="node10" class="node">
<title>sa6</title>
<ellipse fill="none" stroke="black" stroke-width="1.1" cx="295.12" cy="-649" rx="83" ry="22.76"/>
<text text-anchor="middle" x="295.12" y="-652.2" font-family="Liberation Sans" font-size="11.00">Process account</text>
<text text-anchor="middle" x="295.12" y="-640.2" font-family="Liberation Sans" font-size="11.00">deletion requests</text>
</g>
<!-- sa&#45;&gt;sa6 -->
<g id="edge6" class="edge">
<title>sa&#45;&gt;sa6</title>
<path fill="none" stroke="#333333" d="M115.24,-649C144.24,-649 180.07,-649 212.03,-649"/>
</g>
<!-- sa7 -->
<g id="node11" class="node">
<title>sa7</title>
<ellipse fill="none" stroke="black" stroke-width="1.1" cx="295.12" cy="-535" rx="100.32" ry="22.76"/>
<text text-anchor="middle" x="295.12" y="-538.2" font-family="Liberation Sans" font-size="11.00">View ledger and analytics;</text>
<text text-anchor="middle" x="295.12" y="-526.2" font-family="Liberation Sans" font-size="11.00">export CSV</text>
</g>
<!-- sa&#45;&gt;sa7 -->
<g id="edge7" class="edge">
<title>sa&#45;&gt;sa7</title>
<path fill="none" stroke="#333333" d="M80.15,-630.99C104.48,-611.59 145.84,-581.1 186,-563 196.96,-558.06 208.95,-553.87 220.84,-550.36"/>
</g>
<!-- sa8 -->
<g id="node12" class="node">
<title>sa8</title>
<ellipse fill="none" stroke="black" stroke-width="1.1" cx="295.12" cy="-478" rx="83" ry="22.76"/>
<text text-anchor="middle" x="295.12" y="-481.2" font-family="Liberation Sans" font-size="11.00">Read order chat</text>
<text text-anchor="middle" x="295.12" y="-469.2" font-family="Liberation Sans" font-size="11.00">threads</text>
</g>
<!-- sa&#45;&gt;sa8 -->
<g id="edge8" class="edge">
<title>sa&#45;&gt;sa8</title>
<path fill="none" stroke="#333333" d="M69.41,-630.99C88.88,-600.43 132.63,-538.58 186,-506 197.5,-498.98 210.73,-493.71 223.89,-489.75"/>
</g>
<!-- sa9 -->
<g id="node13" class="node">
<title>sa9</title>
<ellipse fill="none" stroke="black" stroke-width="1.1" cx="295.12" cy="-421" rx="83" ry="22.76"/>
<text text-anchor="middle" x="295.12" y="-424.2" font-family="Liberation Sans" font-size="11.00">Resolve reports on</text>
<text text-anchor="middle" x="295.12" y="-412.2" font-family="Liberation Sans" font-size="11.00">listings and reviews</text>
</g>
<!-- sa&#45;&gt;sa9 -->
<g id="edge9" class="edge">
<title>sa&#45;&gt;sa9</title>
<path fill="none" stroke="#333333" d="M64.79,-630.83C79.44,-591.3 119.71,-497.17 186,-449 196.59,-441.31 209.11,-435.72 221.81,-431.67"/>
</g>
<!-- ce -->
<g id="node2" class="node">
<title>ce</title>
<polygon fill="#e1e6ed" stroke="black" stroke-width="1.4" points="115,-200 0,-200 0,-164 115,-164 115,-200"/>
<text text-anchor="middle" x="57.5" y="-178.6" font-family="Liberation Sans" font-size="13.00">Content Editor</text>
</g>
<!-- ce1 -->
<g id="node14" class="node">
<title>ce1</title>
<ellipse fill="none" stroke="black" stroke-width="1.1" cx="295.12" cy="-342" rx="83" ry="22.76"/>
<text text-anchor="middle" x="295.12" y="-345.2" font-family="Liberation Sans" font-size="11.00">Manage crop&#45;care</text>
<text text-anchor="middle" x="295.12" y="-333.2" font-family="Liberation Sans" font-size="11.00">articles</text>
</g>
<!-- ce&#45;&gt;ce1 -->
<g id="edge10" class="edge">
<title>ce&#45;&gt;ce1</title>
<path fill="none" stroke="#333333" d="M76.68,-200.32C100.34,-223.48 143.69,-263.64 186,-291 205.26,-303.45 228.03,-314.66 247.7,-323.37"/>
</g>
<!-- ce2 -->
<g id="node15" class="node">
<title>ce2</title>
<ellipse fill="none" stroke="black" stroke-width="1.1" cx="295.12" cy="-210" rx="83" ry="22.76"/>
<text text-anchor="middle" x="295.12" y="-213.2" font-family="Liberation Sans" font-size="11.00">Manage farm profile</text>
<text text-anchor="middle" x="295.12" y="-201.2" font-family="Liberation Sans" font-size="11.00">and gallery</text>
</g>
<!-- ce&#45;&gt;ce2 -->
<g id="edge11" class="edge">
<title>ce&#45;&gt;ce2</title>
<path fill="none" stroke="#333333" d="M115.24,-188.74C146.28,-192.43 185.15,-197.05 218.72,-201.04"/>
</g>
<!-- ce3 -->
<g id="node16" class="node">
<title>ce3</title>
<ellipse fill="none" stroke="black" stroke-width="1.1" cx="295.12" cy="-39" rx="83" ry="22.76"/>
<text text-anchor="middle" x="295.12" y="-42.2" font-family="Liberation Sans" font-size="11.00">Post farm</text>
<text text-anchor="middle" x="295.12" y="-30.2" font-family="Liberation Sans" font-size="11.00">announcements</text>
</g>
<!-- ce&#45;&gt;ce3 -->
<g id="edge12" class="edge">
<title>ce&#45;&gt;ce3</title>
<path fill="none" stroke="#333333" d="M73.41,-163.91C95.4,-138.43 139.01,-92.28 186,-67 198.21,-60.43 212.03,-55.35 225.61,-51.43"/>
</g>
<!-- ce4 -->
<g id="node17" class="node">
<title>ce4</title>
<ellipse fill="none" stroke="black" stroke-width="1.1" cx="295.12" cy="-96" rx="83" ry="22.76"/>
<text text-anchor="middle" x="295.12" y="-99.2" font-family="Liberation Sans" font-size="11.00">Manage farm</text>
<text text-anchor="middle" x="295.12" y="-87.2" font-family="Liberation Sans" font-size="11.00">FAQ answers</text>
</g>
<!-- ce&#45;&gt;ce4 -->
<g id="edge13" class="edge">
<title>ce&#45;&gt;ce4</title>
<path fill="none" stroke="#333333" d="M93.81,-163.93C119.03,-151.52 154.02,-135.32 186,-124 200.35,-118.92 216.06,-114.33 230.96,-110.39"/>
</g>
<!-- ce5 -->
<g id="node18" class="node">
<title>ce5</title>
<ellipse fill="none" stroke="black" stroke-width="1.1" cx="295.12" cy="-265" rx="83" ry="20"/>
<text text-anchor="middle" x="295.12" y="-262.2" font-family="Liberation Sans" font-size="11.00">Set farm price guards</text>
</g>
<!-- ce&#45;&gt;ce5 -->
<g id="edge14" class="edge">
<title>ce&#45;&gt;ce5</title>
<path fill="none" stroke="#333333" d="M94.06,-200.03C119.25,-212.27 154.1,-228.14 186,-239 200.53,-243.95 216.46,-248.33 231.52,-252.02"/>
</g>
<!-- ce6 -->
<g id="node19" class="node">
<title>ce6</title>
<ellipse fill="none" stroke="black" stroke-width="1.1" cx="295.12" cy="-153" rx="83" ry="22.76"/>
<text text-anchor="middle" x="295.12" y="-156.2" font-family="Liberation Sans" font-size="11.00">View farm roster</text>
<text text-anchor="middle" x="295.12" y="-144.2" font-family="Liberation Sans" font-size="11.00">and analytics</text>
</g>
<!-- ce&#45;&gt;ce6 -->
<g id="edge15" class="edge">
<title>ce&#45;&gt;ce6</title>
<path fill="none" stroke="#333333" d="M115.24,-175.02C146.42,-171.18 185.49,-166.37 219.16,-162.23"/>
</g>
<!-- fs -->
<g id="node3" class="node">
<title>fs</title>
<polygon fill="#e8e6e0" stroke="black" stroke-width="1.4" points="879.95,-637 764.95,-637 764.95,-601 879.95,-601 879.95,-637"/>
<text text-anchor="middle" x="822.45" y="-615.6" font-family="Liberation Sans" font-size="13.00">Farmer&#45;Seller</text>
</g>
<!-- by -->
<g id="node4" class="node">
<title>by</title>
<polygon fill="#e8e6e0" stroke="black" stroke-width="1.4" points="879.95,-307 764.95,-307 764.95,-271 879.95,-271 879.95,-307"/>
<text text-anchor="middle" x="822.45" y="-285.6" font-family="Liberation Sans" font-size="13.00">Buyer</text>
</g>
<!-- sa1&#45;&gt;sa2 -->
<!-- fs1 -->
<g id="node20" class="node">
<title>fs1</title>
<ellipse fill="none" stroke="black" stroke-width="1.1" cx="580.59" cy="-754" rx="83" ry="22.76"/>
<text text-anchor="middle" x="580.59" y="-757.2" font-family="Liberation Sans" font-size="11.00">Manage listings</text>
<text text-anchor="middle" x="580.59" y="-745.2" font-family="Liberation Sans" font-size="11.00">and tawad</text>
</g>
<!-- sa1&#45;&gt;fs1 -->
<!-- sa2&#45;&gt;sa3 -->
<!-- fs2 -->
<g id="node21" class="node">
<title>fs2</title>
<ellipse fill="none" stroke="black" stroke-width="1.1" cx="580.59" cy="-699" rx="83" ry="20"/>
<text text-anchor="middle" x="580.59" y="-696.2" font-family="Liberation Sans" font-size="11.00">Process orders</text>
</g>
<!-- sa2&#45;&gt;fs2 -->
<!-- sa3&#45;&gt;sa4 -->
<!-- fs3 -->
<g id="node22" class="node">
<title>fs3</title>
<ellipse fill="none" stroke="black" stroke-width="1.1" cx="580.59" cy="-866" rx="83" ry="20"/>
<text text-anchor="middle" x="580.59" y="-863.2" font-family="Liberation Sans" font-size="11.00">Record walk&#45;in sale</text>
</g>
<!-- sa3&#45;&gt;fs3 -->
<!-- sa4&#45;&gt;sa5 -->
<!-- fs4 -->
<g id="node23" class="node">
<title>fs4</title>
<ellipse fill="none" stroke="black" stroke-width="1.1" cx="580.59" cy="-592" rx="83" ry="22.76"/>
<text text-anchor="middle" x="580.59" y="-595.2" font-family="Liberation Sans" font-size="11.00">Read crop&#45;care</text>
<text text-anchor="middle" x="580.59" y="-583.2" font-family="Liberation Sans" font-size="11.00">articles</text>
</g>
<!-- sa4&#45;&gt;fs4 -->
<!-- sa5&#45;&gt;sa6 -->
<!-- fs5 -->
<g id="node24" class="node">
<title>fs5</title>
<ellipse fill="none" stroke="black" stroke-width="1.1" cx="580.59" cy="-811" rx="83" ry="22.76"/>
<text text-anchor="middle" x="580.59" y="-814.2" font-family="Liberation Sans" font-size="11.00">Read farm</text>
<text text-anchor="middle" x="580.59" y="-802.2" font-family="Liberation Sans" font-size="11.00">announcements</text>
</g>
<!-- sa5&#45;&gt;fs5 -->
<!-- sa6&#45;&gt;sa7 -->
<!-- fs6 -->
<g id="node25" class="node">
<title>fs6</title>
<ellipse fill="none" stroke="black" stroke-width="1.1" cx="580.59" cy="-647" rx="83" ry="20"/>
<text text-anchor="middle" x="580.59" y="-644.2" font-family="Liberation Sans" font-size="11.00">View My Sales</text>
</g>
<!-- sa6&#45;&gt;fs6 -->
<!-- sa7&#45;&gt;sa8 -->
<!-- sh1 -->
<g id="node26" class="node">
<title>sh1</title>
<ellipse fill="none" stroke="black" stroke-width="1.1" cx="580.59" cy="-537" rx="83" ry="20"/>
<text text-anchor="middle" x="580.59" y="-534.2" font-family="Liberation Sans" font-size="11.00">Chat about an order</text>
</g>
<!-- sa7&#45;&gt;sh1 -->
<!-- sa8&#45;&gt;sa9 -->
<!-- sh2 -->
<g id="node27" class="node">
<title>sh2</title>
<ellipse fill="none" stroke="black" stroke-width="1.1" cx="580.59" cy="-485" rx="83" ry="20"/>
<text text-anchor="middle" x="580.59" y="-482.2" font-family="Liberation Sans" font-size="11.00">Ask the FAQ helper</text>
</g>
<!-- sa8&#45;&gt;sh2 -->
<!-- sa9&#45;&gt;ce1 -->
<!-- sh3 -->
<g id="node28" class="node">
<title>sh3</title>
<ellipse fill="none" stroke="black" stroke-width="1.1" cx="580.59" cy="-430" rx="105.22" ry="22.76"/>
<text text-anchor="middle" x="580.59" y="-433.2" font-family="Liberation Sans" font-size="11.00">Manage my data (correct,</text>
<text text-anchor="middle" x="580.59" y="-421.2" font-family="Liberation Sans" font-size="11.00">download, request deletion)</text>
</g>
<!-- sa9&#45;&gt;sh3 -->
<!-- ce1&#45;&gt;ce2 -->
<!-- sh4 -->
<g id="node29" class="node">
<title>sh4</title>
<ellipse fill="none" stroke="black" stroke-width="1.1" cx="580.59" cy="-373" rx="83" ry="22.76"/>
<text text-anchor="middle" x="580.59" y="-376.2" font-family="Liberation Sans" font-size="11.00">Report a listing</text>
<text text-anchor="middle" x="580.59" y="-364.2" font-family="Liberation Sans" font-size="11.00">or review</text>
</g>
<!-- ce1&#45;&gt;sh4 -->
<!-- ce2&#45;&gt;ce3 -->
<!-- by1 -->
<g id="node30" class="node">
<title>by1</title>
<ellipse fill="none" stroke="black" stroke-width="1.1" cx="580.59" cy="-206" rx="83" ry="22.76"/>
<text text-anchor="middle" x="580.59" y="-209.2" font-family="Liberation Sans" font-size="11.00">Browse and search</text>
<text text-anchor="middle" x="580.59" y="-197.2" font-family="Liberation Sans" font-size="11.00">listings</text>
</g>
<!-- ce2&#45;&gt;by1 -->
<!-- ce3&#45;&gt;ce4 -->
<!-- by2 -->
<g id="node31" class="node">
<title>by2</title>
<ellipse fill="none" stroke="black" stroke-width="1.1" cx="580.59" cy="-39" rx="83" ry="22.76"/>
<text text-anchor="middle" x="580.59" y="-42.2" font-family="Liberation Sans" font-size="11.00">View storefront</text>
<text text-anchor="middle" x="580.59" y="-30.2" font-family="Liberation Sans" font-size="11.00">and farm page</text>
</g>
<!-- ce3&#45;&gt;by2 -->
<!-- ce4&#45;&gt;ce5 -->
<!-- by3 -->
<g id="node32" class="node">
<title>by3</title>
<ellipse fill="none" stroke="black" stroke-width="1.1" cx="580.59" cy="-96" rx="83" ry="22.76"/>
<text text-anchor="middle" x="580.59" y="-99.2" font-family="Liberation Sans" font-size="11.00">Place and cancel</text>
<text text-anchor="middle" x="580.59" y="-87.2" font-family="Liberation Sans" font-size="11.00">orders</text>
</g>
<!-- ce4&#45;&gt;by3 -->
<!-- ce5&#45;&gt;ce6 -->
<!-- by4 -->
<g id="node33" class="node">
<title>by4</title>
<ellipse fill="none" stroke="black" stroke-width="1.1" cx="580.59" cy="-261" rx="83" ry="20"/>
<text text-anchor="middle" x="580.59" y="-258.2" font-family="Liberation Sans" font-size="11.00">Choose fulfillment</text>
</g>
<!-- ce5&#45;&gt;by4 -->
<!-- by5 -->
<g id="node34" class="node">
<title>by5</title>
<ellipse fill="none" stroke="black" stroke-width="1.1" cx="580.59" cy="-151" rx="83" ry="20"/>
<text text-anchor="middle" x="580.59" y="-148.2" font-family="Liberation Sans" font-size="11.00">Leave review</text>
</g>
<!-- ce6&#45;&gt;by5 -->
<!-- fs1&#45;&gt;fs -->
<g id="edge16" class="edge">
<title>fs1&#45;&gt;fs</title>
<path fill="none" stroke="#333333" d="M649.91,-741.5C664.88,-737.37 680.32,-731.98 693.95,-725 738.79,-702.05 781.91,-660.94 804.7,-637.23"/>
</g>
<!-- fs1&#45;&gt;fs2 -->
<!-- fs2&#45;&gt;fs -->
<g id="edge17" class="edge">
<title>fs2&#45;&gt;fs</title>
<path fill="none" stroke="#333333" d="M645.11,-686.32C661.2,-682.56 678.33,-678.07 693.95,-673 724.82,-662.98 758.58,-648.51 783.61,-637.07"/>
</g>
<!-- fs2&#45;&gt;fs3 -->
<!-- fs3&#45;&gt;fs -->
<g id="edge18" class="edge">
<title>fs3&#45;&gt;fs</title>
<path fill="none" stroke="#333333" d="M656.38,-857.72C669.76,-853.82 682.93,-848.16 693.95,-840 765.85,-786.75 803.67,-679.94 816.42,-637.24"/>
</g>
<!-- fs3&#45;&gt;fs4 -->
<!-- fs4&#45;&gt;fs -->
<g id="edge19" class="edge">
<title>fs4&#45;&gt;fs</title>
<path fill="none" stroke="#333333" d="M657.48,-600.54C692.21,-604.45 732.65,-609 764.68,-612.61"/>
</g>
<!-- fs4&#45;&gt;fs5 -->
<!-- fs5&#45;&gt;fs -->
<g id="edge20" class="edge">
<title>fs5&#45;&gt;fs</title>
<path fill="none" stroke="#333333" d="M654.08,-800.47C668.02,-796.41 681.99,-790.79 693.95,-783 752.28,-745.02 795.13,-671.1 812.68,-637.01"/>
</g>
<!-- fs5&#45;&gt;fs6 -->
<!-- fs6&#45;&gt;fs -->
<g id="edge21" class="edge">
<title>fs6&#45;&gt;fs</title>
<path fill="none" stroke="#333333" d="M655.51,-638.37C690.75,-634.26 732.24,-629.41 764.91,-625.6"/>
</g>
<!-- fs6&#45;&gt;sh1 -->
<!-- sh1&#45;&gt;fs -->
<g id="edge22" class="edge">
<title>sh1&#45;&gt;fs</title>
<path fill="none" stroke="#333333" d="M645.45,-549.6C661.45,-553.35 678.46,-557.86 693.95,-563 725.61,-573.51 760.19,-588.97 785.34,-600.98"/>
</g>
<!-- sh1&#45;&gt;by -->
<g id="edge26" class="edge">
<title>sh1&#45;&gt;by</title>
<path fill="none" stroke="#333333" d="M656.4,-528.74C669.77,-524.83 682.94,-519.17 693.95,-511 766.23,-457.36 803.94,-349.68 816.54,-307.01"/>
</g>
<!-- sh1&#45;&gt;sh2 -->
<!-- sh2&#45;&gt;fs -->
<g id="edge23" class="edge">
<title>sh2&#45;&gt;fs</title>
<path fill="none" stroke="#333333" d="M651.13,-495.66C665.73,-499.38 680.71,-504.35 693.95,-511 739.58,-533.9 782.73,-576.36 805.25,-600.66"/>
</g>
<!-- sh2&#45;&gt;by -->
<g id="edge27" class="edge">
<title>sh2&#45;&gt;by</title>
<path fill="none" stroke="#333333" d="M654.74,-475.88C668.48,-472.06 682.21,-466.65 693.95,-459 753.92,-419.94 796.22,-342.45 813.19,-307.21"/>
</g>
<!-- sh2&#45;&gt;sh3 -->
<!-- sh3&#45;&gt;fs -->
<g id="edge24" class="edge">
<title>sh3&#45;&gt;fs</title>
<path fill="none" stroke="#333333" d="M662.84,-444.2C673.78,-448.02 684.48,-452.86 693.95,-459 751.17,-496.1 794.28,-567.55 812.26,-600.96"/>
</g>
<!-- sh3&#45;&gt;by -->
<g id="edge28" class="edge">
<title>sh3&#45;&gt;by</title>
<path fill="none" stroke="#333333" d="M661.04,-415.32C672.42,-411.77 683.72,-407.39 693.95,-402 740.53,-377.47 783.98,-332.42 806.13,-307.25"/>
</g>
<!-- sh3&#45;&gt;sh4 -->
<!-- sh4&#45;&gt;fs -->
<g id="edge25" class="edge">
<title>sh4&#45;&gt;fs</title>
<path fill="none" stroke="#333333" d="M655.8,-382.59C669.38,-386.73 682.77,-392.62 693.95,-401 764.66,-453.97 803.05,-558.61 816.19,-600.77"/>
</g>
<!-- sh4&#45;&gt;by -->
<g id="edge29" class="edge">
<title>sh4&#45;&gt;by</title>
<path fill="none" stroke="#333333" d="M646.01,-358.94C661.84,-354.94 678.64,-350.23 693.95,-345 725.3,-334.3 759.61,-319.01 784.73,-307.11"/>
</g>
<!-- sh4&#45;&gt;by1 -->
<!-- by1&#45;&gt;by -->
<g id="edge30" class="edge">
<title>by1&#45;&gt;by</title>
<path fill="none" stroke="#333333" d="M644.48,-220.48C660.73,-224.7 678.11,-229.64 693.95,-235 724.46,-245.33 757.96,-259.65 782.97,-270.94"/>
</g>
<!-- by1&#45;&gt;by2 -->
<!-- by2&#45;&gt;by -->
<g id="edge31" class="edge">
<title>by2&#45;&gt;by</title>
<path fill="none" stroke="#333333" d="M656.14,-48.61C669.62,-52.75 682.88,-58.64 693.95,-67 765.59,-121.11 803.56,-228.05 816.39,-270.76"/>
</g>
<!-- by2&#45;&gt;by3 -->
<!-- by3&#45;&gt;by -->
<g id="edge32" class="edge">
<title>by3&#45;&gt;by</title>
<path fill="none" stroke="#333333" d="M653.2,-106.98C667.44,-111.18 681.74,-116.98 693.95,-125 751.97,-163.12 794.83,-236.64 812.52,-270.77"/>
</g>
<!-- by3&#45;&gt;by4 -->
<!-- by4&#45;&gt;by -->
<g id="edge33" class="edge">
<title>by4&#45;&gt;by</title>
<path fill="none" stroke="#333333" d="M655.51,-269.63C690.75,-273.74 732.24,-278.59 764.91,-282.4"/>
</g>
<!-- by4&#45;&gt;by5 -->
<!-- by5&#45;&gt;by -->
<g id="edge34" class="edge">
<title>by5&#45;&gt;by</title>
<path fill="none" stroke="#333333" d="M651.52,-161.56C666.02,-165.28 680.86,-170.28 693.95,-177 740.61,-200.94 784.02,-245.74 806.15,-270.81"/>
</g>
<!-- by6 -->
<g id="node35" class="node">
<title>by6</title>
<ellipse fill="none" stroke="black" stroke-width="1.1" cx="580.59" cy="-316" rx="83" ry="22.76"/>
<text text-anchor="middle" x="580.59" y="-319.2" font-family="Liberation Sans" font-size="11.00">Save favorite listings</text>
<text text-anchor="middle" x="580.59" y="-307.2" font-family="Liberation Sans" font-size="11.00">and shops</text>
</g>
<!-- by5&#45;&gt;by6 -->
<!-- by6&#45;&gt;by -->
<g id="edge35" class="edge">
<title>by6&#45;&gt;by</title>
<path fill="none" stroke="#333333" d="M657.48,-307.46C692.21,-303.55 732.65,-299 764.68,-295.39"/>
</g>
</g>
</svg>
