<?xml version="1.0" encoding="UTF-8" standalone="no"?>
<!DOCTYPE svg PUBLIC "-//W3C//DTD SVG 1.1//EN"
 "http://www.w3.org/Graphics/SVG/1.1/DTD/svg11.dtd">
<!-- Generated by graphviz version 2.43.0 (0)
 -->
<!-- Title: G Pages: 1 -->
<svg width="1009pt" height="1507pt"
 viewBox="0.00 0.00 1008.80 1506.80" xmlns="http://www.w3.org/2000/svg" xmlns:xlink="http://www.w3.org/1999/xlink">
<g id="graph0" class="graph" transform="scale(1 1) rotate(0) translate(14.4 1492.4)">
<title>G</title>
<polygon fill="white" stroke="transparent" points="-14.4,14.4 -14.4,-1492.4 994.4,-1492.4 994.4,14.4 -14.4,14.4"/>
<!-- s -->
<g id="node1" class="node">
<title>s</title>
<path fill="#e1e6ed" stroke="black" stroke-width="1.3" d="M179.5,-1478C179.5,-1478 149.5,-1478 149.5,-1478 143.5,-1478 137.5,-1472 137.5,-1466 137.5,-1466 137.5,-1454 137.5,-1454 137.5,-1448 143.5,-1442 149.5,-1442 149.5,-1442 179.5,-1442 179.5,-1442 185.5,-1442 191.5,-1448 191.5,-1454 191.5,-1454 191.5,-1466 191.5,-1466 191.5,-1472 185.5,-1478 179.5,-1478"/>
<text text-anchor="middle" x="164.5" y="-1456.3" font-family="Liberation Sans" font-size="14.00">Start</text>
</g>
<!-- li -->
<g id="node2" class="node">
<title>li</title>
<polygon fill="#f2f2f2" stroke="black" stroke-width="1.3" points="244.16,-1401 117.44,-1401 84.84,-1329 211.56,-1329 244.16,-1401"/>
<text text-anchor="middle" x="164.5" y="-1368.8" font-family="Liberation Sans" font-size="14.00">Log in to the</text>
<text text-anchor="middle" x="164.5" y="-1353.8" font-family="Liberation Sans" font-size="14.00">CMS</text>
</g>
<!-- s&#45;&gt;li -->
<g id="edge1" class="edge">
<title>s&#45;&gt;li</title>
<path fill="none" stroke="#333333" stroke-width="1.1" d="M164.5,-1441.94C164.5,-1432.48 164.5,-1420.24 164.5,-1408.37"/>
<polygon fill="#333333" stroke="#333333" stroke-width="1.1" points="166.95,-1408.06 164.5,-1401.06 162.05,-1408.06 166.95,-1408.06"/>
</g>
<!-- ok -->
<g id="node3" class="node">
<title>ok</title>
<polygon fill="#f4f4f4" stroke="black" stroke-width="1.3" points="164.5,-1288 41.5,-1256 164.5,-1224 287.5,-1256 164.5,-1288"/>
<text text-anchor="middle" x="164.5" y="-1259.8" font-family="Liberation Sans" font-size="14.00">Credentials valid</text>
<text text-anchor="middle" x="164.5" y="-1244.8" font-family="Liberation Sans" font-size="14.00">and account active?</text>
</g>
<!-- li&#45;&gt;ok -->
<g id="edge2" class="edge">
<title>li&#45;&gt;ok</title>
<path fill="none" stroke="#333333" stroke-width="1.1" d="M164.5,-1328.96C164.5,-1318.16 164.5,-1306.22 164.5,-1295.22"/>
<polygon fill="#333333" stroke="#333333" stroke-width="1.1" points="166.95,-1295.15 164.5,-1288.15 162.05,-1295.15 166.95,-1295.15"/>
</g>
<!-- err -->
<g id="node4" class="node">
<title>err</title>
<polygon fill="#ffffff" stroke="black" stroke-width="1.3" points="495.5,-1274 351.5,-1274 351.5,-1238 495.5,-1238 495.5,-1274"/>
<text text-anchor="middle" x="423.5" y="-1252.3" font-family="Liberation Sans" font-size="14.00">Show error message</text>
</g>
<!-- ok&#45;&gt;err -->
<g id="edge3" class="edge">
<title>ok&#45;&gt;err</title>
<path fill="none" stroke="#333333" stroke-width="1.1" d="M287.55,-1256C306.8,-1256 326.23,-1256 344.15,-1256"/>
<polygon fill="#333333" stroke="#333333" stroke-width="1.1" points="344.2,-1258.45 351.2,-1256 344.2,-1253.55 344.2,-1258.45"/>
<text text-anchor="middle" x="319.5" y="-1262.4" font-family="Liberation Sans" font-size="12.00">No</text>
</g>
<!-- home -->
<g id="node6" class="node">
<title>home</title>
<polygon fill="#ffffff" stroke="black" stroke-width="1.3" points="240,-1171 89,-1171 89,-1133 240,-1133 240,-1171"/>
<text text-anchor="middle" x="164.5" y="-1155.8" font-family="Liberation Sans" font-size="14.00">Content Editor</text>
<text text-anchor="middle" x="164.5" y="-1140.8" font-family="Liberation Sans" font-size="14.00">dashboard (own farm)</text>
</g>
<!-- ok&#45;&gt;home -->
<g id="edge5" class="edge">
<title>ok&#45;&gt;home</title>
<path fill="none" stroke="#333333" stroke-width="1.1" d="M164.5,-1223.84C164.5,-1209.31 164.5,-1192.23 164.5,-1178.48"/>
<polygon fill="#333333" stroke="#333333" stroke-width="1.1" points="166.95,-1178.22 164.5,-1171.22 162.05,-1178.22 166.95,-1178.22"/>
<text text-anchor="middle" x="174.5" y="-1194.4" font-family="Liberation Sans" font-size="12.00">Yes</text>
</g>
<!-- err&#45;&gt;li -->
<g id="edge4" class="edge">
<title>err&#45;&gt;li</title>
<path fill="none" stroke="#333333" stroke-width="1.1" d="M382.03,-1274.13C339.39,-1291.75 272.57,-1319.35 224.23,-1339.32"/>
<polygon fill="#333333" stroke="#333333" stroke-width="1.1" points="223.07,-1337.15 217.54,-1342.09 224.94,-1341.68 223.07,-1337.15"/>
</g>
<!-- ain -->
<g id="node5" class="node">
<title>ain</title>
<ellipse fill="#e8e6e0" stroke="black" stroke-width="1.3" cx="12.5" cy="-1152" rx="12.5" ry="12.5"/>
<text text-anchor="middle" x="12.5" y="-1148.3" font-family="Liberation Sans" font-size="14.00">R</text>
</g>
<!-- ain&#45;&gt;home -->
<g id="edge6" class="edge">
<title>ain&#45;&gt;home</title>
<path fill="none" stroke="#333333" stroke-width="1.1" d="M25.02,-1152C40.03,-1152 63.17,-1152 63.17,-1152 63.17,-1152 71.66,-1152 81.69,-1152"/>
<polygon fill="#333333" stroke="#333333" stroke-width="1.1" points="81.8,-1154.45 88.8,-1152 81.8,-1149.55 81.8,-1154.45"/>
</g>
<!-- q0 -->
<g id="node9" class="node">
<title>q0</title>
<polygon fill="#f4f4f4" stroke="black" stroke-width="1.3" points="164.5,-1088 107.5,-1056 164.5,-1024 221.5,-1056 164.5,-1088"/>
<text text-anchor="middle" x="164.5" y="-1059.8" font-family="Liberation Sans" font-size="14.00">Edit farm</text>
<text text-anchor="middle" x="164.5" y="-1044.8" font-family="Liberation Sans" font-size="14.00">profile?</text>
</g>
<!-- home&#45;&gt;q0 -->
<g id="edge7" class="edge">
<title>home&#45;&gt;q0</title>
<path fill="none" stroke="#333333" stroke-width="1.1" d="M164.5,-1132.88C164.5,-1122.16 164.5,-1108.18 164.5,-1095.14"/>
<polygon fill="#333333" stroke="#333333" stroke-width="1.1" points="166.95,-1095.02 164.5,-1088.02 162.05,-1095.02 166.95,-1095.02"/>
</g>
<!-- lo -->
<g id="node7" class="node">
<title>lo</title>
<polygon fill="#ffffff" stroke="black" stroke-width="1.3" points="196.5,-113 132.5,-113 132.5,-77 196.5,-77 196.5,-113"/>
<text text-anchor="middle" x="164.5" y="-91.3" font-family="Liberation Sans" font-size="14.00">Log out</text>
</g>
<!-- end -->
<g id="node8" class="node">
<title>end</title>
<path fill="#e1e6ed" stroke="black" stroke-width="1.3" d="M179.5,-36C179.5,-36 149.5,-36 149.5,-36 143.5,-36 137.5,-30 137.5,-24 137.5,-24 137.5,-12 137.5,-12 137.5,-6 143.5,0 149.5,0 149.5,0 179.5,0 179.5,0 185.5,0 191.5,-6 191.5,-12 191.5,-12 191.5,-24 191.5,-24 191.5,-30 185.5,-36 179.5,-36"/>
<text text-anchor="middle" x="164.5" y="-14.3" font-family="Liberation Sans" font-size="14.00">End</text>
</g>
<!-- lo&#45;&gt;end -->
<g id="edge40" class="edge">
<title>lo&#45;&gt;end</title>
<path fill="none" stroke="#333333" stroke-width="1.1" d="M164.5,-76.98C164.5,-67.08 164.5,-54.43 164.5,-43.47"/>
<polygon fill="#333333" stroke="#333333" stroke-width="1.1" points="166.95,-43.21 164.5,-36.21 162.05,-43.21 166.95,-43.21"/>
</g>
<!-- s0_0 -->
<g id="node10" class="node">
<title>s0_0</title>
<polygon fill="#f2f2f2" stroke="black" stroke-width="1.3" points="519.81,-1092 333.2,-1092 285.19,-1020 471.8,-1020 519.81,-1092"/>
<text text-anchor="middle" x="402.5" y="-1059.8" font-family="Liberation Sans" font-size="14.00">Edit profile, pickup</text>
<text text-anchor="middle" x="402.5" y="-1044.8" font-family="Liberation Sans" font-size="14.00">point, and photos</text>
</g>
<!-- q0&#45;&gt;s0_0 -->
<g id="edge8" class="edge">
<title>q0&#45;&gt;s0_0</title>
<path fill="none" stroke="#333333" stroke-width="1.1" d="M221.51,-1056C245.49,-1056 274.14,-1056 301.49,-1056"/>
<polygon fill="#333333" stroke="#333333" stroke-width="1.1" points="301.79,-1058.45 308.79,-1056 301.79,-1053.55 301.79,-1058.45"/>
<text text-anchor="middle" x="253.42" y="-1062.4" font-family="Liberation Sans" font-size="12.00">Yes</text>
</g>
<!-- q1 -->
<g id="node13" class="node">
<title>q1</title>
<polygon fill="#f4f4f4" stroke="black" stroke-width="1.3" points="164.5,-963 111.5,-931 164.5,-899 217.5,-931 164.5,-963"/>
<text text-anchor="middle" x="164.5" y="-934.8" font-family="Liberation Sans" font-size="14.00">Write an</text>
<text text-anchor="middle" x="164.5" y="-919.8" font-family="Liberation Sans" font-size="14.00">article?</text>
</g>
<!-- q0&#45;&gt;q1 -->
<g id="edge11" class="edge">
<title>q0&#45;&gt;q1</title>
<path fill="none" stroke="#333333" stroke-width="1.1" d="M164.5,-1023.96C164.5,-1007.65 164.5,-987.51 164.5,-970.23"/>
<polygon fill="#333333" stroke="#333333" stroke-width="1.1" points="166.95,-970.03 164.5,-963.03 162.05,-970.03 166.95,-970.03"/>
<text text-anchor="middle" x="172.5" y="-990.4" font-family="Liberation Sans" font-size="12.00">No</text>
</g>
<!-- s0_1 -->
<g id="node11" class="node">
<title>s0_1</title>
<polygon fill="#ffffff" stroke="black" stroke-width="1.3" points="655.5,-1075 583.5,-1075 583.5,-1037 655.5,-1037 655.5,-1075"/>
<text text-anchor="middle" x="619.5" y="-1059.8" font-family="Liberation Sans" font-size="14.00">Save the</text>
<text text-anchor="middle" x="619.5" y="-1044.8" font-family="Liberation Sans" font-size="14.00">profile</text>
</g>
<!-- s0_0&#45;&gt;s0_1 -->
<g id="edge9" class="edge">
<title>s0_0&#45;&gt;s0_1</title>
<path fill="none" stroke="#333333" stroke-width="1.1" d="M496.14,-1056C517.48,-1056 547.17,-1056 547.17,-1056 547.17,-1056 560.77,-1056 576.17,-1056"/>
<polygon fill="#333333" stroke="#333333" stroke-width="1.1" points="576.33,-1058.45 583.33,-1056 576.33,-1053.55 576.33,-1058.45"/>
</g>
<!-- r0 -->
<g id="node12" class="node">
<title>r0</title>
<ellipse fill="#e8e6e0" stroke="black" stroke-width="1.3" cx="731.5" cy="-1056" rx="12.5" ry="12.5"/>
<text text-anchor="middle" x="731.5" y="-1052.3" font-family="Liberation Sans" font-size="14.00">R</text>
</g>
<!-- s0_1&#45;&gt;r0 -->
<g id="edge10" class="edge">
<title>s0_1&#45;&gt;r0</title>
<path fill="none" stroke="#333333" stroke-width="1.1" d="M655.59,-1056C656.39,-1056 656.83,-1056 656.83,-1056 656.83,-1056 694.17,-1056 694.17,-1056 694.17,-1056 702.8,-1056 711.76,-1056"/>
<polygon fill="#333333" stroke="#333333" stroke-width="1.1" points="711.86,-1058.45 718.86,-1056 711.86,-1053.55 711.86,-1058.45"/>
</g>
<!-- s1_0 -->
<g id="node14" class="node">
<title>s1_0</title>
<polygon fill="#f2f2f2" stroke="black" stroke-width="1.3" points="453.6,-967 316.63,-967 281.4,-895 418.37,-895 453.6,-967"/>
<text text-anchor="middle" x="367.5" y="-934.8" font-family="Liberation Sans" font-size="14.00">Write and tag</text>
<text text-anchor="middle" x="367.5" y="-919.8" font-family="Liberation Sans" font-size="14.00">the article</text>
</g>
<!-- q1&#45;&gt;s1_0 -->
<g id="edge12" class="edge">
<title>q1&#45;&gt;s1_0</title>
<path fill="none" stroke="#333333" stroke-width="1.1" d="M217.57,-931C240.13,-931 266.86,-931 291.46,-931"/>
<polygon fill="#333333" stroke="#333333" stroke-width="1.1" points="291.67,-933.45 298.67,-931 291.67,-928.55 291.67,-933.45"/>
<text text-anchor="middle" x="249.47" y="-937.4" font-family="Liberation Sans" font-size="12.00">Yes</text>
</g>
<!-- q2 -->
<g id="node20" class="node">
<title>q2</title>
<polygon fill="#f4f4f4" stroke="black" stroke-width="1.3" points="164.5,-759 64.5,-727 164.5,-695 264.5,-727 164.5,-759"/>
<text text-anchor="middle" x="164.5" y="-730.8" font-family="Liberation Sans" font-size="14.00">Post an</text>
<text text-anchor="middle" x="164.5" y="-715.8" font-family="Liberation Sans" font-size="14.00">announcement?</text>
</g>
<!-- q1&#45;&gt;q2 -->
<g id="edge18" class="edge">
<title>q1&#45;&gt;q2</title>
<path fill="none" stroke="#333333" stroke-width="1.1" d="M164.5,-898.88C164.5,-863.29 164.5,-805 164.5,-766.57"/>
<polygon fill="#333333" stroke="#333333" stroke-width="1.1" points="166.95,-766.16 164.5,-759.16 162.05,-766.16 166.95,-766.16"/>
<text text-anchor="middle" x="172.5" y="-819.9" font-family="Liberation Sans" font-size="12.00">No</text>
</g>
<!-- s1_1 -->
<g id="node15" class="node">
<title>s1_1</title>
<polygon fill="#f4f4f4" stroke="black" stroke-width="1.3" points="564.5,-963 517.5,-931 564.5,-899 611.5,-931 564.5,-963"/>
<text text-anchor="middle" x="564.5" y="-934.8" font-family="Liberation Sans" font-size="14.00">Publish</text>
<text text-anchor="middle" x="564.5" y="-919.8" font-family="Liberation Sans" font-size="14.00">now?</text>
</g>
<!-- s1_0&#45;&gt;s1_1 -->
<g id="edge13" class="edge">
<title>s1_0&#45;&gt;s1_1</title>
<path fill="none" stroke="#333333" stroke-width="1.1" d="M435.99,-931C448.56,-931 498.83,-931 498.83,-931 498.83,-931 503.4,-931 510.12,-931"/>
<polygon fill="#333333" stroke="#333333" stroke-width="1.1" points="510.48,-933.45 517.48,-931 510.48,-928.55 510.48,-933.45"/>
</g>
<!-- a1_1 -->
<g id="node16" class="node">
<title>a1_1</title>
<polygon fill="#ffffff" stroke="black" stroke-width="1.3" points="598.5,-842 530.5,-842 530.5,-804 598.5,-804 598.5,-842"/>
<text text-anchor="middle" x="564.5" y="-826.8" font-family="Liberation Sans" font-size="14.00">Keep as</text>
<text text-anchor="middle" x="564.5" y="-811.8" font-family="Liberation Sans" font-size="14.00">draft</text>
</g>
<!-- s1_1&#45;&gt;a1_1 -->
<g id="edge14" class="edge">
<title>s1_1&#45;&gt;a1_1</title>
<path fill="none" stroke="#333333" stroke-width="1.1" d="M564.5,-898.77C564.5,-883.06 564.5,-864.27 564.5,-849.46"/>
<polygon fill="#333333" stroke="#333333" stroke-width="1.1" points="566.95,-849.11 564.5,-842.11 562.05,-849.11 566.95,-849.11"/>
<text text-anchor="middle" x="572.5" y="-865.4" font-family="Liberation Sans" font-size="12.00">No</text>
</g>
<!-- s1_2 -->
<g id="node18" class="node">
<title>s1_2</title>
<polygon fill="#ffffff" stroke="black" stroke-width="1.3" points="777.5,-950 675.5,-950 675.5,-912 777.5,-912 777.5,-950"/>
<text text-anchor="middle" x="726.5" y="-934.8" font-family="Liberation Sans" font-size="14.00">Visible to all</text>
<text text-anchor="middle" x="726.5" y="-919.8" font-family="Liberation Sans" font-size="14.00">farmer&#45;sellers</text>
</g>
<!-- s1_1&#45;&gt;s1_2 -->
<g id="edge16" class="edge">
<title>s1_1&#45;&gt;s1_2</title>
<path fill="none" stroke="#333333" stroke-width="1.1" d="M611.79,-931C629.44,-931 649.68,-931 668.2,-931"/>
<polygon fill="#333333" stroke="#333333" stroke-width="1.1" points="668.47,-933.45 675.47,-931 668.47,-928.55 668.47,-933.45"/>
<text text-anchor="middle" x="643.5" y="-937.4" font-family="Liberation Sans" font-size="12.00">Yes</text>
</g>
<!-- xa1_1 -->
<g id="node17" class="node">
<title>xa1_1</title>
<ellipse fill="#e8e6e0" stroke="black" stroke-width="1.3" cx="674.5" cy="-823" rx="12.5" ry="12.5"/>
<text text-anchor="middle" x="674.5" y="-819.3" font-family="Liberation Sans" font-size="14.00">R</text>
</g>
<!-- a1_1&#45;&gt;xa1_1 -->
<g id="edge15" class="edge">
<title>a1_1&#45;&gt;xa1_1</title>
<path fill="none" stroke="#333333" stroke-width="1.1" d="M598.76,-823C600.27,-823 601.17,-823 601.17,-823 601.17,-823 637.83,-823 637.83,-823 637.83,-823 645.93,-823 654.52,-823"/>
<polygon fill="#333333" stroke="#333333" stroke-width="1.1" points="654.68,-825.45 661.68,-823 654.68,-820.55 654.68,-825.45"/>
</g>
<!-- r1 -->
<g id="node19" class="node">
<title>r1</title>
<ellipse fill="#e8e6e0" stroke="black" stroke-width="1.3" cx="853.5" cy="-931" rx="12.5" ry="12.5"/>
<text text-anchor="middle" x="853.5" y="-927.3" font-family="Liberation Sans" font-size="14.00">R</text>
</g>
<!-- s1_2&#45;&gt;r1 -->
<g id="edge17" class="edge">
<title>s1_2&#45;&gt;r1</title>
<path fill="none" stroke="#333333" stroke-width="1.1" d="M777.81,-931C790.24,-931 811.17,-931 811.17,-931 811.17,-931 822.57,-931 833.55,-931"/>
<polygon fill="#333333" stroke="#333333" stroke-width="1.1" points="833.57,-933.45 840.57,-931 833.57,-928.55 833.57,-933.45"/>
</g>
<!-- s2_0 -->
<g id="node21" class="node">
<title>s2_0</title>
<polygon fill="#f2f2f2" stroke="black" stroke-width="1.3" points="504.75,-763 364.37,-763 328.25,-691 468.63,-691 504.75,-763"/>
<text text-anchor="middle" x="416.5" y="-730.8" font-family="Liberation Sans" font-size="14.00">Set audience,</text>
<text text-anchor="middle" x="416.5" y="-715.8" font-family="Liberation Sans" font-size="14.00">schedule, pin</text>
</g>
<!-- q2&#45;&gt;s2_0 -->
<g id="edge19" class="edge">
<title>q2&#45;&gt;s2_0</title>
<path fill="none" stroke="#333333" stroke-width="1.1" d="M264.82,-727C289.45,-727 315.45,-727 338.83,-727"/>
<polygon fill="#333333" stroke="#333333" stroke-width="1.1" points="338.99,-729.45 345.99,-727 338.99,-724.55 338.99,-729.45"/>
<text text-anchor="middle" x="296.44" y="-733.4" font-family="Liberation Sans" font-size="12.00">Yes</text>
</g>
<!-- q3 -->
<g id="node27" class="node">
<title>q3</title>
<polygon fill="#f4f4f4" stroke="black" stroke-width="1.3" points="164.5,-555 104.5,-523 164.5,-491 224.5,-523 164.5,-555"/>
<text text-anchor="middle" x="164.5" y="-526.8" font-family="Liberation Sans" font-size="14.00">Edit farm</text>
<text text-anchor="middle" x="164.5" y="-511.8" font-family="Liberation Sans" font-size="14.00">answers?</text>
</g>
<!-- q2&#45;&gt;q3 -->
<g id="edge25" class="edge">
<title>q2&#45;&gt;q3</title>
<path fill="none" stroke="#333333" stroke-width="1.1" d="M164.5,-694.88C164.5,-659.29 164.5,-601 164.5,-562.57"/>
<polygon fill="#333333" stroke="#333333" stroke-width="1.1" points="166.95,-562.16 164.5,-555.16 162.05,-562.16 166.95,-562.16"/>
<text text-anchor="middle" x="172.5" y="-615.9" font-family="Liberation Sans" font-size="12.00">No</text>
</g>
<!-- s2_1 -->
<g id="node22" class="node">
<title>s2_1</title>
<polygon fill="#f4f4f4" stroke="black" stroke-width="1.3" points="606.5,-759 568.5,-727 606.5,-695 644.5,-727 606.5,-759"/>
<text text-anchor="middle" x="606.5" y="-730.8" font-family="Liberation Sans" font-size="14.00">Starts</text>
<text text-anchor="middle" x="606.5" y="-715.8" font-family="Liberation Sans" font-size="14.00">now?</text>
</g>
<!-- s2_0&#45;&gt;s2_1 -->
<g id="edge20" class="edge">
<title>s2_0&#45;&gt;s2_1</title>
<path fill="none" stroke="#333333" stroke-width="1.1" d="M487.1,-727C503.73,-727 543.17,-727 543.17,-727 543.17,-727 550.89,-727 560.93,-727"/>
<polygon fill="#333333" stroke="#333333" stroke-width="1.1" points="561.2,-729.45 568.2,-727 561.2,-724.55 561.2,-729.45"/>
</g>
<!-- a2_1 -->
<g id="node23" class="node">
<title>a2_1</title>
<polygon fill="#ffffff" stroke="black" stroke-width="1.3" points="669.5,-638 543.5,-638 543.5,-600 669.5,-600 669.5,-638"/>
<text text-anchor="middle" x="606.5" y="-622.8" font-family="Liberation Sans" font-size="14.00">Scheduler notifies</text>
<text text-anchor="middle" x="606.5" y="-607.8" font-family="Liberation Sans" font-size="14.00">at start time</text>
</g>
<!-- s2_1&#45;&gt;a2_1 -->
<g id="edge21" class="edge">
<title>s2_1&#45;&gt;a2_1</title>
<path fill="none" stroke="#333333" stroke-width="1.1" d="M606.5,-694.77C606.5,-679.06 606.5,-660.27 606.5,-645.46"/>
<polygon fill="#333333" stroke="#333333" stroke-width="1.1" points="608.95,-645.11 606.5,-638.11 604.05,-645.11 608.95,-645.11"/>
<text text-anchor="middle" x="614.5" y="-661.4" font-family="Liberation Sans" font-size="12.00">No</text>
</g>
<!-- s2_2 -->
<g id="node25" class="node">
<title>s2_2</title>
<polygon fill="#ffffff" stroke="black" stroke-width="1.3" points="807,-746 708,-746 708,-708 807,-708 807,-746"/>
<text text-anchor="middle" x="757.5" y="-730.8" font-family="Liberation Sans" font-size="14.00">Notify own</text>
<text text-anchor="middle" x="757.5" y="-715.8" font-family="Liberation Sans" font-size="14.00">farm’s sellers</text>
</g>
<!-- s2_1&#45;&gt;s2_2 -->
<g id="edge23" class="edge">
<title>s2_1&#45;&gt;s2_2</title>
<path fill="none" stroke="#333333" stroke-width="1.1" d="M644.6,-727C661.57,-727 681.91,-727 700.62,-727"/>
<polygon fill="#333333" stroke="#333333" stroke-width="1.1" points="700.98,-729.45 707.98,-727 700.98,-724.55 700.98,-729.45"/>
<text text-anchor="middle" x="676.25" y="-733.4" font-family="Liberation Sans" font-size="12.00">Yes</text>
</g>
<!-- xa2_1 -->
<g id="node24" class="node">
<title>xa2_1</title>
<ellipse fill="#e8e6e0" stroke="black" stroke-width="1.3" cx="745.5" cy="-619" rx="12.5" ry="12.5"/>
<text text-anchor="middle" x="745.5" y="-615.3" font-family="Liberation Sans" font-size="14.00">R</text>
</g>
<!-- a2_1&#45;&gt;xa2_1 -->
<g id="edge22" class="edge">
<title>a2_1&#45;&gt;xa2_1</title>
<path fill="none" stroke="#333333" stroke-width="1.1" d="M669.56,-619C682.83,-619 699.17,-619 699.17,-619 699.17,-619 713.11,-619 725.7,-619"/>
<polygon fill="#333333" stroke="#333333" stroke-width="1.1" points="725.84,-621.45 732.84,-619 725.84,-616.55 725.84,-621.45"/>
</g>
<!-- r2 -->
<g id="node26" class="node">
<title>r2</title>
<ellipse fill="#e8e6e0" stroke="black" stroke-width="1.3" cx="883.5" cy="-727" rx="12.5" ry="12.5"/>
<text text-anchor="middle" x="883.5" y="-723.3" font-family="Liberation Sans" font-size="14.00">R</text>
</g>
<!-- s2_2&#45;&gt;r2 -->
<g id="edge24" class="edge">
<title>s2_2&#45;&gt;r2</title>
<path fill="none" stroke="#333333" stroke-width="1.1" d="M807.2,-727C819.33,-727 841.5,-727 841.5,-727 841.5,-727 852.6,-727 863.39,-727"/>
<polygon fill="#333333" stroke="#333333" stroke-width="1.1" points="863.67,-729.45 870.67,-727 863.67,-724.55 863.67,-729.45"/>
</g>
<!-- s3_0 -->
<g id="node28" class="node">
<title>s3_0</title>
<polygon fill="#f2f2f2" stroke="black" stroke-width="1.3" points="484.98,-559 328.32,-559 288.02,-487 444.68,-487 484.98,-559"/>
<text text-anchor="middle" x="386.5" y="-526.8" font-family="Liberation Sans" font-size="14.00">Add or override</text>
<text text-anchor="middle" x="386.5" y="-511.8" font-family="Liberation Sans" font-size="14.00">a farm answer</text>
</g>
<!-- q3&#45;&gt;s3_0 -->
<g id="edge26" class="edge">
<title>q3&#45;&gt;s3_0</title>
<path fill="none" stroke="#333333" stroke-width="1.1" d="M224.58,-523C248.05,-523 275.41,-523 300.88,-523"/>
<polygon fill="#333333" stroke="#333333" stroke-width="1.1" points="301.01,-525.45 308.01,-523 301.01,-520.55 301.01,-525.45"/>
<text text-anchor="middle" x="256.25" y="-529.4" font-family="Liberation Sans" font-size="12.00">Yes</text>
</g>
<!-- q4 -->
<g id="node31" class="node">
<title>q4</title>
<polygon fill="#f4f4f4" stroke="black" stroke-width="1.3" points="164.5,-430 108.5,-398 164.5,-366 220.5,-398 164.5,-430"/>
<text text-anchor="middle" x="164.5" y="-401.8" font-family="Liberation Sans" font-size="14.00">Set price</text>
<text text-anchor="middle" x="164.5" y="-386.8" font-family="Liberation Sans" font-size="14.00">guards?</text>
</g>
<!-- q3&#45;&gt;q4 -->
<g id="edge29" class="edge">
<title>q3&#45;&gt;q4</title>
<path fill="none" stroke="#333333" stroke-width="1.1" d="M164.5,-490.96C164.5,-474.65 164.5,-454.51 164.5,-437.23"/>
<polygon fill="#333333" stroke="#333333" stroke-width="1.1" points="166.95,-437.03 164.5,-430.03 162.05,-437.03 166.95,-437.03"/>
<text text-anchor="middle" x="172.5" y="-457.4" font-family="Liberation Sans" font-size="12.00">No</text>
</g>
<!-- s3_1 -->
<g id="node29" class="node">
<title>s3_1</title>
<polygon fill="#ffffff" stroke="black" stroke-width="1.3" points="635,-542 548,-542 548,-504 635,-504 635,-542"/>
<text text-anchor="middle" x="591.5" y="-526.8" font-family="Liberation Sans" font-size="14.00">Save for</text>
<text text-anchor="middle" x="591.5" y="-511.8" font-family="Liberation Sans" font-size="14.00">moderation</text>
</g>
<!-- s3_0&#45;&gt;s3_1 -->
<g id="edge27" class="edge">
<title>s3_0&#45;&gt;s3_1</title>
<path fill="none" stroke="#333333" stroke-width="1.1" d="M464.92,-523C483.92,-523 523.17,-523 523.17,-523 523.17,-523 530.61,-523 540.59,-523"/>
<polygon fill="#333333" stroke="#333333" stroke-width="1.1" points="540.84,-525.45 547.84,-523 540.84,-520.55 540.84,-525.45"/>
</g>
<!-- r3 -->
<g id="node30" class="node">
<title>r3</title>
<ellipse fill="#e8e6e0" stroke="black" stroke-width="1.3" cx="711.5" cy="-523" rx="12.5" ry="12.5"/>
<text text-anchor="middle" x="711.5" y="-519.3" font-family="Liberation Sans" font-size="14.00">R</text>
</g>
<!-- s3_1&#45;&gt;r3 -->
<g id="edge28" class="edge">
<title>s3_1&#45;&gt;r3</title>
<path fill="none" stroke="#333333" stroke-width="1.1" d="M635.19,-523C645.09,-523 671.5,-523 671.5,-523 671.5,-523 681.62,-523 691.68,-523"/>
<polygon fill="#333333" stroke="#333333" stroke-width="1.1" points="691.84,-525.45 698.84,-523 691.84,-520.55 691.84,-525.45"/>
</g>
<!-- s4_0 -->
<g id="node32" class="node">
<title>s4_0</title>
<polygon fill="#f2f2f2" stroke="black" stroke-width="1.3" points="483.06,-434 324.68,-434 283.94,-362 442.32,-362 483.06,-434"/>
<text text-anchor="middle" x="383.5" y="-401.8" font-family="Liberation Sans" font-size="14.00">Enter farm floor</text>
<text text-anchor="middle" x="383.5" y="-386.8" font-family="Liberation Sans" font-size="14.00">and discount</text>
</g>
<!-- q4&#45;&gt;s4_0 -->
<g id="edge30" class="edge">
<title>q4&#45;&gt;s4_0</title>
<path fill="none" stroke="#333333" stroke-width="1.1" d="M220.61,-398C243.78,-398 271.17,-398 296.81,-398"/>
<polygon fill="#333333" stroke="#333333" stroke-width="1.1" points="297,-400.45 304,-398 297,-395.55 297,-400.45"/>
<text text-anchor="middle" x="252.24" y="-404.4" font-family="Liberation Sans" font-size="12.00">Yes</text>
</g>
<!-- q5 -->
<g id="node38" class="node">
<title>q5</title>
<polygon fill="#f4f4f4" stroke="black" stroke-width="1.3" points="164.5,-230 78.5,-198 164.5,-166 250.5,-198 164.5,-230"/>
<text text-anchor="middle" x="164.5" y="-201.8" font-family="Liberation Sans" font-size="14.00">View roster or</text>
<text text-anchor="middle" x="164.5" y="-186.8" font-family="Liberation Sans" font-size="14.00">analytics?</text>
</g>
<!-- q4&#45;&gt;q5 -->
<g id="edge36" class="edge">
<title>q4&#45;&gt;q5</title>
<path fill="none" stroke="#333333" stroke-width="1.1" d="M164.5,-365.63C164.5,-330.87 164.5,-274.81 164.5,-237.44"/>
<polygon fill="#333333" stroke="#333333" stroke-width="1.1" points="166.95,-237.23 164.5,-230.23 162.05,-237.23 166.95,-237.23"/>
<text text-anchor="middle" x="172.5" y="-286.9" font-family="Liberation Sans" font-size="12.00">No</text>
</g>
<!-- s4_1 -->
<g id="node33" class="node">
<title>s4_1</title>
<polygon fill="#f4f4f4" stroke="black" stroke-width="1.3" points="642.5,-430 546.5,-398 642.5,-366 738.5,-398 642.5,-430"/>
<text text-anchor="middle" x="642.5" y="-401.8" font-family="Liberation Sans" font-size="14.00">Tighter than</text>
<text text-anchor="middle" x="642.5" y="-386.8" font-family="Liberation Sans" font-size="14.00">system values?</text>
</g>
<!-- s4_0&#45;&gt;s4_1 -->
<g id="edge31" class="edge">
<title>s4_0&#45;&gt;s4_1</title>
<path fill="none" stroke="#333333" stroke-width="1.1" d="M462.77,-398C467.17,-398 469.83,-398 469.83,-398 469.83,-398 513.98,-398 539.14,-398"/>
<polygon fill="#333333" stroke="#333333" stroke-width="1.1" points="539.26,-400.45 546.26,-398 539.26,-395.55 539.26,-400.45"/>
</g>
<!-- a4_1 -->
<g id="node34" class="node">
<title>a4_1</title>
<polygon fill="#ffffff" stroke="black" stroke-width="1.3" points="682,-309 603,-309 603,-271 682,-271 682,-309"/>
<text text-anchor="middle" x="642.5" y="-293.8" font-family="Liberation Sans" font-size="14.00">Reject the</text>
<text text-anchor="middle" x="642.5" y="-278.8" font-family="Liberation Sans" font-size="14.00">change</text>
</g>
<!-- s4_1&#45;&gt;a4_1 -->
<g id="edge32" class="edge">
<title>s4_1&#45;&gt;a4_1</title>
<path fill="none" stroke="#333333" stroke-width="1.1" d="M642.5,-365.77C642.5,-350.06 642.5,-331.27 642.5,-316.46"/>
<polygon fill="#333333" stroke="#333333" stroke-width="1.1" points="644.95,-316.11 642.5,-309.11 640.05,-316.11 644.95,-316.11"/>
<text text-anchor="middle" x="650.5" y="-332.4" font-family="Liberation Sans" font-size="12.00">No</text>
</g>
<!-- s4_2 -->
<g id="node36" class="node">
<title>s4_2</title>
<polygon fill="#ffffff" stroke="black" stroke-width="1.3" points="891,-417 802,-417 802,-379 891,-379 891,-417"/>
<text text-anchor="middle" x="846.5" y="-401.8" font-family="Liberation Sans" font-size="14.00">Save; notify</text>
<text text-anchor="middle" x="846.5" y="-386.8" font-family="Liberation Sans" font-size="14.00">listings</text>
</g>
<!-- s4_1&#45;&gt;s4_2 -->
<g id="edge34" class="edge">
<title>s4_1&#45;&gt;s4_2</title>
<path fill="none" stroke="#333333" stroke-width="1.1" d="M738.53,-398C757.88,-398 777.52,-398 794.64,-398"/>
<polygon fill="#333333" stroke="#333333" stroke-width="1.1" points="794.82,-400.45 801.82,-398 794.82,-395.55 794.82,-400.45"/>
<text text-anchor="middle" x="770.25" y="-404.4" font-family="Liberation Sans" font-size="12.00">Yes</text>
</g>
<!-- xa4_1 -->
<g id="node35" class="node">
<title>xa4_1</title>
<ellipse fill="#e8e6e0" stroke="black" stroke-width="1.3" cx="758.5" cy="-290" rx="12.5" ry="12.5"/>
<text text-anchor="middle" x="758.5" y="-286.3" font-family="Liberation Sans" font-size="14.00">R</text>
</g>
<!-- a4_1&#45;&gt;xa4_1 -->
<g id="edge33" class="edge">
<title>a4_1&#45;&gt;xa4_1</title>
<path fill="none" stroke="#333333" stroke-width="1.1" d="M682.12,-290C688.08,-290 719.83,-290 719.83,-290 719.83,-290 729.19,-290 738.69,-290"/>
<polygon fill="#333333" stroke="#333333" stroke-width="1.1" points="738.84,-292.45 745.84,-290 738.84,-287.55 738.84,-292.45"/>
</g>
<!-- r4 -->
<g id="node37" class="node">
<title>r4</title>
<ellipse fill="#e8e6e0" stroke="black" stroke-width="1.3" cx="967.5" cy="-398" rx="12.5" ry="12.5"/>
<text text-anchor="middle" x="967.5" y="-394.3" font-family="Liberation Sans" font-size="14.00">R</text>
</g>
<!-- s4_2&#45;&gt;r4 -->
<g id="edge35" class="edge">
<title>s4_2&#45;&gt;r4</title>
<path fill="none" stroke="#333333" stroke-width="1.1" d="M891.15,-398C901.55,-398 927.17,-398 927.17,-398 927.17,-398 937.37,-398 947.51,-398"/>
<polygon fill="#333333" stroke="#333333" stroke-width="1.1" points="947.74,-400.45 954.74,-398 947.74,-395.55 947.74,-400.45"/>
</g>
<!-- q5&#45;&gt;lo -->
<g id="edge39" class="edge">
<title>q5&#45;&gt;lo</title>
<path fill="none" stroke="#333333" stroke-width="1.1" d="M164.5,-165.87C164.5,-151.2 164.5,-133.96 164.5,-120.27"/>
<polygon fill="#333333" stroke="#333333" stroke-width="1.1" points="166.95,-120.07 164.5,-113.07 162.05,-120.07 166.95,-120.07"/>
<text text-anchor="middle" x="172.5" y="-136.4" font-family="Liberation Sans" font-size="12.00">No</text>
</g>
<!-- s5_0 -->
<g id="node39" class="node">
<title>s5_0</title>
<polygon fill="#ffffff" stroke="black" stroke-width="1.3" points="426.5,-217 314.5,-217 314.5,-179 426.5,-179 426.5,-217"/>
<text text-anchor="middle" x="370.5" y="-201.8" font-family="Liberation Sans" font-size="14.00">View roster and</text>
<text text-anchor="middle" x="370.5" y="-186.8" font-family="Liberation Sans" font-size="14.00">farm analytics</text>
</g>
<!-- q5&#45;&gt;s5_0 -->
<g id="edge37" class="edge">
<title>q5&#45;&gt;s5_0</title>
<path fill="none" stroke="#333333" stroke-width="1.1" d="M250.67,-198C269.65,-198 289.41,-198 307.29,-198"/>
<polygon fill="#333333" stroke="#333333" stroke-width="1.1" points="307.3,-200.45 314.3,-198 307.3,-195.55 307.3,-200.45"/>
<text text-anchor="middle" x="282.5" y="-204.4" font-family="Liberation Sans" font-size="12.00">Yes</text>
</g>
<!-- r5 -->
<g id="node40" class="node">
<title>r5</title>
<ellipse fill="#e8e6e0" stroke="black" stroke-width="1.3" cx="502.5" cy="-198" rx="12.5" ry="12.5"/>
<text text-anchor="middle" x="502.5" y="-194.3" font-family="Liberation Sans" font-size="14.00">R</text>
</g>
<!-- s5_0&#45;&gt;r5 -->
<g id="edge38" class="edge">
<title>s5_0&#45;&gt;r5</title>
<path fill="none" stroke="#333333" stroke-width="1.1" d="M426.52,-198C439.55,-198 458.5,-198 458.5,-198 458.5,-198 470.88,-198 482.51,-198"/>
<polygon fill="#333333" stroke="#333333" stroke-width="1.1" points="482.54,-200.45 489.54,-198 482.54,-195.55 482.54,-200.45"/>
</g>
</g>
</svg>
