<?xml version="1.0" encoding="UTF-8" standalone="no"?>
<!DOCTYPE svg PUBLIC "-//W3C//DTD SVG 1.1//EN"
 "http://www.w3.org/Graphics/SVG/1.1/DTD/svg11.dtd">
<!-- Generated by graphviz version 2.43.0 (0)
 -->
<!-- Title: G Pages: 1 -->
<svg width="923pt" height="866pt"
 viewBox="0.00 0.00 923.15 866.20" xmlns="http://www.w3.org/2000/svg" xmlns:xlink="http://www.w3.org/1999/xlink">
<g id="graph0" class="graph" transform="scale(1 1) rotate(0) translate(21.6 844.6)">
<title>G</title>
<polygon fill="white" stroke="transparent" points="-21.6,21.6 -21.6,-844.6 901.55,-844.6 901.55,21.6 -21.6,21.6"/>
<g id="clust1" class="cluster">
<title>cluster_sys</title>
<path fill="none" stroke="#777777" d="M198,-8C198,-8 681.95,-8 681.95,-8 687.95,-8 693.95,-14 693.95,-20 693.95,-20 693.95,-803 693.95,-803 693.95,-809 687.95,-815 681.95,-815 681.95,-815 198,-815 198,-815 192,-815 186,-809 186,-803 186,-803 186,-20 186,-20 186,-14 192,-8 198,-8"/>
<text text-anchor="middle" x="439.98" y="-799.8" font-family="Liberation Sans" font-size="14.00">AniHow System</text>
</g>
<!-- sa -->
<g id="node1" class="node">
<title>sa</title>
<polygon fill="#e1e6ed" stroke="black" stroke-width="1.4" points="115,-594 0,-594 0,-558 115,-558 115,-594"/>
<text text-anchor="middle" x="57.5" y="-572.6" font-family="Liberation Sans" font-size="13.00">Super Admin</text>
</g>
<!-- sa1 -->
<g id="node5" class="node">
<title>sa1</title>
<ellipse fill="none" stroke="black" stroke-width="1.1" cx="295.12" cy="-764" rx="83" ry="20"/>
<text text-anchor="middle" x="295.12" y="-761.2" font-family="Liberation Sans" font-size="11.00">Manage user accounts</text>
</g>
<!-- sa&#45;&gt;sa1 -->
<g id="edge1" class="edge">
<title>sa&#45;&gt;sa1</title>
<path fill="none" stroke="#333333" d="M67.44,-594.09C85.13,-627.96 128,-700.82 186,-738 197.13,-745.14 210.05,-750.32 223,-754.07"/>
</g>
<!-- sa2 -->
<g id="node6" class="node">
<title>sa2</title>
<ellipse fill="none" stroke="black" stroke-width="1.1" cx="295.12" cy="-712" rx="83" ry="20"/>
<text text-anchor="middle" x="295.12" y="-709.2" font-family="Liberation Sans" font-size="11.00">Set system price guards</text>
</g>
<!-- sa&#45;&gt;sa2 -->
<g id="edge2" class="edge">
<title>sa&#45;&gt;sa2</title>
<path fill="none" stroke="#333333" d="M74.28,-594.21C96.63,-618.84 139.96,-662.38 186,-686 198.37,-692.34 212.33,-697.18 226.01,-700.84"/>
</g>
<!-- sa3 -->
<g id="node7" class="node">
<title>sa3</title>
<ellipse fill="none" stroke="black" stroke-width="1.1" cx="295.12" cy="-660" rx="83" ry="20"/>
<text text-anchor="middle" x="295.12" y="-657.2" font-family="Liberation Sans" font-size="11.00">Manage crop taxonomy</text>
</g>
<!-- sa&#45;&gt;sa3 -->
<g id="edge3" class="edge">
<title>sa&#45;&gt;sa3</title>
<path fill="none" stroke="#333333" d="M93.48,-594.11C118.69,-606.61 153.81,-622.92 186,-634 200.51,-638.99 216.44,-643.39 231.5,-647.09"/>
</g>
<!-- sa4 -->
<g id="node8" class="node">
<title>sa4</title>
<ellipse fill="none" stroke="black" stroke-width="1.1" cx="295.12" cy="-605" rx="101.23" ry="22.76"/>
<text text-anchor="middle" x="295.12" y="-608.2" font-family="Liberation Sans" font-size="11.00">Moderate listings, reviews,</text>
<text text-anchor="middle" x="295.12" y="-596.2" font-family="Liberation Sans" font-size="11.00">and farm FAQ answers</text>
</g>
<!-- sa&#45;&gt;sa4 -->
<g id="edge4" class="edge">
<title>sa&#45;&gt;sa4</title>
<path fill="none" stroke="#333333" d="M115.24,-582.98C142.47,-586.34 175.72,-590.43 206.14,-594.17"/>
</g>
<!-- sa5 -->
<g id="node9" class="node">
<title>sa5</title>
<ellipse fill="none" stroke="black" stroke-width="1.1" cx="295.12" cy="-548" rx="83" ry="22.76"/>
<text text-anchor="middle" x="295.12" y="-551.2" font-family="Liberation Sans" font-size="11.00">Manage system</text>
<text text-anchor="middle" x="295.12" y="-539.2" font-family="Liberation Sans" font-size="11.00">FAQ answers</text>
</g>
<!-- sa&#45;&gt;sa5 -->
<g id="edge5" class="edge">
<title>sa&#45;&gt;sa5</title>
<path fill="none" stroke="#333333" d="M115.24,-569.26C146.28,-565.57 185.15,-560.95 218.72,-556.96"/>
</g>
<!-- sa6 -->
<g id="node10" class="node">
<title>sa6</title>
<ellipse fill="none" stroke="black" stroke-width="1.1" cx="295.12" cy="-491" rx="83" ry="22.76"/>
<text text-anchor="middle" x="295.12" y="-494.2" font-family="Liberation Sans" font-size="11.00">Process account</text>
<text text-anchor="middle" x="295.12" y="-482.2" font-family="Liberation Sans" font-size="11.00">deletion requests</text>
</g>
<!-- sa&#45;&gt;sa6 -->
<g id="edge6" class="edge">
<title>sa&#45;&gt;sa6</title>
<path fill="none" stroke="#333333" d="M94.67,-557.88C119.84,-545.76 154.42,-530.06 186,-519 200.37,-513.97 216.09,-509.39 230.98,-505.46"/>
</g>
<!-- sa7 -->
<g id="node11" class="node">
<title>sa7</title>
<ellipse fill="none" stroke="black" stroke-width="1.1" cx="295.12" cy="-434" rx="100.32" ry="22.76"/>
<text text-anchor="middle" x="295.12" y="-437.2" font-family="Liberation Sans" font-size="11.00">View ledger and analytics;</text>
<text text-anchor="middle" x="295.12" y="-425.2" font-family="Liberation Sans" font-size="11.00">export CSV</text>
</g>
<!-- sa&#45;&gt;sa7 -->
<g id="edge7" class="edge">
<title>sa&#45;&gt;sa7</title>
<path fill="none" stroke="#333333" d="M73.82,-557.65C95.96,-532.31 139.4,-486.94 186,-462 196.09,-456.6 207.27,-452.2 218.5,-448.63"/>
</g>
<!-- sa8 -->
<g id="node12" class="node">
<title>sa8</title>
<ellipse fill="none" stroke="black" stroke-width="1.1" cx="295.12" cy="-377" rx="83" ry="22.76"/>
<text text-anchor="middle" x="295.12" y="-380.2" font-family="Liberation Sans" font-size="11.00">Read order chat</text>
<text text-anchor="middle" x="295.12" y="-368.2" font-family="Liberation Sans" font-size="11.00">threads</text>
</g>
<!-- sa&#45;&gt;sa8 -->
<g id="edge8" class="edge">
<title>sa&#45;&gt;sa8</title>
<path fill="none" stroke="#333333" d="M66.82,-557.82C83.9,-522.61 126.37,-445.07 186,-405 197.02,-397.59 209.89,-392.14 222.82,-388.14"/>
</g>
<!-- ce -->
<g id="node2" class="node">
<title>ce</title>
<polygon fill="#e1e6ed" stroke="black" stroke-width="1.4" points="115,-196 0,-196 0,-160 115,-160 115,-196"/>
<text text-anchor="middle" x="57.5" y="-174.6" font-family="Liberation Sans" font-size="13.00">Content Editor</text>
</g>
<!-- ce1 -->
<g id="node13" class="node">
<title>ce1</title>
<ellipse fill="none" stroke="black" stroke-width="1.1" cx="295.12" cy="-320" rx="83" ry="22.76"/>
<text text-anchor="middle" x="295.12" y="-323.2" font-family="Liberation Sans" font-size="11.00">Manage crop&#45;care</text>
<text text-anchor="middle" x="295.12" y="-311.2" font-family="Liberation Sans" font-size="11.00">articles</text>
</g>
<!-- ce&#45;&gt;ce1 -->
<g id="edge9" class="edge">
<title>ce&#45;&gt;ce1</title>
<path fill="none" stroke="#333333" d="M73.82,-196.35C95.96,-221.69 139.4,-267.06 186,-292 198.22,-298.54 212.05,-303.61 225.64,-307.53"/>
</g>
<!-- ce2 -->
<g id="node14" class="node">
<title>ce2</title>
<ellipse fill="none" stroke="black" stroke-width="1.1" cx="295.12" cy="-206" rx="83" ry="22.76"/>
<text text-anchor="middle" x="295.12" y="-209.2" font-family="Liberation Sans" font-size="11.00">Manage farm profile</text>
<text text-anchor="middle" x="295.12" y="-197.2" font-family="Liberation Sans" font-size="11.00">and gallery</text>
</g>
<!-- ce&#45;&gt;ce2 -->
<g id="edge10" class="edge">
<title>ce&#45;&gt;ce2</title>
<path fill="none" stroke="#333333" d="M115.24,-184.74C146.28,-188.43 185.15,-193.05 218.72,-197.04"/>
</g>
<!-- ce3 -->
<g id="node15" class="node">
<title>ce3</title>
<ellipse fill="none" stroke="black" stroke-width="1.1" cx="295.12" cy="-149" rx="83" ry="22.76"/>
<text text-anchor="middle" x="295.12" y="-152.2" font-family="Liberation Sans" font-size="11.00">Post farm</text>
<text text-anchor="middle" x="295.12" y="-140.2" font-family="Liberation Sans" font-size="11.00">announcements</text>
</g>
<!-- ce&#45;&gt;ce3 -->
<g id="edge11" class="edge">
<title>ce&#45;&gt;ce3</title>
<path fill="none" stroke="#333333" d="M115.24,-171.02C146.42,-167.18 185.49,-162.37 219.16,-158.23"/>
</g>
<!-- ce4 -->
<g id="node16" class="node">
<title>ce4</title>
<ellipse fill="none" stroke="black" stroke-width="1.1" cx="295.12" cy="-263" rx="83" ry="22.76"/>
<text text-anchor="middle" x="295.12" y="-266.2" font-family="Liberation Sans" font-size="11.00">Manage farm</text>
<text text-anchor="middle" x="295.12" y="-254.2" font-family="Liberation Sans" font-size="11.00">FAQ answers</text>
</g>
<!-- ce&#45;&gt;ce4 -->
<g id="edge12" class="edge">
<title>ce&#45;&gt;ce4</title>
<path fill="none" stroke="#333333" d="M94.67,-196.12C119.84,-208.24 154.42,-223.94 186,-235 200.37,-240.03 216.09,-244.61 230.98,-248.54"/>
</g>
<!-- ce5 -->
<g id="node17" class="node">
<title>ce5</title>
<ellipse fill="none" stroke="black" stroke-width="1.1" cx="295.12" cy="-94" rx="83" ry="20"/>
<text text-anchor="middle" x="295.12" y="-91.2" font-family="Liberation Sans" font-size="11.00">Set farm price guards</text>
</g>
<!-- ce&#45;&gt;ce5 -->
<g id="edge13" class="edge">
<title>ce&#45;&gt;ce5</title>
<path fill="none" stroke="#333333" d="M93.48,-159.89C118.69,-147.39 153.81,-131.08 186,-120 200.51,-115.01 216.44,-110.61 231.5,-106.91"/>
</g>
<!-- ce6 -->
<g id="node18" class="node">
<title>ce6</title>
<ellipse fill="none" stroke="black" stroke-width="1.1" cx="295.12" cy="-39" rx="83" ry="22.76"/>
<text text-anchor="middle" x="295.12" y="-42.2" font-family="Liberation Sans" font-size="11.00">View farm roster</text>
<text text-anchor="middle" x="295.12" y="-30.2" font-family="Liberation Sans" font-size="11.00">and analytics</text>
</g>
<!-- ce&#45;&gt;ce6 -->
<g id="edge14" class="edge">
<title>ce&#45;&gt;ce6</title>
<path fill="none" stroke="#333333" d="M74.37,-159.96C96.82,-135.53 140.27,-92.21 186,-68 198.62,-61.32 212.91,-56.08 226.87,-52.01"/>
</g>
<!-- fs -->
<g id="node3" class="node">
<title>fs</title>
<polygon fill="#e8e6e0" stroke="black" stroke-width="1.4" points="879.95,-560 764.95,-560 764.95,-524 879.95,-524 879.95,-560"/>
<text text-anchor="middle" x="822.45" y="-538.6" font-family="Liberation Sans" font-size="13.00">Farmer&#45;Seller</text>
</g>
<!-- by -->
<g id="node4" class="node">
<title>by</title>
<polygon fill="#e8e6e0" stroke="black" stroke-width="1.4" points="879.95,-253 764.95,-253 764.95,-217 879.95,-217 879.95,-253"/>
<text text-anchor="middle" x="822.45" y="-231.6" font-family="Liberation Sans" font-size="13.00">Buyer</text>
</g>
<!-- sa1&#45;&gt;sa2 -->
<!-- fs1 -->
<g id="node19" class="node">
<title>fs1</title>
<ellipse fill="none" stroke="black" stroke-width="1.1" cx="580.59" cy="-761" rx="83" ry="22.76"/>
<text text-anchor="middle" x="580.59" y="-764.2" font-family="Liberation Sans" font-size="11.00">Manage listings</text>
<text text-anchor="middle" x="580.59" y="-752.2" font-family="Liberation Sans" font-size="11.00">and tawad</text>
</g>
<!-- sa1&#45;&gt;fs1 -->
<!-- sa2&#45;&gt;sa3 -->
<!-- fs2 -->
<g id="node20" class="node">
<title>fs2</title>
<ellipse fill="none" stroke="black" stroke-width="1.1" cx="580.59" cy="-706" rx="83" ry="20"/>
<text text-anchor="middle" x="580.59" y="-703.2" font-family="Liberation Sans" font-size="11.00">Process orders</text>
</g>
<!-- sa2&#45;&gt;fs2 -->
<!-- sa3&#45;&gt;sa4 -->
<!-- fs3 -->
<g id="node21" class="node">
<title>fs3</title>
<ellipse fill="none" stroke="black" stroke-width="1.1" cx="580.59" cy="-654" rx="83" ry="20"/>
<text text-anchor="middle" x="580.59" y="-651.2" font-family="Liberation Sans" font-size="11.00">Record walk&#45;in sale</text>
</g>
<!-- sa3&#45;&gt;fs3 -->
<!-- sa4&#45;&gt;sa5 -->
<!-- fs4 -->
<g id="node22" class="node">
<title>fs4</title>
<ellipse fill="none" stroke="black" stroke-width="1.1" cx="580.59" cy="-599" rx="83" ry="22.76"/>
<text text-anchor="middle" x="580.59" y="-602.2" font-family="Liberation Sans" font-size="11.00">Read crop&#45;care</text>
<text text-anchor="middle" x="580.59" y="-590.2" font-family="Liberation Sans" font-size="11.00">articles</text>
</g>
<!-- sa4&#45;&gt;fs4 -->
<!-- sa5&#45;&gt;sa6 -->
<!-- fs5 -->
<g id="node23" class="node">
<title>fs5</title>
<ellipse fill="none" stroke="black" stroke-width="1.1" cx="580.59" cy="-542" rx="83" ry="22.76"/>
<text text-anchor="middle" x="580.59" y="-545.2" font-family="Liberation Sans" font-size="11.00">Read farm</text>
<text text-anchor="middle" x="580.59" y="-533.2" font-family="Liberation Sans" font-size="11.00">announcements</text>
</g>
<!-- sa5&#45;&gt;fs5 -->
<!-- sa6&#45;&gt;sa7 -->
<!-- fs6 -->
<g id="node24" class="node">
<title>fs6</title>
<ellipse fill="none" stroke="black" stroke-width="1.1" cx="580.59" cy="-487" rx="83" ry="20"/>
<text text-anchor="middle" x="580.59" y="-484.2" font-family="Liberation Sans" font-size="11.00">View My Sales</text>
</g>
<!-- sa6&#45;&gt;fs6 -->
<!-- sa7&#45;&gt;sa8 -->
<!-- sh1 -->
<g id="node25" class="node">
<title>sh1</title>
<ellipse fill="none" stroke="black" stroke-width="1.1" cx="580.59" cy="-434" rx="83" ry="20"/>
<text text-anchor="middle" x="580.59" y="-431.2" font-family="Liberation Sans" font-size="11.00">Chat about an order</text>
</g>
<!-- sa7&#45;&gt;sh1 -->
<!-- sa8&#45;&gt;ce1 -->
<!-- sh2 -->
<g id="node26" class="node">
<title>sh2</title>
<ellipse fill="none" stroke="black" stroke-width="1.1" cx="580.59" cy="-377" rx="83" ry="20"/>
<text text-anchor="middle" x="580.59" y="-374.2" font-family="Liberation Sans" font-size="11.00">Ask the FAQ helper</text>
</g>
<!-- sa8&#45;&gt;sh2 -->
<!-- ce1&#45;&gt;ce2 -->
<!-- sh3 -->
<g id="node27" class="node">
<title>sh3</title>
<ellipse fill="none" stroke="black" stroke-width="1.1" cx="580.59" cy="-320" rx="105.22" ry="22.76"/>
<text text-anchor="middle" x="580.59" y="-323.2" font-family="Liberation Sans" font-size="11.00">Manage my data (correct,</text>
<text text-anchor="middle" x="580.59" y="-311.2" font-family="Liberation Sans" font-size="11.00">download, request deletion)</text>
</g>
<!-- ce1&#45;&gt;sh3 -->
<!-- ce2&#45;&gt;ce3 -->
<!-- by1 -->
<g id="node28" class="node">
<title>by1</title>
<ellipse fill="none" stroke="black" stroke-width="1.1" cx="580.59" cy="-206" rx="83" ry="22.76"/>
<text text-anchor="middle" x="580.59" y="-209.2" font-family="Liberation Sans" font-size="11.00">Browse and search</text>
<text text-anchor="middle" x="580.59" y="-197.2" font-family="Liberation Sans" font-size="11.00">listings</text>
</g>
<!-- ce2&#45;&gt;by1 -->
<!-- ce3&#45;&gt;ce4 -->
<!-- by2 -->
<g id="node29" class="node">
<title>by2</title>
<ellipse fill="none" stroke="black" stroke-width="1.1" cx="580.59" cy="-149" rx="83" ry="22.76"/>
<text text-anchor="middle" x="580.59" y="-152.2" font-family="Liberation Sans" font-size="11.00">View storefront</text>
<text text-anchor="middle" x="580.59" y="-140.2" font-family="Liberation Sans" font-size="11.00">and farm page</text>
</g>
<!-- ce3&#45;&gt;by2 -->
<!-- ce4&#45;&gt;ce5 -->
<!-- by3 -->
<g id="node30" class="node">
<title>by3</title>
<ellipse fill="none" stroke="black" stroke-width="1.1" cx="580.59" cy="-263" rx="83" ry="22.76"/>
<text text-anchor="middle" x="580.59" y="-266.2" font-family="Liberation Sans" font-size="11.00">Place and cancel</text>
<text text-anchor="middle" x="580.59" y="-254.2" font-family="Liberation Sans" font-size="11.00">orders</text>
</g>
<!-- ce4&#45;&gt;by3 -->
<!-- ce5&#45;&gt;ce6 -->
<!-- by4 -->
<g id="node31" class="node">
<title>by4</title>
<ellipse fill="none" stroke="black" stroke-width="1.1" cx="580.59" cy="-94" rx="83" ry="20"/>
<text text-anchor="middle" x="580.59" y="-91.2" font-family="Liberation Sans" font-size="11.00">Choose fulfillment</text>
</g>
<!-- ce5&#45;&gt;by4 -->
<!-- by5 -->
<g id="node32" class="node">
<title>by5</title>
<ellipse fill="none" stroke="black" stroke-width="1.1" cx="580.59" cy="-40" rx="83" ry="20"/>
<text text-anchor="middle" x="580.59" y="-37.2" font-family="Liberation Sans" font-size="11.00">Leave review</text>
</g>
<!-- ce6&#45;&gt;by5 -->
<!-- fs1&#45;&gt;fs -->
<g id="edge15" class="edge">
<title>fs1&#45;&gt;fs</title>
<path fill="none" stroke="#333333" d="M654.23,-750.49C668.24,-746.26 682.2,-740.32 693.95,-732 757.98,-686.66 799.1,-598.19 814.55,-560.13"/>
</g>
<!-- fs1&#45;&gt;fs2 -->
<!-- fs2&#45;&gt;fs -->
<g id="edge16" class="edge">
<title>fs2&#45;&gt;fs</title>
<path fill="none" stroke="#333333" d="M653.26,-696.15C667.34,-692.39 681.57,-687.19 693.95,-680 746.41,-649.53 789.95,-590.49 809.83,-560.48"/>
</g>
<!-- fs2&#45;&gt;fs3 -->
<!-- fs3&#45;&gt;fs -->
<g id="edge17" class="edge">
<title>fs3&#45;&gt;fs</title>
<path fill="none" stroke="#333333" d="M649.13,-642.59C664.22,-638.89 679.91,-634.11 693.95,-628 734.35,-610.42 775.64,-579.78 799.89,-560.21"/>
</g>
<!-- fs3&#45;&gt;fs4 -->
<!-- fs4&#45;&gt;fs -->
<g id="edge18" class="edge">
<title>fs4&#45;&gt;fs</title>
<path fill="none" stroke="#333333" d="M643.67,-584.25C681.01,-575.37 728.19,-564.16 764.56,-555.52"/>
</g>
<!-- fs4&#45;&gt;fs5 -->
<!-- fs5&#45;&gt;fs -->
<g id="edge19" class="edge">
<title>fs5&#45;&gt;fs</title>
<path fill="none" stroke="#333333" d="M663.8,-542C697.03,-542 734.55,-542 764.66,-542"/>
</g>
<!-- fs5&#45;&gt;fs6 -->
<!-- fs6&#45;&gt;fs -->
<g id="edge20" class="edge">
<title>fs6&#45;&gt;fs</title>
<path fill="none" stroke="#333333" d="M641.5,-500.74C679.24,-509.39 727.67,-520.5 764.78,-529"/>
</g>
<!-- fs6&#45;&gt;sh1 -->
<!-- sh1&#45;&gt;fs -->
<g id="edge21" class="edge">
<title>sh1&#45;&gt;fs</title>
<path fill="none" stroke="#333333" d="M647.23,-445.93C662.87,-449.81 679.27,-454.78 693.95,-461 733.07,-477.58 773.73,-505.61 798.32,-523.96"/>
</g>
<!-- sh1&#45;&gt;by -->
<g id="edge24" class="edge">
<title>sh1&#45;&gt;by</title>
<path fill="none" stroke="#333333" d="M649.77,-422.81C665.15,-418.27 680.8,-411.91 693.95,-403 752.61,-363.26 795.44,-287.62 812.85,-253.05"/>
</g>
<!-- sh1&#45;&gt;sh2 -->
<!-- sh2&#45;&gt;fs -->
<g id="edge22" class="edge">
<title>sh2&#45;&gt;fs</title>
<path fill="none" stroke="#333333" d="M647.61,-388.84C663.48,-393.38 679.89,-399.58 693.95,-408 744.91,-438.53 788.8,-494.91 809.23,-523.84"/>
</g>
<!-- sh2&#45;&gt;by -->
<g id="edge25" class="edge">
<title>sh2&#45;&gt;by</title>
<path fill="none" stroke="#333333" d="M649.5,-365.7C664.65,-361.66 680.27,-356.24 693.95,-349 740.66,-324.27 784.06,-278.82 806.16,-253.41"/>
</g>
<!-- sh2&#45;&gt;sh3 -->
<!-- sh3&#45;&gt;fs -->
<g id="edge23" class="edge">
<title>sh3&#45;&gt;fs</title>
<path fill="none" stroke="#333333" d="M661.9,-334.5C673.28,-338.68 684.36,-344.07 693.95,-351 757.77,-397.12 799.01,-485.76 814.52,-523.86"/>
</g>
<!-- sh3&#45;&gt;by -->
<g id="edge26" class="edge">
<title>sh3&#45;&gt;by</title>
<path fill="none" stroke="#333333" d="M654.67,-303.78C667.86,-300.29 681.41,-296.33 693.95,-292 725.69,-281.04 760.41,-265.26 785.59,-253.08"/>
</g>
<!-- sh3&#45;&gt;by1 -->
<!-- by1&#45;&gt;by -->
<g id="edge27" class="edge">
<title>by1&#45;&gt;by</title>
<path fill="none" stroke="#333333" d="M656.83,-215.1C691.72,-219.32 732.51,-224.25 764.76,-228.15"/>
</g>
<!-- by1&#45;&gt;by2 -->
<!-- by2&#45;&gt;by -->
<g id="edge28" class="edge">
<title>by2&#45;&gt;by</title>
<path fill="none" stroke="#333333" d="M646.06,-162.92C661.89,-166.92 678.67,-171.67 693.95,-177 726.1,-188.21 761.21,-204.51 786.44,-216.97"/>
</g>
<!-- by2&#45;&gt;by3 -->
<!-- by3&#45;&gt;by -->
<g id="edge29" class="edge">
<title>by3&#45;&gt;by</title>
<path fill="none" stroke="#333333" d="M657.16,-254.18C692.03,-250.11 732.74,-245.36 764.91,-241.6"/>
</g>
<!-- by3&#45;&gt;by4 -->
<!-- by4&#45;&gt;by -->
<g id="edge30" class="edge">
<title>by4&#45;&gt;by</title>
<path fill="none" stroke="#333333" d="M651.59,-104.43C666.08,-108.16 680.9,-113.2 693.95,-120 741.26,-144.67 784.75,-191.07 806.63,-216.74"/>
</g>
<!-- by4&#45;&gt;by5 -->
<!-- by5&#45;&gt;by -->
<g id="edge31" class="edge">
<title>by5&#45;&gt;by</title>
<path fill="none" stroke="#333333" d="M652.66,-50.03C667.08,-54.12 681.6,-59.88 693.95,-68 752.93,-106.77 795.59,-182.34 812.91,-216.93"/>
</g>
</g>
</svg>
