<?xml version="1.0" encoding="UTF-8" standalone="no"?>
<!DOCTYPE svg PUBLIC "-//W3C//DTD SVG 1.1//EN"
 "http://www.w3.org/Graphics/SVG/1.1/DTD/svg11.dtd">
<!-- Generated by graphviz version 2.43.0 (0)
 -->
<!-- Title: G Pages: 1 -->
<svg width="778pt" height="1073pt"
 viewBox="0.00 0.00 778.30 1072.80" xmlns="http://www.w3.org/2000/svg" xmlns:xlink="http://www.w3.org/1999/xlink">
<g id="graph0" class="graph" transform="scale(1 1) rotate(0) translate(14.4 1058.4)">
<title>G</title>
<polygon fill="white" stroke="transparent" points="-14.4,14.4 -14.4,-1058.4 763.9,-1058.4 763.9,14.4 -14.4,14.4"/>
<!-- s -->
<g id="node1" class="node">
<title>s</title>
<path fill="#e1e6ed" stroke="black" stroke-width="1.3" d="M138,-1044C138,-1044 108,-1044 108,-1044 102,-1044 96,-1038 96,-1032 96,-1032 96,-1020 96,-1020 96,-1014 102,-1008 108,-1008 108,-1008 138,-1008 138,-1008 144,-1008 150,-1014 150,-1020 150,-1020 150,-1032 150,-1032 150,-1038 144,-1044 138,-1044"/>
<text text-anchor="middle" x="123" y="-1022.3" font-family="Liberation Sans" font-size="14.00">Start</text>
</g>
<!-- li -->
<g id="node2" class="node">
<title>li</title>
<polygon fill="#f2f2f2" stroke="black" stroke-width="1.3" points="202.66,-992 75.94,-992 43.34,-920 170.06,-920 202.66,-992"/>
<text text-anchor="middle" x="123" y="-959.8" font-family="Liberation Sans" font-size="14.00">Log in to the</text>
<text text-anchor="middle" x="123" y="-944.8" font-family="Liberation Sans" font-size="14.00">CMS</text>
</g>
<!-- s&#45;&gt;li -->
<g id="edge1" class="edge">
<title>s&#45;&gt;li</title>
<path fill="none" stroke="#333333" stroke-width="1.1" d="M123,-1007.97C123,-1007.97 123,-999.2 123,-999.2"/>
<polygon fill="#333333" stroke="#333333" stroke-width="1.1" points="125.45,-999.2 123,-992.2 120.55,-999.2 125.45,-999.2"/>
</g>
<!-- ok -->
<g id="node3" class="node">
<title>ok</title>
<polygon fill="#f4f4f4" stroke="black" stroke-width="1.3" points="123,-904 0,-872 123,-840 246,-872 123,-904"/>
<text text-anchor="middle" x="123" y="-875.8" font-family="Liberation Sans" font-size="14.00">Credentials valid</text>
<text text-anchor="middle" x="123" y="-860.8" font-family="Liberation Sans" font-size="14.00">and account active?</text>
</g>
<!-- li&#45;&gt;ok -->
<g id="edge2" class="edge">
<title>li&#45;&gt;ok</title>
<path fill="none" stroke="#333333" stroke-width="1.1" d="M123,-919.89C123,-919.89 123,-911.11 123,-911.11"/>
<polygon fill="#333333" stroke="#333333" stroke-width="1.1" points="125.45,-911.11 123,-904.11 120.55,-911.11 125.45,-911.11"/>
</g>
<!-- err -->
<g id="node4" class="node">
<title>err</title>
<polygon fill="#ffffff" stroke="black" stroke-width="1.3" points="406,-890 262,-890 262,-854 406,-854 406,-890"/>
<text text-anchor="middle" x="334" y="-868.3" font-family="Liberation Sans" font-size="14.00">Show error message</text>
</g>
<!-- ok&#45;&gt;err -->
<g id="edge3" class="edge">
<title>ok&#45;&gt;err</title>
<path fill="none" stroke="#333333" stroke-width="1.1" d="M246.04,-872C246.04,-872 254.81,-872 254.81,-872"/>
<polygon fill="#333333" stroke="#333333" stroke-width="1.1" points="254.81,-874.45 261.81,-872 254.81,-869.55 254.81,-874.45"/>
<text text-anchor="middle" x="254.43" y="-862.4" font-family="Liberation Sans" font-size="12.00">No</text>
</g>
<!-- home -->
<g id="node6" class="node">
<title>home</title>
<polygon fill="#ffffff" stroke="black" stroke-width="1.3" points="198.5,-824 47.5,-824 47.5,-786 198.5,-786 198.5,-824"/>
<text text-anchor="middle" x="123" y="-808.8" font-family="Liberation Sans" font-size="14.00">Content Editor</text>
<text text-anchor="middle" x="123" y="-793.8" font-family="Liberation Sans" font-size="14.00">dashboard (own farm)</text>
</g>
<!-- ok&#45;&gt;home -->
<g id="edge5" class="edge">
<title>ok&#45;&gt;home</title>
<path fill="none" stroke="#333333" stroke-width="1.1" d="M123,-839.68C123,-839.68 123,-831.04 123,-831.04"/>
<polygon fill="#333333" stroke="#333333" stroke-width="1.1" points="125.45,-831.04 123,-824.04 120.55,-831.04 125.45,-831.04"/>
<text text-anchor="middle" x="113" y="-825.76" font-family="Liberation Sans" font-size="12.00">Yes</text>
</g>
<!-- err&#45;&gt;li -->
<g id="edge4" class="edge">
<title>err&#45;&gt;li</title>
<path fill="none" stroke="#333333" stroke-width="1.1" d="M334,-890.23C334,-914.93 334,-956 334,-956 334,-956 193.59,-956 193.59,-956"/>
<polygon fill="#333333" stroke="#333333" stroke-width="1.1" points="193.59,-953.55 186.59,-956 193.59,-958.45 193.59,-953.55"/>
</g>
<!-- ain -->
<g id="node5" class="node">
<title>ain</title>
<ellipse fill="#e8e6e0" stroke="black" stroke-width="1.3" cx="19" cy="-805" rx="12.5" ry="12.5"/>
<text text-anchor="middle" x="19" y="-801.3" font-family="Liberation Sans" font-size="14.00">R</text>
</g>
<!-- ain&#45;&gt;home -->
<g id="edge6" class="edge">
<title>ain&#45;&gt;home</title>
<path fill="none" stroke="#333333" stroke-width="1.1" d="M31.75,-805C31.75,-805 40.44,-805 40.44,-805"/>
<polygon fill="#333333" stroke="#333333" stroke-width="1.1" points="40.44,-807.45 47.44,-805 40.44,-802.55 40.44,-807.45"/>
</g>
<!-- q0 -->
<g id="node9" class="node">
<title>q0</title>
<polygon fill="#f4f4f4" stroke="black" stroke-width="1.3" points="123,-766 66,-734 123,-702 180,-734 123,-766"/>
<text text-anchor="middle" x="123" y="-737.8" font-family="Liberation Sans" font-size="14.00">Edit farm</text>
<text text-anchor="middle" x="123" y="-722.8" font-family="Liberation Sans" font-size="14.00">profile?</text>
</g>
<!-- home&#45;&gt;q0 -->
<g id="edge7" class="edge">
<title>home&#45;&gt;q0</title>
<path fill="none" stroke="#333333" stroke-width="1.1" d="M123,-785.97C123,-785.97 123,-773.24 123,-773.24"/>
<polygon fill="#333333" stroke="#333333" stroke-width="1.1" points="125.45,-773.24 123,-766.24 120.55,-773.24 125.45,-773.24"/>
</g>
<!-- lo -->
<g id="node7" class="node">
<title>lo</title>
<polygon fill="#ffffff" stroke="black" stroke-width="1.3" points="155,-88 91,-88 91,-52 155,-52 155,-88"/>
<text text-anchor="middle" x="123" y="-66.3" font-family="Liberation Sans" font-size="14.00">Log out</text>
</g>
<!-- end -->
<g id="node8" class="node">
<title>end</title>
<path fill="#e1e6ed" stroke="black" stroke-width="1.3" d="M138,-36C138,-36 108,-36 108,-36 102,-36 96,-30 96,-24 96,-24 96,-12 96,-12 96,-6 102,0 108,0 108,0 138,0 138,0 144,0 150,-6 150,-12 150,-12 150,-24 150,-24 150,-30 144,-36 138,-36"/>
<text text-anchor="middle" x="123" y="-14.3" font-family="Liberation Sans" font-size="14.00">End</text>
</g>
<!-- lo&#45;&gt;end -->
<g id="edge40" class="edge">
<title>lo&#45;&gt;end</title>
<path fill="none" stroke="#333333" stroke-width="1.1" d="M123,-51.81C123,-51.81 123,-43.26 123,-43.26"/>
<polygon fill="#333333" stroke="#333333" stroke-width="1.1" points="125.45,-43.26 123,-36.26 120.55,-43.26 125.45,-43.26"/>
</g>
<!-- s0_0 -->
<g id="node10" class="node">
<title>s0_0</title>
<polygon fill="#f2f2f2" stroke="black" stroke-width="1.3" points="430.31,-770 243.7,-770 195.69,-698 382.3,-698 430.31,-770"/>
<text text-anchor="middle" x="313" y="-737.8" font-family="Liberation Sans" font-size="14.00">Edit profile, pickup</text>
<text text-anchor="middle" x="313" y="-722.8" font-family="Liberation Sans" font-size="14.00">point, and photos</text>
</g>
<!-- q0&#45;&gt;s0_0 -->
<g id="edge8" class="edge">
<title>q0&#45;&gt;s0_0</title>
<path fill="none" stroke="#333333" stroke-width="1.1" d="M180.01,-734C180.01,-734 212.44,-734 212.44,-734"/>
<polygon fill="#333333" stroke="#333333" stroke-width="1.1" points="212.44,-736.45 219.44,-734 212.44,-731.55 212.44,-736.45"/>
<text text-anchor="middle" x="186.22" y="-737.4" font-family="Liberation Sans" font-size="12.00">Yes</text>
</g>
<!-- q1 -->
<g id="node13" class="node">
<title>q1</title>
<polygon fill="#f4f4f4" stroke="black" stroke-width="1.3" points="123,-678 70,-646 123,-614 176,-646 123,-678"/>
<text text-anchor="middle" x="123" y="-649.8" font-family="Liberation Sans" font-size="14.00">Write an</text>
<text text-anchor="middle" x="123" y="-634.8" font-family="Liberation Sans" font-size="14.00">article?</text>
</g>
<!-- q0&#45;&gt;q1 -->
<g id="edge11" class="edge">
<title>q0&#45;&gt;q1</title>
<path fill="none" stroke="#333333" stroke-width="1.1" d="M123,-701.73C123,-701.73 123,-685.26 123,-685.26"/>
<polygon fill="#333333" stroke="#333333" stroke-width="1.1" points="125.45,-685.26 123,-678.26 120.55,-685.26 125.45,-685.26"/>
<text text-anchor="middle" x="115" y="-683.9" font-family="Liberation Sans" font-size="12.00">No</text>
</g>
<!-- s0_1 -->
<g id="node11" class="node">
<title>s0_1</title>
<polygon fill="#ffffff" stroke="black" stroke-width="1.3" points="518,-753 446,-753 446,-715 518,-715 518,-753"/>
<text text-anchor="middle" x="482" y="-737.8" font-family="Liberation Sans" font-size="14.00">Save the</text>
<text text-anchor="middle" x="482" y="-722.8" font-family="Liberation Sans" font-size="14.00">profile</text>
</g>
<!-- s0_0&#45;&gt;s0_1 -->
<g id="edge9" class="edge">
<title>s0_0&#45;&gt;s0_1</title>
<path fill="none" stroke="#333333" stroke-width="1.1" d="M406.4,-734C406.4,-734 438.97,-734 438.97,-734"/>
<polygon fill="#333333" stroke="#333333" stroke-width="1.1" points="438.97,-736.45 445.97,-734 438.97,-731.55 438.97,-736.45"/>
</g>
<!-- r0 -->
<g id="node12" class="node">
<title>r0</title>
<ellipse fill="#e8e6e0" stroke="black" stroke-width="1.3" cx="547" cy="-734" rx="12.5" ry="12.5"/>
<text text-anchor="middle" x="547" y="-730.3" font-family="Liberation Sans" font-size="14.00">R</text>
</g>
<!-- s0_1&#45;&gt;r0 -->
<g id="edge10" class="edge">
<title>s0_1&#45;&gt;r0</title>
<path fill="none" stroke="#333333" stroke-width="1.1" d="M518.3,-734C518.3,-734 527.5,-734 527.5,-734"/>
<polygon fill="#333333" stroke="#333333" stroke-width="1.1" points="527.5,-736.45 534.5,-734 527.5,-731.55 527.5,-736.45"/>
</g>
<!-- s1_0 -->
<g id="node14" class="node">
<title>s1_0</title>
<polygon fill="#f2f2f2" stroke="black" stroke-width="1.3" points="364.1,-682 227.13,-682 191.9,-610 328.87,-610 364.1,-682"/>
<text text-anchor="middle" x="278" y="-649.8" font-family="Liberation Sans" font-size="14.00">Write and tag</text>
<text text-anchor="middle" x="278" y="-634.8" font-family="Liberation Sans" font-size="14.00">the article</text>
</g>
<!-- q1&#45;&gt;s1_0 -->
<g id="edge12" class="edge">
<title>q1&#45;&gt;s1_0</title>
<path fill="none" stroke="#333333" stroke-width="1.1" d="M176.34,-646C176.34,-646 202.5,-646 202.5,-646"/>
<polygon fill="#333333" stroke="#333333" stroke-width="1.1" points="202.5,-648.45 209.5,-646 202.5,-643.55 202.5,-648.45"/>
<text text-anchor="middle" x="179.42" y="-649.4" font-family="Liberation Sans" font-size="12.00">Yes</text>
</g>
<!-- q2 -->
<g id="node20" class="node">
<title>q2</title>
<polygon fill="#f4f4f4" stroke="black" stroke-width="1.3" points="123,-536 23,-504 123,-472 223,-504 123,-536"/>
<text text-anchor="middle" x="123" y="-507.8" font-family="Liberation Sans" font-size="14.00">Post an</text>
<text text-anchor="middle" x="123" y="-492.8" font-family="Liberation Sans" font-size="14.00">announcement?</text>
</g>
<!-- q1&#45;&gt;q2 -->
<g id="edge18" class="edge">
<title>q1&#45;&gt;q2</title>
<path fill="none" stroke="#333333" stroke-width="1.1" d="M123,-613.78C123,-613.78 123,-543.09 123,-543.09"/>
<polygon fill="#333333" stroke="#333333" stroke-width="1.1" points="125.45,-543.09 123,-536.09 120.55,-543.09 125.45,-543.09"/>
<text text-anchor="middle" x="115" y="-581.84" font-family="Liberation Sans" font-size="12.00">No</text>
</g>
<!-- s1_1 -->
<g id="node15" class="node">
<title>s1_1</title>
<polygon fill="#f4f4f4" stroke="black" stroke-width="1.3" points="427,-678 380,-646 427,-614 474,-646 427,-678"/>
<text text-anchor="middle" x="427" y="-649.8" font-family="Liberation Sans" font-size="14.00">Publish</text>
<text text-anchor="middle" x="427" y="-634.8" font-family="Liberation Sans" font-size="14.00">now?</text>
</g>
<!-- s1_0&#45;&gt;s1_1 -->
<g id="edge13" class="edge">
<title>s1_0&#45;&gt;s1_1</title>
<path fill="none" stroke="#333333" stroke-width="1.1" d="M346.83,-646C346.83,-646 372.74,-646 372.74,-646"/>
<polygon fill="#333333" stroke="#333333" stroke-width="1.1" points="372.74,-648.45 379.74,-646 372.74,-643.55 372.74,-648.45"/>
</g>
<!-- a1_1 -->
<g id="node16" class="node">
<title>a1_1</title>
<polygon fill="#ffffff" stroke="black" stroke-width="1.3" points="461,-594 393,-594 393,-556 461,-556 461,-594"/>
<text text-anchor="middle" x="427" y="-578.8" font-family="Liberation Sans" font-size="14.00">Keep as</text>
<text text-anchor="middle" x="427" y="-563.8" font-family="Liberation Sans" font-size="14.00">draft</text>
</g>
<!-- s1_1&#45;&gt;a1_1 -->
<g id="edge14" class="edge">
<title>s1_1&#45;&gt;a1_1</title>
<path fill="none" stroke="#333333" stroke-width="1.1" d="M427,-613.82C427,-613.82 427,-601.07 427,-601.07"/>
<polygon fill="#333333" stroke="#333333" stroke-width="1.1" points="429.45,-601.07 427,-594.07 424.55,-601.07 429.45,-601.07"/>
<text text-anchor="middle" x="419" y="-597.85" font-family="Liberation Sans" font-size="12.00">No</text>
</g>
<!-- s1_2 -->
<g id="node18" class="node">
<title>s1_2</title>
<polygon fill="#ffffff" stroke="black" stroke-width="1.3" points="592,-665 490,-665 490,-627 592,-627 592,-665"/>
<text text-anchor="middle" x="541" y="-649.8" font-family="Liberation Sans" font-size="14.00">Visible to all</text>
<text text-anchor="middle" x="541" y="-634.8" font-family="Liberation Sans" font-size="14.00">farmer&#45;sellers</text>
</g>
<!-- s1_1&#45;&gt;s1_2 -->
<g id="edge16" class="edge">
<title>s1_1&#45;&gt;s1_2</title>
<path fill="none" stroke="#333333" stroke-width="1.1" d="M474.03,-646C474.03,-646 482.64,-646 482.64,-646"/>
<polygon fill="#333333" stroke="#333333" stroke-width="1.1" points="482.64,-648.45 489.64,-646 482.64,-643.55 482.64,-648.45"/>
<text text-anchor="middle" x="483.33" y="-636.4" font-family="Liberation Sans" font-size="12.00">Yes</text>
</g>
<!-- xa1_1 -->
<g id="node17" class="node">
<title>xa1_1</title>
<ellipse fill="#e8e6e0" stroke="black" stroke-width="1.3" cx="490" cy="-575" rx="12.5" ry="12.5"/>
<text text-anchor="middle" x="490" y="-571.3" font-family="Liberation Sans" font-size="14.00">R</text>
</g>
<!-- a1_1&#45;&gt;xa1_1 -->
<g id="edge15" class="edge">
<title>a1_1&#45;&gt;xa1_1</title>
<path fill="none" stroke="#333333" stroke-width="1.1" d="M461.08,-575C461.08,-575 470.33,-575 470.33,-575"/>
<polygon fill="#333333" stroke="#333333" stroke-width="1.1" points="470.33,-577.45 477.33,-575 470.33,-572.55 470.33,-577.45"/>
</g>
<!-- r1 -->
<g id="node19" class="node">
<title>r1</title>
<ellipse fill="#e8e6e0" stroke="black" stroke-width="1.3" cx="621" cy="-646" rx="12.5" ry="12.5"/>
<text text-anchor="middle" x="621" y="-642.3" font-family="Liberation Sans" font-size="14.00">R</text>
</g>
<!-- s1_2&#45;&gt;r1 -->
<g id="edge17" class="edge">
<title>s1_2&#45;&gt;r1</title>
<path fill="none" stroke="#333333" stroke-width="1.1" d="M592.12,-646C592.12,-646 601.43,-646 601.43,-646"/>
<polygon fill="#333333" stroke="#333333" stroke-width="1.1" points="601.43,-648.45 608.43,-646 601.43,-643.55 601.43,-648.45"/>
</g>
<!-- s2_0 -->
<g id="node21" class="node">
<title>s2_0</title>
<polygon fill="#f2f2f2" stroke="black" stroke-width="1.3" points="415.25,-540 274.87,-540 238.75,-468 379.13,-468 415.25,-540"/>
<text text-anchor="middle" x="327" y="-507.8" font-family="Liberation Sans" font-size="14.00">Set audience,</text>
<text text-anchor="middle" x="327" y="-492.8" font-family="Liberation Sans" font-size="14.00">schedule, pin</text>
</g>
<!-- q2&#45;&gt;s2_0 -->
<g id="edge19" class="edge">
<title>q2&#45;&gt;s2_0</title>
<path fill="none" stroke="#333333" stroke-width="1.1" d="M223.21,-504C223.21,-504 249.6,-504 249.6,-504"/>
<polygon fill="#333333" stroke="#333333" stroke-width="1.1" points="249.6,-506.45 256.6,-504 249.6,-501.55 249.6,-506.45"/>
<text text-anchor="middle" x="226.4" y="-507.4" font-family="Liberation Sans" font-size="12.00">Yes</text>
</g>
<!-- q3 -->
<g id="node27" class="node">
<title>q3</title>
<polygon fill="#f4f4f4" stroke="black" stroke-width="1.3" points="123,-394 63,-362 123,-330 183,-362 123,-394"/>
<text text-anchor="middle" x="123" y="-365.8" font-family="Liberation Sans" font-size="14.00">Edit farm</text>
<text text-anchor="middle" x="123" y="-350.8" font-family="Liberation Sans" font-size="14.00">answers?</text>
</g>
<!-- q2&#45;&gt;q3 -->
<g id="edge25" class="edge">
<title>q2&#45;&gt;q3</title>
<path fill="none" stroke="#333333" stroke-width="1.1" d="M123,-471.78C123,-471.78 123,-401.09 123,-401.09"/>
<polygon fill="#333333" stroke="#333333" stroke-width="1.1" points="125.45,-401.09 123,-394.09 120.55,-401.09 125.45,-401.09"/>
<text text-anchor="middle" x="115" y="-439.84" font-family="Liberation Sans" font-size="12.00">No</text>
</g>
<!-- s2_1 -->
<g id="node22" class="node">
<title>s2_1</title>
<polygon fill="#f4f4f4" stroke="black" stroke-width="1.3" points="469,-536 431,-504 469,-472 507,-504 469,-536"/>
<text text-anchor="middle" x="469" y="-507.8" font-family="Liberation Sans" font-size="14.00">Starts</text>
<text text-anchor="middle" x="469" y="-492.8" font-family="Liberation Sans" font-size="14.00">now?</text>
</g>
<!-- s2_0&#45;&gt;s2_1 -->
<g id="edge20" class="edge">
<title>s2_0&#45;&gt;s2_1</title>
<path fill="none" stroke="#333333" stroke-width="1.1" d="M397.58,-504C397.58,-504 423.69,-504 423.69,-504"/>
<polygon fill="#333333" stroke="#333333" stroke-width="1.1" points="423.69,-506.45 430.69,-504 423.69,-501.55 423.69,-506.45"/>
</g>
<!-- a2_1 -->
<g id="node23" class="node">
<title>a2_1</title>
<polygon fill="#ffffff" stroke="black" stroke-width="1.3" points="532,-452 406,-452 406,-414 532,-414 532,-452"/>
<text text-anchor="middle" x="469" y="-436.8" font-family="Liberation Sans" font-size="14.00">Scheduler notifies</text>
<text text-anchor="middle" x="469" y="-421.8" font-family="Liberation Sans" font-size="14.00">at start time</text>
</g>
<!-- s2_1&#45;&gt;a2_1 -->
<g id="edge21" class="edge">
<title>s2_1&#45;&gt;a2_1</title>
<path fill="none" stroke="#333333" stroke-width="1.1" d="M469,-471.82C469,-471.82 469,-459.07 469,-459.07"/>
<polygon fill="#333333" stroke="#333333" stroke-width="1.1" points="471.45,-459.07 469,-452.07 466.55,-459.07 471.45,-459.07"/>
<text text-anchor="middle" x="461" y="-455.85" font-family="Liberation Sans" font-size="12.00">No</text>
</g>
<!-- s2_2 -->
<g id="node25" class="node">
<title>s2_2</title>
<polygon fill="#ffffff" stroke="black" stroke-width="1.3" points="622.5,-523 523.5,-523 523.5,-485 622.5,-485 622.5,-523"/>
<text text-anchor="middle" x="573" y="-507.8" font-family="Liberation Sans" font-size="14.00">Notify own</text>
<text text-anchor="middle" x="573" y="-492.8" font-family="Liberation Sans" font-size="14.00">farm’s sellers</text>
</g>
<!-- s2_1&#45;&gt;s2_2 -->
<g id="edge23" class="edge">
<title>s2_1&#45;&gt;s2_2</title>
<path fill="none" stroke="#333333" stroke-width="1.1" d="M507.14,-504C507.14,-504 516.16,-504 516.16,-504"/>
<polygon fill="#333333" stroke="#333333" stroke-width="1.1" points="516.16,-506.45 523.16,-504 516.16,-501.55 516.16,-506.45"/>
<text text-anchor="middle" x="516.65" y="-494.4" font-family="Liberation Sans" font-size="12.00">Yes</text>
</g>
<!-- xa2_1 -->
<g id="node24" class="node">
<title>xa2_1</title>
<ellipse fill="#e8e6e0" stroke="black" stroke-width="1.3" cx="561" cy="-433" rx="12.5" ry="12.5"/>
<text text-anchor="middle" x="561" y="-429.3" font-family="Liberation Sans" font-size="14.00">R</text>
</g>
<!-- a2_1&#45;&gt;xa2_1 -->
<g id="edge22" class="edge">
<title>a2_1&#45;&gt;xa2_1</title>
<path fill="none" stroke="#333333" stroke-width="1.1" d="M532.14,-433C532.14,-433 541.33,-433 541.33,-433"/>
<polygon fill="#333333" stroke="#333333" stroke-width="1.1" points="541.33,-435.45 548.33,-433 541.33,-430.55 541.33,-435.45"/>
</g>
<!-- r2 -->
<g id="node26" class="node">
<title>r2</title>
<ellipse fill="#e8e6e0" stroke="black" stroke-width="1.3" cx="651" cy="-504" rx="12.5" ry="12.5"/>
<text text-anchor="middle" x="651" y="-500.3" font-family="Liberation Sans" font-size="14.00">R</text>
</g>
<!-- s2_2&#45;&gt;r2 -->
<g id="edge24" class="edge">
<title>s2_2&#45;&gt;r2</title>
<path fill="none" stroke="#333333" stroke-width="1.1" d="M622.84,-504C622.84,-504 631.47,-504 631.47,-504"/>
<polygon fill="#333333" stroke="#333333" stroke-width="1.1" points="631.47,-506.45 638.47,-504 631.47,-501.55 631.47,-506.45"/>
</g>
<!-- s3_0 -->
<g id="node28" class="node">
<title>s3_0</title>
<polygon fill="#f2f2f2" stroke="black" stroke-width="1.3" points="395.48,-398 238.82,-398 198.52,-326 355.18,-326 395.48,-398"/>
<text text-anchor="middle" x="297" y="-365.8" font-family="Liberation Sans" font-size="14.00">Add or override</text>
<text text-anchor="middle" x="297" y="-350.8" font-family="Liberation Sans" font-size="14.00">a farm answer</text>
</g>
<!-- q3&#45;&gt;s3_0 -->
<g id="edge26" class="edge">
<title>q3&#45;&gt;s3_0</title>
<path fill="none" stroke="#333333" stroke-width="1.1" d="M183.37,-362C183.37,-362 211.66,-362 211.66,-362"/>
<polygon fill="#333333" stroke="#333333" stroke-width="1.1" points="211.66,-364.45 218.66,-362 211.66,-359.55 211.66,-364.45"/>
<text text-anchor="middle" x="192.51" y="-352.4" font-family="Liberation Sans" font-size="12.00">Yes</text>
</g>
<!-- q4 -->
<g id="node31" class="node">
<title>q4</title>
<polygon fill="#f4f4f4" stroke="black" stroke-width="1.3" points="123,-306 67,-274 123,-242 179,-274 123,-306"/>
<text text-anchor="middle" x="123" y="-277.8" font-family="Liberation Sans" font-size="14.00">Set price</text>
<text text-anchor="middle" x="123" y="-262.8" font-family="Liberation Sans" font-size="14.00">guards?</text>
</g>
<!-- q3&#45;&gt;q4 -->
<g id="edge29" class="edge">
<title>q3&#45;&gt;q4</title>
<path fill="none" stroke="#333333" stroke-width="1.1" d="M123,-329.73C123,-329.73 123,-313.26 123,-313.26"/>
<polygon fill="#333333" stroke="#333333" stroke-width="1.1" points="125.45,-313.26 123,-306.26 120.55,-313.26 125.45,-313.26"/>
<text text-anchor="middle" x="115" y="-311.9" font-family="Liberation Sans" font-size="12.00">No</text>
</g>
<!-- s3_1 -->
<g id="node29" class="node">
<title>s3_1</title>
<polygon fill="#ffffff" stroke="black" stroke-width="1.3" points="498.5,-381 411.5,-381 411.5,-343 498.5,-343 498.5,-381"/>
<text text-anchor="middle" x="455" y="-365.8" font-family="Liberation Sans" font-size="14.00">Save for</text>
<text text-anchor="middle" x="455" y="-350.8" font-family="Liberation Sans" font-size="14.00">moderation</text>
</g>
<!-- s3_0&#45;&gt;s3_1 -->
<g id="edge27" class="edge">
<title>s3_0&#45;&gt;s3_1</title>
<path fill="none" stroke="#333333" stroke-width="1.1" d="M375.54,-362C375.54,-362 404.12,-362 404.12,-362"/>
<polygon fill="#333333" stroke="#333333" stroke-width="1.1" points="404.12,-364.45 411.12,-362 404.12,-359.55 404.12,-364.45"/>
</g>
<!-- r3 -->
<g id="node30" class="node">
<title>r3</title>
<ellipse fill="#e8e6e0" stroke="black" stroke-width="1.3" cx="527" cy="-362" rx="12.5" ry="12.5"/>
<text text-anchor="middle" x="527" y="-358.3" font-family="Liberation Sans" font-size="14.00">R</text>
</g>
<!-- s3_1&#45;&gt;r3 -->
<g id="edge28" class="edge">
<title>s3_1&#45;&gt;r3</title>
<path fill="none" stroke="#333333" stroke-width="1.1" d="M498.54,-362C498.54,-362 507.49,-362 507.49,-362"/>
<polygon fill="#333333" stroke="#333333" stroke-width="1.1" points="507.49,-364.45 514.49,-362 507.49,-359.55 507.49,-364.45"/>
</g>
<!-- s4_0 -->
<g id="node32" class="node">
<title>s4_0</title>
<polygon fill="#f2f2f2" stroke="black" stroke-width="1.3" points="394.56,-310 236.18,-310 195.44,-238 353.82,-238 394.56,-310"/>
<text text-anchor="middle" x="295" y="-277.8" font-family="Liberation Sans" font-size="14.00">Enter farm floor</text>
<text text-anchor="middle" x="295" y="-262.8" font-family="Liberation Sans" font-size="14.00">and discount</text>
</g>
<!-- q4&#45;&gt;s4_0 -->
<g id="edge30" class="edge">
<title>q4&#45;&gt;s4_0</title>
<path fill="none" stroke="#333333" stroke-width="1.1" d="M179.32,-274C179.32,-274 208.77,-274 208.77,-274"/>
<polygon fill="#333333" stroke="#333333" stroke-width="1.1" points="208.77,-276.45 215.77,-274 208.77,-271.55 208.77,-276.45"/>
<text text-anchor="middle" x="184.04" y="-277.4" font-family="Liberation Sans" font-size="12.00">Yes</text>
</g>
<!-- q5 -->
<g id="node38" class="node">
<title>q5</title>
<polygon fill="#f4f4f4" stroke="black" stroke-width="1.3" points="123,-168 37,-136 123,-104 209,-136 123,-168"/>
<text text-anchor="middle" x="123" y="-139.8" font-family="Liberation Sans" font-size="14.00">View roster or</text>
<text text-anchor="middle" x="123" y="-124.8" font-family="Liberation Sans" font-size="14.00">analytics?</text>
</g>
<!-- q4&#45;&gt;q5 -->
<g id="edge36" class="edge">
<title>q4&#45;&gt;q5</title>
<path fill="none" stroke="#333333" stroke-width="1.1" d="M123,-241.99C123,-241.99 123,-175.31 123,-175.31"/>
<polygon fill="#333333" stroke="#333333" stroke-width="1.1" points="125.45,-175.31 123,-168.31 120.55,-175.31 125.45,-175.31"/>
<text text-anchor="middle" x="115" y="-212.05" font-family="Liberation Sans" font-size="12.00">No</text>
</g>
<!-- s4_1 -->
<g id="node33" class="node">
<title>s4_1</title>
<polygon fill="#f4f4f4" stroke="black" stroke-width="1.3" points="507,-306 411,-274 507,-242 603,-274 507,-306"/>
<text text-anchor="middle" x="507" y="-277.8" font-family="Liberation Sans" font-size="14.00">Tighter than</text>
<text text-anchor="middle" x="507" y="-262.8" font-family="Liberation Sans" font-size="14.00">system values?</text>
</g>
<!-- s4_0&#45;&gt;s4_1 -->
<g id="edge31" class="edge">
<title>s4_0&#45;&gt;s4_1</title>
<path fill="none" stroke="#333333" stroke-width="1.1" d="M374.24,-274C374.24,-274 403.67,-274 403.67,-274"/>
<polygon fill="#333333" stroke="#333333" stroke-width="1.1" points="403.67,-276.45 410.67,-274 403.67,-271.55 403.67,-276.45"/>
</g>
<!-- a4_1 -->
<g id="node34" class="node">
<title>a4_1</title>
<polygon fill="#ffffff" stroke="black" stroke-width="1.3" points="546.5,-222 467.5,-222 467.5,-184 546.5,-184 546.5,-222"/>
<text text-anchor="middle" x="507" y="-206.8" font-family="Liberation Sans" font-size="14.00">Reject the</text>
<text text-anchor="middle" x="507" y="-191.8" font-family="Liberation Sans" font-size="14.00">change</text>
</g>
<!-- s4_1&#45;&gt;a4_1 -->
<g id="edge32" class="edge">
<title>s4_1&#45;&gt;a4_1</title>
<path fill="none" stroke="#333333" stroke-width="1.1" d="M507,-241.82C507,-241.82 507,-229.07 507,-229.07"/>
<polygon fill="#333333" stroke="#333333" stroke-width="1.1" points="509.45,-229.07 507,-222.07 504.55,-229.07 509.45,-229.07"/>
<text text-anchor="middle" x="499" y="-225.85" font-family="Liberation Sans" font-size="12.00">No</text>
</g>
<!-- s4_2 -->
<g id="node36" class="node">
<title>s4_2</title>
<polygon fill="#ffffff" stroke="black" stroke-width="1.3" points="708.5,-293 619.5,-293 619.5,-255 708.5,-255 708.5,-293"/>
<text text-anchor="middle" x="664" y="-277.8" font-family="Liberation Sans" font-size="14.00">Save; notify</text>
<text text-anchor="middle" x="664" y="-262.8" font-family="Liberation Sans" font-size="14.00">listings</text>
</g>
<!-- s4_1&#45;&gt;s4_2 -->
<g id="edge34" class="edge">
<title>s4_1&#45;&gt;s4_2</title>
<path fill="none" stroke="#333333" stroke-width="1.1" d="M603.3,-274C603.3,-274 612.2,-274 612.2,-274"/>
<polygon fill="#333333" stroke="#333333" stroke-width="1.1" points="612.2,-276.45 619.2,-274 612.2,-271.55 612.2,-276.45"/>
<text text-anchor="middle" x="612.75" y="-264.4" font-family="Liberation Sans" font-size="12.00">Yes</text>
</g>
<!-- xa4_1 -->
<g id="node35" class="node">
<title>xa4_1</title>
<ellipse fill="#e8e6e0" stroke="black" stroke-width="1.3" cx="575" cy="-203" rx="12.5" ry="12.5"/>
<text text-anchor="middle" x="575" y="-199.3" font-family="Liberation Sans" font-size="14.00">R</text>
</g>
<!-- a4_1&#45;&gt;xa4_1 -->
<g id="edge33" class="edge">
<title>a4_1&#45;&gt;xa4_1</title>
<path fill="none" stroke="#333333" stroke-width="1.1" d="M546.56,-203C546.56,-203 555.41,-203 555.41,-203"/>
<polygon fill="#333333" stroke="#333333" stroke-width="1.1" points="555.41,-205.45 562.41,-203 555.41,-200.55 555.41,-205.45"/>
</g>
<!-- r4 -->
<g id="node37" class="node">
<title>r4</title>
<ellipse fill="#e8e6e0" stroke="black" stroke-width="1.3" cx="737" cy="-274" rx="12.5" ry="12.5"/>
<text text-anchor="middle" x="737" y="-270.3" font-family="Liberation Sans" font-size="14.00">R</text>
</g>
<!-- s4_2&#45;&gt;r4 -->
<g id="edge35" class="edge">
<title>s4_2&#45;&gt;r4</title>
<path fill="none" stroke="#333333" stroke-width="1.1" d="M708.57,-274C708.57,-274 717.24,-274 717.24,-274"/>
<polygon fill="#333333" stroke="#333333" stroke-width="1.1" points="717.24,-276.45 724.24,-274 717.24,-271.55 717.24,-276.45"/>
</g>
<!-- q5&#45;&gt;lo -->
<g id="edge39" class="edge">
<title>q5&#45;&gt;lo</title>
<path fill="none" stroke="#333333" stroke-width="1.1" d="M123,-103.77C123,-103.77 123,-95.16 123,-95.16"/>
<polygon fill="#333333" stroke="#333333" stroke-width="1.1" points="125.45,-95.16 123,-88.16 120.55,-95.16 125.45,-95.16"/>
<text text-anchor="middle" x="115" y="-89.87" font-family="Liberation Sans" font-size="12.00">No</text>
</g>
<!-- s5_0 -->
<g id="node39" class="node">
<title>s5_0</title>
<polygon fill="#ffffff" stroke="black" stroke-width="1.3" points="337,-155 225,-155 225,-117 337,-117 337,-155"/>
<text text-anchor="middle" x="281" y="-139.8" font-family="Liberation Sans" font-size="14.00">View roster and</text>
<text text-anchor="middle" x="281" y="-124.8" font-family="Liberation Sans" font-size="14.00">farm analytics</text>
</g>
<!-- q5&#45;&gt;s5_0 -->
<g id="edge37" class="edge">
<title>q5&#45;&gt;s5_0</title>
<path fill="none" stroke="#333333" stroke-width="1.1" d="M209.4,-136C209.4,-136 217.74,-136 217.74,-136"/>
<polygon fill="#333333" stroke="#333333" stroke-width="1.1" points="217.74,-138.45 224.74,-136 217.74,-133.55 217.74,-138.45"/>
<text text-anchor="middle" x="218.57" y="-126.4" font-family="Liberation Sans" font-size="12.00">Yes</text>
</g>
<!-- r5 -->
<g id="node40" class="node">
<title>r5</title>
<ellipse fill="#e8e6e0" stroke="black" stroke-width="1.3" cx="366" cy="-136" rx="12.5" ry="12.5"/>
<text text-anchor="middle" x="366" y="-132.3" font-family="Liberation Sans" font-size="14.00">R</text>
</g>
<!-- s5_0&#45;&gt;r5 -->
<g id="edge38" class="edge">
<title>s5_0&#45;&gt;r5</title>
<path fill="none" stroke="#333333" stroke-width="1.1" d="M337.22,-136C337.22,-136 346.27,-136 346.27,-136"/>
<polygon fill="#333333" stroke="#333333" stroke-width="1.1" points="346.27,-138.45 353.27,-136 346.27,-133.55 346.27,-138.45"/>
</g>
</g>
</svg>
