<?xml version="1.0" encoding="UTF-8" standalone="no"?>
<!DOCTYPE svg PUBLIC "-//W3C//DTD SVG 1.1//EN"
 "http://www.w3.org/Graphics/SVG/1.1/DTD/svg11.dtd">
<!-- Generated by graphviz version 2.43.0 (0)
 -->
<!-- Title: G Pages: 1 -->
<svg width="834pt" height="1124pt"
 viewBox="0.00 0.00 834.39 1123.80" xmlns="http://www.w3.org/2000/svg" xmlns:xlink="http://www.w3.org/1999/xlink">
<g id="graph0" class="graph" transform="scale(1 1) rotate(0) translate(14.4 1109.4)">
<title>G</title>
<polygon fill="white" stroke="transparent" points="-14.4,14.4 -14.4,-1109.4 819.99,-1109.4 819.99,14.4 -14.4,14.4"/>
<!-- s -->
<g id="node1" class="node">
<title>s</title>
<path fill="#e1e6ed" stroke="black" stroke-width="1.3" d="M275.59,-1095C275.59,-1095 245.59,-1095 245.59,-1095 239.59,-1095 233.59,-1089 233.59,-1083 233.59,-1083 233.59,-1071 233.59,-1071 233.59,-1065 239.59,-1059 245.59,-1059 245.59,-1059 275.59,-1059 275.59,-1059 281.59,-1059 287.59,-1065 287.59,-1071 287.59,-1071 287.59,-1083 287.59,-1083 287.59,-1089 281.59,-1095 275.59,-1095"/>
<text text-anchor="middle" x="260.59" y="-1073.3" font-family="Liberation Sans" font-size="14.00">Start</text>
</g>
<!-- open -->
<g id="node2" class="node">
<title>open</title>
<polygon fill="#ffffff" stroke="black" stroke-width="1.3" points="372.09,-1023 149.09,-1023 149.09,-985 372.09,-985 372.09,-1023"/>
<text text-anchor="middle" x="260.59" y="-1007.8" font-family="Liberation Sans" font-size="14.00">Open AniHow: Android application</text>
<text text-anchor="middle" x="260.59" y="-992.8" font-family="Liberation Sans" font-size="14.00">or content management panel</text>
</g>
<!-- s&#45;&gt;open -->
<g id="edge5" class="edge">
<title>s&#45;&gt;open</title>
<path fill="none" stroke="#333333" stroke-width="1.1" d="M260.59,-1058.96C260.59,-1058.96 260.59,-1030.11 260.59,-1030.11"/>
<polygon fill="#333333" stroke="#333333" stroke-width="1.1" points="263.04,-1030.11 260.59,-1023.11 258.14,-1030.11 263.04,-1030.11"/>
</g>
<!-- acct -->
<g id="node3" class="node">
<title>acct</title>
<polygon fill="#f4f4f4" stroke="black" stroke-width="1.3" points="260.59,-949 177.23,-931 260.59,-913 343.94,-931 260.59,-949"/>
<text text-anchor="middle" x="260.59" y="-927.3" font-family="Liberation Sans" font-size="14.00">Has an account?</text>
</g>
<!-- open&#45;&gt;acct -->
<g id="edge6" class="edge">
<title>open&#45;&gt;acct</title>
<path fill="none" stroke="#333333" stroke-width="1.1" d="M260.59,-984.82C260.59,-984.82 260.59,-956.3 260.59,-956.3"/>
<polygon fill="#333333" stroke="#333333" stroke-width="1.1" points="263.04,-956.3 260.59,-949.3 258.14,-956.3 263.04,-956.3"/>
</g>
<!-- reg -->
<g id="node4" class="node">
<title>reg</title>
<polygon fill="#f2f2f2" stroke="black" stroke-width="1.3" points="315.26,-877 64.44,-877 -0.09,-805 250.74,-805 315.26,-877"/>
<text text-anchor="middle" x="157.59" y="-844.8" font-family="Liberation Sans" font-size="14.00">Register as a buyer</text>
<text text-anchor="middle" x="157.59" y="-829.8" font-family="Liberation Sans" font-size="14.00">(name, email, password)</text>
</g>
<!-- acct&#45;&gt;reg -->
<g id="edge7" class="edge">
<title>acct&#45;&gt;reg</title>
<path fill="none" stroke="#333333" stroke-width="1.1" d="M246.17,-915.73C246.17,-915.73 246.17,-884.34 246.17,-884.34"/>
<polygon fill="#333333" stroke="#333333" stroke-width="1.1" points="248.62,-884.34 246.17,-877.34 243.72,-884.34 248.62,-884.34"/>
<text text-anchor="middle" x="238.17" y="-903.43" font-family="Liberation Sans" font-size="12.00">No</text>
</g>
<!-- login -->
<g id="node8" class="node">
<title>login</title>
<polygon fill="#f2f2f2" stroke="black" stroke-width="1.3" points="515.1,-561 286.8,-561 228.07,-525 456.37,-525 515.1,-561"/>
<text text-anchor="middle" x="371.59" y="-539.3" font-family="Liberation Sans" font-size="14.00">Enter email and password</text>
</g>
<!-- acct&#45;&gt;login -->
<g id="edge13" class="edge">
<title>acct&#45;&gt;login</title>
<path fill="none" stroke="#333333" stroke-width="1.1" d="M329.59,-927.65C329.59,-927.65 329.59,-568.25 329.59,-568.25"/>
<polygon fill="#333333" stroke="#333333" stroke-width="1.1" points="332.04,-568.25 329.59,-561.25 327.14,-568.25 332.04,-568.25"/>
<text text-anchor="middle" x="319.59" y="-751.35" font-family="Liberation Sans" font-size="12.00">Yes</text>
</g>
<!-- code -->
<g id="node5" class="node">
<title>code</title>
<polygon fill="#f2f2f2" stroke="black" stroke-width="1.3" points="283.44,-769 62.56,-769 5.74,-697 226.62,-697 283.44,-769"/>
<text text-anchor="middle" x="144.59" y="-736.8" font-family="Liberation Sans" font-size="14.00">Receive six&#45;digit code</text>
<text text-anchor="middle" x="144.59" y="-721.8" font-family="Liberation Sans" font-size="14.00">by email</text>
</g>
<!-- reg&#45;&gt;code -->
<g id="edge8" class="edge">
<title>reg&#45;&gt;code</title>
<path fill="none" stroke="#333333" stroke-width="1.1" d="M144.59,-804.74C144.59,-804.74 144.59,-776.35 144.59,-776.35"/>
<polygon fill="#333333" stroke="#333333" stroke-width="1.1" points="147.04,-776.35 144.59,-769.35 142.14,-776.35 147.04,-776.35"/>
</g>
<!-- valid -->
<g id="node6" class="node">
<title>valid</title>
<polygon fill="#f4f4f4" stroke="black" stroke-width="1.3" points="137.59,-661 18.59,-629 137.59,-597 256.59,-629 137.59,-661"/>
<text text-anchor="middle" x="137.59" y="-632.8" font-family="Liberation Sans" font-size="14.00">Code correct and</text>
<text text-anchor="middle" x="137.59" y="-617.8" font-family="Liberation Sans" font-size="14.00">within ten minutes?</text>
</g>
<!-- code&#45;&gt;valid -->
<g id="edge9" class="edge">
<title>code&#45;&gt;valid</title>
<path fill="none" stroke="#333333" stroke-width="1.1" d="M137.59,-696.92C137.59,-696.92 137.59,-668.2 137.59,-668.2"/>
<polygon fill="#333333" stroke="#333333" stroke-width="1.1" points="140.04,-668.2 137.59,-661.2 135.14,-668.2 140.04,-668.2"/>
</g>
<!-- resend -->
<g id="node7" class="node">
<title>resend</title>
<polygon fill="#ffffff" stroke="black" stroke-width="1.3" points="195.59,-561 53.59,-561 53.59,-525 195.59,-525 195.59,-561"/>
<text text-anchor="middle" x="124.59" y="-539.3" font-family="Liberation Sans" font-size="14.00">Request a new code</text>
</g>
<!-- valid&#45;&gt;resend -->
<g id="edge10" class="edge">
<title>valid&#45;&gt;resend</title>
<path fill="none" stroke="#333333" stroke-width="1.1" d="M124.59,-600.36C124.59,-600.36 124.59,-568 124.59,-568"/>
<polygon fill="#333333" stroke="#333333" stroke-width="1.1" points="127.04,-568 124.59,-561 122.14,-568 127.04,-568"/>
<text text-anchor="middle" x="116.59" y="-587.58" font-family="Liberation Sans" font-size="12.00">No</text>
</g>
<!-- valid&#45;&gt;login -->
<g id="edge12" class="edge">
<title>valid&#45;&gt;login</title>
<path fill="none" stroke="#333333" stroke-width="1.1" d="M242.33,-624.85C242.33,-624.85 242.33,-550.05 242.33,-550.05"/>
<polygon fill="#333333" stroke="#333333" stroke-width="1.1" points="244.78,-550.05 242.33,-543.05 239.88,-550.05 244.78,-550.05"/>
<text text-anchor="middle" x="232.33" y="-577.85" font-family="Liberation Sans" font-size="12.00">Yes</text>
</g>
<!-- resend&#45;&gt;code -->
<g id="edge11" class="edge">
<title>resend&#45;&gt;code</title>
<path fill="none" stroke="#333333" stroke-width="1.1" d="M53.36,-543C31.04,-543 12.12,-543 12.12,-543 12.12,-543 12.12,-689.82 12.12,-689.82"/>
<polygon fill="#333333" stroke="#333333" stroke-width="1.1" points="9.67,-689.82 12.12,-696.82 14.57,-689.82 9.67,-689.82"/>
</g>
<!-- ok -->
<g id="node9" class="node">
<title>ok</title>
<polygon fill="#f4f4f4" stroke="black" stroke-width="1.3" points="371.59,-489 242.59,-457 371.59,-425 500.59,-457 371.59,-489"/>
<text text-anchor="middle" x="371.59" y="-460.8" font-family="Liberation Sans" font-size="14.00">Credentials valid and</text>
<text text-anchor="middle" x="371.59" y="-445.8" font-family="Liberation Sans" font-size="14.00">account active?</text>
</g>
<!-- login&#45;&gt;ok -->
<g id="edge14" class="edge">
<title>login&#45;&gt;ok</title>
<path fill="none" stroke="#333333" stroke-width="1.1" d="M371.59,-524.76C371.59,-524.76 371.59,-496.11 371.59,-496.11"/>
<polygon fill="#333333" stroke="#333333" stroke-width="1.1" points="374.04,-496.11 371.59,-489.11 369.14,-496.11 374.04,-496.11"/>
</g>
<!-- err -->
<g id="node10" class="node">
<title>err</title>
<polygon fill="#ffffff" stroke="black" stroke-width="1.3" points="349.59,-389 205.59,-389 205.59,-353 349.59,-353 349.59,-389"/>
<text text-anchor="middle" x="277.59" y="-367.3" font-family="Liberation Sans" font-size="14.00">Show error message</text>
</g>
<!-- ok&#45;&gt;err -->
<g id="edge15" class="edge">
<title>ok&#45;&gt;err</title>
<path fill="none" stroke="#333333" stroke-width="1.1" d="M296.09,-443.56C296.09,-443.56 296.09,-396.13 296.09,-396.13"/>
<polygon fill="#333333" stroke="#333333" stroke-width="1.1" points="298.54,-396.13 296.09,-389.13 293.64,-396.13 298.54,-396.13"/>
<text text-anchor="middle" x="288.09" y="-410.25" font-family="Liberation Sans" font-size="12.00">No</text>
</g>
<!-- role -->
<g id="node11" class="node">
<title>role</title>
<polygon fill="#f4f4f4" stroke="black" stroke-width="1.3" points="465.59,-389 381.13,-371 465.59,-353 550.05,-371 465.59,-389"/>
<text text-anchor="middle" x="465.59" y="-367.3" font-family="Liberation Sans" font-size="14.00">Role of the user?</text>
</g>
<!-- ok&#45;&gt;role -->
<g id="edge17" class="edge">
<title>ok&#45;&gt;role</title>
<path fill="none" stroke="#333333" stroke-width="1.1" d="M440.97,-442.02C440.97,-442.02 440.97,-390.85 440.97,-390.85"/>
<polygon fill="#333333" stroke="#333333" stroke-width="1.1" points="443.42,-390.85 440.97,-383.85 438.52,-390.85 443.42,-390.85"/>
<text text-anchor="middle" x="430.97" y="-406.83" font-family="Liberation Sans" font-size="12.00">Yes</text>
</g>
<!-- err&#45;&gt;login -->
<g id="edge16" class="edge">
<title>err&#45;&gt;login</title>
<path fill="none" stroke="#333333" stroke-width="1.1" d="M235.33,-389.08C235.33,-389.08 235.33,-517.9 235.33,-517.9"/>
<polygon fill="#333333" stroke="#333333" stroke-width="1.1" points="232.88,-517.9 235.33,-524.9 237.78,-517.9 232.88,-517.9"/>
</g>
<!-- sa -->
<g id="node12" class="node">
<title>sa</title>
<polygon fill="#ffffff" stroke="black" stroke-width="1.3" points="253.09,-317 60.09,-317 60.09,-279 253.09,-279 253.09,-317"/>
<text text-anchor="middle" x="156.59" y="-301.8" font-family="Liberation Sans" font-size="14.00">Super Admin dashboard</text>
<text text-anchor="middle" x="156.59" y="-286.8" font-family="Liberation Sans" font-size="14.00">(content management panel)</text>
</g>
<!-- role&#45;&gt;sa -->
<g id="edge18" class="edge">
<title>role&#45;&gt;sa</title>
<path fill="none" stroke="#333333" stroke-width="1.1" d="M406.77,-365.38C406.77,-355.25 406.77,-335 406.77,-335 406.77,-335 229.34,-335 229.34,-335 229.34,-335 229.34,-324.37 229.34,-324.37"/>
<polygon fill="#333333" stroke="#333333" stroke-width="1.1" points="231.79,-324.37 229.34,-317.37 226.89,-324.37 231.79,-324.37"/>
<text text-anchor="middle" x="218.52" y="-347.55" font-family="Liberation Sans" font-size="12.00">Super Admin</text>
</g>
<!-- ce -->
<g id="node13" class="node">
<title>ce</title>
<polygon fill="#ffffff" stroke="black" stroke-width="1.3" points="457.59,-317 285.59,-317 285.59,-279 457.59,-279 457.59,-317"/>
<text text-anchor="middle" x="371.59" y="-301.8" font-family="Liberation Sans" font-size="14.00">Content Editor dashboard</text>
<text text-anchor="middle" x="371.59" y="-286.8" font-family="Liberation Sans" font-size="14.00">(own farm only)</text>
</g>
<!-- role&#45;&gt;ce -->
<g id="edge19" class="edge">
<title>role&#45;&gt;ce</title>
<path fill="none" stroke="#333333" stroke-width="1.1" d="M432.18,-359.91C432.18,-359.91 432.18,-324.16 432.18,-324.16"/>
<polygon fill="#333333" stroke="#333333" stroke-width="1.1" points="434.63,-324.16 432.18,-317.16 429.73,-324.16 434.63,-324.16"/>
<text text-anchor="middle" x="421.36" y="-347.35" font-family="Liberation Sans" font-size="12.00">Content Editor</text>
</g>
<!-- fs -->
<g id="node14" class="node">
<title>fs</title>
<polygon fill="#ffffff" stroke="black" stroke-width="1.3" points="631.59,-317 489.59,-317 489.59,-279 631.59,-279 631.59,-317"/>
<text text-anchor="middle" x="560.59" y="-301.8" font-family="Liberation Sans" font-size="14.00">Farmer&#45;seller home</text>
<text text-anchor="middle" x="560.59" y="-286.8" font-family="Liberation Sans" font-size="14.00">(Android application)</text>
</g>
<!-- role&#45;&gt;fs -->
<g id="edge20" class="edge">
<title>role&#45;&gt;fs</title>
<path fill="none" stroke="#333333" stroke-width="1.1" d="M519.7,-364.26C519.7,-364.26 519.7,-324.23 519.7,-324.23"/>
<polygon fill="#333333" stroke="#333333" stroke-width="1.1" points="522.15,-324.23 519.7,-317.23 517.25,-324.23 522.15,-324.23"/>
<text text-anchor="middle" x="508.89" y="-347.41" font-family="Liberation Sans" font-size="12.00">Farmer&#45;seller</text>
</g>
<!-- by -->
<g id="node15" class="node">
<title>by</title>
<polygon fill="#ffffff" stroke="black" stroke-width="1.3" points="805.59,-317 663.59,-317 663.59,-279 805.59,-279 805.59,-317"/>
<text text-anchor="middle" x="734.59" y="-301.8" font-family="Liberation Sans" font-size="14.00">Buyer marketplace</text>
<text text-anchor="middle" x="734.59" y="-286.8" font-family="Liberation Sans" font-size="14.00">(Android application)</text>
</g>
<!-- role&#45;&gt;by -->
<g id="edge21" class="edge">
<title>role&#45;&gt;by</title>
<path fill="none" stroke="#333333" stroke-width="1.1" d="M549.96,-371C628.85,-371 734.59,-371 734.59,-371 734.59,-371 734.59,-324.18 734.59,-324.18"/>
<polygon fill="#333333" stroke="#333333" stroke-width="1.1" points="737.04,-324.18 734.59,-317.18 732.14,-324.18 737.04,-324.18"/>
<text text-anchor="middle" x="723.77" y="-347.37" font-family="Liberation Sans" font-size="12.00">Buyer</text>
</g>
<!-- csa -->
<g id="node16" class="node">
<title>csa</title>
<ellipse fill="#e8e6e0" stroke="black" stroke-width="1.3" cx="268.59" cy="-230.5" rx="12.5" ry="12.5"/>
<text text-anchor="middle" x="268.59" y="-226.8" font-family="Liberation Sans" font-size="14.00">A</text>
</g>
<!-- sa&#45;&gt;csa -->
<g id="edge1" class="edge">
<title>sa&#45;&gt;csa</title>
<path fill="none" stroke="#333333" stroke-width="1.1" d="M253.48,-298C262.64,-298 268.59,-298 268.59,-298 268.59,-298 268.59,-250.2 268.59,-250.2"/>
<polygon fill="#333333" stroke="#333333" stroke-width="1.1" points="271.04,-250.2 268.59,-243.2 266.14,-250.2 271.04,-250.2"/>
</g>
<!-- cce -->
<g id="node17" class="node">
<title>cce</title>
<ellipse fill="#e8e6e0" stroke="black" stroke-width="1.3" cx="404.59" cy="-230.5" rx="12.5" ry="12.5"/>
<text text-anchor="middle" x="404.59" y="-226.8" font-family="Liberation Sans" font-size="14.00">B</text>
</g>
<!-- ce&#45;&gt;cce -->
<g id="edge2" class="edge">
<title>ce&#45;&gt;cce</title>
<path fill="none" stroke="#333333" stroke-width="1.1" d="M404.59,-278.84C404.59,-278.84 404.59,-250.3 404.59,-250.3"/>
<polygon fill="#333333" stroke="#333333" stroke-width="1.1" points="407.04,-250.3 404.59,-243.3 402.14,-250.3 407.04,-250.3"/>
</g>
<!-- cfs -->
<g id="node18" class="node">
<title>cfs</title>
<ellipse fill="#e8e6e0" stroke="black" stroke-width="1.3" cx="527.59" cy="-230.5" rx="12.5" ry="12.5"/>
<text text-anchor="middle" x="527.59" y="-226.8" font-family="Liberation Sans" font-size="14.00">C</text>
</g>
<!-- fs&#45;&gt;cfs -->
<g id="edge3" class="edge">
<title>fs&#45;&gt;cfs</title>
<path fill="none" stroke="#333333" stroke-width="1.1" d="M527.59,-278.84C527.59,-278.84 527.59,-250.3 527.59,-250.3"/>
<polygon fill="#333333" stroke="#333333" stroke-width="1.1" points="530.04,-250.3 527.59,-243.3 525.14,-250.3 530.04,-250.3"/>
</g>
<!-- cby -->
<g id="node19" class="node">
<title>cby</title>
<ellipse fill="#e8e6e0" stroke="black" stroke-width="1.3" cx="675.59" cy="-230.5" rx="12.5" ry="12.5"/>
<text text-anchor="middle" x="675.59" y="-226.8" font-family="Liberation Sans" font-size="14.00">D</text>
</g>
<!-- by&#45;&gt;cby -->
<g id="edge4" class="edge">
<title>by&#45;&gt;cby</title>
<path fill="none" stroke="#333333" stroke-width="1.1" d="M675.84,-278.84C675.84,-278.84 675.84,-250.3 675.84,-250.3"/>
<polygon fill="#333333" stroke="#333333" stroke-width="1.1" points="678.29,-250.3 675.84,-243.3 673.39,-250.3 678.29,-250.3"/>
</g>
<!-- tasks -->
<g id="node20" class="node">
<title>tasks</title>
<polygon fill="#ffffff" stroke="black" stroke-width="1.3" points="530.09,-182 401.09,-182 401.09,-144 530.09,-144 530.09,-182"/>
<text text-anchor="middle" x="465.59" y="-166.8" font-family="Liberation Sans" font-size="14.00">Perform role tasks</text>
<text text-anchor="middle" x="465.59" y="-151.8" font-family="Liberation Sans" font-size="14.00">(Figures 6 to 9)</text>
</g>
<!-- csa&#45;&gt;tasks -->
<g id="edge22" class="edge">
<title>csa&#45;&gt;tasks</title>
<path fill="none" stroke="#333333" stroke-width="1.1" d="M268.59,-217.8C268.59,-198.25 268.59,-163 268.59,-163 268.59,-163 394.08,-163 394.08,-163"/>
<polygon fill="#333333" stroke="#333333" stroke-width="1.1" points="394.08,-165.45 401.08,-163 394.08,-160.55 394.08,-165.45"/>
</g>
<!-- cce&#45;&gt;tasks -->
<g id="edge23" class="edge">
<title>cce&#45;&gt;tasks</title>
<path fill="none" stroke="#333333" stroke-width="1.1" d="M409.09,-218.74C409.09,-218.74 409.09,-189.02 409.09,-189.02"/>
<polygon fill="#333333" stroke="#333333" stroke-width="1.1" points="411.54,-189.02 409.09,-182.02 406.64,-189.02 411.54,-189.02"/>
</g>
<!-- cfs&#45;&gt;tasks -->
<g id="edge24" class="edge">
<title>cfs&#45;&gt;tasks</title>
<path fill="none" stroke="#333333" stroke-width="1.1" d="M522.59,-218.74C522.59,-218.74 522.59,-189.02 522.59,-189.02"/>
<polygon fill="#333333" stroke="#333333" stroke-width="1.1" points="525.04,-189.02 522.59,-182.02 520.14,-189.02 525.04,-189.02"/>
</g>
<!-- cby&#45;&gt;tasks -->
<g id="edge25" class="edge">
<title>cby&#45;&gt;tasks</title>
<path fill="none" stroke="#333333" stroke-width="1.1" d="M675.59,-217.8C675.59,-198.25 675.59,-163 675.59,-163 675.59,-163 537.31,-163 537.31,-163"/>
<polygon fill="#333333" stroke="#333333" stroke-width="1.1" points="537.31,-160.55 530.31,-163 537.31,-165.45 537.31,-160.55"/>
</g>
<!-- out -->
<g id="node21" class="node">
<title>out</title>
<polygon fill="#f4f4f4" stroke="black" stroke-width="1.3" points="465.59,-108 421.35,-90 465.59,-72 509.83,-90 465.59,-108"/>
<text text-anchor="middle" x="465.59" y="-86.3" font-family="Liberation Sans" font-size="14.00">Log out?</text>
</g>
<!-- tasks&#45;&gt;out -->
<g id="edge26" class="edge">
<title>tasks&#45;&gt;out</title>
<path fill="none" stroke="#333333" stroke-width="1.1" d="M450.88,-143.82C450.88,-143.82 450.88,-109.19 450.88,-109.19"/>
<polygon fill="#333333" stroke="#333333" stroke-width="1.1" points="453.33,-109.19 450.88,-102.19 448.43,-109.19 453.33,-109.19"/>
</g>
<!-- out&#45;&gt;tasks -->
<g id="edge27" class="edge">
<title>out&#45;&gt;tasks</title>
<path fill="none" stroke="#333333" stroke-width="1.1" d="M480.29,-102.05C480.29,-102.05 480.29,-136.78 480.29,-136.78"/>
<polygon fill="#333333" stroke="#333333" stroke-width="1.1" points="477.84,-136.78 480.29,-143.78 482.74,-136.78 477.84,-136.78"/>
<text text-anchor="middle" x="472.29" y="-122.82" font-family="Liberation Sans" font-size="12.00">No</text>
</g>
<!-- end -->
<g id="node22" class="node">
<title>end</title>
<path fill="#e1e6ed" stroke="black" stroke-width="1.3" d="M480.59,-36C480.59,-36 450.59,-36 450.59,-36 444.59,-36 438.59,-30 438.59,-24 438.59,-24 438.59,-12 438.59,-12 438.59,-6 444.59,0 450.59,0 450.59,0 480.59,0 480.59,0 486.59,0 492.59,-6 492.59,-12 492.59,-12 492.59,-24 492.59,-24 492.59,-30 486.59,-36 480.59,-36"/>
<text text-anchor="middle" x="465.59" y="-14.3" font-family="Liberation Sans" font-size="14.00">End</text>
</g>
<!-- out&#45;&gt;end -->
<g id="edge28" class="edge">
<title>out&#45;&gt;end</title>
<path fill="none" stroke="#333333" stroke-width="1.1" d="M465.59,-71.83C465.59,-71.83 465.59,-43.41 465.59,-43.41"/>
<polygon fill="#333333" stroke="#333333" stroke-width="1.1" points="468.04,-43.41 465.59,-36.41 463.14,-43.41 468.04,-43.41"/>
<text text-anchor="middle" x="455.59" y="-61.02" font-family="Liberation Sans" font-size="12.00">Yes</text>
</g>
</g>
</svg>
