<?xml version="1.0" encoding="UTF-8" standalone="no"?>
<!DOCTYPE svg PUBLIC "-//W3C//DTD SVG 1.1//EN"
 "http://www.w3.org/Graphics/SVG/1.1/DTD/svg11.dtd">
<!-- Generated by graphviz version 2.43.0 (0)
 -->
<!-- Title: G Pages: 1 -->
<svg width="923pt" height="1019pt"
 viewBox="0.00 0.00 923.15 1019.20" xmlns="http://www.w3.org/2000/svg" xmlns:xlink="http://www.w3.org/1999/xlink">
<g id="graph0" class="graph" transform="scale(1 1) rotate(0) translate(21.6 997.6)">
<title>G</title>
<polygon fill="white" stroke="transparent" points="-21.6,21.6 -21.6,-997.6 901.55,-997.6 901.55,21.6 -21.6,21.6"/>
<g id="clust1" class="cluster">
<title>cluster_sys</title>
<path fill="none" stroke="#777777" d="M198,-8C198,-8 681.95,-8 681.95,-8 687.95,-8 693.95,-14 693.95,-20 693.95,-20 693.95,-956 693.95,-956 693.95,-962 687.95,-968 681.95,-968 681.95,-968 198,-968 198,-968 192,-968 186,-962 186,-956 186,-956 186,-20 186,-20 186,-14 192,-8 198,-8"/>
<text text-anchor="middle" x="439.98" y="-952.8" font-family="Liberation Sans" font-size="14.00">AniHow System</text>
</g>
<!-- sa -->
<g id="node1" class="node">
<title>sa</title>
<polygon fill="#e1e6ed" stroke="black" stroke-width="1.4" points="115,-713 0,-713 0,-677 115,-677 115,-713"/>
<text text-anchor="middle" x="57.5" y="-691.6" font-family="Liberation Sans" font-size="13.00">Super Admin</text>
</g>
<!-- sa1 -->
<g id="node5" class="node">
<title>sa1</title>
<ellipse fill="none" stroke="black" stroke-width="1.1" cx="295.12" cy="-750" rx="83" ry="20"/>
<text text-anchor="middle" x="295.12" y="-747.2" font-family="Liberation Sans" font-size="11.00">Manage user accounts</text>
</g>
<!-- sa&#45;&gt;sa1 -->
<g id="edge1" class="edge">
<title>sa&#45;&gt;sa1</title>
<path fill="none" stroke="#333333" d="M115.24,-708.24C151.46,-716.7 198.32,-727.64 235,-736.2"/>
</g>
<!-- sa2 -->
<g id="node6" class="node">
<title>sa2</title>
<ellipse fill="none" stroke="black" stroke-width="1.1" cx="295.12" cy="-640" rx="83" ry="20"/>
<text text-anchor="middle" x="295.12" y="-637.2" font-family="Liberation Sans" font-size="11.00">Set system price guards</text>
</g>
<!-- sa&#45;&gt;sa2 -->
<g id="edge2" class="edge">
<title>sa&#45;&gt;sa2</title>
<path fill="none" stroke="#333333" d="M115.24,-681.76C151.46,-673.3 198.32,-662.36 235,-653.8"/>
</g>
<!-- sa3 -->
<g id="node7" class="node">
<title>sa3</title>
<ellipse fill="none" stroke="black" stroke-width="1.1" cx="295.12" cy="-917" rx="83" ry="20"/>
<text text-anchor="middle" x="295.12" y="-914.2" font-family="Liberation Sans" font-size="11.00">Manage crop taxonomy</text>
</g>
<!-- sa&#45;&gt;sa3 -->
<g id="edge3" class="edge">
<title>sa&#45;&gt;sa3</title>
<path fill="none" stroke="#333333" d="M64.95,-713.19C79.78,-752.27 120.19,-844.51 186,-891 196.56,-898.46 209,-903.8 221.62,-907.61"/>
</g>
<!-- sa4 -->
<g id="node8" class="node">
<title>sa4</title>
<ellipse fill="none" stroke="black" stroke-width="1.1" cx="295.12" cy="-695" rx="101.23" ry="22.76"/>
<text text-anchor="middle" x="295.12" y="-698.2" font-family="Liberation Sans" font-size="11.00">Moderate listings, reviews,</text>
<text text-anchor="middle" x="295.12" y="-686.2" font-family="Liberation Sans" font-size="11.00">and farm FAQ answers</text>
</g>
<!-- sa&#45;&gt;sa4 -->
<g id="edge4" class="edge">
<title>sa&#45;&gt;sa4</title>
<path fill="none" stroke="#333333" d="M115.24,-695C138.79,-695 166.85,-695 193.68,-695"/>
</g>
<!-- sa5 -->
<g id="node9" class="node">
<title>sa5</title>
<ellipse fill="none" stroke="black" stroke-width="1.1" cx="295.12" cy="-585" rx="83" ry="22.76"/>
<text text-anchor="middle" x="295.12" y="-588.2" font-family="Liberation Sans" font-size="11.00">Manage system</text>
<text text-anchor="middle" x="295.12" y="-576.2" font-family="Liberation Sans" font-size="11.00">FAQ answers</text>
</g>
<!-- sa&#45;&gt;sa5 -->
<g id="edge5" class="edge">
<title>sa&#45;&gt;sa5</title>
<path fill="none" stroke="#333333" d="M82.17,-676.83C106.88,-658.64 147.35,-630.99 186,-614 199.7,-607.98 214.94,-602.96 229.55,-598.88"/>
</g>
<!-- sa6 -->
<g id="node10" class="node">
<title>sa6</title>
<ellipse fill="none" stroke="black" stroke-width="1.1" cx="295.12" cy="-862" rx="83" ry="22.76"/>
<text text-anchor="middle" x="295.12" y="-865.2" font-family="Liberation Sans" font-size="11.00">Process account</text>
<text text-anchor="middle" x="295.12" y="-853.2" font-family="Liberation Sans" font-size="11.00">deletion requests</text>
</g>
<!-- sa&#45;&gt;sa6 -->
<g id="edge6" class="edge">
<title>sa&#45;&gt;sa6</title>
<path fill="none" stroke="#333333" d="M70.17,-713.46C90.14,-743.47 133.79,-802.63 186,-834 197.63,-840.99 210.99,-846.25 224.26,-850.2"/>
</g>
<!-- sa7 -->
<g id="node11" class="node">
<title>sa7</title>
<ellipse fill="none" stroke="black" stroke-width="1.1" cx="295.12" cy="-805" rx="100.32" ry="22.76"/>
<text text-anchor="middle" x="295.12" y="-808.2" font-family="Liberation Sans" font-size="11.00">View ledger and analytics;</text>
<text text-anchor="middle" x="295.12" y="-796.2" font-family="Liberation Sans" font-size="11.00">export CSV</text>
</g>
<!-- sa&#45;&gt;sa7 -->
<g id="edge7" class="edge">
<title>sa&#45;&gt;sa7</title>
<path fill="none" stroke="#333333" d="M82.17,-713.17C106.88,-731.36 147.35,-759.01 186,-776 197.65,-781.12 210.42,-785.52 222.97,-789.23"/>
</g>
<!-- sa8 -->
<g id="node12" class="node">
<title>sa8</title>
<ellipse fill="none" stroke="black" stroke-width="1.1" cx="295.12" cy="-528" rx="83" ry="22.76"/>
<text text-anchor="middle" x="295.12" y="-531.2" font-family="Liberation Sans" font-size="11.00">Read order chat</text>
<text text-anchor="middle" x="295.12" y="-519.2" font-family="Liberation Sans" font-size="11.00">threads</text>
</g>
<!-- sa&#45;&gt;sa8 -->
<g id="edge8" class="edge">
<title>sa&#45;&gt;sa8</title>
<path fill="none" stroke="#333333" d="M70.17,-676.54C90.14,-646.53 133.79,-587.37 186,-556 197.63,-549.01 210.99,-543.75 224.26,-539.8"/>
</g>
<!-- sa9 -->
<g id="node13" class="node">
<title>sa9</title>
<ellipse fill="none" stroke="black" stroke-width="1.1" cx="295.12" cy="-471" rx="83" ry="22.76"/>
<text text-anchor="middle" x="295.12" y="-474.2" font-family="Liberation Sans" font-size="11.00">Resolve reports on</text>
<text text-anchor="middle" x="295.12" y="-462.2" font-family="Liberation Sans" font-size="11.00">listings and reviews</text>
</g>
<!-- sa&#45;&gt;sa9 -->
<g id="edge9" class="edge">
<title>sa&#45;&gt;sa9</title>
<path fill="none" stroke="#333333" d="M65.01,-676.9C79.96,-637.98 120.59,-546.06 186,-499 196.62,-491.36 209.16,-485.8 221.87,-481.75"/>
</g>
<!-- ce -->
<g id="node2" class="node">
<title>ce</title>
<polygon fill="#e1e6ed" stroke="black" stroke-width="1.4" points="115,-196 0,-196 0,-160 115,-160 115,-196"/>
<text text-anchor="middle" x="57.5" y="-174.6" font-family="Liberation Sans" font-size="13.00">Content Editor</text>
</g>
<!-- ce1 -->
<g id="node14" class="node">
<title>ce1</title>
<ellipse fill="none" stroke="black" stroke-width="1.1" cx="295.12" cy="-391" rx="83" ry="22.76"/>
<text text-anchor="middle" x="295.12" y="-394.2" font-family="Liberation Sans" font-size="11.00">Manage crop&#45;care</text>
<text text-anchor="middle" x="295.12" y="-382.2" font-family="Liberation Sans" font-size="11.00">articles</text>
</g>
<!-- ce&#45;&gt;ce1 -->
<g id="edge10" class="edge">
<title>ce&#45;&gt;ce1</title>
<path fill="none" stroke="#333333" d="M73.07,-196.16C95.66,-223.73 141.2,-277.05 186,-316 209.27,-336.24 238.07,-355.99 260.09,-370.14"/>
</g>
<!-- ce2 -->
<g id="node15" class="node">
<title>ce2</title>
<ellipse fill="none" stroke="black" stroke-width="1.1" cx="295.12" cy="-287" rx="83" ry="22.76"/>
<text text-anchor="middle" x="295.12" y="-290.2" font-family="Liberation Sans" font-size="11.00">Manage farm profile</text>
<text text-anchor="middle" x="295.12" y="-278.2" font-family="Liberation Sans" font-size="11.00">and gallery</text>
</g>
<!-- ce&#45;&gt;ce2 -->
<g id="edge11" class="edge">
<title>ce&#45;&gt;ce2</title>
<path fill="none" stroke="#333333" d="M97.67,-196.12C140.33,-215.86 208.31,-247.3 252.07,-267.55"/>
</g>
<!-- ce3 -->
<g id="node16" class="node">
<title>ce3</title>
<ellipse fill="none" stroke="black" stroke-width="1.1" cx="295.12" cy="-206" rx="83" ry="22.76"/>
<text text-anchor="middle" x="295.12" y="-209.2" font-family="Liberation Sans" font-size="11.00">Post farm</text>
<text text-anchor="middle" x="295.12" y="-197.2" font-family="Liberation Sans" font-size="11.00">announcements</text>
</g>
<!-- ce&#45;&gt;ce3 -->
<g id="edge12" class="edge">
<title>ce&#45;&gt;ce3</title>
<path fill="none" stroke="#333333" d="M115.24,-184.74C146.28,-188.43 185.15,-193.05 218.72,-197.04"/>
</g>
<!-- ce4 -->
<g id="node17" class="node">
<title>ce4</title>
<ellipse fill="none" stroke="black" stroke-width="1.1" cx="295.12" cy="-149" rx="83" ry="22.76"/>
<text text-anchor="middle" x="295.12" y="-152.2" font-family="Liberation Sans" font-size="11.00">Manage farm</text>
<text text-anchor="middle" x="295.12" y="-140.2" font-family="Liberation Sans" font-size="11.00">FAQ answers</text>
</g>
<!-- ce&#45;&gt;ce4 -->
<g id="edge13" class="edge">
<title>ce&#45;&gt;ce4</title>
<path fill="none" stroke="#333333" d="M115.24,-171.02C146.42,-167.18 185.49,-162.37 219.16,-158.23"/>
</g>
<!-- ce5 -->
<g id="node18" class="node">
<title>ce5</title>
<ellipse fill="none" stroke="black" stroke-width="1.1" cx="295.12" cy="-94" rx="83" ry="20"/>
<text text-anchor="middle" x="295.12" y="-91.2" font-family="Liberation Sans" font-size="11.00">Set farm price guards</text>
</g>
<!-- ce&#45;&gt;ce5 -->
<g id="edge14" class="edge">
<title>ce&#45;&gt;ce5</title>
<path fill="none" stroke="#333333" d="M93.48,-159.89C118.69,-147.39 153.81,-131.08 186,-120 200.51,-115.01 216.44,-110.61 231.5,-106.91"/>
</g>
<!-- ce6 -->
<g id="node19" class="node">
<title>ce6</title>
<ellipse fill="none" stroke="black" stroke-width="1.1" cx="295.12" cy="-39" rx="83" ry="22.76"/>
<text text-anchor="middle" x="295.12" y="-42.2" font-family="Liberation Sans" font-size="11.00">View farm roster</text>
<text text-anchor="middle" x="295.12" y="-30.2" font-family="Liberation Sans" font-size="11.00">and analytics</text>
</g>
<!-- ce&#45;&gt;ce6 -->
<g id="edge15" class="edge">
<title>ce&#45;&gt;ce6</title>
<path fill="none" stroke="#333333" d="M74.37,-159.96C96.82,-135.53 140.27,-92.21 186,-68 198.62,-61.32 212.91,-56.08 226.87,-52.01"/>
</g>
<!-- fs -->
<g id="node3" class="node">
<title>fs</title>
<polygon fill="#e8e6e0" stroke="black" stroke-width="1.4" points="879.95,-664 764.95,-664 764.95,-628 879.95,-628 879.95,-664"/>
<text text-anchor="middle" x="822.45" y="-642.6" font-family="Liberation Sans" font-size="13.00">Farmer&#45;Seller</text>
</g>
<!-- by -->
<g id="node4" class="node">
<title>by</title>
<polygon fill="#e8e6e0" stroke="black" stroke-width="1.4" points="879.95,-308 764.95,-308 764.95,-272 879.95,-272 879.95,-308"/>
<text text-anchor="middle" x="822.45" y="-286.6" font-family="Liberation Sans" font-size="13.00">Buyer</text>
</g>
<!-- sa1&#45;&gt;sa2 -->
<!-- fs1 -->
<g id="node20" class="node">
<title>fs1</title>
<ellipse fill="none" stroke="black" stroke-width="1.1" cx="580.59" cy="-758" rx="83" ry="22.76"/>
<text text-anchor="middle" x="580.59" y="-761.2" font-family="Liberation Sans" font-size="11.00">Manage listings</text>
<text text-anchor="middle" x="580.59" y="-749.2" font-family="Liberation Sans" font-size="11.00">and tawad</text>
</g>
<!-- sa1&#45;&gt;fs1 -->
<!-- sa2&#45;&gt;sa3 -->
<!-- fs2 -->
<g id="node21" class="node">
<title>fs2</title>
<ellipse fill="none" stroke="black" stroke-width="1.1" cx="580.59" cy="-646" rx="83" ry="20"/>
<text text-anchor="middle" x="580.59" y="-643.2" font-family="Liberation Sans" font-size="11.00">Process orders</text>
</g>
<!-- sa2&#45;&gt;fs2 -->
<!-- sa3&#45;&gt;sa4 -->
<!-- fs3 -->
<g id="node22" class="node">
<title>fs3</title>
<ellipse fill="none" stroke="black" stroke-width="1.1" cx="580.59" cy="-917" rx="83" ry="20"/>
<text text-anchor="middle" x="580.59" y="-914.2" font-family="Liberation Sans" font-size="11.00">Record walk&#45;in sale</text>
</g>
<!-- sa3&#45;&gt;fs3 -->
<!-- sa4&#45;&gt;sa5 -->
<!-- fs4 -->
<g id="node23" class="node">
<title>fs4</title>
<ellipse fill="none" stroke="black" stroke-width="1.1" cx="580.59" cy="-701" rx="83" ry="22.76"/>
<text text-anchor="middle" x="580.59" y="-704.2" font-family="Liberation Sans" font-size="11.00">Read crop&#45;care</text>
<text text-anchor="middle" x="580.59" y="-692.2" font-family="Liberation Sans" font-size="11.00">articles</text>
</g>
<!-- sa4&#45;&gt;fs4 -->
<!-- sa5&#45;&gt;sa6 -->
<!-- fs5 -->
<g id="node24" class="node">
<title>fs5</title>
<ellipse fill="none" stroke="black" stroke-width="1.1" cx="580.59" cy="-591" rx="83" ry="22.76"/>
<text text-anchor="middle" x="580.59" y="-594.2" font-family="Liberation Sans" font-size="11.00">Read farm</text>
<text text-anchor="middle" x="580.59" y="-582.2" font-family="Liberation Sans" font-size="11.00">announcements</text>
</g>
<!-- sa5&#45;&gt;fs5 -->
<!-- sa6&#45;&gt;sa7 -->
<!-- fs6 -->
<g id="node25" class="node">
<title>fs6</title>
<ellipse fill="none" stroke="black" stroke-width="1.1" cx="580.59" cy="-865" rx="83" ry="20"/>
<text text-anchor="middle" x="580.59" y="-862.2" font-family="Liberation Sans" font-size="11.00">View My Sales</text>
</g>
<!-- sa6&#45;&gt;fs6 -->
<!-- sa7&#45;&gt;sa8 -->
<!-- fs7 -->
<g id="node26" class="node">
<title>fs7</title>
<ellipse fill="none" stroke="black" stroke-width="1.1" cx="580.59" cy="-813" rx="83" ry="20"/>
<text text-anchor="middle" x="580.59" y="-810.2" font-family="Liberation Sans" font-size="11.00">View shop reviews</text>
</g>
<!-- sa7&#45;&gt;fs7 -->
<!-- sa8&#45;&gt;sa9 -->
<!-- sh1 -->
<g id="node27" class="node">
<title>sh1</title>
<ellipse fill="none" stroke="black" stroke-width="1.1" cx="580.59" cy="-536" rx="83" ry="20"/>
<text text-anchor="middle" x="580.59" y="-533.2" font-family="Liberation Sans" font-size="11.00">Chat about an order</text>
</g>
<!-- sa8&#45;&gt;sh1 -->
<!-- sa9&#45;&gt;ce1 -->
<!-- sh2 -->
<g id="node28" class="node">
<title>sh2</title>
<ellipse fill="none" stroke="black" stroke-width="1.1" cx="580.59" cy="-484" rx="83" ry="20"/>
<text text-anchor="middle" x="580.59" y="-481.2" font-family="Liberation Sans" font-size="11.00">Ask the FAQ helper</text>
</g>
<!-- sa9&#45;&gt;sh2 -->
<!-- ce1&#45;&gt;ce2 -->
<!-- sh3 -->
<g id="node29" class="node">
<title>sh3</title>
<ellipse fill="none" stroke="black" stroke-width="1.1" cx="580.59" cy="-429" rx="105.22" ry="22.76"/>
<text text-anchor="middle" x="580.59" y="-432.2" font-family="Liberation Sans" font-size="11.00">Manage my data (correct,</text>
<text text-anchor="middle" x="580.59" y="-420.2" font-family="Liberation Sans" font-size="11.00">download, request deletion)</text>
</g>
<!-- ce1&#45;&gt;sh3 -->
<!-- ce2&#45;&gt;ce3 -->
<!-- sh4 -->
<g id="node30" class="node">
<title>sh4</title>
<ellipse fill="none" stroke="black" stroke-width="1.1" cx="580.59" cy="-372" rx="83" ry="22.76"/>
<text text-anchor="middle" x="580.59" y="-375.2" font-family="Liberation Sans" font-size="11.00">Report a listing</text>
<text text-anchor="middle" x="580.59" y="-363.2" font-family="Liberation Sans" font-size="11.00">or review</text>
</g>
<!-- ce2&#45;&gt;sh4 -->
<!-- ce3&#45;&gt;ce4 -->
<!-- by1 -->
<g id="node31" class="node">
<title>by1</title>
<ellipse fill="none" stroke="black" stroke-width="1.1" cx="580.59" cy="-205" rx="83" ry="22.76"/>
<text text-anchor="middle" x="580.59" y="-208.2" font-family="Liberation Sans" font-size="11.00">Browse and search</text>
<text text-anchor="middle" x="580.59" y="-196.2" font-family="Liberation Sans" font-size="11.00">listings</text>
</g>
<!-- ce3&#45;&gt;by1 -->
<!-- ce4&#45;&gt;ce5 -->
<!-- by2 -->
<g id="node32" class="node">
<title>by2</title>
<ellipse fill="none" stroke="black" stroke-width="1.1" cx="580.59" cy="-148" rx="83" ry="22.76"/>
<text text-anchor="middle" x="580.59" y="-151.2" font-family="Liberation Sans" font-size="11.00">View storefront</text>
<text text-anchor="middle" x="580.59" y="-139.2" font-family="Liberation Sans" font-size="11.00">and farm page</text>
</g>
<!-- ce4&#45;&gt;by2 -->
<!-- ce5&#45;&gt;ce6 -->
<!-- by3 -->
<g id="node33" class="node">
<title>by3</title>
<ellipse fill="none" stroke="black" stroke-width="1.1" cx="580.59" cy="-91" rx="83" ry="22.76"/>
<text text-anchor="middle" x="580.59" y="-94.2" font-family="Liberation Sans" font-size="11.00">Place and cancel</text>
<text text-anchor="middle" x="580.59" y="-82.2" font-family="Liberation Sans" font-size="11.00">orders</text>
</g>
<!-- ce5&#45;&gt;by3 -->
<!-- by4 -->
<g id="node34" class="node">
<title>by4</title>
<ellipse fill="none" stroke="black" stroke-width="1.1" cx="580.59" cy="-36" rx="83" ry="20"/>
<text text-anchor="middle" x="580.59" y="-33.2" font-family="Liberation Sans" font-size="11.00">Choose fulfillment</text>
</g>
<!-- ce6&#45;&gt;by4 -->
<!-- fs1&#45;&gt;fs -->
<g id="edge16" class="edge">
<title>fs1&#45;&gt;fs</title>
<path fill="none" stroke="#333333" d="M649.07,-745.12C664.17,-741.16 679.87,-736.18 693.95,-730 733.52,-712.64 774.39,-683.33 798.86,-664.33"/>
</g>
<!-- fs1&#45;&gt;fs2 -->
<!-- fs2&#45;&gt;fs -->
<g id="edge17" class="edge">
<title>fs2&#45;&gt;fs</title>
<path fill="none" stroke="#333333" d="M663.8,-646C697.03,-646 734.55,-646 764.66,-646"/>
</g>
<!-- fs2&#45;&gt;fs3 -->
<!-- fs3&#45;&gt;fs -->
<g id="edge18" class="edge">
<title>fs3&#45;&gt;fs</title>
<path fill="none" stroke="#333333" d="M656.97,-909.02C670.21,-905.08 683.19,-899.34 693.95,-891 771.65,-830.8 806.67,-709.91 817.54,-664.13"/>
</g>
<!-- fs3&#45;&gt;fs4 -->
<!-- fs4&#45;&gt;fs -->
<g id="edge19" class="edge">
<title>fs4&#45;&gt;fs</title>
<path fill="none" stroke="#333333" d="M644.61,-686.55C681.81,-678.02 728.52,-667.31 764.59,-659.04"/>
</g>
<!-- fs4&#45;&gt;fs5 -->
<!-- fs5&#45;&gt;fs -->
<g id="edge20" class="edge">
<title>fs5&#45;&gt;fs</title>
<path fill="none" stroke="#333333" d="M644.61,-605.45C681.81,-613.98 728.52,-624.69 764.59,-632.96"/>
</g>
<!-- fs5&#45;&gt;fs6 -->
<!-- fs6&#45;&gt;fs -->
<g id="edge21" class="edge">
<title>fs6&#45;&gt;fs</title>
<path fill="none" stroke="#333333" d="M655.7,-856.27C669.21,-852.4 682.6,-846.88 693.95,-839 759.25,-793.63 799.81,-702.99 814.84,-664.25"/>
</g>
<!-- fs6&#45;&gt;fs7 -->
<!-- fs7&#45;&gt;fs -->
<g id="edge22" class="edge">
<title>fs7&#45;&gt;fs</title>
<path fill="none" stroke="#333333" d="M653.32,-803.26C667.4,-799.49 681.61,-794.26 693.95,-787 747.15,-755.72 790.66,-694.9 810.25,-664.39"/>
</g>
<!-- fs7&#45;&gt;sh1 -->
<!-- sh1&#45;&gt;fs -->
<g id="edge23" class="edge">
<title>sh1&#45;&gt;fs</title>
<path fill="none" stroke="#333333" d="M648.79,-547.45C663.97,-551.15 679.78,-555.93 693.95,-562 733.91,-579.13 774.99,-608.78 799.37,-627.89"/>
</g>
<!-- sh1&#45;&gt;by -->
<g id="edge27" class="edge">
<title>sh1&#45;&gt;by</title>
<path fill="none" stroke="#333333" d="M656.37,-527.71C669.75,-523.8 682.92,-518.15 693.95,-510 765.66,-457 803.59,-350.66 816.4,-308.16"/>
</g>
<!-- sh1&#45;&gt;sh2 -->
<!-- sh2&#45;&gt;fs -->
<g id="edge24" class="edge">
<title>sh2&#45;&gt;fs</title>
<path fill="none" stroke="#333333" d="M652.93,-493.84C667.1,-497.6 681.46,-502.81 693.95,-510 746.12,-540.04 789.78,-598.22 809.77,-627.79"/>
</g>
<!-- sh2&#45;&gt;by -->
<g id="edge28" class="edge">
<title>sh2&#45;&gt;by</title>
<path fill="none" stroke="#333333" d="M654.71,-474.83C668.45,-471.01 682.18,-465.62 693.95,-458 753.43,-419.5 795.84,-343.22 813,-308.27"/>
</g>
<!-- sh2&#45;&gt;sh3 -->
<!-- sh3&#45;&gt;fs -->
<g id="edge25" class="edge">
<title>sh3&#45;&gt;fs</title>
<path fill="none" stroke="#333333" d="M664.16,-442.86C674.73,-446.73 684.97,-451.68 693.95,-458 757.46,-502.74 798.73,-589.95 814.38,-627.78"/>
</g>
<!-- sh3&#45;&gt;by -->
<g id="edge29" class="edge">
<title>sh3&#45;&gt;by</title>
<path fill="none" stroke="#333333" d="M661,-414.24C672.38,-410.69 683.7,-406.34 693.95,-401 740.02,-377 783.33,-333.12 805.68,-308.33"/>
</g>
<!-- sh3&#45;&gt;sh4 -->
<!-- sh4&#45;&gt;fs -->
<g id="edge26" class="edge">
<title>sh4&#45;&gt;fs</title>
<path fill="none" stroke="#333333" d="M656.44,-381.23C669.88,-385.41 683.06,-391.4 693.95,-400 771.34,-461.12 806.55,-582.1 817.5,-627.88"/>
</g>
<!-- sh4&#45;&gt;by -->
<g id="edge30" class="edge">
<title>sh4&#45;&gt;by</title>
<path fill="none" stroke="#333333" d="M644.45,-357.45C660.71,-353.23 678.1,-348.31 693.95,-343 724.07,-332.91 757.16,-319.07 782.09,-308.06"/>
</g>
<!-- sh4&#45;&gt;by1 -->
<!-- by1&#45;&gt;by -->
<g id="edge31" class="edge">
<title>by1&#45;&gt;by</title>
<path fill="none" stroke="#333333" d="M646.04,-218.99C661.87,-222.99 678.65,-227.72 693.95,-233 725.69,-243.96 760.41,-259.74 785.59,-271.92"/>
</g>
<!-- by1&#45;&gt;by2 -->
<!-- by2&#45;&gt;by -->
<g id="edge32" class="edge">
<title>by2&#45;&gt;by</title>
<path fill="none" stroke="#333333" d="M651.57,-159.86C666.07,-163.83 680.89,-169.09 693.95,-176 740.66,-200.73 784.06,-246.18 806.16,-271.59"/>
</g>
<!-- by2&#45;&gt;by3 -->
<!-- by3&#45;&gt;by -->
<g id="edge33" class="edge">
<title>by3&#45;&gt;by</title>
<path fill="none" stroke="#333333" d="M654.49,-101.43C668.33,-105.5 682.15,-111.15 693.95,-119 753.76,-158.8 796.14,-236.48 813.16,-271.77"/>
</g>
<!-- by3&#45;&gt;by4 -->
<!-- by4&#45;&gt;by -->
<g id="edge34" class="edge">
<title>by4&#45;&gt;by</title>
<path fill="none" stroke="#333333" d="M656.47,-44.16C669.84,-48.07 682.98,-53.76 693.95,-62 767.57,-117.29 804.6,-228.26 816.78,-271.84"/>
</g>
<!-- by5 -->
<g id="node35" class="node">
<title>by5</title>
<ellipse fill="none" stroke="black" stroke-width="1.1" cx="580.59" cy="-317" rx="83" ry="20"/>
<text text-anchor="middle" x="580.59" y="-314.2" font-family="Liberation Sans" font-size="11.00">Leave review</text>
</g>
<!-- by4&#45;&gt;by5 -->
<!-- by5&#45;&gt;by -->
<g id="edge35" class="edge">
<title>by5&#45;&gt;by</title>
<path fill="none" stroke="#333333" d="M656.17,-308.61C691.24,-304.66 732.37,-300.03 764.83,-296.37"/>
</g>
<!-- by6 -->
<g id="node36" class="node">
<title>by6</title>
<ellipse fill="none" stroke="black" stroke-width="1.1" cx="580.59" cy="-262" rx="83" ry="22.76"/>
<text text-anchor="middle" x="580.59" y="-265.2" font-family="Liberation Sans" font-size="11.00">Save favorite listings</text>
<text text-anchor="middle" x="580.59" y="-253.2" font-family="Liberation Sans" font-size="11.00">and shops</text>
</g>
<!-- by5&#45;&gt;by6 -->
<!-- by6&#45;&gt;by -->
<g id="edge36" class="edge">
<title>by6&#45;&gt;by</title>
<path fill="none" stroke="#333333" d="M657.16,-270.82C692.03,-274.89 732.74,-279.64 764.91,-283.4"/>
</g>
</g>
</svg>
