<?xml version="1.0" encoding="UTF-8" standalone="no"?>
<!DOCTYPE svg PUBLIC "-//W3C//DTD SVG 1.1//EN"
 "http://www.w3.org/Graphics/SVG/1.1/DTD/svg11.dtd">
<!-- Generated by graphviz version 2.43.0 (0)
 -->
<!-- Title: G Pages: 1 -->
<svg width="749pt" height="786pt"
 viewBox="0.00 0.00 749.00 785.50" xmlns="http://www.w3.org/2000/svg" xmlns:xlink="http://www.w3.org/1999/xlink">
<g id="graph0" class="graph" transform="scale(1 1) rotate(0) translate(18 767.5)"><line x1="86.00" y1="-705.00" x2="97.00" y2="-716.00" stroke="black" stroke-width="1.2"/><line x1="86.00" y1="-626.00" x2="97.00" y2="-637.00" stroke="black" stroke-width="1.2"/><line x1="86.00" y1="-536.00" x2="97.00" y2="-547.00" stroke="black" stroke-width="1.2"/><line x1="86.00" y1="-446.00" x2="97.00" y2="-457.00" stroke="black" stroke-width="1.2"/><line x1="86.00" y1="-376.00" x2="97.00" y2="-387.00" stroke="black" stroke-width="1.2"/><line x1="86.00" y1="-296.00" x2="97.00" y2="-307.00" stroke="black" stroke-width="1.2"/><line x1="86.00" y1="-227.00" x2="97.00" y2="-238.00" stroke="black" stroke-width="1.2"/><line x1="86.00" y1="-158.00" x2="97.00" y2="-169.00" stroke="black" stroke-width="1.2"/>
<title>G</title>
<polygon fill="white" stroke="transparent" points="-18,18 -18,-767.5 731,-767.5 731,18 -18,18"/>
<!-- q1a -->
<g id="node1" class="node">
<title>q1a</title>
<path fill="#f4f4f4" stroke="transparent" d="M324,-642C324,-642 349,-642 349,-642 355,-642 361,-648 361,-654 361,-654 361,-681 361,-681 361,-687 355,-693 349,-693 349,-693 324,-693 324,-693 318,-693 312,-687 312,-681 312,-681 312,-654 312,-654 312,-648 318,-642 324,-642"/>
<text text-anchor="start" x="330" y="-680.5" font-family="Liberation Sans" font-size="10.00">1.1</text>
<text text-anchor="start" x="318.5" y="-661.5" font-family="Liberation Sans" font-size="10.00">Register</text>
<text text-anchor="start" x="324" y="-650.5" font-family="Liberation Sans" font-size="10.00">Buyer</text>
<polygon fill="black" stroke="black" points="312.5,-674.5 312.5,-674.5 361.5,-674.5 361.5,-674.5 312.5,-674.5"/>
<path fill="none" stroke="black" d="M324,-642C324,-642 349,-642 349,-642 355,-642 361,-648 361,-654 361,-654 361,-681 361,-681 361,-687 355,-693 349,-693 349,-693 324,-693 324,-693 318,-693 312,-687 312,-681 312,-681 312,-654 312,-654 312,-648 318,-642 324,-642"/>
</g>
<!-- D1_q1a -->
<g id="node3" class="node">
<title>D1_q1a</title>
<polyline fill="none" stroke="black" points="571,-677.5 571,-657.5 "/>
<polyline fill="none" stroke="black" points="604,-677.5 574,-677.5 574,-657.5 604,-657.5 "/>
<text text-anchor="start" x="581.5" y="-665.7" font-family="Liberation Sans" font-weight="bold" font-size="11.00">D1</text>
<polyline fill="none" stroke="black" points="604,-657.5 693,-657.5 "/>
<polyline fill="none" stroke="black" points="693,-677.5 604,-677.5 "/>
<text text-anchor="start" x="608" y="-664.7" font-family="Liberation Sans" font-size="11.00">Users and Roles</text>
</g>
<!-- q1a&#45;&gt;D1_q1a -->
<g id="edge2" class="edge">
<title>q1a&#45;&gt;D1_q1a</title>
<path fill="none" stroke="#333333" stroke-width="0.9" d="M361.02,-667.5C404.71,-667.5 499.8,-667.5 564.63,-667.5"/>
<polygon fill="#333333" stroke="#333333" stroke-width="0.9" points="564.81,-669.6 570.81,-667.5 564.81,-665.4 564.81,-669.6"/>
<text text-anchor="middle" x="458.5" y="-669.7" font-family="Liberation Sans" font-size="8.50">buyer account</text>
</g>
<!-- q1b -->
<g id="node4" class="node">
<title>q1b</title>
<path fill="#f4f4f4" stroke="transparent" d="M330,-519C330,-519 343,-519 343,-519 349,-519 355,-525 355,-531 355,-531 355,-558 355,-558 355,-564 349,-570 343,-570 343,-570 330,-570 330,-570 324,-570 318,-564 318,-558 318,-558 318,-531 318,-531 318,-525 324,-519 330,-519"/>
<text text-anchor="start" x="330" y="-557.5" font-family="Liberation Sans" font-size="10.00">1.2</text>
<text text-anchor="start" x="324.5" y="-538.5" font-family="Liberation Sans" font-size="10.00">Verify</text>
<text text-anchor="start" x="324.5" y="-527.5" font-family="Liberation Sans" font-size="10.00">Email</text>
<polygon fill="black" stroke="black" points="318.5,-551.5 318.5,-551.5 355.5,-551.5 355.5,-551.5 318.5,-551.5"/>
<path fill="none" stroke="black" d="M330,-519C330,-519 343,-519 343,-519 349,-519 355,-525 355,-531 355,-531 355,-558 355,-558 355,-564 349,-570 343,-570 343,-570 330,-570 330,-570 324,-570 318,-564 318,-558 318,-558 318,-531 318,-531 318,-525 324,-519 330,-519"/>
</g>
<!-- q1a&#45;&gt;q1b -->
<g id="edge4" class="edge">
<title>q1a&#45;&gt;q1b</title>
<path fill="none" stroke="#333333" stroke-width="0.9" d="M336.5,-641.75C336.5,-622.73 336.5,-596.73 336.5,-576.4"/>
<polygon fill="#333333" stroke="#333333" stroke-width="0.9" points="338.6,-576.28 336.5,-570.28 334.4,-576.28 338.6,-576.28"/>
<text text-anchor="middle" x="329" y="-603.7" font-family="Liberation Sans" font-size="8.50">new account</text>
</g>
<!-- q1a&#45;&gt;q1b -->
<!-- by_q1a -->
<!-- gsdup -->
<g id="node2" class="node">
<title>by_q1a</title>
<polygon fill="#e8e6e0" stroke="black" stroke-width="1.2" points="97,-738 0,-738 0,-705 97,-705 97,-738"/>
<text text-anchor="middle" x="48.5" y="-718.7" font-family="Liberation Sans" font-size="11.00">Buyer</text>
</g>
<!-- by_q1a&#45;&gt;q1a -->
<g id="edge1" class="edge">
<title>by_q1a&#45;&gt;q1a</title>
<path fill="none" stroke="#333333" stroke-width="0.9" d="M97.31,-728.56C137.71,-732.86 196.7,-735.22 246,-721.5 268.02,-715.37 290.04,-702.2 306.73,-690.4"/>
<polygon fill="#333333" stroke="#333333" stroke-width="0.9" points="308.1,-692 311.73,-686.79 305.64,-688.6 308.1,-692"/>
<text text-anchor="middle" x="202" y="-742.7" font-family="Liberation Sans" font-size="8.50">name, email,</text>
<text text-anchor="middle" x="202" y="-733.7" font-family="Liberation Sans" font-size="8.50">password</text>
</g>
<!-- by_q1a&#45;&gt;q1a -->
<g id="edge3" class="edge">
<title>by_q1a&#45;&gt;q1a</title>
<path fill="none" stroke="#333333" stroke-width="0.9" d="M102.98,-711.4C165.56,-699.59 266.39,-680.55 311.89,-671.96"/>
<polygon fill="#333333" stroke="#333333" stroke-width="0.9" points="102.55,-709.35 97.05,-712.52 103.33,-713.47 102.55,-709.35"/>
<text text-anchor="middle" x="202" y="-702.7" font-family="Liberation Sans" font-size="8.50">access token</text>
</g>
<!-- D1_q1b -->
<g id="node6" class="node">
<title>D1_q1b</title>
<polyline fill="none" stroke="black" points="571,-613.5 571,-593.5 "/>
<polyline fill="none" stroke="black" points="604,-613.5 574,-613.5 574,-593.5 604,-593.5 "/>
<text text-anchor="start" x="581.5" y="-601.7" font-family="Liberation Sans" font-weight="bold" font-size="11.00">D1</text>
<polyline fill="none" stroke="black" points="604,-593.5 693,-593.5 "/>
<polyline fill="none" stroke="black" points="693,-613.5 604,-613.5 "/>
<text text-anchor="start" x="608" y="-600.7" font-family="Liberation Sans" font-size="11.00">Users and Roles</text>
</g>
<!-- q1b&#45;&gt;D1_q1b -->
<g id="edge9" class="edge">
<title>q1b&#45;&gt;D1_q1b</title>
<path fill="none" stroke="#333333" stroke-width="0.9" d="M355.33,-548.09C373.39,-551.72 402.14,-557.5 427,-562.5 477.13,-572.58 534.19,-584.05 575.19,-592.28"/>
<polygon fill="#333333" stroke="#333333" stroke-width="0.9" points="574.82,-594.35 581.12,-593.48 575.65,-590.24 574.82,-594.35"/>
<text text-anchor="middle" x="458.5" y="-576.7" font-family="Liberation Sans" font-size="8.50">verified status</text>
</g>
<!-- D16_q1b -->
<g id="node7" class="node">
<title>D16_q1b</title>
<polyline fill="none" stroke="black" points="551,-529.5 551,-509.5 "/>
<polyline fill="none" stroke="black" points="584,-529.5 554,-529.5 554,-509.5 584,-509.5 "/>
<text text-anchor="start" x="558.5" y="-517.7" font-family="Liberation Sans" font-weight="bold" font-size="11.00">D16</text>
<polyline fill="none" stroke="black" points="584,-509.5 713,-509.5 "/>
<polyline fill="none" stroke="black" points="713,-529.5 584,-529.5 "/>
<text text-anchor="start" x="588" y="-516.7" font-family="Liberation Sans" font-size="11.00">Codes and Reset Tokens</text>
</g>
<!-- q1b&#45;&gt;D16_q1b -->
<g id="edge6" class="edge">
<title>q1b&#45;&gt;D16_q1b</title>
<path fill="none" stroke="#333333" stroke-width="0.9" d="M355.42,-542.97C392.19,-539.84 478.3,-532.51 544.55,-526.86"/>
<polygon fill="#333333" stroke="#333333" stroke-width="0.9" points="545.1,-528.92 550.9,-526.32 544.74,-524.74 545.1,-528.92"/>
<text text-anchor="middle" x="458.5" y="-546.7" font-family="Liberation Sans" font-size="8.50">hashed code,</text>
<text text-anchor="middle" x="458.5" y="-537.7" font-family="Liberation Sans" font-size="8.50">10&#45;minute expiry</text>
</g>
<!-- q1b&#45;&gt;D16_q1b -->
<g id="edge7" class="edge">
<title>q1b&#45;&gt;D16_q1b</title>
<path fill="none" stroke="#333333" stroke-width="0.9" d="M360.92,-533.97C378.65,-526.6 403.84,-517.4 427,-513.5 467.36,-506.71 512.82,-507.27 550.57,-509.93"/>
<polygon fill="#333333" stroke="#333333" stroke-width="0.9" points="359.91,-532.12 355.21,-536.39 361.55,-535.98 359.91,-532.12"/>
<text text-anchor="middle" x="458.5" y="-515.7" font-family="Liberation Sans" font-size="8.50">stored code</text>
</g>
<!-- q1c -->
<g id="node9" class="node">
<title>q1c</title>
<path fill="#f4f4f4" stroke="transparent" d="M325,-396C325,-396 348,-396 348,-396 354,-396 360,-402 360,-408 360,-408 360,-435 360,-435 360,-441 354,-447 348,-447 348,-447 325,-447 325,-447 319,-447 313,-441 313,-435 313,-435 313,-408 313,-408 313,-402 319,-396 325,-396"/>
<text text-anchor="start" x="330" y="-434.5" font-family="Liberation Sans" font-size="10.00">1.3</text>
<text text-anchor="start" x="323" y="-415.5" font-family="Liberation Sans" font-size="10.00">Log In</text>
<text text-anchor="start" x="319.5" y="-404.5" font-family="Liberation Sans" font-size="10.00">and Out</text>
<polygon fill="black" stroke="black" points="313.5,-428.5 313.5,-428.5 360.5,-428.5 360.5,-428.5 313.5,-428.5"/>
<path fill="none" stroke="black" d="M325,-396C325,-396 348,-396 348,-396 354,-396 360,-402 360,-408 360,-408 360,-435 360,-435 360,-441 354,-447 348,-447 348,-447 325,-447 325,-447 319,-447 313,-441 313,-435 313,-435 313,-408 313,-408 313,-402 319,-396 325,-396"/>
</g>
<!-- q1b&#45;&gt;q1c -->
<!-- by_q1b -->
<!-- gsdup -->
<g id="node5" class="node">
<title>by_q1b</title>
<polygon fill="#e8e6e0" stroke="black" stroke-width="1.2" points="97,-659 0,-659 0,-626 97,-626 97,-659"/>
<text text-anchor="middle" x="48.5" y="-639.7" font-family="Liberation Sans" font-size="11.00">Buyer</text>
</g>
<!-- by_q1b&#45;&gt;q1b -->
<g id="edge5" class="edge">
<title>by_q1b&#45;&gt;q1b</title>
<path fill="none" stroke="#333333" stroke-width="0.9" d="M97.34,-641.76C138.27,-639.61 198.02,-632.82 246,-612.5 271.46,-601.72 296.15,-582.04 313.13,-566.62"/>
<polygon fill="#333333" stroke="#333333" stroke-width="0.9" points="314.72,-568.01 317.71,-562.39 311.87,-564.92 314.72,-568.01"/>
<text text-anchor="middle" x="202" y="-645.7" font-family="Liberation Sans" font-size="8.50">entered code,</text>
<text text-anchor="middle" x="202" y="-636.7" font-family="Liberation Sans" font-size="8.50">resend request</text>
</g>
<!-- by_q1b&#45;&gt;q1b -->
<g id="edge10" class="edge">
<title>by_q1b&#45;&gt;q1b</title>
<path fill="none" stroke="#333333" stroke-width="0.9" d="M100.83,-623.76C118.87,-617.25 139.3,-609.97 158,-603.5 216.31,-583.33 285.84,-560.6 317.82,-550.22"/>
<polygon fill="#333333" stroke="#333333" stroke-width="0.9" points="99.74,-621.92 94.81,-625.94 101.17,-625.87 99.74,-621.92"/>
<text text-anchor="middle" x="202" y="-605.7" font-family="Liberation Sans" font-size="8.50">verification status</text>
</g>
<!-- em_q1b -->
<!-- gsdup -->
<g id="node8" class="node">
<title>em_q1b</title>
<polygon fill="#f2f2f2" stroke="black" stroke-width="1.2" points="97,-569 0,-569 0,-536 97,-536 97,-569"/>
<text text-anchor="middle" x="48.5" y="-549.7" font-family="Liberation Sans" font-size="11.00">Email Service</text>
</g>
<!-- em_q1b&#45;&gt;q1b -->
<g id="edge8" class="edge">
<title>em_q1b&#45;&gt;q1b</title>
<path fill="none" stroke="#333333" stroke-width="0.9" d="M103.25,-551C168.66,-549.17 275.6,-546.18 317.68,-545"/>
<polygon fill="#333333" stroke="#333333" stroke-width="0.9" points="102.99,-548.9 97.05,-551.17 103.1,-553.1 102.99,-548.9"/>
<text text-anchor="middle" x="202" y="-550.7" font-family="Liberation Sans" font-size="8.50">six&#45;digit code</text>
</g>
<!-- D1_q1c -->
<g id="node11" class="node">
<title>D1_q1c</title>
<polyline fill="none" stroke="black" points="571,-431.5 571,-411.5 "/>
<polyline fill="none" stroke="black" points="604,-431.5 574,-431.5 574,-411.5 604,-411.5 "/>
<text text-anchor="start" x="581.5" y="-419.7" font-family="Liberation Sans" font-weight="bold" font-size="11.00">D1</text>
<polyline fill="none" stroke="black" points="604,-411.5 693,-411.5 "/>
<polyline fill="none" stroke="black" points="693,-431.5 604,-431.5 "/>
<text text-anchor="start" x="608" y="-418.7" font-family="Liberation Sans" font-size="11.00">Users and Roles</text>
</g>
<!-- q1c&#45;&gt;D1_q1c -->
<g id="edge13" class="edge">
<title>q1c&#45;&gt;D1_q1c</title>
<path fill="none" stroke="#333333" stroke-width="0.9" d="M366.1,-421.5C413.28,-421.5 508.42,-421.5 570.9,-421.5"/>
<polygon fill="#333333" stroke="#333333" stroke-width="0.9" points="366.04,-419.4 360.04,-421.5 366.04,-423.6 366.04,-419.4"/>
<text text-anchor="middle" x="458.5" y="-432.7" font-family="Liberation Sans" font-size="8.50">account, role,</text>
<text text-anchor="middle" x="458.5" y="-423.7" font-family="Liberation Sans" font-size="8.50">status</text>
</g>
<!-- q1d -->
<g id="node13" class="node">
<title>q1d</title>
<path fill="#f4f4f4" stroke="transparent" d="M319.5,-262.5C319.5,-262.5 353.5,-262.5 353.5,-262.5 359.5,-262.5 365.5,-268.5 365.5,-274.5 365.5,-274.5 365.5,-312.5 365.5,-312.5 365.5,-318.5 359.5,-324.5 353.5,-324.5 353.5,-324.5 319.5,-324.5 319.5,-324.5 313.5,-324.5 307.5,-318.5 307.5,-312.5 307.5,-312.5 307.5,-274.5 307.5,-274.5 307.5,-268.5 313.5,-262.5 319.5,-262.5"/>
<text text-anchor="start" x="329.5" y="-312.5" font-family="Liberation Sans" font-size="10.00">1.4</text>
<text text-anchor="start" x="313.5" y="-293.5" font-family="Liberation Sans" font-size="10.00">Reset and</text>
<text text-anchor="start" x="319.5" y="-282.5" font-family="Liberation Sans" font-size="10.00">Change</text>
<text text-anchor="start" x="314.5" y="-271.5" font-family="Liberation Sans" font-size="10.00">Password</text>
<polygon fill="black" stroke="black" points="307.5,-306.5 307.5,-306.5 365.5,-306.5 365.5,-306.5 307.5,-306.5"/>
<path fill="none" stroke="black" d="M319.5,-262.5C319.5,-262.5 353.5,-262.5 353.5,-262.5 359.5,-262.5 365.5,-268.5 365.5,-274.5 365.5,-274.5 365.5,-312.5 365.5,-312.5 365.5,-318.5 359.5,-324.5 353.5,-324.5 353.5,-324.5 319.5,-324.5 319.5,-324.5 313.5,-324.5 307.5,-318.5 307.5,-312.5 307.5,-312.5 307.5,-274.5 307.5,-274.5 307.5,-268.5 313.5,-262.5 319.5,-262.5"/>
</g>
<!-- q1c&#45;&gt;q1d -->
<!-- by_q1c -->
<!-- gsdup -->
<g id="node10" class="node">
<title>by_q1c</title>
<polygon fill="#e8e6e0" stroke="black" stroke-width="1.2" points="97,-479 0,-479 0,-446 97,-446 97,-479"/>
<text text-anchor="middle" x="48.5" y="-459.7" font-family="Liberation Sans" font-size="11.00">Buyer</text>
</g>
<!-- by_q1c&#45;&gt;q1c -->
<g id="edge11" class="edge">
<title>by_q1c&#45;&gt;q1c</title>
<path fill="none" stroke="#333333" stroke-width="0.9" d="M97.36,-468.14C137.53,-471.54 196.17,-473.37 246,-462.5 267.6,-457.79 290.23,-447.37 307.33,-438.21"/>
<polygon fill="#333333" stroke="#333333" stroke-width="0.9" points="308.65,-439.88 312.9,-435.16 306.63,-436.2 308.65,-439.88"/>
<text text-anchor="middle" x="202" y="-472.7" font-family="Liberation Sans" font-size="8.50">credentials</text>
</g>
<!-- by_q1c&#45;&gt;q1c -->
<g id="edge14" class="edge">
<title>by_q1c&#45;&gt;q1c</title>
<path fill="none" stroke="#333333" stroke-width="0.9" d="M103.03,-454.83C166.11,-445.78 268.01,-431.18 312.96,-424.73"/>
<polygon fill="#333333" stroke="#333333" stroke-width="0.9" points="102.69,-452.75 97.05,-455.68 103.29,-456.91 102.69,-452.75"/>
<text text-anchor="middle" x="202" y="-448.7" font-family="Liberation Sans" font-size="8.50">token or refusal</text>
</g>
<!-- fs_q1c -->
<!-- gsdup -->
<g id="node12" class="node">
<title>fs_q1c</title>
<polygon fill="#e8e6e0" stroke="black" stroke-width="1.2" points="97,-409 0,-409 0,-376 97,-376 97,-409"/>
<text text-anchor="middle" x="48.5" y="-389.7" font-family="Liberation Sans" font-size="11.00">Farmer&#45;Seller</text>
</g>
<!-- fs_q1c&#45;&gt;q1c -->
<g id="edge12" class="edge">
<title>fs_q1c&#45;&gt;q1c</title>
<path fill="none" stroke="#333333" stroke-width="0.9" d="M97.32,-393.27C137.22,-394.38 195.5,-397.04 246,-403.5 266.44,-406.11 289.21,-410.72 306.66,-414.61"/>
<polygon fill="#333333" stroke="#333333" stroke-width="0.9" points="306.53,-416.73 312.84,-416.01 307.45,-412.64 306.53,-416.73"/>
<text text-anchor="middle" x="202" y="-405.7" font-family="Liberation Sans" font-size="8.50">credentials</text>
</g>
<!-- fs_q1c&#45;&gt;q1c -->
<g id="edge15" class="edge">
<title>fs_q1c&#45;&gt;q1c</title>
<path fill="none" stroke="#333333" stroke-width="0.9" d="M103.62,-379.67C143.47,-372.31 198.71,-366.5 246,-377.5 270.12,-383.11 295.22,-396.18 312.68,-406.63"/>
<polygon fill="#333333" stroke="#333333" stroke-width="0.9" points="102.86,-377.67 97.36,-380.86 103.65,-381.8 102.86,-377.67"/>
<text text-anchor="middle" x="202" y="-379.7" font-family="Liberation Sans" font-size="8.50">token or refusal</text>
</g>
<!-- D1_q1d -->
<g id="node15" class="node">
<title>D1_q1d</title>
<polyline fill="none" stroke="black" points="571,-353.5 571,-333.5 "/>
<polyline fill="none" stroke="black" points="604,-353.5 574,-353.5 574,-333.5 604,-333.5 "/>
<text text-anchor="start" x="581.5" y="-341.7" font-family="Liberation Sans" font-weight="bold" font-size="11.00">D1</text>
<polyline fill="none" stroke="black" points="604,-333.5 693,-333.5 "/>
<polyline fill="none" stroke="black" points="693,-353.5 604,-353.5 "/>
<text text-anchor="start" x="608" y="-340.7" font-family="Liberation Sans" font-size="11.00">Users and Roles</text>
</g>
<!-- q1d&#45;&gt;D1_q1d -->
<g id="edge21" class="edge">
<title>q1d&#45;&gt;D1_q1d</title>
<path fill="none" stroke="#333333" stroke-width="0.9" d="M365.64,-298.29C411.51,-306.11 503.55,-321.79 566.22,-332.47"/>
<polygon fill="#333333" stroke="#333333" stroke-width="0.9" points="565.93,-334.54 572.2,-333.48 566.63,-330.4 565.93,-334.54"/>
<text text-anchor="middle" x="458.5" y="-320.7" font-family="Liberation Sans" font-size="8.50">password hash</text>
</g>
<!-- D16_q1d -->
<g id="node16" class="node">
<title>D16_q1d</title>
<polyline fill="none" stroke="black" points="551,-275.5 551,-255.5 "/>
<polyline fill="none" stroke="black" points="584,-275.5 554,-275.5 554,-255.5 584,-255.5 "/>
<text text-anchor="start" x="558.5" y="-263.7" font-family="Liberation Sans" font-weight="bold" font-size="11.00">D16</text>
<polyline fill="none" stroke="black" points="584,-255.5 713,-255.5 "/>
<polyline fill="none" stroke="black" points="713,-275.5 584,-275.5 "/>
<text text-anchor="start" x="588" y="-262.7" font-family="Liberation Sans" font-size="11.00">Codes and Reset Tokens</text>
</g>
<!-- q1d&#45;&gt;D16_q1d -->
<g id="edge18" class="edge">
<title>q1d&#45;&gt;D16_q1d</title>
<path fill="none" stroke="#333333" stroke-width="0.9" d="M365.64,-290.82C406.49,-286.92 483.97,-279.53 544.71,-273.73"/>
<polygon fill="#333333" stroke="#333333" stroke-width="0.9" points="545.13,-275.8 550.9,-273.14 544.73,-271.62 545.13,-275.8"/>
<text text-anchor="middle" x="458.5" y="-285.7" font-family="Liberation Sans" font-size="8.50">reset token</text>
</g>
<!-- q1d&#45;&gt;D16_q1d -->
<g id="edge19" class="edge">
<title>q1d&#45;&gt;D16_q1d</title>
<path fill="none" stroke="#333333" stroke-width="0.9" d="M371.7,-278.15C388.07,-271.62 408.18,-264.76 427,-261.5 467.31,-254.51 512.77,-254.64 550.53,-256.89"/>
<polygon fill="#333333" stroke="#333333" stroke-width="0.9" points="370.6,-276.33 365.84,-280.54 372.19,-280.22 370.6,-276.33"/>
<text text-anchor="middle" x="458.5" y="-263.7" font-family="Liberation Sans" font-size="8.50">token check</text>
</g>
<!-- q1e -->
<g id="node19" class="node">
<title>q1e</title>
<path fill="#f4f4f4" stroke="transparent" d="M319,-140C319,-140 354,-140 354,-140 360,-140 366,-146 366,-152 366,-152 366,-179 366,-179 366,-185 360,-191 354,-191 354,-191 319,-191 319,-191 313,-191 307,-185 307,-179 307,-179 307,-152 307,-152 307,-146 313,-140 319,-140"/>
<text text-anchor="start" x="330" y="-178.5" font-family="Liberation Sans" font-size="10.00">1.5</text>
<text text-anchor="start" x="313.5" y="-159.5" font-family="Liberation Sans" font-size="10.00">Administer</text>
<text text-anchor="start" x="316" y="-148.5" font-family="Liberation Sans" font-size="10.00">Accounts</text>
<polygon fill="black" stroke="black" points="307.5,-172.5 307.5,-172.5 366.5,-172.5 366.5,-172.5 307.5,-172.5"/>
<path fill="none" stroke="black" d="M319,-140C319,-140 354,-140 354,-140 360,-140 366,-146 366,-152 366,-152 366,-179 366,-179 366,-185 360,-191 354,-191 354,-191 319,-191 319,-191 313,-191 307,-185 307,-179 307,-179 307,-152 307,-152 307,-146 313,-140 319,-140"/>
</g>
<!-- q1d&#45;&gt;q1e -->
<!-- by_q1d -->
<!-- gsdup -->
<g id="node14" class="node">
<title>by_q1d</title>
<polygon fill="#e8e6e0" stroke="black" stroke-width="1.2" points="97,-329 0,-329 0,-296 97,-296 97,-329"/>
<text text-anchor="middle" x="48.5" y="-309.7" font-family="Liberation Sans" font-size="11.00">Buyer</text>
</g>
<!-- by_q1d&#45;&gt;q1d -->
<g id="edge16" class="edge">
<title>by_q1d&#45;&gt;q1d</title>
<path fill="none" stroke="#333333" stroke-width="0.9" d="M97.23,-300.13C116.03,-295.86 137.89,-291.61 158,-289.5 196.9,-285.42 206.9,-288.63 246,-289.5 264.12,-289.9 284.29,-290.77 300.89,-291.59"/>
<polygon fill="#333333" stroke="#333333" stroke-width="0.9" points="301.2,-293.71 307.29,-291.92 301.41,-289.52 301.2,-293.71"/>
<text text-anchor="middle" x="202" y="-300.7" font-family="Liberation Sans" font-size="8.50">reset request,</text>
<text text-anchor="middle" x="202" y="-291.7" font-family="Liberation Sans" font-size="8.50">new password</text>
</g>
<!-- em_q1d -->
<!-- gsdup -->
<g id="node17" class="node">
<title>em_q1d</title>
<polygon fill="#f2f2f2" stroke="black" stroke-width="1.2" points="97,-260 0,-260 0,-227 97,-227 97,-260"/>
<text text-anchor="middle" x="48.5" y="-240.7" font-family="Liberation Sans" font-size="11.00">Email Service</text>
</g>
<!-- em_q1d&#45;&gt;q1d -->
<g id="edge20" class="edge">
<title>em_q1d&#45;&gt;q1d</title>
<path fill="none" stroke="#333333" stroke-width="0.9" d="M103.3,-248.21C142.98,-252.2 198.17,-258.83 246,-268.5 266.72,-272.69 289.67,-279.14 307.14,-284.43"/>
<polygon fill="#333333" stroke="#333333" stroke-width="0.9" points="103.24,-246.09 97.06,-247.59 102.83,-250.27 103.24,-246.09"/>
<text text-anchor="middle" x="202" y="-270.7" font-family="Liberation Sans" font-size="8.50">reset link</text>
</g>
<!-- fs_q1d -->
<!-- gsdup -->
<g id="node18" class="node">
<title>fs_q1d</title>
<polygon fill="#e8e6e0" stroke="black" stroke-width="1.2" points="97,-191 0,-191 0,-158 97,-158 97,-191"/>
<text text-anchor="middle" x="48.5" y="-171.7" font-family="Liberation Sans" font-size="11.00">Farmer&#45;Seller</text>
</g>
<!-- fs_q1d&#45;&gt;q1d -->
<g id="edge17" class="edge">
<title>fs_q1d&#45;&gt;q1d</title>
<path fill="none" stroke="#333333" stroke-width="0.9" d="M97.3,-182.24C138.21,-190.05 197.94,-204.32 246,-227.5 266.17,-237.23 286.44,-251.69 302.57,-264.6"/>
<polygon fill="#333333" stroke="#333333" stroke-width="0.9" points="301.46,-266.4 307.44,-268.55 304.11,-263.14 301.46,-266.4"/>
<text text-anchor="middle" x="202" y="-238.7" font-family="Liberation Sans" font-size="8.50">reset request,</text>
<text text-anchor="middle" x="202" y="-229.7" font-family="Liberation Sans" font-size="8.50">new password</text>
</g>
<!-- D1_q1e -->
<g id="node20" class="node">
<title>D1_q1e</title>
<polyline fill="none" stroke="black" points="571,-160.5 571,-140.5 "/>
<polyline fill="none" stroke="black" points="604,-160.5 574,-160.5 574,-140.5 604,-140.5 "/>
<text text-anchor="start" x="581.5" y="-148.7" font-family="Liberation Sans" font-weight="bold" font-size="11.00">D1</text>
<polyline fill="none" stroke="black" points="604,-140.5 693,-140.5 "/>
<polyline fill="none" stroke="black" points="693,-160.5 604,-160.5 "/>
<text text-anchor="start" x="608" y="-147.7" font-family="Liberation Sans" font-size="11.00">Users and Roles</text>
</g>
<!-- q1e&#45;&gt;D1_q1e -->
<g id="edge23" class="edge">
<title>q1e&#45;&gt;D1_q1e</title>
<path fill="none" stroke="#333333" stroke-width="0.9" d="M366.18,-164.03C411.78,-161.7 502.03,-157.09 564.41,-153.9"/>
<polygon fill="#333333" stroke="#333333" stroke-width="0.9" points="564.85,-155.98 570.74,-153.58 564.64,-151.79 564.85,-155.98"/>
<text text-anchor="middle" x="458.5" y="-171.7" font-family="Liberation Sans" font-size="8.50">accounts, roles,</text>
<text text-anchor="middle" x="458.5" y="-162.7" font-family="Liberation Sans" font-size="8.50">farm, status</text>
</g>
<!-- q1e&#45;&gt;D1_q1e -->
<g id="edge24" class="edge">
<title>q1e&#45;&gt;D1_q1e</title>
<path fill="none" stroke="#333333" stroke-width="0.9" d="M371.95,-153.02C388.38,-147.71 408.45,-142.14 427,-139.5 475.11,-132.65 530.15,-136.29 570.92,-141.14"/>
<polygon fill="#333333" stroke="#333333" stroke-width="0.9" points="371.11,-151.08 366.07,-154.96 372.42,-155.07 371.11,-151.08"/>
<text text-anchor="middle" x="458.5" y="-141.7" font-family="Liberation Sans" font-size="8.50">members</text>
</g>
<!-- sa_q1e -->
<g id="node21" class="node">
<title>sa_q1e</title>
<polygon fill="#e1e6ed" stroke="black" stroke-width="1.2" points="97,-112 0,-112 0,-79 97,-79 97,-112"/>
<text text-anchor="middle" x="48.5" y="-92.7" font-family="Liberation Sans" font-size="11.00">Super Admin</text>
</g>
<!-- sa_q1e&#45;&gt;q1e -->
<g id="edge22" class="edge">
<title>sa_q1e&#45;&gt;q1e</title>
<path fill="none" stroke="#333333" stroke-width="0.9" d="M97.11,-93.76C137.64,-93.65 196.93,-96.76 246,-112.5 265.62,-118.79 285.53,-130.01 301.57,-140.5"/>
<polygon fill="#333333" stroke="#333333" stroke-width="0.9" points="300.7,-142.45 306.86,-144.03 303.03,-138.95 300.7,-142.45"/>
<text text-anchor="middle" x="202" y="-132.7" font-family="Liberation Sans" font-size="8.50">farmer&#45;seller and editor</text>
<text text-anchor="middle" x="202" y="-123.7" font-family="Liberation Sans" font-size="8.50">accounts, approvals,</text>
<text text-anchor="middle" x="202" y="-114.7" font-family="Liberation Sans" font-size="8.50">suspensions</text>
</g>
<!-- sa_q1e&#45;&gt;q1e -->
<g id="edge26" class="edge">
<title>sa_q1e&#45;&gt;q1e</title>
<path fill="none" stroke="#333333" stroke-width="0.9" d="M103.26,-77.92C143.91,-67.64 200.34,-59.96 246,-78.5 276.32,-90.81 302.01,-118.86 317.98,-139.81"/>
<polygon fill="#333333" stroke="#333333" stroke-width="0.9" points="102.65,-75.91 97.37,-79.45 103.71,-79.97 102.65,-75.91"/>
<text text-anchor="middle" x="202" y="-80.7" font-family="Liberation Sans" font-size="8.50">user list</text>
</g>
<!-- ce_q1e -->
<g id="node22" class="node">
<title>ce_q1e</title>
<polygon fill="#e1e6ed" stroke="black" stroke-width="1.2" points="97,-33 0,-33 0,0 97,0 97,-33"/>
<text text-anchor="middle" x="48.5" y="-13.7" font-family="Liberation Sans" font-size="11.00">Content Editor</text>
</g>
<!-- ce_q1e&#45;&gt;q1e -->
<g id="edge25" class="edge">
<title>ce_q1e&#45;&gt;q1e</title>
<path fill="none" stroke="#333333" stroke-width="0.9" d="M103.33,-14.79C145.02,-15.83 202.76,-22.6 246,-48.5 282.2,-70.18 308.92,-112.52 323.34,-139.88"/>
<polygon fill="#333333" stroke="#333333" stroke-width="0.9" points="103.34,-12.69 97.3,-14.68 103.26,-16.89 103.34,-12.69"/>
<text text-anchor="middle" x="202" y="-50.7" font-family="Liberation Sans" font-size="8.50">own farm roster</text>
</g>
</g>
</svg>
