<?xml version="1.0" encoding="UTF-8" standalone="no"?>
<!DOCTYPE svg PUBLIC "-//W3C//DTD SVG 1.1//EN"
 "http://www.w3.org/Graphics/SVG/1.1/DTD/svg11.dtd">
<!-- Generated by graphviz version 2.43.0 (0)
 -->
<!-- Title: G Pages: 1 -->
<svg width="664pt" height="1107pt"
 viewBox="0.00 0.00 664.00 1106.80" xmlns="http://www.w3.org/2000/svg" xmlns:xlink="http://www.w3.org/1999/xlink">
<g id="graph0" class="graph" transform="scale(1 1) rotate(0) translate(18 1088.8)"><line x1="86.00" y1="-787.30" x2="97.00" y2="-798.30" stroke="black" stroke-width="1.2"/><line x1="86.00" y1="-711.30" x2="97.00" y2="-722.30" stroke="black" stroke-width="1.2"/><line x1="86.00" y1="-634.30" x2="97.00" y2="-645.30" stroke="black" stroke-width="1.2"/><line x1="86.00" y1="-571.30" x2="97.00" y2="-582.30" stroke="black" stroke-width="1.2"/><line x1="86.00" y1="-508.30" x2="97.00" y2="-519.30" stroke="black" stroke-width="1.2"/><line x1="86.00" y1="-445.30" x2="97.00" y2="-456.30" stroke="black" stroke-width="1.2"/><line x1="86.00" y1="-382.30" x2="97.00" y2="-393.30" stroke="black" stroke-width="1.2"/><line x1="86.00" y1="-256.30" x2="97.00" y2="-267.30" stroke="black" stroke-width="1.2"/><line x1="86.00" y1="-193.30" x2="97.00" y2="-204.30" stroke="black" stroke-width="1.2"/><line x1="86.00" y1="-130.30" x2="97.00" y2="-141.30" stroke="black" stroke-width="1.2"/><line x1="86.00" y1="-67.30" x2="97.00" y2="-78.30" stroke="black" stroke-width="1.2"/><line x1="86.00" y1="-4.30" x2="97.00" y2="-15.30" stroke="black" stroke-width="1.2"/>
<title>G</title>
<polygon fill="white" stroke="transparent" points="-18,18 -18,-1088.8 646,-1088.8 646,18 -18,18"/>
<!-- q4a -->
<g id="node1" class="node">
<title>q4a</title>
<path fill="#f4f4f4" stroke="transparent" d="M308.5,-778.3C308.5,-778.3 331.5,-778.3 331.5,-778.3 337.5,-778.3 343.5,-784.3 343.5,-790.3 343.5,-790.3 343.5,-817.3 343.5,-817.3 343.5,-823.3 337.5,-829.3 331.5,-829.3 331.5,-829.3 308.5,-829.3 308.5,-829.3 302.5,-829.3 296.5,-823.3 296.5,-817.3 296.5,-817.3 296.5,-790.3 296.5,-790.3 296.5,-784.3 302.5,-778.3 308.5,-778.3"/>
<text text-anchor="start" x="313.5" y="-816.8" font-family="Liberation Sans" font-size="10.00">4.1</text>
<text text-anchor="start" x="303" y="-797.8" font-family="Liberation Sans" font-size="10.00">Manage</text>
<text text-anchor="start" x="311" y="-786.8" font-family="Liberation Sans" font-size="10.00">Cart</text>
<polygon fill="black" stroke="black" points="297,-810.8 297,-810.8 344,-810.8 344,-810.8 297,-810.8"/>
<path fill="none" stroke="black" d="M308.5,-778.3C308.5,-778.3 331.5,-778.3 331.5,-778.3 337.5,-778.3 343.5,-784.3 343.5,-790.3 343.5,-790.3 343.5,-817.3 343.5,-817.3 343.5,-823.3 337.5,-829.3 331.5,-829.3 331.5,-829.3 308.5,-829.3 308.5,-829.3 302.5,-829.3 296.5,-823.3 296.5,-817.3 296.5,-817.3 296.5,-790.3 296.5,-790.3 296.5,-784.3 302.5,-778.3 308.5,-778.3"/>
</g>
<!-- D4_q4a -->
<g id="node3" class="node">
<title>D4_q4a</title>
<polyline fill="none" stroke="black" points="539,-1070.8 539,-1050.8 "/>
<polyline fill="none" stroke="black" points="572,-1070.8 542,-1070.8 542,-1050.8 572,-1050.8 "/>
<text text-anchor="start" x="549.5" y="-1059" font-family="Liberation Sans" font-weight="bold" font-size="11.00">D4</text>
<polyline fill="none" stroke="black" points="572,-1050.8 617,-1050.8 "/>
<polyline fill="none" stroke="black" points="617,-1070.8 572,-1070.8 "/>
<text text-anchor="start" x="576" y="-1058" font-family="Liberation Sans" font-size="11.00">Listings</text>
</g>
<!-- q4a&#45;&gt;D4_q4a -->
<g id="edge2" class="edge">
<title>q4a&#45;&gt;D4_q4a</title>
<path fill="none" stroke="#333333" stroke-width="0.9" d="M323.24,-835.74C328.39,-883.82 345.35,-974.33 401,-1022.8 439.19,-1056.06 499.52,-1062.44 538.68,-1062.65"/>
<polygon fill="#333333" stroke="#333333" stroke-width="0.9" points="325.3,-835.29 322.61,-829.53 321.12,-835.71 325.3,-835.29"/>
<text text-anchor="middle" x="439" y="-1058" font-family="Liberation Sans" font-size="8.50">price, stock</text>
</g>
<!-- D5_q4a -->
<g id="node4" class="node">
<title>D5_q4a</title>
<polyline fill="none" stroke="black" points="532,-1020.8 532,-1000.8 "/>
<polyline fill="none" stroke="black" points="565,-1020.8 535,-1020.8 535,-1000.8 565,-1000.8 "/>
<text text-anchor="start" x="542.5" y="-1009" font-family="Liberation Sans" font-weight="bold" font-size="11.00">D5</text>
<polyline fill="none" stroke="black" points="565,-1000.8 624,-1000.8 "/>
<polyline fill="none" stroke="black" points="624,-1020.8 565,-1020.8 "/>
<text text-anchor="start" x="569" y="-1008" font-family="Liberation Sans" font-size="11.00">Cart Items</text>
</g>
<!-- q4a&#45;&gt;D5_q4a -->
<g id="edge3" class="edge">
<title>q4a&#45;&gt;D5_q4a</title>
<path fill="none" stroke="#333333" stroke-width="0.9" d="M325.3,-829.5C333.15,-867.9 353.58,-939.67 401,-976.8 436.35,-1004.48 487.76,-1011.76 525.9,-1012.84"/>
<polygon fill="#333333" stroke="#333333" stroke-width="0.9" points="525.86,-1014.94 531.9,-1012.96 525.95,-1010.74 525.86,-1014.94"/>
<text text-anchor="middle" x="439" y="-1009" font-family="Liberation Sans" font-size="8.50">cart items</text>
</g>
<!-- q4b -->
<g id="node5" class="node">
<title>q4b</title>
<path fill="#f4f4f4" stroke="transparent" d="M302,-678.8C302,-678.8 338,-678.8 338,-678.8 344,-678.8 350,-684.8 350,-690.8 350,-690.8 350,-706.8 350,-706.8 350,-712.8 344,-718.8 338,-718.8 338,-718.8 302,-718.8 302,-718.8 296,-718.8 290,-712.8 290,-706.8 290,-706.8 290,-690.8 290,-690.8 290,-684.8 296,-678.8 302,-678.8"/>
<text text-anchor="start" x="313" y="-706.8" font-family="Liberation Sans" font-size="10.00">4.2</text>
<text text-anchor="start" x="296" y="-687.8" font-family="Liberation Sans" font-size="10.00">Check Out</text>
<polygon fill="black" stroke="black" points="290,-700.8 290,-700.8 350,-700.8 350,-700.8 290,-700.8"/>
<path fill="none" stroke="black" d="M302,-678.8C302,-678.8 338,-678.8 338,-678.8 344,-678.8 350,-684.8 350,-690.8 350,-690.8 350,-706.8 350,-706.8 350,-712.8 344,-718.8 338,-718.8 338,-718.8 302,-718.8 302,-718.8 296,-718.8 290,-712.8 290,-706.8 290,-706.8 290,-690.8 290,-690.8 290,-684.8 296,-678.8 302,-678.8"/>
</g>
<!-- q4a&#45;&gt;q4b -->
<!-- by_q4a -->
<!-- gsdup -->
<g id="node2" class="node">
<title>by_q4a</title>
<polygon fill="#e8e6e0" stroke="black" stroke-width="1.2" points="97,-820.3 0,-820.3 0,-787.3 97,-787.3 97,-820.3"/>
<text text-anchor="middle" x="48.5" y="-801" font-family="Liberation Sans" font-size="11.00">Buyer</text>
</g>
<!-- by_q4a&#45;&gt;q4a -->
<g id="edge1" class="edge">
<title>by_q4a&#45;&gt;q4a</title>
<path fill="none" stroke="#333333" stroke-width="0.9" d="M97.06,-803.8C152.91,-803.8 243.79,-803.8 290.01,-803.8"/>
<polygon fill="#333333" stroke="#333333" stroke-width="0.9" points="290.23,-805.9 296.23,-803.8 290.23,-801.7 290.23,-805.9"/>
<text text-anchor="middle" x="193.5" y="-815" font-family="Liberation Sans" font-size="8.50">cart items</text>
<text text-anchor="middle" x="193.5" y="-806" font-family="Liberation Sans" font-size="8.50">(verified buyers)</text>
</g>
<!-- D4_q4b -->
<g id="node7" class="node">
<title>D4_q4b</title>
<polyline fill="none" stroke="black" points="539,-957.8 539,-937.8 "/>
<polyline fill="none" stroke="black" points="572,-957.8 542,-957.8 542,-937.8 572,-937.8 "/>
<text text-anchor="start" x="549.5" y="-946" font-family="Liberation Sans" font-weight="bold" font-size="11.00">D4</text>
<polyline fill="none" stroke="black" points="572,-937.8 617,-937.8 "/>
<polyline fill="none" stroke="black" points="617,-957.8 572,-957.8 "/>
<text text-anchor="start" x="576" y="-945" font-family="Liberation Sans" font-size="11.00">Listings</text>
</g>
<!-- q4b&#45;&gt;D4_q4b -->
<g id="edge6" class="edge">
<title>q4b&#45;&gt;D4_q4b</title>
<path fill="none" stroke="#333333" stroke-width="0.9" d="M333.41,-724.6C338.86,-736.41 345.11,-750.66 350,-763.8 377.37,-837.33 340.06,-883.38 401,-932.8 439.59,-964.09 499.82,-961.79 538.85,-955.87"/>
<polygon fill="#333333" stroke="#333333" stroke-width="0.9" points="335.25,-723.57 330.82,-719.02 331.44,-725.34 335.25,-723.57"/>
<text text-anchor="middle" x="439" y="-960" font-family="Liberation Sans" font-size="8.50">prices, tawad, stock</text>
</g>
<!-- q4b&#45;&gt;D4_q4b -->
<g id="edge9" class="edge">
<title>q4b&#45;&gt;D4_q4b</title>
<path fill="none" stroke="#333333" stroke-width="0.9" d="M330.09,-718.97C335.84,-731.79 343.41,-748.74 350,-763.8 373.06,-816.52 359.29,-843.17 401,-882.8 420.49,-901.32 488.04,-922.98 533.55,-936.04"/>
<polygon fill="#333333" stroke="#333333" stroke-width="0.9" points="533.2,-938.12 539.54,-937.74 534.35,-934.08 533.2,-938.12"/>
<text text-anchor="middle" x="439" y="-920" font-family="Liberation Sans" font-size="8.50">held stock</text>
</g>
<!-- D5_q4b -->
<g id="node8" class="node">
<title>D5_q4b</title>
<polyline fill="none" stroke="black" points="532,-894.8 532,-874.8 "/>
<polyline fill="none" stroke="black" points="565,-894.8 535,-894.8 535,-874.8 565,-874.8 "/>
<text text-anchor="start" x="542.5" y="-883" font-family="Liberation Sans" font-weight="bold" font-size="11.00">D5</text>
<polyline fill="none" stroke="black" points="565,-874.8 624,-874.8 "/>
<polyline fill="none" stroke="black" points="624,-894.8 565,-894.8 "/>
<text text-anchor="start" x="569" y="-882" font-family="Liberation Sans" font-size="11.00">Cart Items</text>
</g>
<!-- q4b&#45;&gt;D5_q4b -->
<g id="edge5" class="edge">
<title>q4b&#45;&gt;D5_q4b</title>
<path fill="none" stroke="#333333" stroke-width="0.9" d="M333.91,-724.51C351.36,-758.37 382.43,-815.31 401,-829.8 439.11,-859.54 493.49,-873.33 531.7,-879.64"/>
<polygon fill="#333333" stroke="#333333" stroke-width="0.9" points="335.63,-723.26 331.02,-718.88 331.89,-725.18 335.63,-723.26"/>
<text text-anchor="middle" x="439" y="-869" font-family="Liberation Sans" font-size="8.50">cart</text>
</g>
<!-- D2_q4b -->
<g id="node9" class="node">
<title>D2_q4b</title>
<polyline fill="none" stroke="black" points="574,-844.8 544,-844.8 544,-824.8 574,-824.8 "/>
<text text-anchor="start" x="551.5" y="-833" font-family="Liberation Sans" font-weight="bold" font-size="11.00">D2</text>
<polyline fill="none" stroke="black" points="574,-824.8 613,-824.8 "/>
<polyline fill="none" stroke="black" points="613,-844.8 574,-844.8 "/>
<text text-anchor="start" x="578" y="-832" font-family="Liberation Sans" font-size="11.00">Farms</text>
</g>
<!-- q4b&#45;&gt;D2_q4b -->
<g id="edge7" class="edge">
<title>q4b&#45;&gt;D2_q4b</title>
<path fill="none" stroke="#333333" stroke-width="0.9" d="M339.2,-724.12C353.91,-742.85 376.18,-767.63 401,-782.8 445.99,-810.3 506.37,-823.97 543.43,-830.21"/>
<polygon fill="#333333" stroke="#333333" stroke-width="0.9" points="340.59,-722.48 335.26,-719.01 337.26,-725.04 340.59,-722.48"/>
<text text-anchor="middle" x="439" y="-816" font-family="Liberation Sans" font-size="8.50">farm guards</text>
</g>
<!-- D6_q4b -->
<g id="node10" class="node">
<title>D6_q4b</title>
<polyline fill="none" stroke="black" points="541,-794.8 541,-774.8 "/>
<polyline fill="none" stroke="black" points="574,-794.8 544,-794.8 544,-774.8 574,-774.8 "/>
<text text-anchor="start" x="551.5" y="-783" font-family="Liberation Sans" font-weight="bold" font-size="11.00">D6</text>
<polyline fill="none" stroke="black" points="574,-774.8 616,-774.8 "/>
<polyline fill="none" stroke="black" points="616,-794.8 574,-794.8 "/>
<text text-anchor="start" x="578" y="-782" font-family="Liberation Sans" font-size="11.00">Orders</text>
</g>
<!-- q4b&#45;&gt;D6_q4b -->
<g id="edge8" class="edge">
<title>q4b&#45;&gt;D6_q4b</title>
<path fill="none" stroke="#333333" stroke-width="0.9" d="M350.15,-713.67C365.11,-720.94 383.77,-729.46 401,-735.8 445.6,-752.2 498.29,-766.19 534.31,-774.97"/>
<polygon fill="#333333" stroke="#333333" stroke-width="0.9" points="534.06,-777.07 540.39,-776.44 535.05,-772.99 534.06,-777.07"/>
<text text-anchor="middle" x="439" y="-769" font-family="Liberation Sans" font-size="8.50">one Placed order</text>
<text text-anchor="middle" x="439" y="-760" font-family="Liberation Sans" font-size="8.50">per seller</text>
</g>
<!-- D8_q4b -->
<g id="node11" class="node">
<title>D8_q4b</title>
<polyline fill="none" stroke="black" points="528,-744.8 528,-724.8 "/>
<polyline fill="none" stroke="black" points="561,-744.8 531,-744.8 531,-724.8 561,-724.8 "/>
<text text-anchor="start" x="538.5" y="-733" font-family="Liberation Sans" font-weight="bold" font-size="11.00">D8</text>
<polyline fill="none" stroke="black" points="561,-724.8 628,-724.8 "/>
<polyline fill="none" stroke="black" points="628,-744.8 561,-744.8 "/>
<text text-anchor="start" x="565" y="-732" font-family="Liberation Sans" font-size="11.00">Notifications</text>
</g>
<!-- q4b&#45;&gt;D8_q4b -->
<g id="edge10" class="edge">
<title>q4b&#45;&gt;D8_q4b</title>
<path fill="none" stroke="#333333" stroke-width="0.9" d="M350.37,-702.93C392.1,-708.8 469.32,-719.66 521.91,-727.05"/>
<polygon fill="#333333" stroke="#333333" stroke-width="0.9" points="521.64,-729.14 527.88,-727.89 522.23,-724.98 521.64,-729.14"/>
<text text-anchor="middle" x="439" y="-722" font-family="Liberation Sans" font-size="8.50">new order notice</text>
</g>
<!-- q4c -->
<g id="node12" class="node">
<title>q4c</title>
<path fill="#f4f4f4" stroke="transparent" d="M310,-556.8C310,-556.8 330,-556.8 330,-556.8 336,-556.8 342,-562.8 342,-568.8 342,-568.8 342,-606.8 342,-606.8 342,-612.8 336,-618.8 330,-618.8 330,-618.8 310,-618.8 310,-618.8 304,-618.8 298,-612.8 298,-606.8 298,-606.8 298,-568.8 298,-568.8 298,-562.8 304,-556.8 310,-556.8"/>
<text text-anchor="start" x="313" y="-606.8" font-family="Liberation Sans" font-size="10.00">4.3</text>
<text text-anchor="start" x="304" y="-587.8" font-family="Liberation Sans" font-size="10.00">Update</text>
<text text-anchor="start" x="307.5" y="-576.8" font-family="Liberation Sans" font-size="10.00">Order</text>
<text text-anchor="start" x="305.5" y="-565.8" font-family="Liberation Sans" font-size="10.00">Status</text>
<polygon fill="black" stroke="black" points="298,-600.8 298,-600.8 342,-600.8 342,-600.8 298,-600.8"/>
<path fill="none" stroke="black" d="M310,-556.8C310,-556.8 330,-556.8 330,-556.8 336,-556.8 342,-562.8 342,-568.8 342,-568.8 342,-606.8 342,-606.8 342,-612.8 336,-618.8 330,-618.8 330,-618.8 310,-618.8 310,-618.8 304,-618.8 298,-612.8 298,-606.8 298,-606.8 298,-568.8 298,-568.8 298,-562.8 304,-556.8 310,-556.8"/>
</g>
<!-- q4b&#45;&gt;q4c -->
<!-- by_q4b -->
<!-- gsdup -->
<g id="node6" class="node">
<title>by_q4b</title>
<polygon fill="#e8e6e0" stroke="black" stroke-width="1.2" points="97,-744.3 0,-744.3 0,-711.3 97,-711.3 97,-744.3"/>
<text text-anchor="middle" x="48.5" y="-725" font-family="Liberation Sans" font-size="11.00">Buyer</text>
</g>
<!-- by_q4b&#45;&gt;q4b -->
<g id="edge4" class="edge">
<title>by_q4b&#45;&gt;q4b</title>
<path fill="none" stroke="#333333" stroke-width="0.9" d="M97.04,-723.36C135.39,-719.7 190.7,-714.24 239,-708.8 253.59,-707.16 269.67,-705.18 283.55,-703.42"/>
<polygon fill="#333333" stroke="#333333" stroke-width="0.9" points="284.08,-705.47 289.76,-702.63 283.55,-701.3 284.08,-705.47"/>
<text text-anchor="middle" x="193.5" y="-729" font-family="Liberation Sans" font-size="8.50">checkout, fulfillment</text>
<text text-anchor="middle" x="193.5" y="-720" font-family="Liberation Sans" font-size="8.50">preference</text>
</g>
<!-- by_q4b&#45;&gt;q4b -->
<g id="edge11" class="edge">
<title>by_q4b&#45;&gt;q4b</title>
<path fill="none" stroke="#333333" stroke-width="0.9" d="M103.12,-709.72C117.53,-705.64 133.22,-701.9 148,-699.8 197.38,-692.77 255.59,-694.54 289.78,-696.58"/>
<polygon fill="#333333" stroke="#333333" stroke-width="0.9" points="102.21,-707.79 97.03,-711.48 103.38,-711.83 102.21,-707.79"/>
<text text-anchor="middle" x="193.5" y="-702" font-family="Liberation Sans" font-size="8.50">order summary</text>
</g>
<!-- D4_q4c -->
<g id="node14" class="node">
<title>D4_q4c</title>
<polyline fill="none" stroke="black" points="539,-694.8 539,-674.8 "/>
<polyline fill="none" stroke="black" points="572,-694.8 542,-694.8 542,-674.8 572,-674.8 "/>
<text text-anchor="start" x="549.5" y="-683" font-family="Liberation Sans" font-weight="bold" font-size="11.00">D4</text>
<polyline fill="none" stroke="black" points="572,-674.8 617,-674.8 "/>
<polyline fill="none" stroke="black" points="617,-694.8 572,-694.8 "/>
<text text-anchor="start" x="576" y="-682" font-family="Liberation Sans" font-size="11.00">Listings</text>
</g>
<!-- q4c&#45;&gt;D4_q4c -->
<g id="edge16" class="edge">
<title>q4c&#45;&gt;D4_q4c</title>
<path fill="none" stroke="#333333" stroke-width="0.9" d="M342.32,-599.56C358.21,-608.06 380.59,-619.45 401,-627.8 445.68,-646.08 498.56,-662.55 534.62,-673.02"/>
<polygon fill="#333333" stroke="#333333" stroke-width="0.9" points="534.35,-675.13 540.7,-674.78 535.52,-671.1 534.35,-675.13"/>
<text text-anchor="middle" x="439" y="-665" font-family="Liberation Sans" font-size="8.50">deduct, release,</text>
<text text-anchor="middle" x="439" y="-656" font-family="Liberation Sans" font-size="8.50">restore stock</text>
</g>
<!-- D6_q4c -->
<g id="node15" class="node">
<title>D6_q4c</title>
<polyline fill="none" stroke="black" points="541,-621.8 541,-601.8 "/>
<polyline fill="none" stroke="black" points="574,-621.8 544,-621.8 544,-601.8 574,-601.8 "/>
<text text-anchor="start" x="551.5" y="-610" font-family="Liberation Sans" font-weight="bold" font-size="11.00">D6</text>
<polyline fill="none" stroke="black" points="574,-601.8 616,-601.8 "/>
<polyline fill="none" stroke="black" points="616,-621.8 574,-621.8 "/>
<text text-anchor="start" x="578" y="-609" font-family="Liberation Sans" font-size="11.00">Orders</text>
</g>
<!-- q4c&#45;&gt;D6_q4c -->
<g id="edge14" class="edge">
<title>q4c&#45;&gt;D6_q4c</title>
<path fill="none" stroke="#333333" stroke-width="0.9" d="M348.05,-595.68C363.43,-599.8 383.13,-604.45 401,-606.8 448.88,-613.1 504.7,-613.53 540.42,-612.93"/>
<polygon fill="#333333" stroke="#333333" stroke-width="0.9" points="348.51,-593.63 342.17,-594.08 347.41,-597.69 348.51,-593.63"/>
<text text-anchor="middle" x="439" y="-614" font-family="Liberation Sans" font-size="8.50">order</text>
</g>
<!-- q4c&#45;&gt;D6_q4c -->
<g id="edge15" class="edge">
<title>q4c&#45;&gt;D6_q4c</title>
<path fill="none" stroke="#333333" stroke-width="0.9" d="M342.03,-585.79C358.15,-584.36 380.96,-582.55 401,-581.8 434.75,-580.54 443.58,-576.9 477,-581.8 500.4,-585.23 525.93,-592.96 545.34,-599.72"/>
<polygon fill="#333333" stroke="#333333" stroke-width="0.9" points="544.8,-601.75 551.15,-601.77 546.2,-597.79 544.8,-601.75"/>
<text text-anchor="middle" x="439" y="-593" font-family="Liberation Sans" font-size="8.50">status, history,</text>
<text text-anchor="middle" x="439" y="-584" font-family="Liberation Sans" font-size="8.50">fixed prices</text>
</g>
<!-- D8_q4c -->
<g id="node16" class="node">
<title>D8_q4c</title>
<polyline fill="none" stroke="black" points="528,-544.8 528,-524.8 "/>
<polyline fill="none" stroke="black" points="561,-544.8 531,-544.8 531,-524.8 561,-524.8 "/>
<text text-anchor="start" x="538.5" y="-533" font-family="Liberation Sans" font-weight="bold" font-size="11.00">D8</text>
<polyline fill="none" stroke="black" points="561,-524.8 628,-524.8 "/>
<polyline fill="none" stroke="black" points="628,-544.8 561,-544.8 "/>
<text text-anchor="start" x="565" y="-532" font-family="Liberation Sans" font-size="11.00">Notifications</text>
</g>
<!-- q4c&#45;&gt;D8_q4c -->
<g id="edge17" class="edge">
<title>q4c&#45;&gt;D8_q4c</title>
<path fill="none" stroke="#333333" stroke-width="0.9" d="M342.13,-576.79C357.92,-569.07 380.26,-559.2 401,-553.8 440.48,-543.52 486.33,-538.79 521.34,-536.62"/>
<polygon fill="#333333" stroke="#333333" stroke-width="0.9" points="521.88,-538.7 527.75,-536.25 521.63,-534.5 521.88,-538.7"/>
<text text-anchor="middle" x="439" y="-565" font-family="Liberation Sans" font-size="8.50">status and</text>
<text text-anchor="middle" x="439" y="-556" font-family="Liberation Sans" font-size="8.50">low&#45;stock notices</text>
</g>
<!-- q4d -->
<g id="node19" class="node">
<title>q4d</title>
<path fill="#f4f4f4" stroke="transparent" d="M309.5,-426.8C309.5,-426.8 330.5,-426.8 330.5,-426.8 336.5,-426.8 342.5,-432.8 342.5,-438.8 342.5,-438.8 342.5,-476.8 342.5,-476.8 342.5,-482.8 336.5,-488.8 330.5,-488.8 330.5,-488.8 309.5,-488.8 309.5,-488.8 303.5,-488.8 297.5,-482.8 297.5,-476.8 297.5,-476.8 297.5,-438.8 297.5,-438.8 297.5,-432.8 303.5,-426.8 309.5,-426.8"/>
<text text-anchor="start" x="313.5" y="-476.8" font-family="Liberation Sans" font-size="10.00">4.4</text>
<text text-anchor="start" x="304.5" y="-457.8" font-family="Liberation Sans" font-size="10.00">Record</text>
<text text-anchor="start" x="304" y="-446.8" font-family="Liberation Sans" font-size="10.00">Walk&#45;in</text>
<text text-anchor="start" x="310.5" y="-435.8" font-family="Liberation Sans" font-size="10.00">Sale</text>
<polygon fill="black" stroke="black" points="298,-470.8 298,-470.8 343,-470.8 343,-470.8 298,-470.8"/>
<path fill="none" stroke="black" d="M309.5,-426.8C309.5,-426.8 330.5,-426.8 330.5,-426.8 336.5,-426.8 342.5,-432.8 342.5,-438.8 342.5,-438.8 342.5,-476.8 342.5,-476.8 342.5,-482.8 336.5,-488.8 330.5,-488.8 330.5,-488.8 309.5,-488.8 309.5,-488.8 303.5,-488.8 297.5,-482.8 297.5,-476.8 297.5,-476.8 297.5,-438.8 297.5,-438.8 297.5,-432.8 303.5,-426.8 309.5,-426.8"/>
</g>
<!-- q4c&#45;&gt;q4d -->
<!-- by_q4c -->
<!-- gsdup -->
<g id="node13" class="node">
<title>by_q4c</title>
<polygon fill="#e8e6e0" stroke="black" stroke-width="1.2" points="97,-667.3 0,-667.3 0,-634.3 97,-634.3 97,-667.3"/>
<text text-anchor="middle" x="48.5" y="-648" font-family="Liberation Sans" font-size="11.00">Buyer</text>
</g>
<!-- by_q4c&#45;&gt;q4c -->
<g id="edge13" class="edge">
<title>by_q4c&#45;&gt;q4c</title>
<path fill="none" stroke="#333333" stroke-width="0.9" d="M97.27,-642.18C135.75,-634.95 191.13,-623.88 239,-611.8 256.75,-607.32 276.45,-601.42 291.86,-596.59"/>
<polygon fill="#333333" stroke="#333333" stroke-width="0.9" points="292.66,-598.54 297.75,-594.73 291.4,-594.54 292.66,-598.54"/>
<text text-anchor="middle" x="193.5" y="-642" font-family="Liberation Sans" font-size="8.50">cancel while</text>
<text text-anchor="middle" x="193.5" y="-633" font-family="Liberation Sans" font-size="8.50">Placed</text>
</g>
<!-- fs_q4c -->
<!-- gsdup -->
<g id="node17" class="node">
<title>fs_q4c</title>
<polygon fill="#e8e6e0" stroke="black" stroke-width="1.2" points="97,-604.3 0,-604.3 0,-571.3 97,-571.3 97,-604.3"/>
<text text-anchor="middle" x="48.5" y="-585" font-family="Liberation Sans" font-size="11.00">Farmer&#45;Seller</text>
</g>
<!-- fs_q4c&#45;&gt;q4c -->
<g id="edge12" class="edge">
<title>fs_q4c&#45;&gt;q4c</title>
<path fill="none" stroke="#333333" stroke-width="0.9" d="M97.06,-587.8C153.63,-587.8 246.14,-587.8 291.78,-587.8"/>
<polygon fill="#333333" stroke="#333333" stroke-width="0.9" points="291.9,-589.9 297.9,-587.8 291.9,-585.7 291.9,-589.9"/>
<text text-anchor="middle" x="193.5" y="-599" font-family="Liberation Sans" font-size="8.50">confirm, ready, complete</text>
<text text-anchor="middle" x="193.5" y="-590" font-family="Liberation Sans" font-size="8.50">with amount, cancel</text>
</g>
<!-- em_q4c -->
<!-- gsdup -->
<g id="node18" class="node">
<title>em_q4c</title>
<polygon fill="#f2f2f2" stroke="black" stroke-width="1.2" points="97,-541.3 0,-541.3 0,-508.3 97,-508.3 97,-541.3"/>
<text text-anchor="middle" x="48.5" y="-522" font-family="Liberation Sans" font-size="11.00">Email Service</text>
</g>
<!-- em_q4c&#45;&gt;q4c -->
<g id="edge18" class="edge">
<title>em_q4c&#45;&gt;q4c</title>
<path fill="none" stroke="#333333" stroke-width="0.9" d="M103.09,-537.33C162.78,-551.28 256.35,-573.15 297.9,-582.87"/>
<polygon fill="#333333" stroke="#333333" stroke-width="0.9" points="103.38,-535.24 97.06,-535.92 102.43,-539.33 103.38,-535.24"/>
<text text-anchor="middle" x="193.5" y="-569" font-family="Liberation Sans" font-size="8.50">low&#45;stock alert</text>
</g>
<!-- D4_q4d -->
<g id="node20" class="node">
<title>D4_q4d</title>
<polyline fill="none" stroke="black" points="539,-477.8 539,-457.8 "/>
<polyline fill="none" stroke="black" points="572,-477.8 542,-477.8 542,-457.8 572,-457.8 "/>
<text text-anchor="start" x="549.5" y="-466" font-family="Liberation Sans" font-weight="bold" font-size="11.00">D4</text>
<polyline fill="none" stroke="black" points="572,-457.8 617,-457.8 "/>
<polyline fill="none" stroke="black" points="617,-477.8 572,-477.8 "/>
<text text-anchor="start" x="576" y="-465" font-family="Liberation Sans" font-size="11.00">Listings</text>
</g>
<!-- q4d&#45;&gt;D4_q4d -->
<g id="edge20" class="edge">
<title>q4d&#45;&gt;D4_q4d</title>
<path fill="none" stroke="#333333" stroke-width="0.9" d="M349.01,-458.89C395.08,-460.69 486.89,-464.28 538.85,-466.31"/>
<polygon fill="#333333" stroke="#333333" stroke-width="0.9" points="348.9,-456.79 342.83,-458.65 348.74,-460.99 348.9,-456.79"/>
<text text-anchor="middle" x="439" y="-465" font-family="Liberation Sans" font-size="8.50">price, tawad, stock</text>
</g>
<!-- q4d&#45;&gt;D4_q4d -->
<g id="edge22" class="edge">
<title>q4d&#45;&gt;D4_q4d</title>
<path fill="none" stroke="#333333" stroke-width="0.9" d="M342.66,-454.35C358.72,-451.98 381.16,-449.04 401,-447.8 434.71,-445.7 443.39,-444.47 477,-447.8 495.36,-449.62 515.34,-453.27 532.58,-456.96"/>
<polygon fill="#333333" stroke="#333333" stroke-width="0.9" points="532.49,-459.09 538.8,-458.32 533.39,-454.99 532.49,-459.09"/>
<text text-anchor="middle" x="439" y="-450" font-family="Liberation Sans" font-size="8.50">deducted stock</text>
</g>
<!-- D6_q4d -->
<g id="node21" class="node">
<title>D6_q4d</title>
<polyline fill="none" stroke="black" points="541,-409.8 541,-389.8 "/>
<polyline fill="none" stroke="black" points="574,-409.8 544,-409.8 544,-389.8 574,-389.8 "/>
<text text-anchor="start" x="551.5" y="-398" font-family="Liberation Sans" font-weight="bold" font-size="11.00">D6</text>
<polyline fill="none" stroke="black" points="574,-389.8 616,-389.8 "/>
<polyline fill="none" stroke="black" points="616,-409.8 574,-409.8 "/>
<text text-anchor="start" x="578" y="-397" font-family="Liberation Sans" font-size="11.00">Orders</text>
</g>
<!-- q4d&#45;&gt;D6_q4d -->
<g id="edge21" class="edge">
<title>q4d&#45;&gt;D6_q4d</title>
<path fill="none" stroke="#333333" stroke-width="0.9" d="M342.64,-445.11C358.32,-436.52 380.3,-425.71 401,-419.8 445.3,-407.14 498.04,-402.45 534.16,-400.74"/>
<polygon fill="#333333" stroke="#333333" stroke-width="0.9" points="534.35,-402.83 540.25,-400.47 534.17,-398.63 534.35,-402.83"/>
<text text-anchor="middle" x="439" y="-431" font-family="Liberation Sans" font-size="8.50">Completed order,</text>
<text text-anchor="middle" x="439" y="-422" font-family="Liberation Sans" font-size="8.50">no buyer</text>
</g>
<!-- D8_q4d -->
<g id="node22" class="node">
<title>D8_q4d</title>
<polyline fill="none" stroke="black" points="528,-359.8 528,-339.8 "/>
<polyline fill="none" stroke="black" points="561,-359.8 531,-359.8 531,-339.8 561,-339.8 "/>
<text text-anchor="start" x="538.5" y="-348" font-family="Liberation Sans" font-weight="bold" font-size="11.00">D8</text>
<polyline fill="none" stroke="black" points="561,-339.8 628,-339.8 "/>
<polyline fill="none" stroke="black" points="628,-359.8 561,-359.8 "/>
<text text-anchor="start" x="565" y="-347" font-family="Liberation Sans" font-size="11.00">Notifications</text>
</g>
<!-- q4d&#45;&gt;D8_q4d -->
<g id="edge23" class="edge">
<title>q4d&#45;&gt;D8_q4d</title>
<path fill="none" stroke="#333333" stroke-width="0.9" d="M342.64,-434.3C357.64,-419.39 378.83,-400.89 401,-389.8 438.88,-370.84 485.83,-360.75 521.71,-355.45"/>
<polygon fill="#333333" stroke="#333333" stroke-width="0.9" points="522.18,-357.51 527.82,-354.58 521.58,-353.35 522.18,-357.51"/>
<text text-anchor="middle" x="439" y="-392" font-family="Liberation Sans" font-size="8.50">low&#45;stock notice</text>
</g>
<!-- q4e -->
<g id="node25" class="node">
<title>q4e</title>
<path fill="#f4f4f4" stroke="transparent" d="M310.5,-304.8C310.5,-304.8 329.5,-304.8 329.5,-304.8 335.5,-304.8 341.5,-310.8 341.5,-316.8 341.5,-316.8 341.5,-354.8 341.5,-354.8 341.5,-360.8 335.5,-366.8 329.5,-366.8 329.5,-366.8 310.5,-366.8 310.5,-366.8 304.5,-366.8 298.5,-360.8 298.5,-354.8 298.5,-354.8 298.5,-316.8 298.5,-316.8 298.5,-310.8 304.5,-304.8 310.5,-304.8"/>
<text text-anchor="start" x="313.5" y="-354.8" font-family="Liberation Sans" font-size="10.00">4.5</text>
<text text-anchor="start" x="305" y="-335.8" font-family="Liberation Sans" font-size="10.00">Sweep</text>
<text text-anchor="start" x="309" y="-324.8" font-family="Liberation Sans" font-size="10.00">Stale</text>
<text text-anchor="start" x="305.5" y="-313.8" font-family="Liberation Sans" font-size="10.00">Orders</text>
<polygon fill="black" stroke="black" points="299,-348.8 299,-348.8 342,-348.8 342,-348.8 299,-348.8"/>
<path fill="none" stroke="black" d="M310.5,-304.8C310.5,-304.8 329.5,-304.8 329.5,-304.8 335.5,-304.8 341.5,-310.8 341.5,-316.8 341.5,-316.8 341.5,-354.8 341.5,-354.8 341.5,-360.8 335.5,-366.8 329.5,-366.8 329.5,-366.8 310.5,-366.8 310.5,-366.8 304.5,-366.8 298.5,-360.8 298.5,-354.8 298.5,-354.8 298.5,-316.8 298.5,-316.8 298.5,-310.8 304.5,-304.8 310.5,-304.8"/>
</g>
<!-- q4d&#45;&gt;q4e -->
<!-- fs_q4d -->
<!-- gsdup -->
<g id="node23" class="node">
<title>fs_q4d</title>
<polygon fill="#e8e6e0" stroke="black" stroke-width="1.2" points="97,-478.3 0,-478.3 0,-445.3 97,-445.3 97,-478.3"/>
<text text-anchor="middle" x="48.5" y="-459" font-family="Liberation Sans" font-size="11.00">Farmer&#45;Seller</text>
</g>
<!-- fs_q4d&#45;&gt;q4d -->
<g id="edge19" class="edge">
<title>fs_q4d&#45;&gt;q4d</title>
<path fill="none" stroke="#333333" stroke-width="0.9" d="M97.06,-461.09C153.35,-460.26 245.2,-458.9 291.08,-458.21"/>
<polygon fill="#333333" stroke="#333333" stroke-width="0.9" points="291.27,-460.31 297.24,-458.12 291.21,-456.11 291.27,-460.31"/>
<text text-anchor="middle" x="193.5" y="-471" font-family="Liberation Sans" font-size="8.50">walk&#45;in sale,</text>
<text text-anchor="middle" x="193.5" y="-462" font-family="Liberation Sans" font-size="8.50">amount received</text>
</g>
<!-- em_q4d -->
<!-- gsdup -->
<g id="node24" class="node">
<title>em_q4d</title>
<polygon fill="#f2f2f2" stroke="black" stroke-width="1.2" points="97,-415.3 0,-415.3 0,-382.3 97,-382.3 97,-415.3"/>
<text text-anchor="middle" x="48.5" y="-396" font-family="Liberation Sans" font-size="11.00">Email Service</text>
</g>
<!-- em_q4d&#45;&gt;q4d -->
<g id="edge24" class="edge">
<title>em_q4d&#45;&gt;q4d</title>
<path fill="none" stroke="#333333" stroke-width="0.9" d="M103.06,-410.52C162.44,-423.52 255.36,-443.87 297.24,-453.04"/>
<polygon fill="#333333" stroke="#333333" stroke-width="0.9" points="103.37,-408.44 97.06,-409.21 102.47,-412.55 103.37,-408.44"/>
<text text-anchor="middle" x="193.5" y="-440" font-family="Liberation Sans" font-size="8.50">low&#45;stock alert</text>
</g>
<!-- D4_q4e -->
<g id="node26" class="node">
<title>D4_q4e</title>
<polyline fill="none" stroke="black" points="539,-309.8 539,-289.8 "/>
<polyline fill="none" stroke="black" points="572,-309.8 542,-309.8 542,-289.8 572,-289.8 "/>
<text text-anchor="start" x="549.5" y="-298" font-family="Liberation Sans" font-weight="bold" font-size="11.00">D4</text>
<polyline fill="none" stroke="black" points="572,-289.8 617,-289.8 "/>
<polyline fill="none" stroke="black" points="617,-309.8 572,-309.8 "/>
<text text-anchor="start" x="576" y="-297" font-family="Liberation Sans" font-size="11.00">Listings</text>
</g>
<!-- q4e&#45;&gt;D4_q4e -->
<g id="edge29" class="edge">
<title>q4e&#45;&gt;D4_q4e</title>
<path fill="none" stroke="#333333" stroke-width="0.9" d="M341.55,-326.36C357.42,-319.56 380.12,-310.9 401,-306.8 445.25,-298.12 496.92,-297.11 532.78,-297.83"/>
<polygon fill="#333333" stroke="#333333" stroke-width="0.9" points="532.8,-299.93 538.84,-297.97 532.89,-295.73 532.8,-299.93"/>
<text text-anchor="middle" x="439" y="-309" font-family="Liberation Sans" font-size="8.50">released stock</text>
</g>
<!-- D6_q4e -->
<g id="node27" class="node">
<title>D6_q4e</title>
<polyline fill="none" stroke="black" points="541,-240.8 541,-220.8 "/>
<polyline fill="none" stroke="black" points="574,-240.8 544,-240.8 544,-220.8 574,-220.8 "/>
<text text-anchor="start" x="551.5" y="-229" font-family="Liberation Sans" font-weight="bold" font-size="11.00">D6</text>
<polyline fill="none" stroke="black" points="574,-220.8 616,-220.8 "/>
<polyline fill="none" stroke="black" points="616,-240.8 574,-240.8 "/>
<text text-anchor="start" x="578" y="-228" font-family="Liberation Sans" font-size="11.00">Orders</text>
</g>
<!-- q4e&#45;&gt;D6_q4e -->
<g id="edge26" class="edge">
<title>q4e&#45;&gt;D6_q4e</title>
<path fill="none" stroke="#333333" stroke-width="0.9" d="M346.58,-315.51C361.71,-304.31 381.64,-290.87 401,-281.8 446.95,-260.28 503.97,-245.78 540.42,-237.91"/>
<polygon fill="#333333" stroke="#333333" stroke-width="0.9" points="345.18,-313.93 341.64,-319.21 347.7,-317.29 345.18,-313.93"/>
<text text-anchor="middle" x="439" y="-284" font-family="Liberation Sans" font-size="8.50">Placed orders</text>
</g>
<!-- q4e&#45;&gt;D6_q4e -->
<g id="edge28" class="edge">
<title>q4e&#45;&gt;D6_q4e</title>
<path fill="none" stroke="#333333" stroke-width="0.9" d="M334.4,-304.74C347.33,-279.12 369.58,-244.54 401,-228.8 442.58,-207.97 496.93,-212.61 534.16,-219.81"/>
<polygon fill="#333333" stroke="#333333" stroke-width="0.9" points="534.15,-221.95 540.45,-221.07 534.98,-217.83 534.15,-221.95"/>
<text text-anchor="middle" x="439" y="-240" font-family="Liberation Sans" font-size="8.50">48&#45;hour system</text>
<text text-anchor="middle" x="439" y="-231" font-family="Liberation Sans" font-size="8.50">cancellation</text>
</g>
<!-- D8_q4e -->
<g id="node28" class="node">
<title>D8_q4e</title>
<polyline fill="none" stroke="black" points="528,-171.8 528,-151.8 "/>
<polyline fill="none" stroke="black" points="561,-171.8 531,-171.8 531,-151.8 561,-151.8 "/>
<text text-anchor="start" x="538.5" y="-160" font-family="Liberation Sans" font-weight="bold" font-size="11.00">D8</text>
<polyline fill="none" stroke="black" points="561,-151.8 628,-151.8 "/>
<polyline fill="none" stroke="black" points="628,-171.8 561,-171.8 "/>
<text text-anchor="start" x="565" y="-159" font-family="Liberation Sans" font-size="11.00">Notifications</text>
</g>
<!-- q4e&#45;&gt;D8_q4e -->
<g id="edge27" class="edge">
<title>q4e&#45;&gt;D8_q4e</title>
<path fill="none" stroke="#333333" stroke-width="0.9" d="M333.82,-304.8C350.54,-265.87 380.13,-202.42 401,-187.8 435.92,-163.35 484.34,-157.7 521.56,-157.69"/>
<polygon fill="#333333" stroke="#333333" stroke-width="0.9" points="521.88,-159.8 527.9,-157.75 521.92,-155.6 521.88,-159.8"/>
<text text-anchor="middle" x="439" y="-199" font-family="Liberation Sans" font-size="8.50">12&#45;hour reminder,</text>
<text text-anchor="middle" x="439" y="-190" font-family="Liberation Sans" font-size="8.50">cancellation notice</text>
</g>
<!-- q4f -->
<g id="node30" class="node">
<title>q4f</title>
<path fill="#f4f4f4" stroke="transparent" d="M309,-194.3C309,-194.3 331,-194.3 331,-194.3 337,-194.3 343,-200.3 343,-206.3 343,-206.3 343,-233.3 343,-233.3 343,-239.3 337,-245.3 331,-245.3 331,-245.3 309,-245.3 309,-245.3 303,-245.3 297,-239.3 297,-233.3 297,-233.3 297,-206.3 297,-206.3 297,-200.3 303,-194.3 309,-194.3"/>
<text text-anchor="start" x="313" y="-232.8" font-family="Liberation Sans" font-size="10.00">4.6</text>
<text text-anchor="start" x="303" y="-213.8" font-family="Liberation Sans" font-size="10.00">Review</text>
<text text-anchor="start" x="305" y="-202.8" font-family="Liberation Sans" font-size="10.00">Orders</text>
<polygon fill="black" stroke="black" points="297,-226.8 297,-226.8 343,-226.8 343,-226.8 297,-226.8"/>
<path fill="none" stroke="black" d="M309,-194.3C309,-194.3 331,-194.3 331,-194.3 337,-194.3 343,-200.3 343,-206.3 343,-206.3 343,-233.3 343,-233.3 343,-239.3 337,-245.3 331,-245.3 331,-245.3 309,-245.3 309,-245.3 303,-245.3 297,-239.3 297,-233.3 297,-233.3 297,-206.3 297,-206.3 297,-200.3 303,-194.3 309,-194.3"/>
</g>
<!-- q4e&#45;&gt;q4f -->
<!-- sch_q4e -->
<g id="node29" class="node">
<title>sch_q4e</title>
<polygon fill="#f2f2f2" stroke="black" stroke-width="1.2" points="97,-352.3 0,-352.3 0,-319.3 97,-319.3 97,-352.3"/>
<text text-anchor="middle" x="48.5" y="-333" font-family="Liberation Sans" font-size="11.00">Scheduler</text>
</g>
<!-- sch_q4e&#45;&gt;q4e -->
<g id="edge25" class="edge">
<title>sch_q4e&#45;&gt;q4e</title>
<path fill="none" stroke="#333333" stroke-width="0.9" d="M97.06,-335.8C153.78,-335.8 246.61,-335.8 292.13,-335.8"/>
<polygon fill="#333333" stroke="#333333" stroke-width="0.9" points="292.23,-337.9 298.23,-335.8 292.23,-333.7 292.23,-337.9"/>
<text text-anchor="middle" x="193.5" y="-338" font-family="Liberation Sans" font-size="8.50">hourly trigger</text>
</g>
<!-- D6_q4f -->
<g id="node32" class="node">
<title>D6_q4f</title>
<polyline fill="none" stroke="black" points="541,-121.8 541,-101.8 "/>
<polyline fill="none" stroke="black" points="574,-121.8 544,-121.8 544,-101.8 574,-101.8 "/>
<text text-anchor="start" x="551.5" y="-110" font-family="Liberation Sans" font-weight="bold" font-size="11.00">D6</text>
<polyline fill="none" stroke="black" points="574,-101.8 616,-101.8 "/>
<polyline fill="none" stroke="black" points="616,-121.8 574,-121.8 "/>
<text text-anchor="start" x="578" y="-109" font-family="Liberation Sans" font-size="11.00">Orders</text>
</g>
<!-- q4f&#45;&gt;D6_q4f -->
<g id="edge31" class="edge">
<title>q4f&#45;&gt;D6_q4f</title>
<path fill="none" stroke="#333333" stroke-width="0.9" d="M334.65,-188.33C347.63,-162.79 369.81,-128.53 401,-112.8 444.92,-90.64 503.21,-95.96 540.42,-102.96"/>
<polygon fill="#333333" stroke="#333333" stroke-width="0.9" points="332.65,-187.65 331.87,-193.96 336.41,-189.51 332.65,-187.65"/>
<text text-anchor="middle" x="439" y="-115" font-family="Liberation Sans" font-size="8.50">completed app order</text>
</g>
<!-- D9_q4f -->
<g id="node33" class="node">
<title>D9_q4f</title>
<polyline fill="none" stroke="black" points="568,-71.8 538,-71.8 538,-51.8 568,-51.8 "/>
<text text-anchor="start" x="545.5" y="-60" font-family="Liberation Sans" font-weight="bold" font-size="11.00">D9</text>
<polyline fill="none" stroke="black" points="568,-51.8 618,-51.8 "/>
<polyline fill="none" stroke="black" points="618,-71.8 568,-71.8 "/>
<text text-anchor="start" x="572" y="-59" font-family="Liberation Sans" font-size="11.00">Reviews</text>
</g>
<!-- q4f&#45;&gt;D9_q4f -->
<g id="edge32" class="edge">
<title>q4f&#45;&gt;D9_q4f</title>
<path fill="none" stroke="#333333" stroke-width="0.9" d="M332.28,-194.24C348.82,-158 379.95,-94.53 401,-80.8 439.69,-55.56 493.62,-53.41 531.55,-55.93"/>
<polygon fill="#333333" stroke="#333333" stroke-width="0.9" points="531.83,-58.06 537.97,-56.42 532.15,-53.87 531.83,-58.06"/>
<text text-anchor="middle" x="439" y="-83" font-family="Liberation Sans" font-size="8.50">review</text>
</g>
<!-- q4g -->
<g id="node35" class="node">
<title>q4g</title>
<path fill="#f4f4f4" stroke="transparent" d="M307.5,-72.8C307.5,-72.8 332.5,-72.8 332.5,-72.8 338.5,-72.8 344.5,-78.8 344.5,-84.8 344.5,-84.8 344.5,-122.8 344.5,-122.8 344.5,-128.8 338.5,-134.8 332.5,-134.8 332.5,-134.8 307.5,-134.8 307.5,-134.8 301.5,-134.8 295.5,-128.8 295.5,-122.8 295.5,-122.8 295.5,-84.8 295.5,-84.8 295.5,-78.8 301.5,-72.8 307.5,-72.8"/>
<text text-anchor="start" x="313.5" y="-122.8" font-family="Liberation Sans" font-size="10.00">4.7</text>
<text text-anchor="start" x="303.5" y="-103.8" font-family="Liberation Sans" font-size="10.00">Provide</text>
<text text-anchor="start" x="308" y="-92.8" font-family="Liberation Sans" font-size="10.00">Order</text>
<text text-anchor="start" x="302" y="-81.8" font-family="Liberation Sans" font-size="10.00">Records</text>
<polygon fill="black" stroke="black" points="296,-116.8 296,-116.8 345,-116.8 345,-116.8 296,-116.8"/>
<path fill="none" stroke="black" d="M307.5,-72.8C307.5,-72.8 332.5,-72.8 332.5,-72.8 338.5,-72.8 344.5,-78.8 344.5,-84.8 344.5,-84.8 344.5,-122.8 344.5,-122.8 344.5,-128.8 338.5,-134.8 332.5,-134.8 332.5,-134.8 307.5,-134.8 307.5,-134.8 301.5,-134.8 295.5,-128.8 295.5,-122.8 295.5,-122.8 295.5,-84.8 295.5,-84.8 295.5,-78.8 301.5,-72.8 307.5,-72.8"/>
</g>
<!-- q4f&#45;&gt;q4g -->
<!-- by_q4f -->
<!-- gsdup -->
<g id="node31" class="node">
<title>by_q4f</title>
<polygon fill="#e8e6e0" stroke="black" stroke-width="1.2" points="97,-289.3 0,-289.3 0,-256.3 97,-256.3 97,-289.3"/>
<text text-anchor="middle" x="48.5" y="-270" font-family="Liberation Sans" font-size="11.00">Buyer</text>
</g>
<!-- by_q4f&#45;&gt;q4f -->
<g id="edge30" class="edge">
<title>by_q4f&#45;&gt;q4f</title>
<path fill="none" stroke="#333333" stroke-width="0.9" d="M97.06,-263.45C153.32,-252.38 245.1,-234.33 291.01,-225.31"/>
<polygon fill="#333333" stroke="#333333" stroke-width="0.9" points="291.42,-227.36 296.91,-224.15 290.61,-223.24 291.42,-227.36"/>
<text text-anchor="middle" x="193.5" y="-254" font-family="Liberation Sans" font-size="8.50">rating, comment</text>
</g>
<!-- sa_q4f -->
<!-- gsdup -->
<g id="node34" class="node">
<title>sa_q4f</title>
<polygon fill="#e1e6ed" stroke="black" stroke-width="1.2" points="97,-226.3 0,-226.3 0,-193.3 97,-193.3 97,-226.3"/>
<text text-anchor="middle" x="48.5" y="-207" font-family="Liberation Sans" font-size="11.00">Super Admin</text>
</g>
<!-- sa_q4f&#45;&gt;q4f -->
<g id="edge33" class="edge">
<title>sa_q4f&#45;&gt;q4f</title>
<path fill="none" stroke="#333333" stroke-width="0.9" d="M97.06,-211.56C153.2,-213.65 244.73,-217.04 290.73,-218.75"/>
<polygon fill="#333333" stroke="#333333" stroke-width="0.9" points="290.83,-220.86 296.91,-218.98 290.99,-216.66 290.83,-220.86"/>
<text text-anchor="middle" x="193.5" y="-218" font-family="Liberation Sans" font-size="8.50">review removal</text>
</g>
<!-- D6_q4g -->
<g id="node37" class="node">
<title>D6_q4g</title>
<polyline fill="none" stroke="black" points="541,-21.8 541,-1.8 "/>
<polyline fill="none" stroke="black" points="574,-21.8 544,-21.8 544,-1.8 574,-1.8 "/>
<text text-anchor="start" x="551.5" y="-10" font-family="Liberation Sans" font-weight="bold" font-size="11.00">D6</text>
<polyline fill="none" stroke="black" points="574,-1.8 616,-1.8 "/>
<polyline fill="none" stroke="black" points="616,-21.8 574,-21.8 "/>
<text text-anchor="start" x="578" y="-9" font-family="Liberation Sans" font-size="11.00">Orders</text>
</g>
<!-- q4g&#45;&gt;D6_q4g -->
<g id="edge34" class="edge">
<title>q4g&#45;&gt;D6_q4g</title>
<path fill="none" stroke="#333333" stroke-width="0.9" d="M343.58,-67.18C357.54,-48.13 377.3,-26.61 401,-15.8 445.63,4.55 503.48,0.96 540.43,-4.56"/>
<polygon fill="#333333" stroke="#333333" stroke-width="0.9" points="341.57,-66.38 339.8,-72.48 344.99,-68.82 341.57,-66.38"/>
<text text-anchor="middle" x="439" y="-18" font-family="Liberation Sans" font-size="8.50">orders</text>
</g>
<!-- by_q4g -->
<!-- gsdup -->
<g id="node36" class="node">
<title>by_q4g</title>
<polygon fill="#e8e6e0" stroke="black" stroke-width="1.2" points="97,-163.3 0,-163.3 0,-130.3 97,-130.3 97,-163.3"/>
<text text-anchor="middle" x="48.5" y="-144" font-family="Liberation Sans" font-size="11.00">Buyer</text>
</g>
<!-- by_q4g&#45;&gt;q4g -->
<g id="edge35" class="edge">
<title>by_q4g&#45;&gt;q4g</title>
<path fill="none" stroke="#333333" stroke-width="0.9" d="M103.32,-138.21C161.76,-128.89 252.47,-114.41 295.2,-107.6"/>
<polygon fill="#333333" stroke="#333333" stroke-width="0.9" points="102.65,-136.19 97.06,-139.21 103.32,-140.34 102.65,-136.19"/>
<text text-anchor="middle" x="193.5" y="-132" font-family="Liberation Sans" font-size="8.50">history, receipts</text>
</g>
<!-- fs_q4g -->
<!-- gsdup -->
<g id="node38" class="node">
<title>fs_q4g</title>
<polygon fill="#e8e6e0" stroke="black" stroke-width="1.2" points="97,-100.3 0,-100.3 0,-67.3 97,-67.3 97,-100.3"/>
<text text-anchor="middle" x="48.5" y="-81" font-family="Liberation Sans" font-size="11.00">Farmer&#45;Seller</text>
</g>
<!-- fs_q4g&#45;&gt;q4g -->
<g id="edge36" class="edge">
<title>fs_q4g&#45;&gt;q4g</title>
<path fill="none" stroke="#333333" stroke-width="0.9" d="M103.32,-87.79C161.76,-92.13 252.47,-98.86 295.2,-102.03"/>
<polygon fill="#333333" stroke="#333333" stroke-width="0.9" points="103.2,-85.68 97.06,-87.33 102.89,-89.87 103.2,-85.68"/>
<text text-anchor="middle" x="193.5" y="-99" font-family="Liberation Sans" font-size="8.50">order list</text>
</g>
<!-- sa_q4g -->
<!-- gsdup -->
<g id="node39" class="node">
<title>sa_q4g</title>
<polygon fill="#e1e6ed" stroke="black" stroke-width="1.2" points="97,-37.3 0,-37.3 0,-4.3 97,-4.3 97,-37.3"/>
<text text-anchor="middle" x="48.5" y="-18" font-family="Liberation Sans" font-size="11.00">Super Admin</text>
</g>
<!-- sa_q4g&#45;&gt;q4g -->
<g id="edge37" class="edge">
<title>sa_q4g&#45;&gt;q4g</title>
<path fill="none" stroke="#333333" stroke-width="0.9" d="M103.28,-35.04C141.38,-45.4 193.58,-60.12 239,-74.8 258.12,-80.98 279.5,-88.78 295.35,-94.73"/>
<polygon fill="#333333" stroke="#333333" stroke-width="0.9" points="103.63,-32.96 97.28,-33.42 102.53,-37.02 103.63,-32.96"/>
<text text-anchor="middle" x="193.5" y="-77" font-family="Liberation Sans" font-size="8.50">order ledger</text>
</g>
</g>
</svg>
