<?xml version="1.0" encoding="UTF-8" standalone="no"?>
<!DOCTYPE svg PUBLIC "-//W3C//DTD SVG 1.1//EN"
 "http://www.w3.org/Graphics/SVG/1.1/DTD/svg11.dtd">
<!-- Generated by graphviz version 2.43.0 (0)
 -->
<!-- Title: G Pages: 1 -->
<svg width="679pt" height="415pt"
 viewBox="0.00 0.00 679.00 415.45" xmlns="http://www.w3.org/2000/svg" xmlns:xlink="http://www.w3.org/1999/xlink">
<g id="graph0" class="graph" transform="scale(1 1) rotate(0) translate(18 397.45)"><line x1="86.00" y1="-341.95" x2="97.00" y2="-352.95" stroke="black" stroke-width="1.2"/><line x1="86.00" y1="-266.95" x2="97.00" y2="-277.95" stroke="black" stroke-width="1.2"/><line x1="86.00" y1="-89.95" x2="97.00" y2="-100.95" stroke="black" stroke-width="1.2"/><line x1="86.00" y1="-0.95" x2="97.00" y2="-11.95" stroke="black" stroke-width="1.2"/>
<title>G</title>
<polygon fill="white" stroke="transparent" points="-18,18 -18,-397.45 661,-397.45 661,18 -18,18"/>
<!-- q5a -->
<g id="node1" class="node">
<title>q5a</title>
<path fill="#f4f4f4" stroke="transparent" d="M303.5,-215.45C303.5,-215.45 335.5,-215.45 335.5,-215.45 341.5,-215.45 347.5,-221.45 347.5,-227.45 347.5,-227.45 347.5,-265.45 347.5,-265.45 347.5,-271.45 341.5,-277.45 335.5,-277.45 335.5,-277.45 303.5,-277.45 303.5,-277.45 297.5,-277.45 291.5,-271.45 291.5,-265.45 291.5,-265.45 291.5,-227.45 291.5,-227.45 291.5,-221.45 297.5,-215.45 303.5,-215.45"/>
<text text-anchor="start" x="312.5" y="-265.45" font-family="Liberation Sans" font-size="10.00">5.1</text>
<text text-anchor="start" x="297.5" y="-246.45" font-family="Liberation Sans" font-size="10.00">Exchange</text>
<text text-anchor="start" x="307" y="-235.45" font-family="Liberation Sans" font-size="10.00">Order</text>
<text text-anchor="start" x="308.5" y="-224.45" font-family="Liberation Sans" font-size="10.00">Chat</text>
<polygon fill="black" stroke="black" points="291.5,-259.45 291.5,-259.45 347.5,-259.45 347.5,-259.45 291.5,-259.45"/>
<path fill="none" stroke="black" d="M303.5,-215.45C303.5,-215.45 335.5,-215.45 335.5,-215.45 341.5,-215.45 347.5,-221.45 347.5,-227.45 347.5,-227.45 347.5,-265.45 347.5,-265.45 347.5,-271.45 341.5,-277.45 335.5,-277.45 335.5,-277.45 303.5,-277.45 303.5,-277.45 297.5,-277.45 291.5,-271.45 291.5,-265.45 291.5,-265.45 291.5,-227.45 291.5,-227.45 291.5,-221.45 297.5,-215.45 303.5,-215.45"/>
</g>
<!-- D6_q5a -->
<g id="node4" class="node">
<title>D6_q5a</title>
<polyline fill="none" stroke="black" points="578,-306.45 548,-306.45 548,-286.45 578,-286.45 "/>
<text text-anchor="start" x="555.5" y="-294.65" font-family="Liberation Sans" font-weight="bold" font-size="11.00">D6</text>
<polyline fill="none" stroke="black" points="578,-286.45 620,-286.45 "/>
<polyline fill="none" stroke="black" points="620,-306.45 578,-306.45 "/>
<text text-anchor="start" x="582" y="-293.65" font-family="Liberation Sans" font-size="11.00">Orders</text>
</g>
<!-- q5a&#45;&gt;D6_q5a -->
<g id="edge3" class="edge">
<title>q5a&#45;&gt;D6_q5a</title>
<path fill="none" stroke="#333333" stroke-width="0.9" d="M353.74,-252.78C403.48,-262.26 496.87,-280.04 547.75,-289.74"/>
<polygon fill="#333333" stroke="#333333" stroke-width="0.9" points="353.89,-250.67 347.6,-251.61 353.1,-254.8 353.89,-250.67"/>
<text text-anchor="middle" x="439" y="-283.65" font-family="Liberation Sans" font-size="8.50">order parties,</text>
<text text-anchor="middle" x="439" y="-274.65" font-family="Liberation Sans" font-size="8.50">status</text>
</g>
<!-- D7_q5a -->
<g id="node5" class="node">
<title>D7_q5a</title>
<polyline fill="none" stroke="black" points="555,-213.45 525,-213.45 525,-193.45 555,-193.45 "/>
<text text-anchor="start" x="532.5" y="-201.65" font-family="Liberation Sans" font-weight="bold" font-size="11.00">D7</text>
<polyline fill="none" stroke="black" points="555,-193.45 643,-193.45 "/>
<polyline fill="none" stroke="black" points="643,-213.45 555,-213.45 "/>
<text text-anchor="start" x="559" y="-200.65" font-family="Liberation Sans" font-size="11.00">Order Messages</text>
</g>
<!-- q5a&#45;&gt;D7_q5a -->
<g id="edge4" class="edge">
<title>q5a&#45;&gt;D7_q5a</title>
<path fill="none" stroke="#333333" stroke-width="0.9" d="M347.6,-242.01C387.65,-235.45 463.8,-222.98 518.66,-213.99"/>
<polygon fill="#333333" stroke="#333333" stroke-width="0.9" points="519.32,-216.01 524.9,-212.97 518.64,-211.87 519.32,-216.01"/>
<text text-anchor="middle" x="439" y="-231.65" font-family="Liberation Sans" font-size="8.50">message</text>
</g>
<!-- q5a&#45;&gt;D7_q5a -->
<g id="edge5" class="edge">
<title>q5a&#45;&gt;D7_q5a</title>
<path fill="none" stroke="#333333" stroke-width="0.9" d="M353.47,-228.11C370.9,-219.43 392.99,-209.99 414,-205.45 450.28,-197.62 491.97,-197.04 524.87,-198.46"/>
<polygon fill="#333333" stroke="#333333" stroke-width="0.9" points="352.14,-226.43 347.74,-231.01 354.04,-230.17 352.14,-226.43"/>
<text text-anchor="middle" x="439" y="-207.65" font-family="Liberation Sans" font-size="8.50">thread</text>
</g>
<!-- q5b -->
<g id="node7" class="node">
<title>q5b</title>
<path fill="#f4f4f4" stroke="transparent" d="M298,-92.95C298,-92.95 341,-92.95 341,-92.95 347,-92.95 353,-98.95 353,-104.95 353,-104.95 353,-131.95 353,-131.95 353,-137.95 347,-143.95 341,-143.95 341,-143.95 298,-143.95 298,-143.95 292,-143.95 286,-137.95 286,-131.95 286,-131.95 286,-104.95 286,-104.95 286,-98.95 292,-92.95 298,-92.95"/>
<text text-anchor="start" x="313" y="-131.45" font-family="Liberation Sans" font-size="10.00">5.2</text>
<text text-anchor="start" x="304.5" y="-112.45" font-family="Liberation Sans" font-size="10.00">Deliver</text>
<text text-anchor="start" x="292.5" y="-101.45" font-family="Liberation Sans" font-size="10.00">Notifications</text>
<polygon fill="black" stroke="black" points="286.5,-125.45 286.5,-125.45 353.5,-125.45 353.5,-125.45 286.5,-125.45"/>
<path fill="none" stroke="black" d="M298,-92.95C298,-92.95 341,-92.95 341,-92.95 347,-92.95 353,-98.95 353,-104.95 353,-104.95 353,-131.95 353,-131.95 353,-137.95 347,-143.95 341,-143.95 341,-143.95 298,-143.95 298,-143.95 292,-143.95 286,-137.95 286,-131.95 286,-131.95 286,-104.95 286,-104.95 286,-98.95 292,-92.95 298,-92.95"/>
</g>
<!-- q5a&#45;&gt;q5b -->
<g id="edge9" class="edge">
<title>q5a&#45;&gt;q5b</title>
<path fill="none" stroke="#333333" stroke-width="0.9" d="M319.5,-215.01C319.5,-195.32 319.5,-170.02 319.5,-150.25"/>
<polygon fill="#333333" stroke="#333333" stroke-width="0.9" points="321.6,-150.05 319.5,-144.05 317.4,-150.05 321.6,-150.05"/>
<text text-anchor="middle" x="312" y="-177.4" font-family="Liberation Sans" font-size="8.50">new message</text>
</g>
<!-- q5a&#45;&gt;q5b -->
<!-- by_q5a -->
<!-- gsdup -->
<g id="node2" class="node">
<title>by_q5a</title>
<polygon fill="#e8e6e0" stroke="black" stroke-width="1.2" points="97,-374.95 0,-374.95 0,-341.95 97,-341.95 97,-374.95"/>
<text text-anchor="middle" x="48.5" y="-355.65" font-family="Liberation Sans" font-size="11.00">Buyer</text>
</g>
<!-- by_q5a&#45;&gt;q5a -->
<g id="edge1" class="edge">
<title>by_q5a&#45;&gt;q5a</title>
<path fill="none" stroke="#333333" stroke-width="0.9" d="M97.31,-368.24C134.01,-373.37 185,-375.22 225,-356.45 257.41,-341.24 282.76,-308.76 298.84,-283.01"/>
<polygon fill="#333333" stroke="#333333" stroke-width="0.9" points="300.79,-283.84 302.13,-277.63 297.21,-281.65 300.79,-283.84"/>
<text text-anchor="middle" x="191.5" y="-372.65" font-family="Liberation Sans" font-size="8.50">message</text>
</g>
<!-- by_q5a&#45;&gt;q5a -->
<g id="edge6" class="edge">
<title>by_q5a&#45;&gt;q5a</title>
<path fill="none" stroke="#333333" stroke-width="0.9" d="M94.79,-339.63C130.23,-324.89 180.76,-303.88 225,-285.45 247.41,-276.12 272.83,-265.51 291.5,-257.72"/>
<polygon fill="#333333" stroke="#333333" stroke-width="0.9" points="93.97,-337.69 89.23,-341.94 95.58,-341.57 93.97,-337.69"/>
<text text-anchor="middle" x="191.5" y="-313.65" font-family="Liberation Sans" font-size="8.50">live messages</text>
</g>
<!-- fs_q5a -->
<!-- gsdup -->
<g id="node3" class="node">
<title>fs_q5a</title>
<polygon fill="#e8e6e0" stroke="black" stroke-width="1.2" points="97,-299.95 0,-299.95 0,-266.95 97,-266.95 97,-299.95"/>
<text text-anchor="middle" x="48.5" y="-280.65" font-family="Liberation Sans" font-size="11.00">Farmer&#45;Seller</text>
</g>
<!-- fs_q5a&#45;&gt;q5a -->
<g id="edge2" class="edge">
<title>fs_q5a&#45;&gt;q5a</title>
<path fill="none" stroke="#333333" stroke-width="0.9" d="M97.28,-276.88C151.32,-269.45 237.92,-257.54 285.14,-251.04"/>
<polygon fill="#333333" stroke="#333333" stroke-width="0.9" points="285.6,-253.1 291.26,-250.2 285.03,-248.94 285.6,-253.1"/>
<text text-anchor="middle" x="191.5" y="-269.65" font-family="Liberation Sans" font-size="8.50">message</text>
</g>
<!-- fs_q5a&#45;&gt;q5a -->
<g id="edge7" class="edge">
<title>fs_q5a&#45;&gt;q5a</title>
<path fill="none" stroke="#333333" stroke-width="0.9" d="M95,-264.82C114.11,-257.93 136.79,-250.95 158,-247.45 204.33,-239.82 259.2,-241.8 291.3,-244.05"/>
<polygon fill="#333333" stroke="#333333" stroke-width="0.9" points="94.1,-262.91 89.19,-266.95 95.54,-266.85 94.1,-262.91"/>
<text text-anchor="middle" x="191.5" y="-249.65" font-family="Liberation Sans" font-size="8.50">live messages</text>
</g>
<!-- sa_q5a -->
<g id="node6" class="node">
<title>sa_q5a</title>
<polygon fill="#e1e6ed" stroke="black" stroke-width="1.2" points="97,-212.95 0,-212.95 0,-179.95 97,-179.95 97,-212.95"/>
<text text-anchor="middle" x="48.5" y="-193.65" font-family="Liberation Sans" font-size="11.00">Super Admin</text>
</g>
<!-- sa_q5a&#45;&gt;q5a -->
<g id="edge8" class="edge">
<title>sa_q5a&#45;&gt;q5a</title>
<path fill="none" stroke="#333333" stroke-width="0.9" d="M103.73,-203.53C138.52,-208.38 184.59,-215.39 225,-223.45 247.46,-227.93 272.66,-234.2 291.23,-239.07"/>
<polygon fill="#333333" stroke="#333333" stroke-width="0.9" points="103.6,-201.39 97.37,-202.65 103.03,-205.55 103.6,-201.39"/>
<text text-anchor="middle" x="191.5" y="-225.65" font-family="Liberation Sans" font-size="8.50">thread (read only)</text>
</g>
<!-- D8_q5b -->
<g id="node10" class="node">
<title>D8_q5b</title>
<polyline fill="none" stroke="black" points="566,-135.45 536,-135.45 536,-115.45 566,-115.45 "/>
<text text-anchor="start" x="543.5" y="-123.65" font-family="Liberation Sans" font-weight="bold" font-size="11.00">D8</text>
<polyline fill="none" stroke="black" points="566,-115.45 633,-115.45 "/>
<polyline fill="none" stroke="black" points="633,-135.45 566,-135.45 "/>
<text text-anchor="start" x="570" y="-122.65" font-family="Liberation Sans" font-size="11.00">Notifications</text>
</g>
<!-- q5b&#45;&gt;D8_q5b -->
<g id="edge10" class="edge">
<title>q5b&#45;&gt;D8_q5b</title>
<path fill="none" stroke="#333333" stroke-width="0.9" d="M359.32,-119.49C406.1,-120.73 484.68,-122.83 535.16,-124.18"/>
<polygon fill="#333333" stroke="#333333" stroke-width="0.9" points="359.27,-117.38 353.22,-119.32 359.16,-121.58 359.27,-117.38"/>
<text text-anchor="middle" x="439" y="-123.65" font-family="Liberation Sans" font-size="8.50">notifications</text>
</g>
<!-- q5b&#45;&gt;D8_q5b -->
<g id="edge13" class="edge">
<title>q5b&#45;&gt;D8_q5b</title>
<path fill="none" stroke="#333333" stroke-width="0.9" d="M353.21,-111.45C371.08,-107.99 393.65,-104.18 414,-102.45 436.14,-100.57 441.88,-100.33 464,-102.45 487.74,-104.72 513.79,-109.49 535.44,-114.1"/>
<polygon fill="#333333" stroke="#333333" stroke-width="0.9" points="535.12,-116.18 541.43,-115.4 536.01,-112.08 535.12,-116.18"/>
<text text-anchor="middle" x="439" y="-104.65" font-family="Liberation Sans" font-size="8.50">read status</text>
</g>
<!-- by_q5b -->
<!-- gsdup -->
<g id="node8" class="node">
<title>by_q5b</title>
<polygon fill="#e8e6e0" stroke="black" stroke-width="1.2" points="97,-122.95 0,-122.95 0,-89.95 97,-89.95 97,-122.95"/>
<text text-anchor="middle" x="48.5" y="-103.65" font-family="Liberation Sans" font-size="11.00">Buyer</text>
</g>
<!-- by_q5b&#45;&gt;q5b -->
<g id="edge11" class="edge">
<title>by_q5b&#45;&gt;q5b</title>
<path fill="none" stroke="#333333" stroke-width="0.9" d="M97.28,-108.58C149.3,-110.9 231.48,-114.57 279.68,-116.72"/>
<polygon fill="#333333" stroke="#333333" stroke-width="0.9" points="279.87,-118.83 285.96,-117 280.06,-114.63 279.87,-118.83"/>
<text text-anchor="middle" x="191.5" y="-115.65" font-family="Liberation Sans" font-size="8.50">read marks</text>
</g>
<!-- by_q5b&#45;&gt;q5b -->
<g id="edge14" class="edge">
<title>by_q5b&#45;&gt;q5b</title>
<path fill="none" stroke="#333333" stroke-width="0.9" d="M103.3,-90.8C138.13,-82.78 184.41,-76.1 225,-83.45 245.98,-87.25 268.38,-95.48 286,-103"/>
<polygon fill="#333333" stroke="#333333" stroke-width="0.9" points="102.72,-88.78 97.37,-92.21 103.69,-92.87 102.72,-88.78"/>
<text text-anchor="middle" x="191.5" y="-94.65" font-family="Liberation Sans" font-size="8.50">notifications,</text>
<text text-anchor="middle" x="191.5" y="-85.65" font-family="Liberation Sans" font-size="8.50">unread count</text>
</g>
<!-- fs_q5b -->
<!-- gsdup -->
<g id="node9" class="node">
<title>fs_q5b</title>
<polygon fill="#e8e6e0" stroke="black" stroke-width="1.2" points="97,-33.95 0,-33.95 0,-0.95 97,-0.95 97,-33.95"/>
<text text-anchor="middle" x="48.5" y="-14.65" font-family="Liberation Sans" font-size="11.00">Farmer&#45;Seller</text>
</g>
<!-- fs_q5b&#45;&gt;q5b -->
<g id="edge12" class="edge">
<title>fs_q5b&#45;&gt;q5b</title>
<path fill="none" stroke="#333333" stroke-width="0.9" d="M97.3,-25.39C133.31,-32.32 183.42,-44.04 225,-61.45 244.06,-69.43 263.8,-80.92 280.19,-91.49"/>
<polygon fill="#333333" stroke="#333333" stroke-width="0.9" points="279.45,-93.51 285.62,-95.03 281.74,-89.99 279.45,-93.51"/>
<text text-anchor="middle" x="191.5" y="-63.65" font-family="Liberation Sans" font-size="8.50">read marks</text>
</g>
<!-- fs_q5b&#45;&gt;q5b -->
<g id="edge15" class="edge">
<title>fs_q5b&#45;&gt;q5b</title>
<path fill="none" stroke="#333333" stroke-width="0.9" d="M103.26,-4.59C139.27,1.29 186.88,3.65 225,-13.45 261.08,-29.63 288.94,-67.38 304.53,-92.92"/>
<polygon fill="#333333" stroke="#333333" stroke-width="0.9" points="102.69,-2.56 97.13,-5.65 103.4,-6.7 102.69,-2.56"/>
<text text-anchor="middle" x="191.5" y="-24.65" font-family="Liberation Sans" font-size="8.50">notifications,</text>
<text text-anchor="middle" x="191.5" y="-15.65" font-family="Liberation Sans" font-size="8.50">unread count</text>
</g>
</g>
</svg>
