<?xml version="1.0" encoding="UTF-8" standalone="no"?>
<!DOCTYPE svg PUBLIC "-//W3C//DTD SVG 1.1//EN"
 "http://www.w3.org/Graphics/SVG/1.1/DTD/svg11.dtd">
<!-- Generated by graphviz version 2.43.0 (0)
 -->
<!-- Title: G Pages: 1 -->
<svg width="607pt" height="458pt"
 viewBox="0.00 0.00 607.00 457.53" xmlns="http://www.w3.org/2000/svg" xmlns:xlink="http://www.w3.org/1999/xlink">
<g id="graph0" class="graph" transform="scale(1 1) rotate(0) translate(18 439.53)"><line x1="86.00" y1="-367.03" x2="97.00" y2="-378.03" stroke="black" stroke-width="1.2"/><line x1="86.00" y1="-301.03" x2="97.00" y2="-312.03" stroke="black" stroke-width="1.2"/><line x1="86.00" y1="-225.03" x2="97.00" y2="-236.03" stroke="black" stroke-width="1.2"/><line x1="86.00" y1="-152.03" x2="97.00" y2="-163.03" stroke="black" stroke-width="1.2"/><line x1="86.00" y1="-69.03" x2="97.00" y2="-80.03" stroke="black" stroke-width="1.2"/><line x1="86.00" y1="-7.03" x2="97.00" y2="-18.03" stroke="black" stroke-width="1.2"/>
<title>G</title>
<polygon fill="white" stroke="transparent" points="-18,18 -18,-439.53 589,-439.53 589,18 -18,18"/>
<!-- q3a -->
<g id="node1" class="node">
<title>q3a</title>
<path fill="#f4f4f4" stroke="transparent" d="M260.5,-310.03C260.5,-310.03 282.5,-310.03 282.5,-310.03 288.5,-310.03 294.5,-316.03 294.5,-322.03 294.5,-322.03 294.5,-349.03 294.5,-349.03 294.5,-355.03 288.5,-361.03 282.5,-361.03 282.5,-361.03 260.5,-361.03 260.5,-361.03 254.5,-361.03 248.5,-355.03 248.5,-349.03 248.5,-349.03 248.5,-322.03 248.5,-322.03 248.5,-316.03 254.5,-310.03 260.5,-310.03"/>
<text text-anchor="start" x="264.5" y="-348.53" font-family="Liberation Sans" font-size="10.00">3.1</text>
<text text-anchor="start" x="256" y="-329.53" font-family="Liberation Sans" font-size="10.00">Search</text>
<text text-anchor="start" x="254.5" y="-318.53" font-family="Liberation Sans" font-size="10.00">Listings</text>
<polygon fill="black" stroke="black" points="248.5,-342.53 248.5,-342.53 294.5,-342.53 294.5,-342.53 248.5,-342.53"/>
<path fill="none" stroke="black" d="M260.5,-310.03C260.5,-310.03 282.5,-310.03 282.5,-310.03 288.5,-310.03 294.5,-316.03 294.5,-322.03 294.5,-322.03 294.5,-349.03 294.5,-349.03 294.5,-355.03 288.5,-361.03 282.5,-361.03 282.5,-361.03 260.5,-361.03 260.5,-361.03 254.5,-361.03 248.5,-355.03 248.5,-349.03 248.5,-349.03 248.5,-322.03 248.5,-322.03 248.5,-316.03 254.5,-310.03 260.5,-310.03"/>
</g>
<!-- D4_q3a -->
<g id="node3" class="node">
<title>D4_q3a</title>
<polyline fill="none" stroke="black" points="460,-421.53 460,-401.53 "/>
<polyline fill="none" stroke="black" points="493,-421.53 463,-421.53 463,-401.53 493,-401.53 "/>
<text text-anchor="start" x="470.5" y="-409.73" font-family="Liberation Sans" font-weight="bold" font-size="11.00">D4</text>
<polyline fill="none" stroke="black" points="493,-401.53 538,-401.53 "/>
<polyline fill="none" stroke="black" points="538,-421.53 493,-421.53 "/>
<text text-anchor="start" x="497" y="-408.73" font-family="Liberation Sans" font-size="11.00">Listings</text>
</g>
<!-- q3a&#45;&gt;D4_q3a -->
<g id="edge2" class="edge">
<title>q3a&#45;&gt;D4_q3a</title>
<path fill="none" stroke="#333333" stroke-width="0.9" d="M300.02,-353.02C310.65,-359.21 323.09,-365.8 335,-370.53 376.35,-386.98 426.28,-398.38 459.89,-404.91"/>
<polygon fill="#333333" stroke="#333333" stroke-width="0.9" points="300.88,-351.08 294.65,-349.83 298.74,-354.69 300.88,-351.08"/>
<text text-anchor="middle" x="364.5" y="-390.73" font-family="Liberation Sans" font-size="8.50">active listings</text>
</g>
<!-- D3_q3a -->
<g id="node4" class="node">
<title>D3_q3a</title>
<polyline fill="none" stroke="black" points="482,-383.53 452,-383.53 452,-363.53 482,-363.53 "/>
<text text-anchor="start" x="459.5" y="-371.73" font-family="Liberation Sans" font-weight="bold" font-size="11.00">D3</text>
<polyline fill="none" stroke="black" points="482,-363.53 546,-363.53 "/>
<polyline fill="none" stroke="black" points="546,-383.53 482,-383.53 "/>
<text text-anchor="start" x="486" y="-370.73" font-family="Liberation Sans" font-size="11.00">Crop Types</text>
</g>
<!-- q3a&#45;&gt;D3_q3a -->
<g id="edge3" class="edge">
<title>q3a&#45;&gt;D3_q3a</title>
<path fill="none" stroke="#333333" stroke-width="0.9" d="M300.81,-341.75C311.5,-344.01 323.79,-346.51 335,-348.53 374.3,-355.63 419.17,-362.42 451.87,-367.12"/>
<polygon fill="#333333" stroke="#333333" stroke-width="0.9" points="301.02,-339.65 294.72,-340.45 300.15,-343.76 301.02,-339.65"/>
<text text-anchor="middle" x="364.5" y="-359.73" font-family="Liberation Sans" font-size="8.50">crop types</text>
</g>
<!-- D2_q3a -->
<g id="node5" class="node">
<title>D2_q3a</title>
<polyline fill="none" stroke="black" points="463,-345.53 463,-325.53 "/>
<polyline fill="none" stroke="black" points="496,-345.53 466,-345.53 466,-325.53 496,-325.53 "/>
<text text-anchor="start" x="473.5" y="-333.73" font-family="Liberation Sans" font-weight="bold" font-size="11.00">D2</text>
<polyline fill="none" stroke="black" points="496,-325.53 535,-325.53 "/>
<polyline fill="none" stroke="black" points="535,-345.53 496,-345.53 "/>
<text text-anchor="start" x="500" y="-332.73" font-family="Liberation Sans" font-size="11.00">Farms</text>
</g>
<!-- q3a&#45;&gt;D2_q3a -->
<g id="edge4" class="edge">
<title>q3a&#45;&gt;D2_q3a</title>
<path fill="none" stroke="#333333" stroke-width="0.9" d="M300.56,-335.53C341.57,-335.53 417.85,-335.53 462.64,-335.53"/>
<polygon fill="#333333" stroke="#333333" stroke-width="0.9" points="300.53,-333.43 294.53,-335.53 300.53,-337.63 300.53,-333.43"/>
<text text-anchor="middle" x="364.5" y="-337.73" font-family="Liberation Sans" font-size="8.50">farm names</text>
</g>
<!-- q3b -->
<g id="node6" class="node">
<title>q3b</title>
<path fill="#f4f4f4" stroke="transparent" d="M253,-223.03C253,-223.03 290,-223.03 290,-223.03 296,-223.03 302,-229.03 302,-235.03 302,-235.03 302,-262.03 302,-262.03 302,-268.03 296,-274.03 290,-274.03 290,-274.03 253,-274.03 253,-274.03 247,-274.03 241,-268.03 241,-262.03 241,-262.03 241,-235.03 241,-235.03 241,-229.03 247,-223.03 253,-223.03"/>
<text text-anchor="start" x="265" y="-261.53" font-family="Liberation Sans" font-size="10.00">3.2</text>
<text text-anchor="start" x="261" y="-242.53" font-family="Liberation Sans" font-size="10.00">View</text>
<text text-anchor="start" x="247.5" y="-231.53" font-family="Liberation Sans" font-size="10.00">Storefronts</text>
<polygon fill="black" stroke="black" points="241.5,-255.53 241.5,-255.53 302.5,-255.53 302.5,-255.53 241.5,-255.53"/>
<path fill="none" stroke="black" d="M253,-223.03C253,-223.03 290,-223.03 290,-223.03 296,-223.03 302,-229.03 302,-235.03 302,-235.03 302,-262.03 302,-262.03 302,-268.03 296,-274.03 290,-274.03 290,-274.03 253,-274.03 253,-274.03 247,-274.03 241,-268.03 241,-262.03 241,-262.03 241,-235.03 241,-235.03 241,-229.03 247,-223.03 253,-223.03"/>
</g>
<!-- q3a&#45;&gt;q3b -->
<!-- by_q3a -->
<!-- gsdup -->
<g id="node2" class="node">
<title>by_q3a</title>
<polygon fill="#e8e6e0" stroke="black" stroke-width="1.2" points="97,-400.03 0,-400.03 0,-367.03 97,-367.03 97,-400.03"/>
<text text-anchor="middle" x="48.5" y="-380.73" font-family="Liberation Sans" font-size="11.00">Buyer</text>
</g>
<!-- by_q3a&#45;&gt;q3a -->
<g id="edge1" class="edge">
<title>by_q3a&#45;&gt;q3a</title>
<path fill="none" stroke="#333333" stroke-width="0.9" d="M97.15,-388.42C129.26,-390.11 172.13,-389.21 208,-377.53 220.61,-373.43 233.03,-365.99 243.44,-358.49"/>
<polygon fill="#333333" stroke="#333333" stroke-width="0.9" points="244.82,-360.09 248.38,-354.83 242.31,-356.72 244.82,-360.09"/>
<text text-anchor="middle" x="169" y="-399.73" font-family="Liberation Sans" font-size="8.50">keywords, crop type,</text>
<text text-anchor="middle" x="169" y="-390.73" font-family="Liberation Sans" font-size="8.50">sort</text>
</g>
<!-- by_q3a&#45;&gt;q3a -->
<g id="edge5" class="edge">
<title>by_q3a&#45;&gt;q3a</title>
<path fill="none" stroke="#333333" stroke-width="0.9" d="M103.05,-371.9C149.64,-361.78 214.8,-347.63 248.45,-340.32"/>
<polygon fill="#333333" stroke="#333333" stroke-width="0.9" points="102.6,-369.85 97.18,-373.18 103.49,-373.96 102.6,-369.85"/>
<text text-anchor="middle" x="169" y="-366.73" font-family="Liberation Sans" font-size="8.50">matching listings</text>
</g>
<!-- D4_q3b -->
<g id="node8" class="node">
<title>D4_q3b</title>
<polyline fill="none" stroke="black" points="460,-307.53 460,-287.53 "/>
<polyline fill="none" stroke="black" points="493,-307.53 463,-307.53 463,-287.53 493,-287.53 "/>
<text text-anchor="start" x="470.5" y="-295.73" font-family="Liberation Sans" font-weight="bold" font-size="11.00">D4</text>
<polyline fill="none" stroke="black" points="493,-287.53 538,-287.53 "/>
<polyline fill="none" stroke="black" points="538,-307.53 493,-307.53 "/>
<text text-anchor="start" x="497" y="-294.73" font-family="Liberation Sans" font-size="11.00">Listings</text>
</g>
<!-- q3b&#45;&gt;D4_q3b -->
<g id="edge8" class="edge">
<title>q3b&#45;&gt;D4_q3b</title>
<path fill="none" stroke="#333333" stroke-width="0.9" d="M308.04,-256.55C316.85,-258.52 326.26,-260.62 335,-262.53 377.69,-271.9 426.73,-282.39 459.78,-289.43"/>
<polygon fill="#333333" stroke="#333333" stroke-width="0.9" points="308.37,-254.47 302.06,-255.21 307.45,-258.57 308.37,-254.47"/>
<text text-anchor="middle" x="364.5" y="-276.73" font-family="Liberation Sans" font-size="8.50">shop listings</text>
</g>
<!-- D1_q3b -->
<g id="node9" class="node">
<title>D1_q3b</title>
<polyline fill="none" stroke="black" points="470,-260.53 440,-260.53 440,-240.53 470,-240.53 "/>
<text text-anchor="start" x="447.5" y="-248.73" font-family="Liberation Sans" font-weight="bold" font-size="11.00">D1</text>
<polyline fill="none" stroke="black" points="470,-240.53 559,-240.53 "/>
<polyline fill="none" stroke="black" points="559,-260.53 470,-260.53 "/>
<text text-anchor="start" x="474" y="-247.73" font-family="Liberation Sans" font-size="11.00">Users and Roles</text>
</g>
<!-- q3b&#45;&gt;D1_q3b -->
<g id="edge7" class="edge">
<title>q3b&#45;&gt;D1_q3b</title>
<path fill="none" stroke="#333333" stroke-width="0.9" d="M308.79,-248.85C343.95,-249.17 397.88,-249.65 439.18,-250.01"/>
<polygon fill="#333333" stroke="#333333" stroke-width="0.9" points="308.46,-246.75 302.44,-248.8 308.43,-250.95 308.46,-246.75"/>
<text text-anchor="middle" x="364.5" y="-251.73" font-family="Liberation Sans" font-size="8.50">shop profiles</text>
</g>
<!-- q3b&#45;&gt;D1_q3b -->
<g id="edge12" class="edge">
<title>q3b&#45;&gt;D1_q3b</title>
<path fill="none" stroke="#333333" stroke-width="0.9" d="M302.19,-241.06C312.5,-238.81 324.2,-236.64 335,-235.53 369.59,-231.97 408.34,-235.24 439.38,-239.63"/>
<polygon fill="#333333" stroke="#333333" stroke-width="0.9" points="439.25,-241.73 445.49,-240.52 439.85,-237.57 439.25,-241.73"/>
<text text-anchor="middle" x="364.5" y="-237.73" font-family="Liberation Sans" font-size="8.50">shop profile</text>
</g>
<!-- D9_q3b -->
<g id="node10" class="node">
<title>D9_q3b</title>
<polyline fill="none" stroke="black" points="489,-212.53 459,-212.53 459,-192.53 489,-192.53 "/>
<text text-anchor="start" x="466.5" y="-200.73" font-family="Liberation Sans" font-weight="bold" font-size="11.00">D9</text>
<polyline fill="none" stroke="black" points="489,-192.53 539,-192.53 "/>
<polyline fill="none" stroke="black" points="539,-212.53 489,-212.53 "/>
<text text-anchor="start" x="493" y="-199.73" font-family="Liberation Sans" font-size="11.00">Reviews</text>
</g>
<!-- q3b&#45;&gt;D9_q3b -->
<g id="edge9" class="edge">
<title>q3b&#45;&gt;D9_q3b</title>
<path fill="none" stroke="#333333" stroke-width="0.9" d="M307.88,-230.4C316.56,-226.59 325.96,-222.99 335,-220.53 376.35,-209.29 425.41,-205.04 458.83,-203.45"/>
<polygon fill="#333333" stroke="#333333" stroke-width="0.9" points="306.61,-228.67 302,-233.05 308.33,-232.49 306.61,-228.67"/>
<text text-anchor="middle" x="364.5" y="-222.73" font-family="Liberation Sans" font-size="8.50">shop reviews</text>
</g>
<!-- q3c -->
<g id="node12" class="node">
<title>q3c</title>
<path fill="#f4f4f4" stroke="transparent" d="M253.5,-136.03C253.5,-136.03 289.5,-136.03 289.5,-136.03 295.5,-136.03 301.5,-142.03 301.5,-148.03 301.5,-148.03 301.5,-175.03 301.5,-175.03 301.5,-181.03 295.5,-187.03 289.5,-187.03 289.5,-187.03 253.5,-187.03 253.5,-187.03 247.5,-187.03 241.5,-181.03 241.5,-175.03 241.5,-175.03 241.5,-148.03 241.5,-148.03 241.5,-142.03 247.5,-136.03 253.5,-136.03"/>
<text text-anchor="start" x="264.5" y="-174.53" font-family="Liberation Sans" font-size="10.00">3.3</text>
<text text-anchor="start" x="247.5" y="-155.53" font-family="Liberation Sans" font-size="10.00">View Farm</text>
<text text-anchor="start" x="257.5" y="-144.53" font-family="Liberation Sans" font-size="10.00">Pages</text>
<polygon fill="black" stroke="black" points="241.5,-168.53 241.5,-168.53 301.5,-168.53 301.5,-168.53 241.5,-168.53"/>
<path fill="none" stroke="black" d="M253.5,-136.03C253.5,-136.03 289.5,-136.03 289.5,-136.03 295.5,-136.03 301.5,-142.03 301.5,-148.03 301.5,-148.03 301.5,-175.03 301.5,-175.03 301.5,-181.03 295.5,-187.03 289.5,-187.03 289.5,-187.03 253.5,-187.03 253.5,-187.03 247.5,-187.03 241.5,-181.03 241.5,-175.03 241.5,-175.03 241.5,-148.03 241.5,-148.03 241.5,-142.03 247.5,-136.03 253.5,-136.03"/>
</g>
<!-- q3b&#45;&gt;q3c -->
<!-- by_q3b -->
<!-- gsdup -->
<g id="node7" class="node">
<title>by_q3b</title>
<polygon fill="#e8e6e0" stroke="black" stroke-width="1.2" points="97,-334.03 0,-334.03 0,-301.03 97,-301.03 97,-334.03"/>
<text text-anchor="middle" x="48.5" y="-314.73" font-family="Liberation Sans" font-size="11.00">Buyer</text>
</g>
<!-- by_q3b&#45;&gt;q3b -->
<g id="edge6" class="edge">
<title>by_q3b&#45;&gt;q3b</title>
<path fill="none" stroke="#333333" stroke-width="0.9" d="M97.33,-325.53C129.9,-328.82 173.24,-328.85 208,-313.53 224.59,-306.22 238.95,-292.23 249.72,-279.09"/>
<polygon fill="#333333" stroke="#333333" stroke-width="0.9" points="251.43,-280.31 253.52,-274.31 248.14,-277.7 251.43,-280.31"/>
<text text-anchor="middle" x="169" y="-328.73" font-family="Liberation Sans" font-size="8.50">shop selection</text>
</g>
<!-- by_q3b&#45;&gt;q3b -->
<g id="edge10" class="edge">
<title>by_q3b&#45;&gt;q3b</title>
<path fill="none" stroke="#333333" stroke-width="0.9" d="M102.91,-300.86C146.22,-287.34 205.65,-268.78 240.86,-257.79"/>
<polygon fill="#333333" stroke="#333333" stroke-width="0.9" points="102.28,-298.85 97.18,-302.65 103.53,-302.86 102.28,-298.85"/>
<text text-anchor="middle" x="169" y="-292.73" font-family="Liberation Sans" font-size="8.50">storefront, reviews</text>
</g>
<!-- fs_q3b -->
<!-- gsdup -->
<g id="node11" class="node">
<title>fs_q3b</title>
<polygon fill="#e8e6e0" stroke="black" stroke-width="1.2" points="97,-258.03 0,-258.03 0,-225.03 97,-225.03 97,-258.03"/>
<text text-anchor="middle" x="48.5" y="-238.73" font-family="Liberation Sans" font-size="11.00">Farmer&#45;Seller</text>
</g>
<!-- fs_q3b&#45;&gt;q3b -->
<g id="edge11" class="edge">
<title>fs_q3b&#45;&gt;q3b</title>
<path fill="none" stroke="#333333" stroke-width="0.9" d="M97.18,-243.04C138.44,-244.35 197.21,-246.21 234.6,-247.4"/>
<polygon fill="#333333" stroke="#333333" stroke-width="0.9" points="234.8,-249.5 240.86,-247.59 234.93,-245.31 234.8,-249.5"/>
<text text-anchor="middle" x="169" y="-256.73" font-family="Liberation Sans" font-size="8.50">shop profile</text>
<text text-anchor="middle" x="169" y="-247.73" font-family="Liberation Sans" font-size="8.50">updates</text>
</g>
<!-- fs_q3b&#45;&gt;q3b -->
<g id="edge13" class="edge">
<title>fs_q3b&#45;&gt;q3b</title>
<path fill="none" stroke="#333333" stroke-width="0.9" d="M103.38,-225.99C134.21,-219.27 173.5,-214.4 208,-221.53 219.11,-223.83 230.68,-228.2 240.8,-232.77"/>
<polygon fill="#333333" stroke="#333333" stroke-width="0.9" points="102.72,-223.98 97.33,-227.35 103.65,-228.08 102.72,-223.98"/>
<text text-anchor="middle" x="169" y="-232.73" font-family="Liberation Sans" font-size="8.50">own shop reviews,</text>
<text text-anchor="middle" x="169" y="-223.73" font-family="Liberation Sans" font-size="8.50">rating</text>
</g>
<!-- D2_q3c -->
<g id="node14" class="node">
<title>D2_q3c</title>
<polyline fill="none" stroke="black" points="463,-171.53 463,-151.53 "/>
<polyline fill="none" stroke="black" points="496,-171.53 466,-171.53 466,-151.53 496,-151.53 "/>
<text text-anchor="start" x="473.5" y="-159.73" font-family="Liberation Sans" font-weight="bold" font-size="11.00">D2</text>
<polyline fill="none" stroke="black" points="496,-151.53 535,-151.53 "/>
<polyline fill="none" stroke="black" points="535,-171.53 496,-171.53 "/>
<text text-anchor="start" x="500" y="-158.73" font-family="Liberation Sans" font-size="11.00">Farms</text>
</g>
<!-- q3c&#45;&gt;D2_q3c -->
<g id="edge16" class="edge">
<title>q3c&#45;&gt;D2_q3c</title>
<path fill="none" stroke="#333333" stroke-width="0.9" d="M307.54,-161.53C349.81,-161.53 420.45,-161.53 462.8,-161.53"/>
<polygon fill="#333333" stroke="#333333" stroke-width="0.9" points="307.52,-159.43 301.52,-161.53 307.52,-163.63 307.52,-159.43"/>
<text text-anchor="middle" x="364.5" y="-172.73" font-family="Liberation Sans" font-size="8.50">profile, photos,</text>
<text text-anchor="middle" x="364.5" y="-163.73" font-family="Liberation Sans" font-size="8.50">contact number</text>
</g>
<!-- D12_q3c -->
<g id="node16" class="node">
<title>D12_q3c</title>
<polyline fill="none" stroke="black" points="457,-130.53 427,-130.53 427,-110.53 457,-110.53 "/>
<text text-anchor="start" x="431.5" y="-118.73" font-family="Liberation Sans" font-weight="bold" font-size="11.00">D12</text>
<polyline fill="none" stroke="black" points="457,-110.53 571,-110.53 "/>
<polyline fill="none" stroke="black" points="571,-130.53 457,-130.53 "/>
<text text-anchor="start" x="461" y="-117.73" font-family="Liberation Sans" font-size="11.00">Farm Announcements</text>
</g>
<!-- q3c&#45;&gt;D12_q3c -->
<g id="edge17" class="edge">
<title>q3c&#45;&gt;D12_q3c</title>
<path fill="none" stroke="#333333" stroke-width="0.9" d="M307.39,-147.71C316.28,-144.62 325.9,-141.64 335,-139.53 364.7,-132.67 398.05,-128.22 426.81,-125.37"/>
<polygon fill="#333333" stroke="#333333" stroke-width="0.9" points="306.62,-145.76 301.67,-149.75 308.03,-149.72 306.62,-145.76"/>
<text text-anchor="middle" x="364.5" y="-150.73" font-family="Liberation Sans" font-size="8.50">public</text>
<text text-anchor="middle" x="364.5" y="-141.73" font-family="Liberation Sans" font-size="8.50">announcements</text>
</g>
<!-- q3d -->
<g id="node17" class="node">
<title>q3d</title>
<path fill="#f4f4f4" stroke="transparent" d="M257,-49.03C257,-49.03 286,-49.03 286,-49.03 292,-49.03 298,-55.03 298,-61.03 298,-61.03 298,-88.03 298,-88.03 298,-94.03 292,-100.03 286,-100.03 286,-100.03 257,-100.03 257,-100.03 251,-100.03 245,-94.03 245,-88.03 245,-88.03 245,-61.03 245,-61.03 245,-55.03 251,-49.03 257,-49.03"/>
<text text-anchor="start" x="265" y="-87.53" font-family="Liberation Sans" font-size="10.00">3.4</text>
<text text-anchor="start" x="254.5" y="-68.53" font-family="Liberation Sans" font-size="10.00">Manage</text>
<text text-anchor="start" x="251.5" y="-57.53" font-family="Liberation Sans" font-size="10.00">Favorites</text>
<polygon fill="black" stroke="black" points="245.5,-81.53 245.5,-81.53 298.5,-81.53 298.5,-81.53 245.5,-81.53"/>
<path fill="none" stroke="black" d="M257,-49.03C257,-49.03 286,-49.03 286,-49.03 292,-49.03 298,-55.03 298,-61.03 298,-61.03 298,-88.03 298,-88.03 298,-94.03 292,-100.03 286,-100.03 286,-100.03 257,-100.03 257,-100.03 251,-100.03 245,-94.03 245,-88.03 245,-88.03 245,-61.03 245,-61.03 245,-55.03 251,-49.03 257,-49.03"/>
</g>
<!-- q3c&#45;&gt;q3d -->
<!-- by_q3c -->
<!-- gsdup -->
<g id="node13" class="node">
<title>by_q3c</title>
<polygon fill="#e8e6e0" stroke="black" stroke-width="1.2" points="97,-185.03 0,-185.03 0,-152.03 97,-152.03 97,-185.03"/>
<text text-anchor="middle" x="48.5" y="-165.73" font-family="Liberation Sans" font-size="11.00">Buyer</text>
</g>
<!-- by_q3c&#45;&gt;q3c -->
<g id="edge14" class="edge">
<title>by_q3c&#45;&gt;q3c</title>
<path fill="none" stroke="#333333" stroke-width="0.9" d="M97.04,-169.34C128.54,-169.6 170.76,-169.43 208,-167.53 216.85,-167.08 226.37,-166.31 235.26,-165.47"/>
<polygon fill="#333333" stroke="#333333" stroke-width="0.9" points="235.52,-167.56 241.29,-164.88 235.11,-163.38 235.52,-167.56"/>
<text text-anchor="middle" x="169" y="-170.73" font-family="Liberation Sans" font-size="8.50">farm selection</text>
</g>
<!-- by_q3c&#45;&gt;q3c -->
<g id="edge18" class="edge">
<title>by_q3c&#45;&gt;q3c</title>
<path fill="none" stroke="#333333" stroke-width="0.9" d="M102.95,-151.03C111.9,-148.75 121.14,-146.77 130,-145.53 164.33,-140.72 173.61,-141.2 208,-145.53 219,-146.92 230.84,-149.63 241.23,-152.42"/>
<polygon fill="#333333" stroke="#333333" stroke-width="0.9" points="102.39,-149 97.13,-152.57 103.47,-153.06 102.39,-149"/>
<text text-anchor="middle" x="169" y="-156.73" font-family="Liberation Sans" font-size="8.50">farm page without</text>
<text text-anchor="middle" x="169" y="-147.73" font-family="Liberation Sans" font-size="8.50">contact number</text>
</g>
<!-- fs_q3c -->
<!-- gsdup -->
<g id="node15" class="node">
<title>fs_q3c</title>
<polygon fill="#e8e6e0" stroke="black" stroke-width="1.2" points="97,-102.03 0,-102.03 0,-69.03 97,-69.03 97,-102.03"/>
<text text-anchor="middle" x="48.5" y="-82.73" font-family="Liberation Sans" font-size="11.00">Farmer&#45;Seller</text>
</g>
<!-- fs_q3c&#45;&gt;q3c -->
<g id="edge15" class="edge">
<title>fs_q3c&#45;&gt;q3c</title>
<path fill="none" stroke="#333333" stroke-width="0.9" d="M97.2,-95.57C129.13,-102.99 171.79,-114.27 208,-128.53 217.26,-132.18 226.94,-136.84 235.83,-141.49"/>
<polygon fill="#333333" stroke="#333333" stroke-width="0.9" points="234.97,-143.41 241.25,-144.38 236.94,-139.7 234.97,-143.41"/>
<text text-anchor="middle" x="169" y="-130.73" font-family="Liberation Sans" font-size="8.50">farm selection</text>
</g>
<!-- fs_q3c&#45;&gt;q3c -->
<g id="edge19" class="edge">
<title>fs_q3c&#45;&gt;q3c</title>
<path fill="none" stroke="#333333" stroke-width="0.9" d="M103.29,-72.22C135.27,-67.13 175.76,-65.81 208,-81.53 230.97,-92.74 247.97,-116.91 258.39,-135.77"/>
<polygon fill="#333333" stroke="#333333" stroke-width="0.9" points="102.58,-70.21 97.01,-73.28 103.28,-74.35 102.58,-70.21"/>
<text text-anchor="middle" x="169" y="-92.73" font-family="Liberation Sans" font-size="8.50">farm page, contact</text>
<text text-anchor="middle" x="169" y="-83.73" font-family="Liberation Sans" font-size="8.50">number if own farm</text>
</g>
<!-- D10_q3d -->
<g id="node19" class="node">
<title>D10_q3d</title>
<polyline fill="none" stroke="black" points="488,-79.53 458,-79.53 458,-59.53 488,-59.53 "/>
<text text-anchor="start" x="462.5" y="-67.73" font-family="Liberation Sans" font-weight="bold" font-size="11.00">D10</text>
<polyline fill="none" stroke="black" points="488,-59.53 541,-59.53 "/>
<polyline fill="none" stroke="black" points="541,-79.53 488,-79.53 "/>
<text text-anchor="start" x="492" y="-66.73" font-family="Liberation Sans" font-size="11.00">Favorites</text>
</g>
<!-- q3d&#45;&gt;D10_q3d -->
<g id="edge21" class="edge">
<title>q3d&#45;&gt;D10_q3d</title>
<path fill="none" stroke="#333333" stroke-width="0.9" d="M298.37,-73.96C335.57,-73.13 404.79,-71.6 451.13,-70.57"/>
<polygon fill="#333333" stroke="#333333" stroke-width="0.9" points="451.28,-72.67 457.23,-70.44 451.18,-68.47 451.28,-72.67"/>
<text text-anchor="middle" x="364.5" y="-75.73" font-family="Liberation Sans" font-size="8.50">favorites</text>
</g>
<!-- q3d&#45;&gt;D10_q3d -->
<g id="edge22" class="edge">
<title>q3d&#45;&gt;D10_q3d</title>
<path fill="none" stroke="#333333" stroke-width="0.9" d="M304.06,-65.43C313.88,-63.01 324.81,-60.74 335,-59.53 376.53,-54.62 424.31,-58.69 457.36,-63.02"/>
<polygon fill="#333333" stroke="#333333" stroke-width="0.9" points="303.4,-63.43 298.1,-66.95 304.43,-67.5 303.4,-63.43"/>
<text text-anchor="middle" x="364.5" y="-61.73" font-family="Liberation Sans" font-size="8.50">saved favorites</text>
</g>
<!-- by_q3d -->
<!-- gsdup -->
<g id="node18" class="node">
<title>by_q3d</title>
<polygon fill="#e8e6e0" stroke="black" stroke-width="1.2" points="97,-40.03 0,-40.03 0,-7.03 97,-7.03 97,-40.03"/>
<text text-anchor="middle" x="48.5" y="-20.73" font-family="Liberation Sans" font-size="11.00">Buyer</text>
</g>
<!-- by_q3d&#45;&gt;q3d -->
<g id="edge20" class="edge">
<title>by_q3d&#45;&gt;q3d</title>
<path fill="none" stroke="#333333" stroke-width="0.9" d="M97.12,-21.27C129.21,-21.15 172.07,-23.76 208,-35.53 218.97,-39.13 229.98,-45.04 239.63,-51.18"/>
<polygon fill="#333333" stroke="#333333" stroke-width="0.9" points="238.68,-53.07 244.84,-54.61 240.98,-49.56 238.68,-53.07"/>
<text text-anchor="middle" x="169" y="-46.73" font-family="Liberation Sans" font-size="8.50">listing and shop</text>
<text text-anchor="middle" x="169" y="-37.73" font-family="Liberation Sans" font-size="8.50">favorites</text>
</g>
<!-- by_q3d&#45;&gt;q3d -->
<g id="edge23" class="edge">
<title>by_q3d&#45;&gt;q3d</title>
<path fill="none" stroke="#333333" stroke-width="0.9" d="M103.34,-6.37C134.99,0.74 175.12,4.47 208,-9.53 226.87,-17.57 242.79,-34.4 253.84,-48.92"/>
<polygon fill="#333333" stroke="#333333" stroke-width="0.9" points="102.48,-4.41 97.13,-7.83 103.45,-8.5 102.48,-4.41"/>
<text text-anchor="middle" x="169" y="-11.73" font-family="Liberation Sans" font-size="8.50">favorites list</text>
</g>
</g>
</svg>
