<?xml version="1.0" encoding="UTF-8" standalone="no"?>
<!DOCTYPE svg PUBLIC "-//W3C//DTD SVG 1.1//EN"
 "http://www.w3.org/Graphics/SVG/1.1/DTD/svg11.dtd">
<!-- Generated by graphviz version 2.43.0 (0)
 -->
<!-- Title: G Pages: 1 -->
<svg width="750pt" height="880pt"
 viewBox="0.00 0.00 750.00 879.68" xmlns="http://www.w3.org/2000/svg" xmlns:xlink="http://www.w3.org/1999/xlink">
<g id="graph0" class="graph" transform="scale(1 1) rotate(0) translate(18 861.68)"><line x1="86.00" y1="-810.68" x2="97.00" y2="-821.68" stroke="black" stroke-width="1.2"/><line x1="86.00" y1="-741.68" x2="97.00" y2="-752.68" stroke="black" stroke-width="1.2"/><line x1="86.00" y1="-672.68" x2="97.00" y2="-683.68" stroke="black" stroke-width="1.2"/><line x1="86.00" y1="-603.68" x2="97.00" y2="-614.68" stroke="black" stroke-width="1.2"/><line x1="86.00" y1="-534.68" x2="97.00" y2="-545.68" stroke="black" stroke-width="1.2"/><line x1="86.00" y1="-465.68" x2="97.00" y2="-476.68" stroke="black" stroke-width="1.2"/><line x1="86.00" y1="-396.68" x2="97.00" y2="-407.68" stroke="black" stroke-width="1.2"/><line x1="86.00" y1="-258.68" x2="97.00" y2="-269.68" stroke="black" stroke-width="1.2"/><line x1="86.00" y1="-188.68" x2="97.00" y2="-199.68" stroke="black" stroke-width="1.2"/><line x1="86.00" y1="-98.68" x2="97.00" y2="-109.68" stroke="black" stroke-width="1.2"/>
<title>G</title>
<polygon fill="white" stroke="transparent" points="-18,18 -18,-861.68 732,-861.68 732,18 -18,18"/>
<!-- q6a -->
<g id="node1" class="node">
<title>q6a</title>
<path fill="#f4f4f4" stroke="transparent" d="M331,-654.18C331,-654.18 356,-654.18 356,-654.18 362,-654.18 368,-660.18 368,-666.18 368,-666.18 368,-704.18 368,-704.18 368,-710.18 362,-716.18 356,-716.18 356,-716.18 331,-716.18 331,-716.18 325,-716.18 319,-710.18 319,-704.18 319,-704.18 319,-666.18 319,-666.18 319,-660.18 325,-654.18 331,-654.18"/>
<text text-anchor="start" x="337" y="-704.18" font-family="Liberation Sans" font-size="10.00">6.1</text>
<text text-anchor="start" x="325.5" y="-685.18" font-family="Liberation Sans" font-size="10.00">Maintain</text>
<text text-anchor="start" x="332.5" y="-674.18" font-family="Liberation Sans" font-size="10.00">Farm</text>
<text text-anchor="start" x="330" y="-663.18" font-family="Liberation Sans" font-size="10.00">Profile</text>
<polygon fill="black" stroke="black" points="319.5,-698.18 319.5,-698.18 368.5,-698.18 368.5,-698.18 319.5,-698.18"/>
<path fill="none" stroke="black" d="M331,-654.18C331,-654.18 356,-654.18 356,-654.18 362,-654.18 368,-660.18 368,-666.18 368,-666.18 368,-704.18 368,-704.18 368,-710.18 362,-716.18 356,-716.18 356,-716.18 331,-716.18 331,-716.18 325,-716.18 319,-710.18 319,-704.18 319,-704.18 319,-666.18 319,-666.18 319,-660.18 325,-654.18 331,-654.18"/>
</g>
<!-- D2_q6a -->
<g id="node4" class="node">
<title>D2_q6a</title>
<polyline fill="none" stroke="black" points="638,-695.18 608,-695.18 608,-675.18 638,-675.18 "/>
<text text-anchor="start" x="615.5" y="-683.38" font-family="Liberation Sans" font-weight="bold" font-size="11.00">D2</text>
<polyline fill="none" stroke="black" points="638,-675.18 677,-675.18 "/>
<polyline fill="none" stroke="black" points="677,-695.18 638,-695.18 "/>
<text text-anchor="start" x="642" y="-682.38" font-family="Liberation Sans" font-size="11.00">Farms</text>
</g>
<!-- q6a&#45;&gt;D2_q6a -->
<g id="edge3" class="edge">
<title>q6a&#45;&gt;D2_q6a</title>
<path fill="none" stroke="#333333" stroke-width="0.9" d="M368.01,-685.18C418.6,-685.18 538.24,-685.18 601,-685.18"/>
<polygon fill="#333333" stroke="#333333" stroke-width="0.9" points="601.26,-687.28 607.26,-685.18 601.26,-683.08 601.26,-687.28"/>
<text text-anchor="middle" x="471.5" y="-687.38" font-family="Liberation Sans" font-size="8.50">profile, photos</text>
</g>
<!-- q6b -->
<g id="node5" class="node">
<title>q6b</title>
<path fill="#f4f4f4" stroke="transparent" d="M326.5,-520.18C326.5,-520.18 360.5,-520.18 360.5,-520.18 366.5,-520.18 372.5,-526.18 372.5,-532.18 372.5,-532.18 372.5,-570.18 372.5,-570.18 372.5,-576.18 366.5,-582.18 360.5,-582.18 360.5,-582.18 326.5,-582.18 326.5,-582.18 320.5,-582.18 314.5,-576.18 314.5,-570.18 314.5,-570.18 314.5,-532.18 314.5,-532.18 314.5,-526.18 320.5,-520.18 326.5,-520.18"/>
<text text-anchor="start" x="336.5" y="-570.18" font-family="Liberation Sans" font-size="10.00">6.2</text>
<text text-anchor="start" x="327" y="-551.18" font-family="Liberation Sans" font-size="10.00">Publish</text>
<text text-anchor="start" x="320.5" y="-540.18" font-family="Liberation Sans" font-size="10.00">Crop&#45;Care</text>
<text text-anchor="start" x="326.5" y="-529.18" font-family="Liberation Sans" font-size="10.00">Articles</text>
<polygon fill="black" stroke="black" points="314.5,-564.18 314.5,-564.18 372.5,-564.18 372.5,-564.18 314.5,-564.18"/>
<path fill="none" stroke="black" d="M326.5,-520.18C326.5,-520.18 360.5,-520.18 360.5,-520.18 366.5,-520.18 372.5,-526.18 372.5,-532.18 372.5,-532.18 372.5,-570.18 372.5,-570.18 372.5,-576.18 366.5,-582.18 360.5,-582.18 360.5,-582.18 326.5,-582.18 326.5,-582.18 320.5,-582.18 314.5,-576.18 314.5,-570.18 314.5,-570.18 314.5,-532.18 314.5,-532.18 314.5,-526.18 320.5,-520.18 326.5,-520.18"/>
</g>
<!-- q6a&#45;&gt;q6b -->
<!-- ce_q6a -->
<!-- gsdup -->
<g id="node2" class="node">
<title>ce_q6a</title>
<polygon fill="#e1e6ed" stroke="black" stroke-width="1.2" points="97,-843.68 0,-843.68 0,-810.68 97,-810.68 97,-843.68"/>
<text text-anchor="middle" x="48.5" y="-824.38" font-family="Liberation Sans" font-size="11.00">Content Editor</text>
</g>
<!-- ce_q6a&#45;&gt;q6a -->
<g id="edge1" class="edge">
<title>ce_q6a&#45;&gt;q6a</title>
<path fill="none" stroke="#333333" stroke-width="0.9" d="M97.41,-812.26C139.59,-798.28 202.05,-775.47 253,-748.18 274.4,-736.71 296.74,-721 313.74,-708.13"/>
<polygon fill="#333333" stroke="#333333" stroke-width="0.9" points="315.35,-709.55 318.84,-704.24 312.8,-706.21 315.35,-709.55"/>
<text text-anchor="middle" x="205.5" y="-800.38" font-family="Liberation Sans" font-size="8.50">profile, pickup point,</text>
<text text-anchor="middle" x="205.5" y="-791.38" font-family="Liberation Sans" font-size="8.50">cover and photos</text>
</g>
<!-- sa_q6a -->
<!-- gsdup -->
<g id="node3" class="node">
<title>sa_q6a</title>
<polygon fill="#e1e6ed" stroke="black" stroke-width="1.2" points="97,-774.68 0,-774.68 0,-741.68 97,-741.68 97,-774.68"/>
<text text-anchor="middle" x="48.5" y="-755.38" font-family="Liberation Sans" font-size="11.00">Super Admin</text>
</g>
<!-- sa_q6a&#45;&gt;q6a -->
<g id="edge2" class="edge">
<title>sa_q6a&#45;&gt;q6a</title>
<path fill="none" stroke="#333333" stroke-width="0.9" d="M97.23,-746.29C158.31,-731.07 262.28,-705.17 312.96,-692.54"/>
<polygon fill="#333333" stroke="#333333" stroke-width="0.9" points="313.56,-694.55 318.87,-691.06 312.54,-690.48 313.56,-694.55"/>
<text text-anchor="middle" x="205.5" y="-732.38" font-family="Liberation Sans" font-size="8.50">any farm profile</text>
</g>
<!-- D11_q6b -->
<g id="node8" class="node">
<title>D11_q6b</title>
<polyline fill="none" stroke="black" points="608,-572.18 578,-572.18 578,-552.18 608,-552.18 "/>
<text text-anchor="start" x="583" y="-560.38" font-family="Liberation Sans" font-weight="bold" font-size="11.00">D11</text>
<polyline fill="none" stroke="black" points="608,-552.18 706,-552.18 "/>
<polyline fill="none" stroke="black" points="706,-572.18 608,-572.18 "/>
<text text-anchor="start" x="612" y="-559.38" font-family="Liberation Sans" font-size="11.00">Crop&#45;Care Articles</text>
</g>
<!-- q6b&#45;&gt;D11_q6b -->
<g id="edge6" class="edge">
<title>q6b&#45;&gt;D11_q6b</title>
<path fill="none" stroke="#333333" stroke-width="0.9" d="M372.66,-552.22C418.03,-553.91 508.62,-557.27 571.94,-559.62"/>
<polygon fill="#333333" stroke="#333333" stroke-width="0.9" points="571.9,-561.72 577.98,-559.84 572.06,-557.52 571.9,-561.72"/>
<text text-anchor="middle" x="471.5" y="-558.38" font-family="Liberation Sans" font-size="8.50">articles, status</text>
</g>
<!-- q6b&#45;&gt;D11_q6b -->
<g id="edge7" class="edge">
<title>q6b&#45;&gt;D11_q6b</title>
<path fill="none" stroke="#333333" stroke-width="0.9" d="M378.56,-545.05C395.21,-542.36 415.59,-539.51 434,-538.18 467.25,-535.78 475.8,-535.18 509,-538.18 538.58,-540.84 571.44,-546.81 596.97,-552.12"/>
<polygon fill="#333333" stroke="#333333" stroke-width="0.9" points="378.18,-542.99 372.6,-546.03 378.86,-547.13 378.18,-542.99"/>
<text text-anchor="middle" x="471.5" y="-540.38" font-family="Liberation Sans" font-size="8.50">published articles</text>
</g>
<!-- q6c -->
<g id="node10" class="node">
<title>q6c</title>
<path fill="#f4f4f4" stroke="transparent" d="M326,-386.18C326,-386.18 361,-386.18 361,-386.18 367,-386.18 373,-392.18 373,-398.18 373,-398.18 373,-436.18 373,-436.18 373,-442.18 367,-448.18 361,-448.18 361,-448.18 326,-448.18 326,-448.18 320,-448.18 314,-442.18 314,-436.18 314,-436.18 314,-398.18 314,-398.18 314,-392.18 320,-386.18 326,-386.18"/>
<text text-anchor="start" x="337" y="-436.18" font-family="Liberation Sans" font-size="10.00">6.3</text>
<text text-anchor="start" x="321" y="-417.18" font-family="Liberation Sans" font-size="10.00">Post Farm</text>
<text text-anchor="start" x="320.5" y="-406.18" font-family="Liberation Sans" font-size="10.00">Announce&#45;</text>
<text text-anchor="start" x="330" y="-395.18" font-family="Liberation Sans" font-size="10.00">ments</text>
<polygon fill="black" stroke="black" points="314.5,-430.18 314.5,-430.18 373.5,-430.18 373.5,-430.18 314.5,-430.18"/>
<path fill="none" stroke="black" d="M326,-386.18C326,-386.18 361,-386.18 361,-386.18 367,-386.18 373,-392.18 373,-398.18 373,-398.18 373,-436.18 373,-436.18 373,-442.18 367,-448.18 361,-448.18 361,-448.18 326,-448.18 326,-448.18 320,-448.18 314,-442.18 314,-436.18 314,-436.18 314,-398.18 314,-398.18 314,-392.18 320,-386.18 326,-386.18"/>
</g>
<!-- q6b&#45;&gt;q6c -->
<!-- ce_q6b -->
<!-- gsdup -->
<g id="node6" class="node">
<title>ce_q6b</title>
<polygon fill="#e1e6ed" stroke="black" stroke-width="1.2" points="97,-705.68 0,-705.68 0,-672.68 97,-672.68 97,-705.68"/>
<text text-anchor="middle" x="48.5" y="-686.38" font-family="Liberation Sans" font-size="11.00">Content Editor</text>
</g>
<!-- ce_q6b&#45;&gt;q6b -->
<g id="edge4" class="edge">
<title>ce_q6b&#45;&gt;q6b</title>
<path fill="none" stroke="#333333" stroke-width="0.9" d="M97.22,-676.64C139.55,-664.52 202.35,-644.05 253,-617.18 272.78,-606.68 293.01,-592.15 309.23,-579.39"/>
<polygon fill="#333333" stroke="#333333" stroke-width="0.9" points="310.74,-580.87 314.12,-575.49 308.12,-577.58 310.74,-580.87"/>
<text text-anchor="middle" x="205.5" y="-658.38" font-family="Liberation Sans" font-size="8.50">articles, crop tags</text>
</g>
<!-- sa_q6b -->
<!-- gsdup -->
<g id="node7" class="node">
<title>sa_q6b</title>
<polygon fill="#e1e6ed" stroke="black" stroke-width="1.2" points="97,-636.68 0,-636.68 0,-603.68 97,-603.68 97,-636.68"/>
<text text-anchor="middle" x="48.5" y="-617.38" font-family="Liberation Sans" font-size="11.00">Super Admin</text>
</g>
<!-- sa_q6b&#45;&gt;q6b -->
<g id="edge5" class="edge">
<title>sa_q6b&#45;&gt;q6b</title>
<path fill="none" stroke="#333333" stroke-width="0.9" d="M97.06,-611.61C138.48,-603.85 200.02,-591.61 253,-578.18 271.5,-573.49 291.88,-567.41 308.51,-562.21"/>
<polygon fill="#333333" stroke="#333333" stroke-width="0.9" points="309.37,-564.14 314.46,-560.34 308.11,-560.14 309.37,-564.14"/>
<text text-anchor="middle" x="205.5" y="-601.38" font-family="Liberation Sans" font-size="8.50">unpublish</text>
</g>
<!-- fs_q6b -->
<!-- gsdup -->
<g id="node9" class="node">
<title>fs_q6b</title>
<polygon fill="#e8e6e0" stroke="black" stroke-width="1.2" points="97,-567.68 0,-567.68 0,-534.68 97,-534.68 97,-567.68"/>
<text text-anchor="middle" x="48.5" y="-548.38" font-family="Liberation Sans" font-size="11.00">Farmer&#45;Seller</text>
</g>
<!-- fs_q6b&#45;&gt;q6b -->
<g id="edge8" class="edge">
<title>fs_q6b&#45;&gt;q6b</title>
<path fill="none" stroke="#333333" stroke-width="0.9" d="M103.51,-551.18C165.78,-551.18 265.77,-551.18 314.29,-551.18"/>
<polygon fill="#333333" stroke="#333333" stroke-width="0.9" points="103.23,-549.08 97.23,-551.18 103.23,-553.28 103.23,-549.08"/>
<text text-anchor="middle" x="205.5" y="-562.38" font-family="Liberation Sans" font-size="8.50">articles from</text>
<text text-anchor="middle" x="205.5" y="-553.38" font-family="Liberation Sans" font-size="8.50">all farms</text>
</g>
<!-- D12_q6c -->
<g id="node13" class="node">
<title>D12_q6c</title>
<polyline fill="none" stroke="black" points="600,-452.18 570,-452.18 570,-432.18 600,-432.18 "/>
<text text-anchor="start" x="574.5" y="-440.38" font-family="Liberation Sans" font-weight="bold" font-size="11.00">D12</text>
<polyline fill="none" stroke="black" points="600,-432.18 714,-432.18 "/>
<polyline fill="none" stroke="black" points="714,-452.18 600,-452.18 "/>
<text text-anchor="start" x="604" y="-439.38" font-family="Liberation Sans" font-size="11.00">Farm Announcements</text>
</g>
<!-- q6c&#45;&gt;D12_q6c -->
<g id="edge10" class="edge">
<title>q6c&#45;&gt;D12_q6c</title>
<path fill="none" stroke="#333333" stroke-width="0.9" d="M373.09,-420.66C390.65,-422.73 413.6,-425.3 434,-427.18 476.74,-431.11 524.53,-434.63 563.41,-437.27"/>
<polygon fill="#333333" stroke="#333333" stroke-width="0.9" points="563.44,-439.38 569.57,-437.69 563.73,-435.19 563.44,-439.38"/>
<text text-anchor="middle" x="471.5" y="-435.38" font-family="Liberation Sans" font-size="8.50">announcements</text>
</g>
<!-- q6c&#45;&gt;D12_q6c -->
<g id="edge12" class="edge">
<title>q6c&#45;&gt;D12_q6c</title>
<path fill="none" stroke="#333333" stroke-width="0.9" d="M379.11,-415.65C412.46,-414.58 464.29,-414.01 509,-418.18 538.45,-420.92 571.17,-426.85 596.66,-432.13"/>
<polygon fill="#333333" stroke="#333333" stroke-width="0.9" points="379.03,-413.55 373.1,-415.85 379.17,-417.75 379.03,-413.55"/>
<text text-anchor="middle" x="471.5" y="-420.38" font-family="Liberation Sans" font-size="8.50">due announcements</text>
</g>
<!-- D8_q6c -->
<g id="node15" class="node">
<title>D8_q6c</title>
<polyline fill="none" stroke="black" points="624,-368.18 594,-368.18 594,-348.18 624,-348.18 "/>
<text text-anchor="start" x="601.5" y="-356.38" font-family="Liberation Sans" font-weight="bold" font-size="11.00">D8</text>
<polyline fill="none" stroke="black" points="624,-348.18 691,-348.18 "/>
<polyline fill="none" stroke="black" points="691,-368.18 624,-368.18 "/>
<text text-anchor="start" x="628" y="-355.38" font-family="Liberation Sans" font-size="11.00">Notifications</text>
</g>
<!-- q6c&#45;&gt;D8_q6c -->
<g id="edge13" class="edge">
<title>q6c&#45;&gt;D8_q6c</title>
<path fill="none" stroke="#333333" stroke-width="0.9" d="M373.13,-406.08C390.51,-399.72 413.26,-392.06 434,-387.18 485.34,-375.09 545.11,-367.38 587.19,-362.97"/>
<polygon fill="#333333" stroke="#333333" stroke-width="0.9" points="587.51,-365.05 593.27,-362.34 587.08,-360.87 587.51,-365.05"/>
<text text-anchor="middle" x="471.5" y="-398.38" font-family="Liberation Sans" font-size="8.50">notices to own</text>
<text text-anchor="middle" x="471.5" y="-389.38" font-family="Liberation Sans" font-size="8.50">farm sellers</text>
</g>
<!-- q6d -->
<g id="node16" class="node">
<title>q6d</title>
<path fill="#f4f4f4" stroke="transparent" d="M330,-252.18C330,-252.18 357,-252.18 357,-252.18 363,-252.18 369,-258.18 369,-264.18 369,-264.18 369,-302.18 369,-302.18 369,-308.18 363,-314.18 357,-314.18 357,-314.18 330,-314.18 330,-314.18 324,-314.18 318,-308.18 318,-302.18 318,-302.18 318,-264.18 318,-264.18 318,-258.18 324,-252.18 330,-252.18"/>
<text text-anchor="start" x="337" y="-302.18" font-family="Liberation Sans" font-size="10.00">6.4</text>
<text text-anchor="start" x="326.5" y="-283.18" font-family="Liberation Sans" font-size="10.00">Manage</text>
<text text-anchor="start" x="334" y="-272.18" font-family="Liberation Sans" font-size="10.00">FAQ</text>
<text text-anchor="start" x="324.5" y="-261.18" font-family="Liberation Sans" font-size="10.00">Answers</text>
<polygon fill="black" stroke="black" points="318.5,-296.18 318.5,-296.18 369.5,-296.18 369.5,-296.18 318.5,-296.18"/>
<path fill="none" stroke="black" d="M330,-252.18C330,-252.18 357,-252.18 357,-252.18 363,-252.18 369,-258.18 369,-264.18 369,-264.18 369,-302.18 369,-302.18 369,-308.18 363,-314.18 357,-314.18 357,-314.18 330,-314.18 330,-314.18 324,-314.18 318,-308.18 318,-302.18 318,-302.18 318,-264.18 318,-264.18 318,-258.18 324,-252.18 330,-252.18"/>
</g>
<!-- q6c&#45;&gt;q6d -->
<!-- ce_q6c -->
<!-- gsdup -->
<g id="node11" class="node">
<title>ce_q6c</title>
<polygon fill="#e1e6ed" stroke="black" stroke-width="1.2" points="97,-498.68 0,-498.68 0,-465.68 97,-465.68 97,-498.68"/>
<text text-anchor="middle" x="48.5" y="-479.38" font-family="Liberation Sans" font-size="11.00">Content Editor</text>
</g>
<!-- ce_q6c&#45;&gt;q6c -->
<g id="edge9" class="edge">
<title>ce_q6c&#45;&gt;q6c</title>
<path fill="none" stroke="#333333" stroke-width="0.9" d="M97.23,-471.59C156.28,-458.49 255.43,-436.49 307.75,-424.89"/>
<polygon fill="#333333" stroke="#333333" stroke-width="0.9" points="308.49,-426.87 313.89,-423.52 307.58,-422.77 308.49,-426.87"/>
<text text-anchor="middle" x="205.5" y="-468.38" font-family="Liberation Sans" font-size="8.50">announcement, audience,</text>
<text text-anchor="middle" x="205.5" y="-459.38" font-family="Liberation Sans" font-size="8.50">schedule, pin</text>
</g>
<!-- fs_q6c -->
<!-- gsdup -->
<g id="node12" class="node">
<title>fs_q6c</title>
<polygon fill="#e8e6e0" stroke="black" stroke-width="1.2" points="97,-429.68 0,-429.68 0,-396.68 97,-396.68 97,-429.68"/>
<text text-anchor="middle" x="48.5" y="-410.38" font-family="Liberation Sans" font-size="11.00">Farmer&#45;Seller</text>
</g>
<!-- fs_q6c&#45;&gt;q6c -->
<g id="edge14" class="edge">
<title>fs_q6c&#45;&gt;q6c</title>
<path fill="none" stroke="#333333" stroke-width="0.9" d="M103.49,-413.91C165.59,-414.76 265.22,-416.12 313.89,-416.79"/>
<polygon fill="#333333" stroke="#333333" stroke-width="0.9" points="103.26,-411.81 97.23,-413.83 103.2,-416.01 103.26,-411.81"/>
<text text-anchor="middle" x="205.5" y="-417.38" font-family="Liberation Sans" font-size="8.50">announcements</text>
</g>
<!-- sch_q6c -->
<g id="node14" class="node">
<title>sch_q6c</title>
<polygon fill="#f2f2f2" stroke="black" stroke-width="1.2" points="97,-360.68 0,-360.68 0,-327.68 97,-327.68 97,-360.68"/>
<text text-anchor="middle" x="48.5" y="-341.38" font-family="Liberation Sans" font-size="11.00">Scheduler</text>
</g>
<!-- sch_q6c&#45;&gt;q6c -->
<g id="edge11" class="edge">
<title>sch_q6c&#45;&gt;q6c</title>
<path fill="none" stroke="#333333" stroke-width="0.9" d="M97.23,-356.07C156.4,-370.81 255.83,-395.58 308.06,-408.6"/>
<polygon fill="#333333" stroke="#333333" stroke-width="0.9" points="307.56,-410.64 313.89,-410.05 308.57,-406.56 307.56,-410.64"/>
<text text-anchor="middle" x="205.5" y="-395.38" font-family="Liberation Sans" font-size="8.50">five&#45;minute check</text>
</g>
<!-- D13_q6d -->
<g id="node19" class="node">
<title>D13_q6d</title>
<polyline fill="none" stroke="black" points="592,-293.18 592,-273.18 "/>
<polyline fill="none" stroke="black" points="625,-293.18 595,-293.18 595,-273.18 625,-273.18 "/>
<text text-anchor="start" x="599.5" y="-281.38" font-family="Liberation Sans" font-weight="bold" font-size="11.00">D13</text>
<polyline fill="none" stroke="black" points="625,-273.18 692,-273.18 "/>
<polyline fill="none" stroke="black" points="692,-293.18 625,-293.18 "/>
<text text-anchor="start" x="629" y="-280.38" font-family="Liberation Sans" font-size="11.00">FAQ Entries</text>
</g>
<!-- q6d&#45;&gt;D13_q6d -->
<g id="edge17" class="edge">
<title>q6d&#45;&gt;D13_q6d</title>
<path fill="none" stroke="#333333" stroke-width="0.9" d="M369.02,-283.18C416.26,-283.18 520.97,-283.18 585.81,-283.18"/>
<polygon fill="#333333" stroke="#333333" stroke-width="0.9" points="585.95,-285.28 591.95,-283.18 585.95,-281.08 585.95,-285.28"/>
<text text-anchor="middle" x="471.5" y="-285.38" font-family="Liberation Sans" font-size="8.50">answers</text>
</g>
<!-- q6e -->
<g id="node20" class="node">
<title>q6e</title>
<path fill="#f4f4f4" stroke="transparent" d="M327,-129.68C327,-129.68 360,-129.68 360,-129.68 366,-129.68 372,-135.68 372,-141.68 372,-141.68 372,-168.68 372,-168.68 372,-174.68 366,-180.68 360,-180.68 360,-180.68 327,-180.68 327,-180.68 321,-180.68 315,-174.68 315,-168.68 315,-168.68 315,-141.68 315,-141.68 315,-135.68 321,-129.68 327,-129.68"/>
<text text-anchor="start" x="337" y="-168.18" font-family="Liberation Sans" font-size="10.00">6.5</text>
<text text-anchor="start" x="327" y="-149.18" font-family="Liberation Sans" font-size="10.00">Answer</text>
<text text-anchor="start" x="321.5" y="-138.18" font-family="Liberation Sans" font-size="10.00">Questions</text>
<polygon fill="black" stroke="black" points="315.5,-162.18 315.5,-162.18 372.5,-162.18 372.5,-162.18 315.5,-162.18"/>
<path fill="none" stroke="black" d="M327,-129.68C327,-129.68 360,-129.68 360,-129.68 366,-129.68 372,-135.68 372,-141.68 372,-141.68 372,-168.68 372,-168.68 372,-174.68 366,-180.68 360,-180.68 360,-180.68 327,-180.68 327,-180.68 321,-180.68 315,-174.68 315,-168.68 315,-168.68 315,-141.68 315,-141.68 315,-135.68 321,-129.68 327,-129.68"/>
</g>
<!-- q6d&#45;&gt;q6e -->
<!-- ce_q6d -->
<!-- gsdup -->
<g id="node17" class="node">
<title>ce_q6d</title>
<polygon fill="#e1e6ed" stroke="black" stroke-width="1.2" points="97,-291.68 0,-291.68 0,-258.68 97,-258.68 97,-291.68"/>
<text text-anchor="middle" x="48.5" y="-272.38" font-family="Liberation Sans" font-size="11.00">Content Editor</text>
</g>
<!-- ce_q6d&#45;&gt;q6d -->
<g id="edge16" class="edge">
<title>ce_q6d&#45;&gt;q6d</title>
<path fill="none" stroke="#333333" stroke-width="0.9" d="M97.23,-276.48C157.72,-278.13 260.27,-280.93 311.48,-282.33"/>
<polygon fill="#333333" stroke="#333333" stroke-width="0.9" points="311.7,-284.44 317.76,-282.5 311.82,-280.24 311.7,-284.44"/>
<text text-anchor="middle" x="205.5" y="-291.38" font-family="Liberation Sans" font-size="8.50">farm answers</text>
<text text-anchor="middle" x="205.5" y="-282.38" font-family="Liberation Sans" font-size="8.50">and overrides</text>
</g>
<!-- ce_q6d&#45;&gt;q6d -->
<g id="edge18" class="edge">
<title>ce_q6d&#45;&gt;q6d</title>
<path fill="none" stroke="#333333" stroke-width="0.9" d="M103.49,-268.18C144.56,-263.91 202.45,-260.14 253,-265.18 275.08,-267.38 299.78,-272.55 317.63,-276.79"/>
<polygon fill="#333333" stroke="#333333" stroke-width="0.9" points="103.04,-266.11 97.3,-268.84 103.49,-270.29 103.04,-266.11"/>
<text text-anchor="middle" x="205.5" y="-267.38" font-family="Liberation Sans" font-size="8.50">moderation notice</text>
</g>
<!-- sa_q6d -->
<!-- gsdup -->
<g id="node18" class="node">
<title>sa_q6d</title>
<polygon fill="#e1e6ed" stroke="black" stroke-width="1.2" points="97,-221.68 0,-221.68 0,-188.68 97,-188.68 97,-221.68"/>
<text text-anchor="middle" x="48.5" y="-202.38" font-family="Liberation Sans" font-size="11.00">Super Admin</text>
</g>
<!-- sa_q6d&#45;&gt;q6d -->
<g id="edge15" class="edge">
<title>sa_q6d&#45;&gt;q6d</title>
<path fill="none" stroke="#333333" stroke-width="0.9" d="M97.04,-207.54C138.98,-210.71 201.29,-218.08 253,-235.18 273.76,-242.04 295.4,-253.51 312.2,-263.52"/>
<polygon fill="#333333" stroke="#333333" stroke-width="0.9" points="311.49,-265.54 317.71,-266.85 313.66,-261.95 311.49,-265.54"/>
<text text-anchor="middle" x="205.5" y="-246.38" font-family="Liberation Sans" font-size="8.50">system answers,</text>
<text text-anchor="middle" x="205.5" y="-237.38" font-family="Liberation Sans" font-size="8.50">deactivate, remove</text>
</g>
<!-- D13_q6e -->
<g id="node22" class="node">
<title>D13_q6e</title>
<polyline fill="none" stroke="black" points="592,-165.18 592,-145.18 "/>
<polyline fill="none" stroke="black" points="625,-165.18 595,-165.18 595,-145.18 625,-145.18 "/>
<text text-anchor="start" x="599.5" y="-153.38" font-family="Liberation Sans" font-weight="bold" font-size="11.00">D13</text>
<polyline fill="none" stroke="black" points="625,-145.18 692,-145.18 "/>
<polyline fill="none" stroke="black" points="692,-165.18 625,-165.18 "/>
<text text-anchor="start" x="629" y="-152.38" font-family="Liberation Sans" font-size="11.00">FAQ Entries</text>
</g>
<!-- q6e&#45;&gt;D13_q6e -->
<g id="edge21" class="edge">
<title>q6e&#45;&gt;D13_q6e</title>
<path fill="none" stroke="#333333" stroke-width="0.9" d="M378.26,-155.18C430.57,-155.18 531.46,-155.18 591.85,-155.18"/>
<polygon fill="#333333" stroke="#333333" stroke-width="0.9" points="378.13,-153.08 372.13,-155.18 378.13,-157.28 378.13,-153.08"/>
<text text-anchor="middle" x="471.5" y="-166.38" font-family="Liberation Sans" font-size="8.50">system answers,</text>
<text text-anchor="middle" x="471.5" y="-157.38" font-family="Liberation Sans" font-size="8.50">farm overrides</text>
</g>
<!-- fs_q6e -->
<!-- gsdup -->
<g id="node21" class="node">
<title>fs_q6e</title>
<polygon fill="#e8e6e0" stroke="black" stroke-width="1.2" points="97,-131.68 0,-131.68 0,-98.68 97,-98.68 97,-131.68"/>
<text text-anchor="middle" x="48.5" y="-112.38" font-family="Liberation Sans" font-size="11.00">Farmer&#45;Seller</text>
</g>
<!-- fs_q6e&#45;&gt;q6e -->
<g id="edge20" class="edge">
<title>fs_q6e&#45;&gt;q6e</title>
<path fill="none" stroke="#333333" stroke-width="0.9" d="M97.23,-121.69C156.6,-129.8 256.47,-143.43 308.57,-150.55"/>
<polygon fill="#333333" stroke="#333333" stroke-width="0.9" points="308.45,-152.65 314.68,-151.38 309.02,-148.49 308.45,-152.65"/>
<text text-anchor="middle" x="205.5" y="-144.38" font-family="Liberation Sans" font-size="8.50">question</text>
</g>
<!-- fs_q6e&#45;&gt;q6e -->
<g id="edge23" class="edge">
<title>fs_q6e&#45;&gt;q6e</title>
<path fill="none" stroke="#333333" stroke-width="0.9" d="M103.26,-102.82C144.85,-95.44 203.49,-89.84 253,-103.18 275.38,-109.21 297.93,-122.36 314.8,-133.93"/>
<polygon fill="#333333" stroke="#333333" stroke-width="0.9" points="102.77,-100.77 97.25,-103.92 103.53,-104.9 102.77,-100.77"/>
<text text-anchor="middle" x="205.5" y="-114.38" font-family="Liberation Sans" font-size="8.50">answer or</text>
<text text-anchor="middle" x="205.5" y="-105.38" font-family="Liberation Sans" font-size="8.50">suggestions</text>
</g>
<!-- by_q6e -->
<g id="node23" class="node">
<title>by_q6e</title>
<polygon fill="#e8e6e0" stroke="black" stroke-width="1.2" points="97,-42.68 0,-42.68 0,-9.68 97,-9.68 97,-42.68"/>
<text text-anchor="middle" x="48.5" y="-23.38" font-family="Liberation Sans" font-size="11.00">Buyer</text>
</g>
<!-- by_q6e&#45;&gt;q6e -->
<g id="edge19" class="edge">
<title>by_q6e&#45;&gt;q6e</title>
<path fill="none" stroke="#333333" stroke-width="0.9" d="M97.03,-31.3C139.8,-37.39 203.36,-50.2 253,-76.18 276.5,-88.47 298.87,-108.22 315.37,-124.89"/>
<polygon fill="#333333" stroke="#333333" stroke-width="0.9" points="314.17,-126.67 319.86,-129.5 317.18,-123.74 314.17,-126.67"/>
<text text-anchor="middle" x="205.5" y="-78.38" font-family="Liberation Sans" font-size="8.50">question</text>
</g>
<!-- by_q6e&#45;&gt;q6e -->
<g id="edge22" class="edge">
<title>by_q6e&#45;&gt;q6e</title>
<path fill="none" stroke="#333333" stroke-width="0.9" d="M103.01,-9.39C146.15,0.89 207,7.82 253,-17.18 296.91,-41.04 322.61,-96.76 334.48,-129.64"/>
<polygon fill="#333333" stroke="#333333" stroke-width="0.9" points="102.37,-7.39 97.04,-10.86 103.37,-11.46 102.37,-7.39"/>
<text text-anchor="middle" x="205.5" y="-28.38" font-family="Liberation Sans" font-size="8.50">answer or</text>
<text text-anchor="middle" x="205.5" y="-19.38" font-family="Liberation Sans" font-size="8.50">suggestions</text>
</g>
</g>
</svg>
