<?xml version="1.0" encoding="UTF-8" standalone="no"?>
<!DOCTYPE svg PUBLIC "-//W3C//DTD SVG 1.1//EN"
 "http://www.w3.org/Graphics/SVG/1.1/DTD/svg11.dtd">
<!-- Generated by graphviz version 2.43.0 (0)
 -->
<!-- Title: G Pages: 1 -->
<svg width="595pt" height="513pt"
 viewBox="0.00 0.00 595.00 513.00" xmlns="http://www.w3.org/2000/svg" xmlns:xlink="http://www.w3.org/1999/xlink">
<g id="graph0" class="graph" transform="scale(1 1) rotate(0) translate(18 495)"><line x1="86.00" y1="-415.50" x2="97.00" y2="-426.50" stroke="black" stroke-width="1.2"/><line x1="86.00" y1="-348.50" x2="97.00" y2="-359.50" stroke="black" stroke-width="1.2"/><line x1="86.00" y1="-196.50" x2="97.00" y2="-207.50" stroke="black" stroke-width="1.2"/><line x1="86.00" y1="-129.50" x2="97.00" y2="-140.50" stroke="black" stroke-width="1.2"/><line x1="86.00" y1="-41.50" x2="97.00" y2="-52.50" stroke="black" stroke-width="1.2"/>
<title>G</title>
<polygon fill="white" stroke="transparent" points="-18,18 -18,-495 577,-495 577,18 -18,18"/>
<!-- q2a -->
<g id="node1" class="node">
<title>q2a</title>
<path fill="#f4f4f4" stroke="transparent" d="M265,-401C265,-401 299,-401 299,-401 305,-401 311,-407 311,-413 311,-413 311,-451 311,-451 311,-457 305,-463 299,-463 299,-463 265,-463 265,-463 259,-463 253,-457 253,-451 253,-451 253,-413 253,-413 253,-407 259,-401 265,-401"/>
<text text-anchor="start" x="275" y="-451" font-family="Liberation Sans" font-size="10.00">2.1</text>
<text text-anchor="start" x="263.5" y="-432" font-family="Liberation Sans" font-size="10.00">Maintain</text>
<text text-anchor="start" x="271" y="-421" font-family="Liberation Sans" font-size="10.00">Crop</text>
<text text-anchor="start" x="259" y="-410" font-family="Liberation Sans" font-size="10.00">Taxonomy</text>
<polygon fill="black" stroke="black" points="253,-445 253,-445 311,-445 311,-445 253,-445"/>
<path fill="none" stroke="black" d="M265,-401C265,-401 299,-401 299,-401 305,-401 311,-407 311,-413 311,-413 311,-451 311,-451 311,-457 305,-463 299,-463 299,-463 265,-463 265,-463 259,-463 253,-457 253,-451 253,-451 253,-413 253,-413 253,-407 259,-401 265,-401"/>
</g>
<!-- D3_q2a -->
<g id="node3" class="node">
<title>D3_q2a</title>
<polyline fill="none" stroke="black" points="461,-477 461,-457 "/>
<polyline fill="none" stroke="black" points="494,-477 464,-477 464,-457 494,-457 "/>
<text text-anchor="start" x="471.5" y="-465.2" font-family="Liberation Sans" font-weight="bold" font-size="11.00">D3</text>
<polyline fill="none" stroke="black" points="494,-457 558,-457 "/>
<polyline fill="none" stroke="black" points="558,-477 494,-477 "/>
<text text-anchor="start" x="498" y="-464.2" font-family="Liberation Sans" font-size="11.00">Crop Types</text>
</g>
<!-- q2a&#45;&gt;D3_q2a -->
<g id="edge2" class="edge">
<title>q2a&#45;&gt;D3_q2a</title>
<path fill="none" stroke="#333333" stroke-width="0.9" d="M311.23,-436.7C321.54,-438.39 333.29,-440.31 344,-442 380.67,-447.8 421.99,-454.1 453.99,-458.92"/>
<polygon fill="#333333" stroke="#333333" stroke-width="0.9" points="454.01,-461.05 460.26,-459.87 454.64,-456.9 454.01,-461.05"/>
<text text-anchor="middle" x="385" y="-456.2" font-family="Liberation Sans" font-size="8.50">crop types, guards</text>
</g>
<!-- q2b -->
<g id="node4" class="node">
<title>q2b</title>
<path fill="#f4f4f4" stroke="transparent" d="M267.5,-303C267.5,-303 296.5,-303 296.5,-303 302.5,-303 308.5,-309 308.5,-315 308.5,-315 308.5,-353 308.5,-353 308.5,-359 302.5,-365 296.5,-365 296.5,-365 267.5,-365 267.5,-365 261.5,-365 255.5,-359 255.5,-353 255.5,-353 255.5,-315 255.5,-315 255.5,-309 261.5,-303 267.5,-303"/>
<text text-anchor="start" x="275.5" y="-353" font-family="Liberation Sans" font-size="10.00">2.2</text>
<text text-anchor="start" x="262" y="-334" font-family="Liberation Sans" font-size="10.00">Set Farm</text>
<text text-anchor="start" x="271" y="-323" font-family="Liberation Sans" font-size="10.00">Price</text>
<text text-anchor="start" x="266.5" y="-312" font-family="Liberation Sans" font-size="10.00">Guards</text>
<polygon fill="black" stroke="black" points="256,-347 256,-347 309,-347 309,-347 256,-347"/>
<path fill="none" stroke="black" d="M267.5,-303C267.5,-303 296.5,-303 296.5,-303 302.5,-303 308.5,-309 308.5,-315 308.5,-315 308.5,-353 308.5,-353 308.5,-359 302.5,-365 296.5,-365 296.5,-365 267.5,-365 267.5,-365 261.5,-365 255.5,-359 255.5,-353 255.5,-353 255.5,-315 255.5,-315 255.5,-309 261.5,-303 267.5,-303"/>
</g>
<!-- q2a&#45;&gt;q2b -->
<g id="edge3" class="edge">
<title>q2a&#45;&gt;q2b</title>
<path fill="none" stroke="#333333" stroke-width="0.9" d="M282,-400.86C282,-391.37 282,-380.86 282,-371.03"/>
<polygon fill="#333333" stroke="#333333" stroke-width="0.9" points="284.1,-371.01 282,-365.01 279.9,-371.01 284.1,-371.01"/>
<text text-anchor="middle" x="274.5" y="-380.7" font-family="Liberation Sans" font-size="8.50">system guards</text>
</g>
<!-- q2a&#45;&gt;q2b -->
<!-- sa_q2a -->
<!-- gsdup -->
<g id="node2" class="node">
<title>sa_q2a</title>
<polygon fill="#e1e6ed" stroke="black" stroke-width="1.2" points="97,-448.5 0,-448.5 0,-415.5 97,-415.5 97,-448.5"/>
<text text-anchor="middle" x="48.5" y="-429.2" font-family="Liberation Sans" font-size="11.00">Super Admin</text>
</g>
<!-- sa_q2a&#45;&gt;q2a -->
<g id="edge1" class="edge">
<title>sa_q2a&#45;&gt;q2a</title>
<path fill="none" stroke="#333333" stroke-width="0.9" d="M97.19,-432C141.66,-432 206.93,-432 246.55,-432"/>
<polygon fill="#333333" stroke="#333333" stroke-width="0.9" points="246.68,-434.1 252.68,-432 246.68,-429.9 246.68,-434.1"/>
<text text-anchor="middle" x="175" y="-443.2" font-family="Liberation Sans" font-size="8.50">crop types, system floor</text>
<text text-anchor="middle" x="175" y="-434.2" font-family="Liberation Sans" font-size="8.50">and maximum discount</text>
</g>
<!-- D3_q2b -->
<g id="node6" class="node">
<title>D3_q2b</title>
<polyline fill="none" stroke="black" points="461,-439 461,-419 "/>
<polyline fill="none" stroke="black" points="494,-439 464,-439 464,-419 494,-419 "/>
<text text-anchor="start" x="471.5" y="-427.2" font-family="Liberation Sans" font-weight="bold" font-size="11.00">D3</text>
<polyline fill="none" stroke="black" points="494,-419 558,-419 "/>
<polyline fill="none" stroke="black" points="558,-439 494,-439 "/>
<text text-anchor="start" x="498" y="-426.2" font-family="Liberation Sans" font-size="11.00">Crop Types</text>
</g>
<!-- q2b&#45;&gt;D3_q2b -->
<g id="edge6" class="edge">
<title>q2b&#45;&gt;D3_q2b</title>
<path fill="none" stroke="#333333" stroke-width="0.9" d="M313,-367.13C322.21,-375.66 332.87,-384.09 344,-390 380.32,-409.28 426.17,-419.15 460.15,-424.12"/>
<polygon fill="#333333" stroke="#333333" stroke-width="0.9" points="314.4,-365.56 308.6,-362.95 311.5,-368.61 314.4,-365.56"/>
<text text-anchor="middle" x="385" y="-419.2" font-family="Liberation Sans" font-size="8.50">system guards</text>
</g>
<!-- D2_q2b -->
<g id="node8" class="node">
<title>D2_q2b</title>
<polyline fill="none" stroke="black" points="473,-401 473,-381 "/>
<polyline fill="none" stroke="black" points="506,-401 476,-401 476,-381 506,-381 "/>
<text text-anchor="start" x="483.5" y="-389.2" font-family="Liberation Sans" font-weight="bold" font-size="11.00">D2</text>
<polyline fill="none" stroke="black" points="506,-381 545,-381 "/>
<polyline fill="none" stroke="black" points="545,-401 506,-401 "/>
<text text-anchor="start" x="510" y="-388.2" font-family="Liberation Sans" font-size="11.00">Farms</text>
</g>
<!-- q2b&#45;&gt;D2_q2b -->
<g id="edge7" class="edge">
<title>q2b&#45;&gt;D2_q2b</title>
<path fill="none" stroke="#333333" stroke-width="0.9" d="M308.77,-345.3C319.51,-349.71 332.21,-354.52 344,-358 385.04,-370.1 433.16,-379.2 466.62,-384.75"/>
<polygon fill="#333333" stroke="#333333" stroke-width="0.9" points="466.43,-386.85 472.69,-385.74 467.11,-382.7 466.43,-386.85"/>
<text text-anchor="middle" x="385" y="-379.2" font-family="Liberation Sans" font-size="8.50">tighten&#45;only overrides</text>
</g>
<!-- D4_q2b -->
<g id="node9" class="node">
<title>D4_q2b</title>
<polyline fill="none" stroke="black" points="470,-363 470,-343 "/>
<polyline fill="none" stroke="black" points="503,-363 473,-363 473,-343 503,-343 "/>
<text text-anchor="start" x="480.5" y="-351.2" font-family="Liberation Sans" font-weight="bold" font-size="11.00">D4</text>
<polyline fill="none" stroke="black" points="503,-343 548,-343 "/>
<polyline fill="none" stroke="black" points="548,-363 503,-363 "/>
<text text-anchor="start" x="507" y="-350.2" font-family="Liberation Sans" font-size="11.00">Listings</text>
</g>
<!-- q2b&#45;&gt;D4_q2b -->
<g id="edge8" class="edge">
<title>q2b&#45;&gt;D4_q2b</title>
<path fill="none" stroke="#333333" stroke-width="0.9" d="M314.84,-336.69C355.6,-340.13 426.14,-346.09 469.76,-349.77"/>
<polygon fill="#333333" stroke="#333333" stroke-width="0.9" points="314.97,-334.59 308.81,-336.18 314.61,-338.78 314.97,-334.59"/>
<text text-anchor="middle" x="385" y="-347.2" font-family="Liberation Sans" font-size="8.50">affected listings</text>
</g>
<!-- D8_q2b -->
<g id="node10" class="node">
<title>D8_q2b</title>
<polyline fill="none" stroke="black" points="459,-325 459,-305 "/>
<polyline fill="none" stroke="black" points="492,-325 462,-325 462,-305 492,-305 "/>
<text text-anchor="start" x="469.5" y="-313.2" font-family="Liberation Sans" font-weight="bold" font-size="11.00">D8</text>
<polyline fill="none" stroke="black" points="492,-305 559,-305 "/>
<polyline fill="none" stroke="black" points="559,-325 492,-325 "/>
<text text-anchor="start" x="496" y="-312.2" font-family="Liberation Sans" font-size="11.00">Notifications</text>
</g>
<!-- q2b&#45;&gt;D8_q2b -->
<g id="edge9" class="edge">
<title>q2b&#45;&gt;D8_q2b</title>
<path fill="none" stroke="#333333" stroke-width="0.9" d="M308.51,-325.3C319.32,-322.03 332.14,-318.7 344,-317 379.94,-311.86 420.76,-311.35 452.69,-312.12"/>
<polygon fill="#333333" stroke="#333333" stroke-width="0.9" points="452.89,-314.23 458.95,-312.29 453.01,-310.03 452.89,-314.23"/>
<text text-anchor="middle" x="385" y="-328.2" font-family="Liberation Sans" font-size="8.50">stranded listing</text>
<text text-anchor="middle" x="385" y="-319.2" font-family="Liberation Sans" font-size="8.50">and tawad notices</text>
</g>
<!-- q2c -->
<g id="node11" class="node">
<title>q2c</title>
<path fill="#f4f4f4" stroke="transparent" d="M270.5,-216.5C270.5,-216.5 293.5,-216.5 293.5,-216.5 299.5,-216.5 305.5,-222.5 305.5,-228.5 305.5,-228.5 305.5,-255.5 305.5,-255.5 305.5,-261.5 299.5,-267.5 293.5,-267.5 293.5,-267.5 270.5,-267.5 270.5,-267.5 264.5,-267.5 258.5,-261.5 258.5,-255.5 258.5,-255.5 258.5,-228.5 258.5,-228.5 258.5,-222.5 264.5,-216.5 270.5,-216.5"/>
<text text-anchor="start" x="275.5" y="-255" font-family="Liberation Sans" font-size="10.00">2.3</text>
<text text-anchor="start" x="265" y="-236" font-family="Liberation Sans" font-size="10.00">Manage</text>
<text text-anchor="start" x="265.5" y="-225" font-family="Liberation Sans" font-size="10.00">Listings</text>
<polygon fill="black" stroke="black" points="259,-249 259,-249 306,-249 306,-249 259,-249"/>
<path fill="none" stroke="black" d="M270.5,-216.5C270.5,-216.5 293.5,-216.5 293.5,-216.5 299.5,-216.5 305.5,-222.5 305.5,-228.5 305.5,-228.5 305.5,-255.5 305.5,-255.5 305.5,-261.5 299.5,-267.5 293.5,-267.5 293.5,-267.5 270.5,-267.5 270.5,-267.5 264.5,-267.5 258.5,-261.5 258.5,-255.5 258.5,-255.5 258.5,-228.5 258.5,-228.5 258.5,-222.5 264.5,-216.5 270.5,-216.5"/>
</g>
<!-- q2b&#45;&gt;q2c -->
<!-- sa_q2b -->
<!-- gsdup -->
<g id="node5" class="node">
<title>sa_q2b</title>
<polygon fill="#e1e6ed" stroke="black" stroke-width="1.2" points="97,-381.5 0,-381.5 0,-348.5 97,-348.5 97,-381.5"/>
<text text-anchor="middle" x="48.5" y="-362.2" font-family="Liberation Sans" font-size="11.00">Super Admin</text>
</g>
<!-- sa_q2b&#45;&gt;q2b -->
<g id="edge5" class="edge">
<title>sa_q2b&#45;&gt;q2b</title>
<path fill="none" stroke="#333333" stroke-width="0.9" d="M97.3,-359.07C131.5,-354.77 178.61,-348.72 220,-343 229.57,-341.68 239.97,-340.17 249.43,-338.77"/>
<polygon fill="#333333" stroke="#333333" stroke-width="0.9" points="249.86,-340.83 255.49,-337.87 249.25,-336.67 249.86,-340.83"/>
<text text-anchor="middle" x="175" y="-365.2" font-family="Liberation Sans" font-size="8.50">any farm floor</text>
<text text-anchor="middle" x="175" y="-356.2" font-family="Liberation Sans" font-size="8.50">and ceiling</text>
</g>
<!-- ce_q2b -->
<g id="node7" class="node">
<title>ce_q2b</title>
<polygon fill="#e1e6ed" stroke="black" stroke-width="1.2" points="97,-330.5 0,-330.5 0,-297.5 97,-297.5 97,-330.5"/>
<text text-anchor="middle" x="48.5" y="-311.2" font-family="Liberation Sans" font-size="11.00">Content Editor</text>
</g>
<!-- ce_q2b&#45;&gt;q2b -->
<g id="edge4" class="edge">
<title>ce_q2b&#45;&gt;q2b</title>
<path fill="none" stroke="#333333" stroke-width="0.9" d="M97.36,-316.04C131.58,-317.75 178.7,-320.63 220,-325 229.52,-326.01 239.83,-327.41 249.22,-328.81"/>
<polygon fill="#333333" stroke="#333333" stroke-width="0.9" points="248.99,-330.9 255.24,-329.72 249.62,-326.74 248.99,-330.9"/>
<text text-anchor="middle" x="175" y="-336.2" font-family="Liberation Sans" font-size="8.50">own farm floor</text>
<text text-anchor="middle" x="175" y="-327.2" font-family="Liberation Sans" font-size="8.50">and ceiling</text>
</g>
<!-- D3_q2c -->
<g id="node12" class="node">
<title>D3_q2c</title>
<polyline fill="none" stroke="black" points="461,-287 461,-267 "/>
<polyline fill="none" stroke="black" points="494,-287 464,-287 464,-267 494,-267 "/>
<text text-anchor="start" x="471.5" y="-275.2" font-family="Liberation Sans" font-weight="bold" font-size="11.00">D3</text>
<polyline fill="none" stroke="black" points="494,-267 558,-267 "/>
<polyline fill="none" stroke="black" points="558,-287 494,-287 "/>
<text text-anchor="start" x="498" y="-274.2" font-family="Liberation Sans" font-size="11.00">Crop Types</text>
</g>
<!-- q2c&#45;&gt;D3_q2c -->
<g id="edge11" class="edge">
<title>q2c&#45;&gt;D3_q2c</title>
<path fill="none" stroke="#333333" stroke-width="0.9" d="M311.68,-247.98C321.87,-250.01 333.42,-252.22 344,-254 382.98,-260.56 427.4,-266.71 460.17,-271"/>
<polygon fill="#333333" stroke="#333333" stroke-width="0.9" points="311.84,-245.87 305.54,-246.74 311.01,-249.99 311.84,-245.87"/>
<text text-anchor="middle" x="385" y="-268.2" font-family="Liberation Sans" font-size="8.50">system floor</text>
</g>
<!-- D2_q2c -->
<g id="node13" class="node">
<title>D2_q2c</title>
<polyline fill="none" stroke="black" points="473,-249 473,-229 "/>
<polyline fill="none" stroke="black" points="506,-249 476,-249 476,-229 506,-229 "/>
<text text-anchor="start" x="483.5" y="-237.2" font-family="Liberation Sans" font-weight="bold" font-size="11.00">D2</text>
<polyline fill="none" stroke="black" points="506,-229 545,-229 "/>
<polyline fill="none" stroke="black" points="545,-249 506,-249 "/>
<text text-anchor="start" x="510" y="-236.2" font-family="Liberation Sans" font-size="11.00">Farms</text>
</g>
<!-- q2c&#45;&gt;D2_q2c -->
<g id="edge12" class="edge">
<title>q2c&#45;&gt;D2_q2c</title>
<path fill="none" stroke="#333333" stroke-width="0.9" d="M311.86,-241.62C352.95,-241.07 428.24,-240.06 472.63,-239.47"/>
<polygon fill="#333333" stroke="#333333" stroke-width="0.9" points="311.78,-239.52 305.81,-241.7 311.84,-243.72 311.78,-239.52"/>
<text text-anchor="middle" x="385" y="-243.2" font-family="Liberation Sans" font-size="8.50">farm floor</text>
</g>
<!-- D4_q2c -->
<g id="node14" class="node">
<title>D4_q2c</title>
<polyline fill="none" stroke="black" points="470,-211 470,-191 "/>
<polyline fill="none" stroke="black" points="503,-211 473,-211 473,-191 503,-191 "/>
<text text-anchor="start" x="480.5" y="-199.2" font-family="Liberation Sans" font-weight="bold" font-size="11.00">D4</text>
<polyline fill="none" stroke="black" points="503,-191 548,-191 "/>
<polyline fill="none" stroke="black" points="548,-211 503,-211 "/>
<text text-anchor="start" x="507" y="-198.2" font-family="Liberation Sans" font-size="11.00">Listings</text>
</g>
<!-- q2c&#45;&gt;D4_q2c -->
<g id="edge13" class="edge">
<title>q2c&#45;&gt;D4_q2c</title>
<path fill="none" stroke="#333333" stroke-width="0.9" d="M305.69,-231.37C316.97,-226.53 330.95,-221.18 344,-218 383.8,-208.3 430.34,-204.13 463.66,-202.34"/>
<polygon fill="#333333" stroke="#333333" stroke-width="0.9" points="463.84,-204.44 469.72,-202.04 463.62,-200.24 463.84,-204.44"/>
<text text-anchor="middle" x="385" y="-229.2" font-family="Liberation Sans" font-size="8.50">listings, photos,</text>
<text text-anchor="middle" x="385" y="-220.2" font-family="Liberation Sans" font-size="8.50">thumbnails</text>
</g>
<!-- q2d -->
<g id="node16" class="node">
<title>q2d</title>
<path fill="#f4f4f4" stroke="transparent" d="M270.5,-119C270.5,-119 293.5,-119 293.5,-119 299.5,-119 305.5,-125 305.5,-131 305.5,-131 305.5,-169 305.5,-169 305.5,-175 299.5,-181 293.5,-181 293.5,-181 270.5,-181 270.5,-181 264.5,-181 258.5,-175 258.5,-169 258.5,-169 258.5,-131 258.5,-131 258.5,-125 264.5,-119 270.5,-119"/>
<text text-anchor="start" x="275.5" y="-169" font-family="Liberation Sans" font-size="10.00">2.4</text>
<text text-anchor="start" x="265" y="-150" font-family="Liberation Sans" font-size="10.00">Manage</text>
<text text-anchor="start" x="268" y="-139" font-family="Liberation Sans" font-size="10.00">Tawad</text>
<text text-anchor="start" x="269.5" y="-128" font-family="Liberation Sans" font-size="10.00">Rules</text>
<polygon fill="black" stroke="black" points="259,-163 259,-163 306,-163 306,-163 259,-163"/>
<path fill="none" stroke="black" d="M270.5,-119C270.5,-119 293.5,-119 293.5,-119 299.5,-119 305.5,-125 305.5,-131 305.5,-131 305.5,-169 305.5,-169 305.5,-175 299.5,-181 293.5,-181 293.5,-181 270.5,-181 270.5,-181 264.5,-181 258.5,-175 258.5,-169 258.5,-169 258.5,-131 258.5,-131 258.5,-125 264.5,-119 270.5,-119"/>
</g>
<!-- q2c&#45;&gt;q2d -->
<!-- fs_q2c -->
<!-- gsdup -->
<g id="node15" class="node">
<title>fs_q2c</title>
<polygon fill="#e8e6e0" stroke="black" stroke-width="1.2" points="97,-229.5 0,-229.5 0,-196.5 97,-196.5 97,-229.5"/>
<text text-anchor="middle" x="48.5" y="-210.2" font-family="Liberation Sans" font-size="11.00">Farmer&#45;Seller</text>
</g>
<!-- fs_q2c&#45;&gt;q2c -->
<g id="edge10" class="edge">
<title>fs_q2c&#45;&gt;q2c</title>
<path fill="none" stroke="#333333" stroke-width="0.9" d="M97.06,-222.61C107.86,-224.58 119.3,-226.51 130,-228 172.36,-233.9 221.76,-237.95 252.21,-240.12"/>
<polygon fill="#333333" stroke="#333333" stroke-width="0.9" points="252.28,-242.23 258.41,-240.56 252.57,-238.04 252.28,-242.23"/>
<text text-anchor="middle" x="175" y="-248.2" font-family="Liberation Sans" font-size="8.50">listing details, photos,</text>
<text text-anchor="middle" x="175" y="-239.2" font-family="Liberation Sans" font-size="8.50">pause or resume</text>
</g>
<!-- fs_q2c&#45;&gt;q2c -->
<g id="edge14" class="edge">
<title>fs_q2c&#45;&gt;q2c</title>
<path fill="none" stroke="#333333" stroke-width="0.9" d="M103.27,-202.54C137.31,-197.92 181.93,-195.6 220,-206 233.64,-209.73 247.34,-217.37 258.28,-224.66"/>
<polygon fill="#333333" stroke="#333333" stroke-width="0.9" points="102.69,-200.5 97.04,-203.42 103.28,-204.66 102.69,-200.5"/>
<text text-anchor="middle" x="175" y="-217.2" font-family="Liberation Sans" font-size="8.50">effective floor,</text>
<text text-anchor="middle" x="175" y="-208.2" font-family="Liberation Sans" font-size="8.50">rejections</text>
</g>
<!-- D3_q2d -->
<g id="node17" class="node">
<title>D3_q2d</title>
<polyline fill="none" stroke="black" points="461,-173 461,-153 "/>
<polyline fill="none" stroke="black" points="494,-173 464,-173 464,-153 494,-153 "/>
<text text-anchor="start" x="471.5" y="-161.2" font-family="Liberation Sans" font-weight="bold" font-size="11.00">D3</text>
<polyline fill="none" stroke="black" points="494,-153 558,-153 "/>
<polyline fill="none" stroke="black" points="558,-173 494,-173 "/>
<text text-anchor="start" x="498" y="-160.2" font-family="Liberation Sans" font-size="11.00">Crop Types</text>
</g>
<!-- q2d&#45;&gt;D3_q2d -->
<g id="edge16" class="edge">
<title>q2d&#45;&gt;D3_q2d</title>
<path fill="none" stroke="#333333" stroke-width="0.9" d="M312.04,-151.68C349.6,-153.85 415.52,-157.66 460.44,-160.25"/>
<polygon fill="#333333" stroke="#333333" stroke-width="0.9" points="311.92,-149.57 305.81,-151.32 311.68,-153.76 311.92,-149.57"/>
<text text-anchor="middle" x="385" y="-160.2" font-family="Liberation Sans" font-size="8.50">maximum discount</text>
</g>
<!-- D2_q2d -->
<g id="node18" class="node">
<title>D2_q2d</title>
<polyline fill="none" stroke="black" points="473,-135 473,-115 "/>
<polyline fill="none" stroke="black" points="506,-135 476,-135 476,-115 506,-115 "/>
<text text-anchor="start" x="483.5" y="-123.2" font-family="Liberation Sans" font-weight="bold" font-size="11.00">D2</text>
<polyline fill="none" stroke="black" points="506,-115 545,-115 "/>
<polyline fill="none" stroke="black" points="545,-135 506,-135 "/>
<text text-anchor="start" x="510" y="-122.2" font-family="Liberation Sans" font-size="11.00">Farms</text>
</g>
<!-- q2d&#45;&gt;D2_q2d -->
<g id="edge17" class="edge">
<title>q2d&#45;&gt;D2_q2d</title>
<path fill="none" stroke="#333333" stroke-width="0.9" d="M311.68,-144.87C321.86,-143.16 333.42,-141.35 344,-140 388.24,-134.36 439.46,-130.02 472.73,-127.5"/>
<polygon fill="#333333" stroke="#333333" stroke-width="0.9" points="311.1,-142.83 305.54,-145.91 311.81,-146.97 311.1,-142.83"/>
<text text-anchor="middle" x="385" y="-142.2" font-family="Liberation Sans" font-size="8.50">farm ceiling</text>
</g>
<!-- D4_q2d -->
<g id="node19" class="node">
<title>D4_q2d</title>
<polyline fill="none" stroke="black" points="470,-97 470,-77 "/>
<polyline fill="none" stroke="black" points="503,-97 473,-97 473,-77 503,-77 "/>
<text text-anchor="start" x="480.5" y="-85.2" font-family="Liberation Sans" font-weight="bold" font-size="11.00">D4</text>
<polyline fill="none" stroke="black" points="503,-77 548,-77 "/>
<polyline fill="none" stroke="black" points="548,-97 503,-97 "/>
<text text-anchor="start" x="507" y="-84.2" font-family="Liberation Sans" font-size="11.00">Listings</text>
</g>
<!-- q2d&#45;&gt;D4_q2d -->
<g id="edge18" class="edge">
<title>q2d&#45;&gt;D4_q2d</title>
<path fill="none" stroke="#333333" stroke-width="0.9" d="M305.73,-136.01C316.91,-129.68 330.79,-122.6 344,-118 383.29,-104.32 430.09,-96.24 463.62,-91.77"/>
<polygon fill="#333333" stroke="#333333" stroke-width="0.9" points="464.04,-93.84 469.72,-90.98 463.5,-89.67 464.04,-93.84"/>
<text text-anchor="middle" x="385" y="-120.2" font-family="Liberation Sans" font-size="8.50">tawad rules</text>
</g>
<!-- q2e -->
<g id="node21" class="node">
<title>q2e</title>
<path fill="#f4f4f4" stroke="transparent" d="M267.5,-32.5C267.5,-32.5 296.5,-32.5 296.5,-32.5 302.5,-32.5 308.5,-38.5 308.5,-44.5 308.5,-44.5 308.5,-71.5 308.5,-71.5 308.5,-77.5 302.5,-83.5 296.5,-83.5 296.5,-83.5 267.5,-83.5 267.5,-83.5 261.5,-83.5 255.5,-77.5 255.5,-71.5 255.5,-71.5 255.5,-44.5 255.5,-44.5 255.5,-38.5 261.5,-32.5 267.5,-32.5"/>
<text text-anchor="start" x="275.5" y="-71" font-family="Liberation Sans" font-size="10.00">2.5</text>
<text text-anchor="start" x="262" y="-52" font-family="Liberation Sans" font-size="10.00">Moderate</text>
<text text-anchor="start" x="265.5" y="-41" font-family="Liberation Sans" font-size="10.00">Listings</text>
<polygon fill="black" stroke="black" points="256,-65 256,-65 309,-65 309,-65 256,-65"/>
<path fill="none" stroke="black" d="M267.5,-32.5C267.5,-32.5 296.5,-32.5 296.5,-32.5 302.5,-32.5 308.5,-38.5 308.5,-44.5 308.5,-44.5 308.5,-71.5 308.5,-71.5 308.5,-77.5 302.5,-83.5 296.5,-83.5 296.5,-83.5 267.5,-83.5 267.5,-83.5 261.5,-83.5 255.5,-77.5 255.5,-71.5 255.5,-71.5 255.5,-44.5 255.5,-44.5 255.5,-38.5 261.5,-32.5 267.5,-32.5"/>
</g>
<!-- q2d&#45;&gt;q2e -->
<!-- fs_q2d -->
<!-- gsdup -->
<g id="node20" class="node">
<title>fs_q2d</title>
<polygon fill="#e8e6e0" stroke="black" stroke-width="1.2" points="97,-162.5 0,-162.5 0,-129.5 97,-129.5 97,-162.5"/>
<text text-anchor="middle" x="48.5" y="-143.2" font-family="Liberation Sans" font-size="11.00">Farmer&#45;Seller</text>
</g>
<!-- fs_q2d&#45;&gt;q2d -->
<g id="edge15" class="edge">
<title>fs_q2d&#45;&gt;q2d</title>
<path fill="none" stroke="#333333" stroke-width="0.9" d="M97.19,-146.82C143.73,-147.63 213.05,-148.83 251.9,-149.5"/>
<polygon fill="#333333" stroke="#333333" stroke-width="0.9" points="252.29,-151.6 258.33,-149.61 252.37,-147.4 252.29,-151.6"/>
<text text-anchor="middle" x="175" y="-159.2" font-family="Liberation Sans" font-size="8.50">flat or quantity</text>
<text text-anchor="middle" x="175" y="-150.2" font-family="Liberation Sans" font-size="8.50">tawad rules</text>
</g>
<!-- fs_q2d&#45;&gt;q2d -->
<g id="edge19" class="edge">
<title>fs_q2d&#45;&gt;q2d</title>
<path fill="none" stroke="#333333" stroke-width="0.9" d="M103.21,-136.78C136.86,-132.35 181.07,-128.98 220,-134 232.92,-135.67 247.01,-139.24 258.39,-142.59"/>
<polygon fill="#333333" stroke="#333333" stroke-width="0.9" points="102.71,-134.73 97.05,-137.62 103.28,-138.89 102.71,-134.73"/>
<text text-anchor="middle" x="175" y="-136.2" font-family="Liberation Sans" font-size="8.50">rejections</text>
</g>
<!-- D4_q2e -->
<g id="node23" class="node">
<title>D4_q2e</title>
<polyline fill="none" stroke="black" points="470,-59 470,-39 "/>
<polyline fill="none" stroke="black" points="503,-59 473,-59 473,-39 503,-39 "/>
<text text-anchor="start" x="480.5" y="-47.2" font-family="Liberation Sans" font-weight="bold" font-size="11.00">D4</text>
<polyline fill="none" stroke="black" points="503,-39 548,-39 "/>
<polyline fill="none" stroke="black" points="548,-59 503,-59 "/>
<text text-anchor="start" x="507" y="-46.2" font-family="Liberation Sans" font-size="11.00">Listings</text>
</g>
<!-- q2e&#45;&gt;D4_q2e -->
<g id="edge21" class="edge">
<title>q2e&#45;&gt;D4_q2e</title>
<path fill="none" stroke="#333333" stroke-width="0.9" d="M308.81,-56.97C346.59,-55.46 417.47,-52.62 463.69,-50.77"/>
<polygon fill="#333333" stroke="#333333" stroke-width="0.9" points="463.85,-52.87 469.76,-50.53 463.68,-48.67 463.85,-52.87"/>
<text text-anchor="middle" x="385" y="-58.2" font-family="Liberation Sans" font-size="8.50">listing status</text>
</g>
<!-- D8_q2e -->
<g id="node24" class="node">
<title>D8_q2e</title>
<polyline fill="none" stroke="black" points="459,-20 459,0 "/>
<polyline fill="none" stroke="black" points="492,-20 462,-20 462,0 492,0 "/>
<text text-anchor="start" x="469.5" y="-8.2" font-family="Liberation Sans" font-weight="bold" font-size="11.00">D8</text>
<polyline fill="none" stroke="black" points="492,0 559,0 "/>
<polyline fill="none" stroke="black" points="559,-20 492,-20 "/>
<text text-anchor="start" x="496" y="-7.2" font-family="Liberation Sans" font-size="11.00">Notifications</text>
</g>
<!-- q2e&#45;&gt;D8_q2e -->
<g id="edge22" class="edge">
<title>q2e&#45;&gt;D8_q2e</title>
<path fill="none" stroke="#333333" stroke-width="0.9" d="M308.51,-44.73C319.21,-39.69 331.95,-34.36 344,-31 379.38,-21.13 420.37,-15.88 452.52,-13.1"/>
<polygon fill="#333333" stroke="#333333" stroke-width="0.9" points="453.02,-15.16 458.83,-12.57 452.67,-10.98 453.02,-15.16"/>
<text text-anchor="middle" x="385" y="-42.2" font-family="Liberation Sans" font-size="8.50">takedown and</text>
<text text-anchor="middle" x="385" y="-33.2" font-family="Liberation Sans" font-size="8.50">restore notices</text>
</g>
<!-- sa_q2e -->
<!-- gsdup -->
<g id="node22" class="node">
<title>sa_q2e</title>
<polygon fill="#e1e6ed" stroke="black" stroke-width="1.2" points="97,-74.5 0,-74.5 0,-41.5 97,-41.5 97,-74.5"/>
<text text-anchor="middle" x="48.5" y="-55.2" font-family="Liberation Sans" font-size="11.00">Super Admin</text>
</g>
<!-- sa_q2e&#45;&gt;q2e -->
<g id="edge20" class="edge">
<title>sa_q2e&#45;&gt;q2e</title>
<path fill="none" stroke="#333333" stroke-width="0.9" d="M97.19,-58C142.67,-58 209.89,-58 249.19,-58"/>
<polygon fill="#333333" stroke="#333333" stroke-width="0.9" points="249.25,-60.1 255.25,-58 249.25,-55.9 249.25,-60.1"/>
<text text-anchor="middle" x="175" y="-60.2" font-family="Liberation Sans" font-size="8.50">takedown, restore</text>
</g>
</g>
</svg>
