<?xml version="1.0" encoding="UTF-8" standalone="no"?>
<!DOCTYPE svg PUBLIC "-//W3C//DTD SVG 1.1//EN"
 "http://www.w3.org/Graphics/SVG/1.1/DTD/svg11.dtd">
<!-- Generated by graphviz version 2.43.0 (0)
 -->
<!-- Title: G Pages: 1 -->
<svg width="639pt" height="378pt"
 viewBox="0.00 0.00 639.00 378.22" xmlns="http://www.w3.org/2000/svg" xmlns:xlink="http://www.w3.org/1999/xlink">
<g id="graph0" class="graph" transform="scale(1 1) rotate(0) translate(18 360.22)"><line x1="86.00" y1="-304.72" x2="97.00" y2="-315.72" stroke="black" stroke-width="1.2"/><line x1="86.00" y1="-238.72" x2="97.00" y2="-249.72" stroke="black" stroke-width="1.2"/><line x1="86.00" y1="-81.72" x2="97.00" y2="-92.72" stroke="black" stroke-width="1.2"/><line x1="86.00" y1="-1.72" x2="97.00" y2="-12.72" stroke="black" stroke-width="1.2"/>
<title>G</title>
<polygon fill="white" stroke="transparent" points="-18,18 -18,-360.22 621,-360.22 621,18 -18,18"/>
<!-- q5a -->
<g id="node1" class="node">
<title>q5a</title>
<path fill="#f4f4f4" stroke="transparent" d="M283.5,-191.22C283.5,-191.22 315.5,-191.22 315.5,-191.22 321.5,-191.22 327.5,-197.22 327.5,-203.22 327.5,-203.22 327.5,-241.22 327.5,-241.22 327.5,-247.22 321.5,-253.22 315.5,-253.22 315.5,-253.22 283.5,-253.22 283.5,-253.22 277.5,-253.22 271.5,-247.22 271.5,-241.22 271.5,-241.22 271.5,-203.22 271.5,-203.22 271.5,-197.22 277.5,-191.22 283.5,-191.22"/>
<text text-anchor="start" x="292.5" y="-241.22" font-family="Liberation Sans" font-size="10.00">5.1</text>
<text text-anchor="start" x="277.5" y="-222.22" font-family="Liberation Sans" font-size="10.00">Exchange</text>
<text text-anchor="start" x="287" y="-211.22" font-family="Liberation Sans" font-size="10.00">Order</text>
<text text-anchor="start" x="288.5" y="-200.22" font-family="Liberation Sans" font-size="10.00">Chat</text>
<polygon fill="black" stroke="black" points="271.5,-235.22 271.5,-235.22 327.5,-235.22 327.5,-235.22 271.5,-235.22"/>
<path fill="none" stroke="black" d="M283.5,-191.22C283.5,-191.22 315.5,-191.22 315.5,-191.22 321.5,-191.22 327.5,-197.22 327.5,-203.22 327.5,-203.22 327.5,-241.22 327.5,-241.22 327.5,-247.22 321.5,-253.22 315.5,-253.22 315.5,-253.22 283.5,-253.22 283.5,-253.22 277.5,-253.22 271.5,-247.22 271.5,-241.22 271.5,-241.22 271.5,-203.22 271.5,-203.22 271.5,-197.22 277.5,-191.22 283.5,-191.22"/>
</g>
<!-- D6_q5a -->
<g id="node4" class="node">
<title>D6_q5a</title>
<polyline fill="none" stroke="black" points="538,-276.22 508,-276.22 508,-256.22 538,-256.22 "/>
<text text-anchor="start" x="515.5" y="-264.42" font-family="Liberation Sans" font-weight="bold" font-size="11.00">D6</text>
<polyline fill="none" stroke="black" points="538,-256.22 580,-256.22 "/>
<polyline fill="none" stroke="black" points="580,-276.22 538,-276.22 "/>
<text text-anchor="start" x="542" y="-263.42" font-family="Liberation Sans" font-size="11.00">Orders</text>
</g>
<!-- q5a&#45;&gt;D6_q5a -->
<g id="edge3" class="edge">
<title>q5a&#45;&gt;D6_q5a</title>
<path fill="none" stroke="#333333" stroke-width="0.9" d="M333.78,-228.25C379.49,-236.55 461.32,-251.4 507.94,-259.86"/>
<polygon fill="#333333" stroke="#333333" stroke-width="0.9" points="334.12,-226.18 327.85,-227.18 333.38,-230.32 334.12,-226.18"/>
<text text-anchor="middle" x="409" y="-256.42" font-family="Liberation Sans" font-size="8.50">order parties,</text>
<text text-anchor="middle" x="409" y="-247.42" font-family="Liberation Sans" font-size="8.50">status</text>
</g>
<!-- D7_q5a -->
<g id="node5" class="node">
<title>D7_q5a</title>
<polyline fill="none" stroke="black" points="515,-194.22 485,-194.22 485,-174.22 515,-174.22 "/>
<text text-anchor="start" x="492.5" y="-182.42" font-family="Liberation Sans" font-weight="bold" font-size="11.00">D7</text>
<polyline fill="none" stroke="black" points="515,-174.22 603,-174.22 "/>
<polyline fill="none" stroke="black" points="603,-194.22 515,-194.22 "/>
<text text-anchor="start" x="519" y="-181.42" font-family="Liberation Sans" font-size="11.00">Order Messages</text>
</g>
<!-- q5a&#45;&gt;D7_q5a -->
<g id="edge4" class="edge">
<title>q5a&#45;&gt;D7_q5a</title>
<path fill="none" stroke="#333333" stroke-width="0.9" d="M327.85,-217.93C364.2,-212.24 429.55,-201.99 478.73,-194.29"/>
<polygon fill="#333333" stroke="#333333" stroke-width="0.9" points="479.34,-196.32 484.95,-193.31 478.69,-192.17 479.34,-196.32"/>
<text text-anchor="middle" x="409" y="-210.42" font-family="Liberation Sans" font-size="8.50">message</text>
</g>
<!-- q5a&#45;&gt;D7_q5a -->
<g id="edge5" class="edge">
<title>q5a&#45;&gt;D7_q5a</title>
<path fill="none" stroke="#333333" stroke-width="0.9" d="M333.11,-204.03C348.13,-196.65 366.47,-188.99 384,-185.22 416.93,-178.14 454.58,-177.58 484.98,-178.94"/>
<polygon fill="#333333" stroke="#333333" stroke-width="0.9" points="332.16,-202.15 327.74,-206.72 334.05,-205.91 332.16,-202.15"/>
<text text-anchor="middle" x="409" y="-187.42" font-family="Liberation Sans" font-size="8.50">thread</text>
</g>
<!-- q5b -->
<g id="node7" class="node">
<title>q5b</title>
<path fill="#f4f4f4" stroke="transparent" d="M278,-80.72C278,-80.72 321,-80.72 321,-80.72 327,-80.72 333,-86.72 333,-92.72 333,-92.72 333,-119.72 333,-119.72 333,-125.72 327,-131.72 321,-131.72 321,-131.72 278,-131.72 278,-131.72 272,-131.72 266,-125.72 266,-119.72 266,-119.72 266,-92.72 266,-92.72 266,-86.72 272,-80.72 278,-80.72"/>
<text text-anchor="start" x="293" y="-119.22" font-family="Liberation Sans" font-size="10.00">5.2</text>
<text text-anchor="start" x="284.5" y="-100.22" font-family="Liberation Sans" font-size="10.00">Deliver</text>
<text text-anchor="start" x="272.5" y="-89.22" font-family="Liberation Sans" font-size="10.00">Notifications</text>
<polygon fill="black" stroke="black" points="266.5,-113.22 266.5,-113.22 333.5,-113.22 333.5,-113.22 266.5,-113.22"/>
<path fill="none" stroke="black" d="M278,-80.72C278,-80.72 321,-80.72 321,-80.72 327,-80.72 333,-86.72 333,-92.72 333,-92.72 333,-119.72 333,-119.72 333,-125.72 327,-131.72 321,-131.72 321,-131.72 278,-131.72 278,-131.72 272,-131.72 266,-125.72 266,-119.72 266,-119.72 266,-92.72 266,-92.72 266,-86.72 272,-80.72 278,-80.72"/>
</g>
<!-- q5a&#45;&gt;q5b -->
<g id="edge9" class="edge">
<title>q5a&#45;&gt;q5b</title>
<path fill="none" stroke="#333333" stroke-width="0.9" d="M299.5,-191.18C299.5,-174.84 299.5,-154.83 299.5,-138.33"/>
<polygon fill="#333333" stroke="#333333" stroke-width="0.9" points="301.6,-137.96 299.5,-131.96 297.4,-137.96 301.6,-137.96"/>
<text text-anchor="middle" x="292" y="-159.17" font-family="Liberation Sans" font-size="8.50">new message</text>
</g>
<!-- q5a&#45;&gt;q5b -->
<!-- by_q5a -->
<!-- gsdup -->
<g id="node2" class="node">
<title>by_q5a</title>
<polygon fill="#e8e6e0" stroke="black" stroke-width="1.2" points="97,-337.72 0,-337.72 0,-304.72 97,-304.72 97,-337.72"/>
<text text-anchor="middle" x="48.5" y="-318.42" font-family="Liberation Sans" font-size="11.00">Buyer</text>
</g>
<!-- by_q5a&#45;&gt;q5a -->
<g id="edge1" class="edge">
<title>by_q5a&#45;&gt;q5a</title>
<path fill="none" stroke="#333333" stroke-width="0.9" d="M97.09,-331.09C131.46,-335.87 178.14,-337.37 215,-320.22 242.39,-307.47 264.14,-280.86 278.56,-258.59"/>
<polygon fill="#333333" stroke="#333333" stroke-width="0.9" points="280.46,-259.52 281.89,-253.32 276.91,-257.27 280.46,-259.52"/>
<text text-anchor="middle" x="181.5" y="-335.42" font-family="Liberation Sans" font-size="8.50">message</text>
</g>
<!-- by_q5a&#45;&gt;q5a -->
<g id="edge6" class="edge">
<title>by_q5a&#45;&gt;q5a</title>
<path fill="none" stroke="#333333" stroke-width="0.9" d="M98.79,-302.57C131.78,-289.99 176.1,-272.89 215,-257.22 233.81,-249.64 254.86,-240.81 271.13,-233.92"/>
<polygon fill="#333333" stroke="#333333" stroke-width="0.9" points="98.05,-300.6 93.19,-304.7 99.54,-304.53 98.05,-300.6"/>
<text text-anchor="middle" x="181.5" y="-284.42" font-family="Liberation Sans" font-size="8.50">live messages</text>
</g>
<!-- fs_q5a -->
<!-- gsdup -->
<g id="node3" class="node">
<title>fs_q5a</title>
<polygon fill="#e8e6e0" stroke="black" stroke-width="1.2" points="97,-271.72 0,-271.72 0,-238.72 97,-238.72 97,-271.72"/>
<text text-anchor="middle" x="48.5" y="-252.42" font-family="Liberation Sans" font-size="11.00">Farmer&#45;Seller</text>
</g>
<!-- fs_q5a&#45;&gt;q5a -->
<g id="edge2" class="edge">
<title>fs_q5a&#45;&gt;q5a</title>
<path fill="none" stroke="#333333" stroke-width="0.9" d="M97.22,-248.89C146.48,-242.36 222.05,-232.35 265.21,-226.63"/>
<polygon fill="#333333" stroke="#333333" stroke-width="0.9" points="265.67,-228.69 271.34,-225.82 265.12,-224.52 265.67,-228.69"/>
<text text-anchor="middle" x="181.5" y="-243.42" font-family="Liberation Sans" font-size="8.50">message</text>
</g>
<!-- fs_q5a&#45;&gt;q5a -->
<g id="edge7" class="edge">
<title>fs_q5a&#45;&gt;q5a</title>
<path fill="none" stroke="#333333" stroke-width="0.9" d="M96.77,-236.6C112.78,-231.18 130.93,-225.98 148,-223.22 190.69,-216.31 241.08,-217.92 271.38,-219.91"/>
<polygon fill="#333333" stroke="#333333" stroke-width="0.9" points="95.96,-234.66 90.98,-238.61 97.33,-238.63 95.96,-234.66"/>
<text text-anchor="middle" x="181.5" y="-225.42" font-family="Liberation Sans" font-size="8.50">live messages</text>
</g>
<!-- sa_q5a -->
<g id="node6" class="node">
<title>sa_q5a</title>
<polygon fill="#e1e6ed" stroke="black" stroke-width="1.2" points="97,-194.72 0,-194.72 0,-161.72 97,-161.72 97,-194.72"/>
<text text-anchor="middle" x="48.5" y="-175.42" font-family="Liberation Sans" font-size="11.00">Super Admin</text>
</g>
<!-- sa_q5a&#45;&gt;q5a -->
<g id="edge8" class="edge">
<title>sa_q5a&#45;&gt;q5a</title>
<path fill="none" stroke="#333333" stroke-width="0.9" d="M103.08,-184.73C135.58,-188.99 177.82,-195.08 215,-202.22 233.89,-205.84 254.94,-210.89 271.18,-215.01"/>
<polygon fill="#333333" stroke="#333333" stroke-width="0.9" points="103.35,-182.65 97.13,-183.96 102.81,-186.81 103.35,-182.65"/>
<text text-anchor="middle" x="181.5" y="-204.42" font-family="Liberation Sans" font-size="8.50">thread (read only)</text>
</g>
<!-- D8_q5b -->
<g id="node10" class="node">
<title>D8_q5b</title>
<polyline fill="none" stroke="black" points="526,-125.22 496,-125.22 496,-105.22 526,-105.22 "/>
<text text-anchor="start" x="503.5" y="-113.42" font-family="Liberation Sans" font-weight="bold" font-size="11.00">D8</text>
<polyline fill="none" stroke="black" points="526,-105.22 593,-105.22 "/>
<polyline fill="none" stroke="black" points="593,-125.22 526,-125.22 "/>
<text text-anchor="start" x="530" y="-112.42" font-family="Liberation Sans" font-size="11.00">Notifications</text>
</g>
<!-- q5b&#45;&gt;D8_q5b -->
<g id="edge10" class="edge">
<title>q5b&#45;&gt;D8_q5b</title>
<path fill="none" stroke="#333333" stroke-width="0.9" d="M339.27,-107.66C381.71,-109.23 449.77,-111.76 495.41,-113.45"/>
<polygon fill="#333333" stroke="#333333" stroke-width="0.9" points="339.28,-105.55 333.2,-107.43 339.12,-109.75 339.28,-105.55"/>
<text text-anchor="middle" x="409" y="-112.42" font-family="Liberation Sans" font-size="8.50">notifications</text>
</g>
<!-- q5b&#45;&gt;D8_q5b -->
<g id="edge13" class="edge">
<title>q5b&#45;&gt;D8_q5b</title>
<path fill="none" stroke="#333333" stroke-width="0.9" d="M333.28,-99.91C348.62,-97.27 367.18,-94.52 384,-93.22 406.16,-91.5 411.89,-91.01 434,-93.22 454.98,-95.31 477.89,-99.62 497.27,-103.88"/>
<polygon fill="#333333" stroke="#333333" stroke-width="0.9" points="496.86,-105.94 503.17,-105.19 497.77,-101.84 496.86,-105.94"/>
<text text-anchor="middle" x="409" y="-95.42" font-family="Liberation Sans" font-size="8.50">read status</text>
</g>
<!-- by_q5b -->
<!-- gsdup -->
<g id="node8" class="node">
<title>by_q5b</title>
<polygon fill="#e8e6e0" stroke="black" stroke-width="1.2" points="97,-114.72 0,-114.72 0,-81.72 97,-81.72 97,-114.72"/>
<text text-anchor="middle" x="48.5" y="-95.42" font-family="Liberation Sans" font-size="11.00">Buyer</text>
</g>
<!-- by_q5b&#45;&gt;q5b -->
<g id="edge11" class="edge">
<title>by_q5b&#45;&gt;q5b</title>
<path fill="none" stroke="#333333" stroke-width="0.9" d="M97.22,-99.75C144.42,-101.27 215.79,-103.56 259.64,-104.97"/>
<polygon fill="#333333" stroke="#333333" stroke-width="0.9" points="259.58,-107.07 265.64,-105.16 259.71,-102.87 259.58,-107.07"/>
<text text-anchor="middle" x="181.5" y="-105.42" font-family="Liberation Sans" font-size="8.50">read marks</text>
</g>
<!-- by_q5b&#45;&gt;q5b -->
<g id="edge14" class="edge">
<title>by_q5b&#45;&gt;q5b</title>
<path fill="none" stroke="#333333" stroke-width="0.9" d="M103.04,-82.84C135.53,-75.56 177.77,-69.73 215,-76.22 232.3,-79.23 250.75,-85.51 265.9,-91.55"/>
<polygon fill="#333333" stroke="#333333" stroke-width="0.9" points="102.47,-80.82 97.1,-84.21 103.41,-84.91 102.47,-80.82"/>
<text text-anchor="middle" x="181.5" y="-87.42" font-family="Liberation Sans" font-size="8.50">notifications,</text>
<text text-anchor="middle" x="181.5" y="-78.42" font-family="Liberation Sans" font-size="8.50">unread count</text>
</g>
<!-- fs_q5b -->
<!-- gsdup -->
<g id="node9" class="node">
<title>fs_q5b</title>
<polygon fill="#e8e6e0" stroke="black" stroke-width="1.2" points="97,-34.72 0,-34.72 0,-1.72 97,-1.72 97,-34.72"/>
<text text-anchor="middle" x="48.5" y="-15.42" font-family="Liberation Sans" font-size="11.00">Farmer&#45;Seller</text>
</g>
<!-- fs_q5b&#45;&gt;q5b -->
<g id="edge12" class="edge">
<title>fs_q5b&#45;&gt;q5b</title>
<path fill="none" stroke="#333333" stroke-width="0.9" d="M97.02,-25.52C130.74,-31.62 176.64,-41.85 215,-57.22 230.56,-63.45 246.68,-72.27 260.55,-80.71"/>
<polygon fill="#333333" stroke="#333333" stroke-width="0.9" points="259.74,-82.68 265.95,-84.04 261.95,-79.1 259.74,-82.68"/>
<text text-anchor="middle" x="181.5" y="-59.42" font-family="Liberation Sans" font-size="8.50">read marks</text>
</g>
<!-- fs_q5b&#45;&gt;q5b -->
<g id="edge15" class="edge">
<title>fs_q5b&#45;&gt;q5b</title>
<path fill="none" stroke="#333333" stroke-width="0.9" d="M103.45,-4.51C136.98,1.23 180.19,3.42 215,-12.22 245.86,-26.08 269.96,-57.62 284.18,-80.34"/>
<polygon fill="#333333" stroke="#333333" stroke-width="0.9" points="102.83,-2.48 97.3,-5.61 103.58,-6.62 102.83,-2.48"/>
<text text-anchor="middle" x="181.5" y="-23.42" font-family="Liberation Sans" font-size="8.50">notifications,</text>
<text text-anchor="middle" x="181.5" y="-14.42" font-family="Liberation Sans" font-size="8.50">unread count</text>
</g>
</g>
</svg>
