<?xml version="1.0" encoding="UTF-8" standalone="no"?>
<!DOCTYPE svg PUBLIC "-//W3C//DTD SVG 1.1//EN"
 "http://www.w3.org/Graphics/SVG/1.1/DTD/svg11.dtd">
<!-- Generated by graphviz version 2.43.0 (0)
 -->
<!-- Title: G Pages: 1 -->
<svg width="728pt" height="965pt"
 viewBox="0.00 0.00 728.00 965.07" xmlns="http://www.w3.org/2000/svg" xmlns:xlink="http://www.w3.org/1999/xlink">
<g id="graph0" class="graph" transform="scale(1 1) rotate(0) translate(18 947.07)">
<title>G</title>
<polygon fill="white" stroke="transparent" points="-18,18 -18,-947.07 710,-947.07 710,18 -18,18"/>
<!-- p1 -->
<g id="node1" class="node">
<title>p1</title>
<ellipse fill="#f4f4f4" stroke="black" stroke-width="1.4" cx="317.5" cy="-732.07" rx="48.5" ry="48.5"/>
<text text-anchor="middle" x="317.5" y="-753.67" font-family="Liberation Sans" font-size="10.50">1.0</text>
<text text-anchor="middle" x="317.5" y="-729.67" font-family="Liberation Sans" font-size="10.50">Manage</text>
<text text-anchor="middle" x="317.5" y="-717.67" font-family="Liberation Sans" font-size="10.50">Accounts and</text>
<text text-anchor="middle" x="317.5" y="-705.67" font-family="Liberation Sans" font-size="10.50">Access</text>
</g>
<!-- D1_p1 -->
<g id="node7" class="node">
<title>D1_p1</title>
<polyline fill="none" stroke="black" points="573.5,-901.07 543.5,-901.07 543.5,-881.07 573.5,-881.07 "/>
<text text-anchor="start" x="551" y="-889.27" font-family="Liberation Sans" font-weight="bold" font-size="11.00">D1</text>
<polyline fill="none" stroke="black" points="573.5,-881.07 666.5,-881.07 "/>
<polyline fill="none" stroke="black" points="666.5,-901.07 573.5,-901.07 "/>
<text text-anchor="start" x="577.5" y="-888.27" font-family="Liberation Sans" font-size="11.00">Users and Roles*</text>
</g>
<!-- p1&#45;&gt;D1_p1 -->
<g id="edge8" class="edge">
<title>p1&#45;&gt;D1_p1</title>
<path fill="none" stroke="#333333" stroke-width="0.9" d="M332.01,-778.57C344.04,-811.07 365.1,-852.39 399,-874.07 437.05,-898.4 487.56,-902.81 528.86,-901.05"/>
<polygon fill="#333333" stroke="#333333" stroke-width="0.9" points="529,-903.15 534.88,-900.75 528.78,-898.95 529,-903.15"/>
<text text-anchor="middle" x="441.5" y="-901.27" font-family="Liberation Sans" font-size="8.50">accounts, roles, status</text>
</g>
<!-- p1&#45;&gt;D1_p1 -->
<g id="edge9" class="edge">
<title>p1&#45;&gt;D1_p1</title>
<path fill="none" stroke="#333333" stroke-width="0.9" d="M343.34,-780.26C356.97,-802.2 375.84,-826.66 399,-842.07 404.85,-845.96 477.67,-862.9 534.76,-875.79"/>
<polygon fill="#333333" stroke="#333333" stroke-width="0.9" points="345.07,-779.07 340.16,-775.03 341.48,-781.25 345.07,-779.07"/>
<text text-anchor="middle" x="441.5" y="-865.27" font-family="Liberation Sans" font-size="8.50">stored accounts</text>
</g>
<!-- D16_p1 -->
<g id="node8" class="node">
<title>D16_p1</title>
<polyline fill="none" stroke="black" points="555.5,-842.07 525.5,-842.07 525.5,-822.07 555.5,-822.07 "/>
<text text-anchor="start" x="530" y="-830.27" font-family="Liberation Sans" font-weight="bold" font-size="11.00">D16</text>
<polyline fill="none" stroke="black" points="555.5,-822.07 684.5,-822.07 "/>
<polyline fill="none" stroke="black" points="684.5,-842.07 555.5,-842.07 "/>
<text text-anchor="start" x="559.5" y="-829.27" font-family="Liberation Sans" font-size="11.00">Codes and Reset Tokens</text>
</g>
<!-- p1&#45;&gt;D16_p1 -->
<g id="edge10" class="edge">
<title>p1&#45;&gt;D16_p1</title>
<path fill="none" stroke="#333333" stroke-width="0.9" d="M347.9,-769.97C361.71,-785.02 379.44,-800.9 399,-810.07 433.31,-826.15 474.31,-832.68 510.56,-834.82"/>
<polygon fill="#333333" stroke="#333333" stroke-width="0.9" points="510.7,-836.93 516.8,-835.14 510.92,-832.73 510.7,-836.93"/>
<text text-anchor="middle" x="441.5" y="-833.27" font-family="Liberation Sans" font-size="8.50">hashed codes, tokens</text>
</g>
<!-- p1&#45;&gt;D16_p1 -->
<g id="edge11" class="edge">
<title>p1&#45;&gt;D16_p1</title>
<path fill="none" stroke="#333333" stroke-width="0.9" d="M364.2,-760.91C375.31,-767.15 387.35,-773.3 399,-778.07 402.29,-779.42 476.33,-798.87 534.38,-814.04"/>
<polygon fill="#333333" stroke="#333333" stroke-width="0.9" points="365.07,-759 358.82,-757.85 362.99,-762.64 365.07,-759"/>
<text text-anchor="middle" x="441.5" y="-801.27" font-family="Liberation Sans" font-size="8.50">code check</text>
</g>
<!-- p2 -->
<g id="node9" class="node">
<title>p2</title>
<ellipse fill="#f4f4f4" stroke="black" stroke-width="1.4" cx="317.5" cy="-599.07" rx="48.5" ry="48.5"/>
<text text-anchor="middle" x="317.5" y="-620.67" font-family="Liberation Sans" font-size="10.50">2.0</text>
<text text-anchor="middle" x="317.5" y="-596.67" font-family="Liberation Sans" font-size="10.50">Manage</text>
<text text-anchor="middle" x="317.5" y="-584.67" font-family="Liberation Sans" font-size="10.50">Catalog and</text>
<text text-anchor="middle" x="317.5" y="-572.67" font-family="Liberation Sans" font-size="10.50">Pricing</text>
</g>
<!-- p1&#45;&gt;p2 -->
<!-- by_p1 -->
<g id="node2" class="node">
<title>by_p1</title>
<polygon fill="#e8e6e0" stroke="black" stroke-width="1.2" points="97,-897.07 0,-897.07 0,-867.07 97,-867.07 97,-897.07"/>
<text text-anchor="middle" x="48.5" y="-879.27" font-family="Liberation Sans" font-size="11.00">Buyer*</text>
</g>
<!-- by_p1&#45;&gt;p1 -->
<g id="edge1" class="edge">
<title>by_p1&#45;&gt;p1</title>
<path fill="none" stroke="#333333" stroke-width="0.9" d="M88.03,-897.15C128.13,-910.17 191.2,-922.91 236,-895.07 274.3,-871.27 294.92,-823.27 305.67,-785.5"/>
<polygon fill="#333333" stroke="#333333" stroke-width="0.9" points="307.74,-785.87 307.31,-779.53 303.69,-784.76 307.74,-785.87"/>
<text text-anchor="middle" x="183" y="-922.27" font-family="Liberation Sans" font-size="8.50">registration, credentials,</text>
<text text-anchor="middle" x="183" y="-913.27" font-family="Liberation Sans" font-size="8.50">verification code</text>
</g>
<!-- by_p1&#45;&gt;p1 -->
<g id="edge4" class="edge">
<title>by_p1&#45;&gt;p1</title>
<path fill="none" stroke="#333333" stroke-width="0.9" d="M103.4,-876.24C154.45,-870.35 224.93,-861.14 236,-854.07 264.45,-835.91 285.06,-803.69 298.31,-776.92"/>
<polygon fill="#333333" stroke="#333333" stroke-width="0.9" points="103,-874.17 97.27,-876.94 103.47,-878.34 103,-874.17"/>
<text text-anchor="middle" x="183" y="-883.27" font-family="Liberation Sans" font-size="8.50">access token,</text>
<text text-anchor="middle" x="183" y="-874.27" font-family="Liberation Sans" font-size="8.50">verification status</text>
</g>
<!-- fs_p1 -->
<g id="node3" class="node">
<title>fs_p1</title>
<polygon fill="#e8e6e0" stroke="black" stroke-width="1.2" points="97,-844.07 0,-844.07 0,-814.07 97,-814.07 97,-844.07"/>
<text text-anchor="middle" x="48.5" y="-826.27" font-family="Liberation Sans" font-size="11.00">Farmer&#45;Seller*</text>
</g>
<!-- fs_p1&#45;&gt;p1 -->
<g id="edge2" class="edge">
<title>fs_p1&#45;&gt;p1</title>
<path fill="none" stroke="#333333" stroke-width="0.9" d="M97.02,-833.76C136.15,-835.62 192.13,-833.56 236,-813.07 254.39,-804.48 270.95,-789.8 284.2,-775.27"/>
<polygon fill="#333333" stroke="#333333" stroke-width="0.9" points="285.78,-776.66 288.21,-770.78 282.65,-773.86 285.78,-776.66"/>
<text text-anchor="middle" x="183" y="-845.27" font-family="Liberation Sans" font-size="8.50">credentials, password</text>
<text text-anchor="middle" x="183" y="-836.27" font-family="Liberation Sans" font-size="8.50">changes</text>
</g>
<!-- fs_p1&#45;&gt;p1 -->
<g id="edge5" class="edge">
<title>fs_p1&#45;&gt;p1</title>
<path fill="none" stroke="#333333" stroke-width="0.9" d="M101.52,-812.19C110.96,-809.33 120.74,-806.51 130,-804.07 176.62,-791.8 191.24,-798.96 236,-781.07 250.13,-775.42 264.62,-767.41 277.34,-759.5"/>
<polygon fill="#333333" stroke="#333333" stroke-width="0.9" points="100.82,-810.2 95.7,-813.96 102.05,-814.22 100.82,-810.2"/>
<text text-anchor="middle" x="183" y="-806.27" font-family="Liberation Sans" font-size="8.50">access token</text>
</g>
<!-- sa_p1 -->
<g id="node4" class="node">
<title>sa_p1</title>
<polygon fill="#e1e6ed" stroke="black" stroke-width="1.2" points="97,-784.07 0,-784.07 0,-754.07 97,-754.07 97,-784.07"/>
<text text-anchor="middle" x="48.5" y="-766.27" font-family="Liberation Sans" font-size="11.00">Super Admin*</text>
</g>
<!-- sa_p1&#45;&gt;p1 -->
<g id="edge3" class="edge">
<title>sa_p1&#45;&gt;p1</title>
<path fill="none" stroke="#333333" stroke-width="0.9" d="M97.09,-759.66C107.88,-757.67 119.32,-755.69 130,-754.07 174.49,-747.31 225.21,-741.44 262.52,-737.47"/>
<polygon fill="#333333" stroke="#333333" stroke-width="0.9" points="263.11,-739.52 268.86,-736.8 262.67,-735.35 263.11,-739.52"/>
<text text-anchor="middle" x="183" y="-774.27" font-family="Liberation Sans" font-size="8.50">farmer&#45;seller and editor</text>
<text text-anchor="middle" x="183" y="-765.27" font-family="Liberation Sans" font-size="8.50">accounts, approvals,</text>
<text text-anchor="middle" x="183" y="-756.27" font-family="Liberation Sans" font-size="8.50">suspensions</text>
</g>
<!-- ce_p1 -->
<g id="node5" class="node">
<title>ce_p1</title>
<polygon fill="#e1e6ed" stroke="black" stroke-width="1.2" points="97,-736.07 0,-736.07 0,-706.07 97,-706.07 97,-736.07"/>
<text text-anchor="middle" x="48.5" y="-718.27" font-family="Liberation Sans" font-size="11.00">Content Editor*</text>
</g>
<!-- ce_p1&#45;&gt;p1 -->
<g id="edge6" class="edge">
<title>ce_p1&#45;&gt;p1</title>
<path fill="none" stroke="#333333" stroke-width="0.9" d="M103.41,-719.68C140.69,-719.13 191.4,-719.19 236,-722.07 246.82,-722.77 258.42,-723.95 269.34,-725.26"/>
<polygon fill="#333333" stroke="#333333" stroke-width="0.9" points="103.05,-717.58 97.08,-719.78 103.11,-721.78 103.05,-717.58"/>
<text text-anchor="middle" x="183" y="-724.27" font-family="Liberation Sans" font-size="8.50">farm roster</text>
</g>
<!-- em_p1 -->
<g id="node6" class="node">
<title>em_p1</title>
<polygon fill="#f2f2f2" stroke="black" stroke-width="1.2" points="97,-688.07 0,-688.07 0,-658.07 97,-658.07 97,-688.07"/>
<text text-anchor="middle" x="48.5" y="-670.27" font-family="Liberation Sans" font-size="11.00">Email Service*</text>
</g>
<!-- em_p1&#45;&gt;p1 -->
<g id="edge7" class="edge">
<title>em_p1&#45;&gt;p1</title>
<path fill="none" stroke="#333333" stroke-width="0.9" d="M103.76,-676C141.41,-679.01 192.42,-685.05 236,-697.07 248.63,-700.55 261.86,-705.65 273.87,-710.87"/>
<polygon fill="#333333" stroke="#333333" stroke-width="0.9" points="103.51,-673.88 97.37,-675.51 103.19,-678.06 103.51,-673.88"/>
<text text-anchor="middle" x="183" y="-708.27" font-family="Liberation Sans" font-size="8.50">verification codes,</text>
<text text-anchor="middle" x="183" y="-699.27" font-family="Liberation Sans" font-size="8.50">password reset links</text>
</g>
<!-- D3_p2 -->
<g id="node13" class="node">
<title>D3_p2</title>
<polyline fill="none" stroke="black" points="587.5,-788.07 557.5,-788.07 557.5,-768.07 587.5,-768.07 "/>
<text text-anchor="start" x="565" y="-776.27" font-family="Liberation Sans" font-weight="bold" font-size="11.00">D3</text>
<polyline fill="none" stroke="black" points="587.5,-768.07 651.5,-768.07 "/>
<polyline fill="none" stroke="black" points="651.5,-788.07 587.5,-788.07 "/>
<text text-anchor="start" x="591.5" y="-775.27" font-family="Liberation Sans" font-size="11.00">Crop Types</text>
</g>
<!-- p2&#45;&gt;D3_p2 -->
<g id="edge16" class="edge">
<title>p2&#45;&gt;D3_p2</title>
<path fill="none" stroke="#333333" stroke-width="0.9" d="M344.83,-639.15C351.99,-650.58 359.55,-663.17 366,-675.07 382.59,-705.66 371.2,-725.14 399,-746.07 421.21,-762.79 491.26,-770.99 543.22,-774.86"/>
<polygon fill="#333333" stroke="#333333" stroke-width="0.9" points="543.33,-776.97 549.46,-775.31 543.63,-772.78 543.33,-776.97"/>
<text text-anchor="middle" x="441.5" y="-770.27" font-family="Liberation Sans" font-size="8.50">crop types</text>
</g>
<!-- p2&#45;&gt;D3_p2 -->
<g id="edge17" class="edge">
<title>p2&#45;&gt;D3_p2</title>
<path fill="none" stroke="#333333" stroke-width="0.9" d="M348.25,-644.65C368.15,-674.59 391.95,-709.12 399,-714.07 431.03,-736.56 447.01,-724.29 484,-737.07 499.06,-742.27 502.04,-745.58 517,-751.07 527.34,-754.87 538.49,-758.6 549.24,-762.03"/>
<polygon fill="#333333" stroke="#333333" stroke-width="0.9" points="349.9,-643.34 344.83,-639.5 346.4,-645.66 349.9,-643.34"/>
<text text-anchor="middle" x="441.5" y="-739.27" font-family="Liberation Sans" font-size="8.50">system guards</text>
</g>
<!-- D2_p2 -->
<g id="node14" class="node">
<title>D2_p2</title>
<polyline fill="none" stroke="black" points="597.5,-734.07 567.5,-734.07 567.5,-714.07 597.5,-714.07 "/>
<text text-anchor="start" x="575" y="-722.27" font-family="Liberation Sans" font-weight="bold" font-size="11.00">D2</text>
<polyline fill="none" stroke="black" points="597.5,-714.07 641.5,-714.07 "/>
<polyline fill="none" stroke="black" points="641.5,-734.07 597.5,-734.07 "/>
<text text-anchor="start" x="601.5" y="-721.27" font-family="Liberation Sans" font-size="11.00">Farms*</text>
</g>
<!-- p2&#45;&gt;D2_p2 -->
<g id="edge18" class="edge">
<title>p2&#45;&gt;D2_p2</title>
<path fill="none" stroke="#333333" stroke-width="0.9" d="M347.18,-637.62C361.1,-653.71 379.11,-671.16 399,-682.07 412.41,-689.43 497.1,-705.35 553.2,-715.34"/>
<polygon fill="#333333" stroke="#333333" stroke-width="0.9" points="552.94,-717.43 559.21,-716.41 553.67,-713.29 552.94,-717.43"/>
<text text-anchor="middle" x="441.5" y="-703.27" font-family="Liberation Sans" font-size="8.50">farm overrides</text>
</g>
<!-- p2&#45;&gt;D2_p2 -->
<g id="edge19" class="edge">
<title>p2&#45;&gt;D2_p2</title>
<path fill="none" stroke="#333333" stroke-width="0.9" d="M362.51,-630.28C374.01,-637.5 386.66,-644.64 399,-650.07 434.82,-665.83 448.7,-656.17 484,-673.07 500.36,-680.9 500.8,-688.93 517,-697.07 530.21,-703.71 545.39,-709.11 559.3,-713.29"/>
<polygon fill="#333333" stroke="#333333" stroke-width="0.9" points="363.5,-628.42 357.31,-626.97 361.24,-631.96 363.5,-628.42"/>
<text text-anchor="middle" x="441.5" y="-675.27" font-family="Liberation Sans" font-size="8.50">farm guards</text>
</g>
<!-- D4_p2 -->
<g id="node15" class="node">
<title>D4_p2</title>
<polyline fill="none" stroke="black" points="595.5,-680.07 565.5,-680.07 565.5,-660.07 595.5,-660.07 "/>
<text text-anchor="start" x="573" y="-668.27" font-family="Liberation Sans" font-weight="bold" font-size="11.00">D4</text>
<polyline fill="none" stroke="black" points="595.5,-660.07 644.5,-660.07 "/>
<polyline fill="none" stroke="black" points="644.5,-680.07 595.5,-680.07 "/>
<text text-anchor="start" x="599.5" y="-667.27" font-family="Liberation Sans" font-size="11.00">Listings*</text>
</g>
<!-- p2&#45;&gt;D4_p2 -->
<g id="edge20" class="edge">
<title>p2&#45;&gt;D4_p2</title>
<path fill="none" stroke="#333333" stroke-width="0.9" d="M364.92,-610.64C415.8,-623.31 497.27,-643.61 550.59,-656.89"/>
<polygon fill="#333333" stroke="#333333" stroke-width="0.9" points="550.29,-658.98 556.62,-658.39 551.31,-654.9 550.29,-658.98"/>
<text text-anchor="middle" x="441.5" y="-640.27" font-family="Liberation Sans" font-size="8.50">listings, tawad rules</text>
</g>
<!-- D8_p2 -->
<g id="node16" class="node">
<title>D8_p2</title>
<polyline fill="none" stroke="black" points="583.5,-626.07 553.5,-626.07 553.5,-606.07 583.5,-606.07 "/>
<text text-anchor="start" x="561" y="-614.27" font-family="Liberation Sans" font-weight="bold" font-size="11.00">D8</text>
<polyline fill="none" stroke="black" points="583.5,-606.07 655.5,-606.07 "/>
<polyline fill="none" stroke="black" points="655.5,-626.07 583.5,-626.07 "/>
<text text-anchor="start" x="587.5" y="-613.27" font-family="Liberation Sans" font-size="11.00">Notifications*</text>
</g>
<!-- p2&#45;&gt;D8_p2 -->
<g id="edge21" class="edge">
<title>p2&#45;&gt;D8_p2</title>
<path fill="none" stroke="#333333" stroke-width="0.9" d="M366,-597.76C399.12,-597.24 444.3,-597.3 484,-600.07 502.01,-601.33 521.45,-603.55 539.31,-605.95"/>
<polygon fill="#333333" stroke="#333333" stroke-width="0.9" points="539.07,-608.04 545.3,-606.77 539.64,-603.88 539.07,-608.04"/>
<text text-anchor="middle" x="441.5" y="-611.27" font-family="Liberation Sans" font-size="8.50">guard and takedown</text>
<text text-anchor="middle" x="441.5" y="-602.27" font-family="Liberation Sans" font-size="8.50">notices</text>
</g>
<!-- p3 -->
<g id="node17" class="node">
<title>p3</title>
<ellipse fill="#f4f4f4" stroke="black" stroke-width="1.4" cx="317.5" cy="-418.07" rx="48.5" ry="48.5"/>
<text text-anchor="middle" x="317.5" y="-433.67" font-family="Liberation Sans" font-size="10.50">3.0</text>
<text text-anchor="middle" x="317.5" y="-409.67" font-family="Liberation Sans" font-size="10.50">Browse</text>
<text text-anchor="middle" x="317.5" y="-397.67" font-family="Liberation Sans" font-size="10.50">Marketplace</text>
</g>
<!-- p2&#45;&gt;p3 -->
<!-- fs_p2 -->
<g id="node10" class="node">
<title>fs_p2</title>
<polygon fill="#e8e6e0" stroke="black" stroke-width="1.2" points="97,-634.07 0,-634.07 0,-604.07 97,-604.07 97,-634.07"/>
<text text-anchor="middle" x="48.5" y="-616.27" font-family="Liberation Sans" font-size="11.00">Farmer&#45;Seller*</text>
</g>
<!-- fs_p2&#45;&gt;p2 -->
<g id="edge14" class="edge">
<title>fs_p2&#45;&gt;p2</title>
<path fill="none" stroke="#333333" stroke-width="0.9" d="M97.2,-621.29C134.98,-622.4 189.04,-622.51 236,-617.07 245.22,-616 254.93,-614.32 264.29,-612.41"/>
<polygon fill="#333333" stroke="#333333" stroke-width="0.9" points="264.95,-614.41 270.38,-611.12 264.08,-610.3 264.95,-614.41"/>
<text text-anchor="middle" x="183" y="-632.27" font-family="Liberation Sans" font-size="8.50">listings, photos,</text>
<text text-anchor="middle" x="183" y="-623.27" font-family="Liberation Sans" font-size="8.50">tawad rules</text>
</g>
<!-- fs_p2&#45;&gt;p2 -->
<g id="edge15" class="edge">
<title>fs_p2&#45;&gt;p2</title>
<path fill="none" stroke="#333333" stroke-width="0.9" d="M97.41,-602.32C108.01,-599.31 119.29,-596.63 130,-595.07 176.95,-588.22 231.24,-590.52 269.09,-593.74"/>
<polygon fill="#333333" stroke="#333333" stroke-width="0.9" points="96.76,-600.32 91.6,-604.02 97.94,-604.35 96.76,-600.32"/>
<text text-anchor="middle" x="183" y="-606.27" font-family="Liberation Sans" font-size="8.50">effective floor,</text>
<text text-anchor="middle" x="183" y="-597.27" font-family="Liberation Sans" font-size="8.50">rejections</text>
</g>
<!-- sa_p2 -->
<g id="node11" class="node">
<title>sa_p2</title>
<polygon fill="#e1e6ed" stroke="black" stroke-width="1.2" points="97,-582.07 0,-582.07 0,-552.07 97,-552.07 97,-582.07"/>
<text text-anchor="middle" x="48.5" y="-564.27" font-family="Liberation Sans" font-size="11.00">Super Admin*</text>
</g>
<!-- sa_p2&#45;&gt;p2 -->
<g id="edge12" class="edge">
<title>sa_p2&#45;&gt;p2</title>
<path fill="none" stroke="#333333" stroke-width="0.9" d="M97.09,-562.64C135.05,-560.22 189.39,-559.28 236,-568.07 246.33,-570.02 257.06,-573.23 267.17,-576.87"/>
<polygon fill="#333333" stroke="#333333" stroke-width="0.9" points="266.7,-578.93 273.05,-579.05 268.16,-574.99 266.7,-578.93"/>
<text text-anchor="middle" x="183" y="-579.27" font-family="Liberation Sans" font-size="8.50">crop types, system price</text>
<text text-anchor="middle" x="183" y="-570.27" font-family="Liberation Sans" font-size="8.50">guards, takedowns, restores</text>
</g>
<!-- ce_p2 -->
<g id="node12" class="node">
<title>ce_p2</title>
<polygon fill="#e1e6ed" stroke="black" stroke-width="1.2" points="97,-534.07 0,-534.07 0,-504.07 97,-504.07 97,-534.07"/>
<text text-anchor="middle" x="48.5" y="-516.27" font-family="Liberation Sans" font-size="11.00">Content Editor*</text>
</g>
<!-- ce_p2&#45;&gt;p2 -->
<g id="edge13" class="edge">
<title>ce_p2&#45;&gt;p2</title>
<path fill="none" stroke="#333333" stroke-width="0.9" d="M97.26,-520.7C135.79,-523.31 190.82,-530 236,-547.07 248.82,-551.91 261.73,-559.03 273.34,-566.44"/>
<polygon fill="#333333" stroke="#333333" stroke-width="0.9" points="272.4,-568.34 278.57,-569.87 274.7,-564.83 272.4,-568.34"/>
<text text-anchor="middle" x="183" y="-549.27" font-family="Liberation Sans" font-size="8.50">farm price guards</text>
</g>
<!-- D1_p3 -->
<g id="node20" class="node">
<title>D1_p3</title>
<polyline fill="none" stroke="black" points="573.5,-572.07 543.5,-572.07 543.5,-552.07 573.5,-552.07 "/>
<text text-anchor="start" x="551" y="-560.27" font-family="Liberation Sans" font-weight="bold" font-size="11.00">D1</text>
<polyline fill="none" stroke="black" points="573.5,-552.07 666.5,-552.07 "/>
<polyline fill="none" stroke="black" points="666.5,-572.07 573.5,-572.07 "/>
<text text-anchor="start" x="577.5" y="-559.27" font-family="Liberation Sans" font-size="11.00">Users and Roles*</text>
</g>
<!-- p3&#45;&gt;D1_p3 -->
<g id="edge32" class="edge">
<title>p3&#45;&gt;D1_p3</title>
<path fill="none" stroke="#333333" stroke-width="0.9" d="M352.04,-452.41C365.75,-465.12 382.29,-478.89 399,-489.07 439.04,-513.47 488.45,-531.39 528.67,-543.37"/>
<polygon fill="#333333" stroke="#333333" stroke-width="0.9" points="528.19,-545.42 534.53,-545.1 529.37,-541.39 528.19,-545.42"/>
<text text-anchor="middle" x="441.5" y="-528.27" font-family="Liberation Sans" font-size="8.50">shop profile</text>
</g>
<!-- D2_p3 -->
<g id="node21" class="node">
<title>D2_p3</title>
<polyline fill="none" stroke="black" points="597.5,-518.07 567.5,-518.07 567.5,-498.07 597.5,-498.07 "/>
<text text-anchor="start" x="575" y="-506.27" font-family="Liberation Sans" font-weight="bold" font-size="11.00">D2</text>
<polyline fill="none" stroke="black" points="597.5,-498.07 641.5,-498.07 "/>
<polyline fill="none" stroke="black" points="641.5,-518.07 597.5,-518.07 "/>
<text text-anchor="start" x="601.5" y="-505.27" font-family="Liberation Sans" font-size="11.00">Farms*</text>
</g>
<!-- p3&#45;&gt;D2_p3 -->
<g id="edge27" class="edge">
<title>p3&#45;&gt;D2_p3</title>
<path fill="none" stroke="#333333" stroke-width="0.9" d="M368.02,-439.43C378.18,-443.52 388.87,-447.6 399,-451.07 453.39,-469.73 517.43,-486.81 559.16,-497.31"/>
<polygon fill="#333333" stroke="#333333" stroke-width="0.9" points="368.78,-437.48 362.43,-437.17 367.2,-441.37 368.78,-437.48"/>
<text text-anchor="middle" x="441.5" y="-478.27" font-family="Liberation Sans" font-size="8.50">farm profiles</text>
</g>
<!-- D4_p3 -->
<g id="node22" class="node">
<title>D4_p3</title>
<polyline fill="none" stroke="black" points="595.5,-464.07 565.5,-464.07 565.5,-444.07 595.5,-444.07 "/>
<text text-anchor="start" x="573" y="-452.27" font-family="Liberation Sans" font-weight="bold" font-size="11.00">D4</text>
<polyline fill="none" stroke="black" points="595.5,-444.07 644.5,-444.07 "/>
<polyline fill="none" stroke="black" points="644.5,-464.07 595.5,-464.07 "/>
<text text-anchor="start" x="599.5" y="-451.27" font-family="Liberation Sans" font-size="11.00">Listings*</text>
</g>
<!-- p3&#45;&gt;D4_p3 -->
<g id="edge26" class="edge">
<title>p3&#45;&gt;D4_p3</title>
<path fill="none" stroke="#333333" stroke-width="0.9" d="M371.92,-424.82C425.2,-431.55 506.22,-441.78 556.95,-448.19"/>
<polygon fill="#333333" stroke="#333333" stroke-width="0.9" points="372.1,-422.72 365.88,-424.06 371.57,-426.89 372.1,-422.72"/>
<text text-anchor="middle" x="441.5" y="-440.27" font-family="Liberation Sans" font-size="8.50">active listings</text>
</g>
<!-- D9_p3 -->
<g id="node23" class="node">
<title>D9_p3</title>
<polyline fill="none" stroke="black" points="592.5,-410.07 562.5,-410.07 562.5,-390.07 592.5,-390.07 "/>
<text text-anchor="start" x="570" y="-398.27" font-family="Liberation Sans" font-weight="bold" font-size="11.00">D9</text>
<polyline fill="none" stroke="black" points="592.5,-390.07 646.5,-390.07 "/>
<polyline fill="none" stroke="black" points="646.5,-410.07 592.5,-410.07 "/>
<text text-anchor="start" x="596.5" y="-397.27" font-family="Liberation Sans" font-size="11.00">Reviews*</text>
</g>
<!-- p3&#45;&gt;D9_p3 -->
<g id="edge28" class="edge">
<title>p3&#45;&gt;D9_p3</title>
<path fill="none" stroke="#333333" stroke-width="0.9" d="M372.45,-414.66C424.78,-411.36 503.51,-406.39 554.21,-403.18"/>
<polygon fill="#333333" stroke="#333333" stroke-width="0.9" points="372.06,-412.58 366.2,-415.06 372.32,-416.77 372.06,-412.58"/>
<text text-anchor="middle" x="441.5" y="-414.27" font-family="Liberation Sans" font-size="8.50">shop reviews</text>
</g>
<!-- D12_p3 -->
<g id="node24" class="node">
<title>D12_p3</title>
<polyline fill="none" stroke="black" points="562.5,-356.07 532.5,-356.07 532.5,-336.07 562.5,-336.07 "/>
<text text-anchor="start" x="537" y="-344.27" font-family="Liberation Sans" font-weight="bold" font-size="11.00">D12</text>
<polyline fill="none" stroke="black" points="562.5,-336.07 676.5,-336.07 "/>
<polyline fill="none" stroke="black" points="676.5,-356.07 562.5,-356.07 "/>
<text text-anchor="start" x="566.5" y="-343.27" font-family="Liberation Sans" font-size="11.00">Farm Announcements</text>
</g>
<!-- p3&#45;&gt;D12_p3 -->
<g id="edge29" class="edge">
<title>p3&#45;&gt;D12_p3</title>
<path fill="none" stroke="#333333" stroke-width="0.9" d="M369.87,-402.26C379.52,-399.43 389.55,-396.59 399,-394.07 440.06,-383.14 486.1,-372.22 524.08,-363.56"/>
<polygon fill="#333333" stroke="#333333" stroke-width="0.9" points="369.08,-400.3 363.92,-404.02 370.27,-404.33 369.08,-400.3"/>
<text text-anchor="middle" x="441.5" y="-396.27" font-family="Liberation Sans" font-size="8.50">public announcements</text>
</g>
<!-- D10_p3 -->
<g id="node25" class="node">
<title>D10_p3</title>
<polyline fill="none" stroke="black" points="593.5,-302.07 563.5,-302.07 563.5,-282.07 593.5,-282.07 "/>
<text text-anchor="start" x="568" y="-290.27" font-family="Liberation Sans" font-weight="bold" font-size="11.00">D10</text>
<polyline fill="none" stroke="black" points="593.5,-282.07 646.5,-282.07 "/>
<polyline fill="none" stroke="black" points="646.5,-302.07 593.5,-302.07 "/>
<text text-anchor="start" x="597.5" y="-289.27" font-family="Liberation Sans" font-size="11.00">Favorites</text>
</g>
<!-- p3&#45;&gt;D10_p3 -->
<g id="edge30" class="edge">
<title>p3&#45;&gt;D10_p3</title>
<path fill="none" stroke="#333333" stroke-width="0.9" d="M355.52,-387.96C368.71,-378.18 384.02,-367.86 399,-360.07 447.19,-335.02 506.49,-316.51 548.8,-305.18"/>
<polygon fill="#333333" stroke="#333333" stroke-width="0.9" points="549.39,-307.2 554.65,-303.63 548.32,-303.14 549.39,-307.2"/>
<text text-anchor="middle" x="441.5" y="-362.27" font-family="Liberation Sans" font-size="8.50">favorites</text>
</g>
<!-- p3&#45;&gt;D10_p3 -->
<g id="edge31" class="edge">
<title>p3&#45;&gt;D10_p3</title>
<path fill="none" stroke="#333333" stroke-width="0.9" d="M343.34,-369.45C356.82,-348.19 375.57,-325.16 399,-312.07 446.96,-285.28 511.22,-283.48 554.82,-286.31"/>
<polygon fill="#333333" stroke="#333333" stroke-width="0.9" points="341.4,-368.6 340.03,-374.81 344.97,-370.81 341.4,-368.6"/>
<text text-anchor="middle" x="441.5" y="-314.27" font-family="Liberation Sans" font-size="8.50">saved favorites</text>
</g>
<!-- p4 -->
<g id="node26" class="node">
<title>p4</title>
<ellipse fill="#f4f4f4" stroke="black" stroke-width="1.4" cx="317.5" cy="-269.07" rx="48.5" ry="48.5"/>
<text text-anchor="middle" x="317.5" y="-284.67" font-family="Liberation Sans" font-size="10.50">4.0</text>
<text text-anchor="middle" x="317.5" y="-260.67" font-family="Liberation Sans" font-size="10.50">Process</text>
<text text-anchor="middle" x="317.5" y="-248.67" font-family="Liberation Sans" font-size="10.50">Orders</text>
</g>
<!-- p3&#45;&gt;p4 -->
<!-- by_p3 -->
<g id="node18" class="node">
<title>by_p3</title>
<polygon fill="#e8e6e0" stroke="black" stroke-width="1.2" points="97,-484.07 0,-484.07 0,-454.07 97,-454.07 97,-484.07"/>
<text text-anchor="middle" x="48.5" y="-466.27" font-family="Liberation Sans" font-size="11.00">Buyer*</text>
</g>
<!-- by_p3&#45;&gt;p3 -->
<g id="edge22" class="edge">
<title>by_p3&#45;&gt;p3</title>
<path fill="none" stroke="#333333" stroke-width="0.9" d="M97.28,-476.28C135.58,-480.36 190.29,-482.33 236,-469.07 249.09,-465.27 262.09,-458.64 273.71,-451.38"/>
<polygon fill="#333333" stroke="#333333" stroke-width="0.9" points="275.03,-453.03 278.94,-448.02 272.76,-449.5 275.03,-453.03"/>
<text text-anchor="middle" x="183" y="-481.27" font-family="Liberation Sans" font-size="8.50">searches, favorites</text>
</g>
<!-- by_p3&#45;&gt;p3 -->
<g id="edge23" class="edge">
<title>by_p3&#45;&gt;p3</title>
<path fill="none" stroke="#333333" stroke-width="0.9" d="M103.19,-453.5C112.11,-451.17 121.28,-448.93 130,-447.07 176.94,-437.04 231.24,-428.99 269.09,-423.94"/>
<polygon fill="#333333" stroke="#333333" stroke-width="0.9" points="102.65,-451.47 97.38,-455.03 103.72,-455.53 102.65,-451.47"/>
<text text-anchor="middle" x="183" y="-458.27" font-family="Liberation Sans" font-size="8.50">listings, storefronts,</text>
<text text-anchor="middle" x="183" y="-449.27" font-family="Liberation Sans" font-size="8.50">farm pages, reviews</text>
</g>
<!-- fs_p3 -->
<g id="node19" class="node">
<title>fs_p3</title>
<polygon fill="#e8e6e0" stroke="black" stroke-width="1.2" points="97,-421.07 0,-421.07 0,-391.07 97,-391.07 97,-421.07"/>
<text text-anchor="middle" x="48.5" y="-403.27" font-family="Liberation Sans" font-size="11.00">Farmer&#45;Seller*</text>
</g>
<!-- fs_p3&#45;&gt;p3 -->
<g id="edge24" class="edge">
<title>fs_p3&#45;&gt;p3</title>
<path fill="none" stroke="#333333" stroke-width="0.9" d="M97.23,-408.22C143.7,-410.3 214.19,-413.47 262.64,-415.65"/>
<polygon fill="#333333" stroke="#333333" stroke-width="0.9" points="262.64,-417.75 268.73,-415.92 262.83,-413.56 262.64,-417.75"/>
<text text-anchor="middle" x="183" y="-416.27" font-family="Liberation Sans" font-size="8.50">shop profile</text>
</g>
<!-- fs_p3&#45;&gt;p3 -->
<g id="edge25" class="edge">
<title>fs_p3&#45;&gt;p3</title>
<path fill="none" stroke="#333333" stroke-width="0.9" d="M103.56,-397.86C140.91,-393.49 191.65,-390.12 236,-396.07 247.49,-397.61 259.66,-400.34 270.96,-403.36"/>
<polygon fill="#333333" stroke="#333333" stroke-width="0.9" points="102.93,-395.83 97.22,-398.63 103.43,-399.99 102.93,-395.83"/>
<text text-anchor="middle" x="183" y="-398.27" font-family="Liberation Sans" font-size="8.50">farm page</text>
</g>
<!-- D4_p4 -->
<g id="node31" class="node">
<title>D4_p4</title>
<polyline fill="none" stroke="black" points="595.5,-248.07 565.5,-248.07 565.5,-228.07 595.5,-228.07 "/>
<text text-anchor="start" x="573" y="-236.27" font-family="Liberation Sans" font-weight="bold" font-size="11.00">D4</text>
<polyline fill="none" stroke="black" points="595.5,-228.07 644.5,-228.07 "/>
<polyline fill="none" stroke="black" points="644.5,-248.07 595.5,-248.07 "/>
<text text-anchor="start" x="599.5" y="-235.27" font-family="Liberation Sans" font-size="11.00">Listings*</text>
</g>
<!-- p4&#45;&gt;D4_p4 -->
<g id="edge44" class="edge">
<title>p4&#45;&gt;D4_p4</title>
<path fill="none" stroke="#333333" stroke-width="0.9" d="M365.88,-263.92C416.94,-258.36 497.98,-249.55 550.96,-243.79"/>
<polygon fill="#333333" stroke="#333333" stroke-width="0.9" points="551.21,-245.87 556.95,-243.13 550.76,-241.69 551.21,-245.87"/>
<text text-anchor="middle" x="441.5" y="-270.27" font-family="Liberation Sans" font-size="8.50">stock held, deducted,</text>
<text text-anchor="middle" x="441.5" y="-261.27" font-family="Liberation Sans" font-size="8.50">released</text>
</g>
<!-- p4&#45;&gt;D4_p4 -->
<g id="edge45" class="edge">
<title>p4&#45;&gt;D4_p4</title>
<path fill="none" stroke="#333333" stroke-width="0.9" d="M367.82,-246.82C377.94,-243.19 388.66,-239.99 399,-238.07 452.41,-228.14 515.02,-230.08 556.76,-233.25"/>
<polygon fill="#333333" stroke="#333333" stroke-width="0.9" points="366.83,-244.95 361.94,-249.01 368.29,-248.89 366.83,-244.95"/>
<text text-anchor="middle" x="441.5" y="-240.27" font-family="Liberation Sans" font-size="8.50">prices, tawad, stock</text>
</g>
<!-- D8_p4 -->
<g id="node32" class="node">
<title>D8_p4</title>
<polyline fill="none" stroke="black" points="583.5,-194.07 553.5,-194.07 553.5,-174.07 583.5,-174.07 "/>
<text text-anchor="start" x="561" y="-182.27" font-family="Liberation Sans" font-weight="bold" font-size="11.00">D8</text>
<polyline fill="none" stroke="black" points="583.5,-174.07 655.5,-174.07 "/>
<polyline fill="none" stroke="black" points="655.5,-194.07 583.5,-194.07 "/>
<text text-anchor="start" x="587.5" y="-181.27" font-family="Liberation Sans" font-size="11.00">Notifications*</text>
</g>
<!-- p4&#45;&gt;D8_p4 -->
<g id="edge47" class="edge">
<title>p4&#45;&gt;D8_p4</title>
<path fill="none" stroke="#333333" stroke-width="0.9" d="M356.46,-239.96C369.36,-231.36 384.25,-222.74 399,-217.07 444.12,-199.74 498.22,-191.51 539.44,-187.6"/>
<polygon fill="#333333" stroke="#333333" stroke-width="0.9" points="539.65,-189.69 545.43,-187.06 539.26,-185.51 539.65,-189.69"/>
<text text-anchor="middle" x="441.5" y="-219.27" font-family="Liberation Sans" font-size="8.50">order notices</text>
</g>
<!-- D9_p4 -->
<g id="node33" class="node">
<title>D9_p4</title>
<polyline fill="none" stroke="black" points="592.5,-140.07 562.5,-140.07 562.5,-120.07 592.5,-120.07 "/>
<text text-anchor="start" x="570" y="-128.27" font-family="Liberation Sans" font-weight="bold" font-size="11.00">D9</text>
<polyline fill="none" stroke="black" points="592.5,-120.07 646.5,-120.07 "/>
<polyline fill="none" stroke="black" points="646.5,-140.07 592.5,-140.07 "/>
<text text-anchor="start" x="596.5" y="-127.27" font-family="Liberation Sans" font-size="11.00">Reviews*</text>
</g>
<!-- p4&#45;&gt;D9_p4 -->
<g id="edge46" class="edge">
<title>p4&#45;&gt;D9_p4</title>
<path fill="none" stroke="#333333" stroke-width="0.9" d="M346.35,-229.98C360.35,-212.95 378.66,-194.17 399,-182.07 445.01,-154.7 505.12,-141.64 548.25,-135.46"/>
<polygon fill="#333333" stroke="#333333" stroke-width="0.9" points="548.56,-137.54 554.22,-134.63 547.99,-133.38 548.56,-137.54"/>
<text text-anchor="middle" x="441.5" y="-184.27" font-family="Liberation Sans" font-size="8.50">reviews</text>
</g>
<!-- D5_p4 -->
<g id="node35" class="node">
<title>D5_p4</title>
<polyline fill="none" stroke="black" points="590.5,-86.07 560.5,-86.07 560.5,-66.07 590.5,-66.07 "/>
<text text-anchor="start" x="568" y="-74.27" font-family="Liberation Sans" font-weight="bold" font-size="11.00">D5</text>
<polyline fill="none" stroke="black" points="590.5,-66.07 649.5,-66.07 "/>
<polyline fill="none" stroke="black" points="649.5,-86.07 590.5,-86.07 "/>
<text text-anchor="start" x="594.5" y="-73.27" font-family="Liberation Sans" font-size="11.00">Cart Items</text>
</g>
<!-- p4&#45;&gt;D5_p4 -->
<g id="edge40" class="edge">
<title>p4&#45;&gt;D5_p4</title>
<path fill="none" stroke="#333333" stroke-width="0.9" d="M335.66,-223.87C348.86,-194.86 369.8,-158.54 399,-136.07 422.01,-118.36 493.67,-99.81 545.68,-88.11"/>
<polygon fill="#333333" stroke="#333333" stroke-width="0.9" points="546.21,-90.15 551.6,-86.79 545.29,-86.05 546.21,-90.15"/>
<text text-anchor="middle" x="441.5" y="-138.27" font-family="Liberation Sans" font-size="8.50">cart items</text>
</g>
<!-- p4&#45;&gt;D5_p4 -->
<g id="edge41" class="edge">
<title>p4&#45;&gt;D5_p4</title>
<path fill="none" stroke="#333333" stroke-width="0.9" d="M327.67,-215.08C337.71,-173.91 358.19,-119.57 399,-91.07 443.36,-60.09 507.14,-60.61 551.64,-66.15"/>
<polygon fill="#333333" stroke="#333333" stroke-width="0.9" points="325.59,-214.74 326.26,-221.06 329.68,-215.7 325.59,-214.74"/>
<text text-anchor="middle" x="441.5" y="-93.27" font-family="Liberation Sans" font-size="8.50">cart</text>
</g>
<!-- D6_p4 -->
<g id="node36" class="node">
<title>D6_p4</title>
<polyline fill="none" stroke="black" points="598.5,-32.07 568.5,-32.07 568.5,-12.07 598.5,-12.07 "/>
<text text-anchor="start" x="576" y="-20.27" font-family="Liberation Sans" font-weight="bold" font-size="11.00">D6</text>
<polyline fill="none" stroke="black" points="598.5,-12.07 640.5,-12.07 "/>
<polyline fill="none" stroke="black" points="640.5,-32.07 598.5,-32.07 "/>
<text text-anchor="start" x="602.5" y="-19.27" font-family="Liberation Sans" font-size="11.00">Orders</text>
</g>
<!-- p4&#45;&gt;D6_p4 -->
<g id="edge42" class="edge">
<title>p4&#45;&gt;D6_p4</title>
<path fill="none" stroke="#333333" stroke-width="0.9" d="M322.89,-220.62C330.09,-171.12 349.07,-95.9 399,-55.07 410.85,-45.38 497.43,-33.98 554.07,-27.43"/>
<polygon fill="#333333" stroke="#333333" stroke-width="0.9" points="554.42,-29.5 560.14,-26.73 553.94,-25.33 554.42,-29.5"/>
<text text-anchor="middle" x="441.5" y="-57.27" font-family="Liberation Sans" font-size="8.50">orders, status history</text>
</g>
<!-- p4&#45;&gt;D6_p4 -->
<g id="edge43" class="edge">
<title>p4&#45;&gt;D6_p4</title>
<path fill="none" stroke="#333333" stroke-width="0.9" d="M319.35,-214.24C323.53,-156.61 339.94,-68.44 399,-25.07 445.51,9.08 515.37,1.09 560.2,-9.31"/>
<polygon fill="#333333" stroke="#333333" stroke-width="0.9" points="317.24,-214.28 318.94,-220.41 321.43,-214.56 317.24,-214.28"/>
<text text-anchor="middle" x="441.5" y="-27.27" font-family="Liberation Sans" font-size="8.50">order records</text>
</g>
<!-- by_p4 -->
<g id="node27" class="node">
<title>by_p4</title>
<polygon fill="#e8e6e0" stroke="black" stroke-width="1.2" points="97,-348.07 0,-348.07 0,-318.07 97,-318.07 97,-348.07"/>
<text text-anchor="middle" x="48.5" y="-330.27" font-family="Liberation Sans" font-size="11.00">Buyer*</text>
</g>
<!-- by_p4&#45;&gt;p4 -->
<g id="edge33" class="edge">
<title>by_p4&#45;&gt;p4</title>
<path fill="none" stroke="#333333" stroke-width="0.9" d="M97.16,-337.37C135.63,-339.23 190.63,-338.22 236,-323.07 249.55,-318.55 262.96,-311.09 274.84,-303.14"/>
<polygon fill="#333333" stroke="#333333" stroke-width="0.9" points="276.08,-304.83 279.83,-299.7 273.7,-301.37 276.08,-304.83"/>
<text text-anchor="middle" x="183" y="-348.27" font-family="Liberation Sans" font-size="8.50">cart items, checkout,</text>
<text text-anchor="middle" x="183" y="-339.27" font-family="Liberation Sans" font-size="8.50">cancellations, reviews</text>
</g>
<!-- by_p4&#45;&gt;p4 -->
<g id="edge35" class="edge">
<title>by_p4&#45;&gt;p4</title>
<path fill="none" stroke="#333333" stroke-width="0.9" d="M103.08,-320.23C151.99,-308.5 223.55,-291.35 270.07,-280.2"/>
<polygon fill="#333333" stroke="#333333" stroke-width="0.9" points="102.58,-318.19 97.23,-321.63 103.56,-322.27 102.58,-318.19"/>
<text text-anchor="middle" x="183" y="-314.27" font-family="Liberation Sans" font-size="8.50">order status, receipts</text>
</g>
<!-- fs_p4 -->
<g id="node28" class="node">
<title>fs_p4</title>
<polygon fill="#e8e6e0" stroke="black" stroke-width="1.2" points="97,-275.07 0,-275.07 0,-245.07 97,-245.07 97,-275.07"/>
<text text-anchor="middle" x="48.5" y="-257.27" font-family="Liberation Sans" font-size="11.00">Farmer&#45;Seller*</text>
</g>
<!-- fs_p4&#45;&gt;p4 -->
<g id="edge34" class="edge">
<title>fs_p4&#45;&gt;p4</title>
<path fill="none" stroke="#333333" stroke-width="0.9" d="M97.23,-261.68C143.7,-263.25 214.19,-265.62 262.64,-267.25"/>
<polygon fill="#333333" stroke="#333333" stroke-width="0.9" points="262.66,-269.36 268.73,-267.46 262.8,-265.16 262.66,-269.36"/>
<text text-anchor="middle" x="183" y="-277.27" font-family="Liberation Sans" font-size="8.50">status updates,</text>
<text text-anchor="middle" x="183" y="-268.27" font-family="Liberation Sans" font-size="8.50">walk&#45;in sales</text>
</g>
<!-- fs_p4&#45;&gt;p4 -->
<g id="edge36" class="edge">
<title>fs_p4&#45;&gt;p4</title>
<path fill="none" stroke="#333333" stroke-width="0.9" d="M103.51,-251.75C140.84,-247.26 191.57,-243.63 236,-249.07 247.29,-250.45 259.28,-252.89 270.46,-255.59"/>
<polygon fill="#333333" stroke="#333333" stroke-width="0.9" points="102.87,-249.71 97.17,-252.54 103.39,-253.88 102.87,-249.71"/>
<text text-anchor="middle" x="183" y="-251.27" font-family="Liberation Sans" font-size="8.50">orders</text>
</g>
<!-- sa_p4 -->
<g id="node29" class="node">
<title>sa_p4</title>
<polygon fill="#e1e6ed" stroke="black" stroke-width="1.2" points="97,-215.07 0,-215.07 0,-185.07 97,-185.07 97,-215.07"/>
<text text-anchor="middle" x="48.5" y="-197.27" font-family="Liberation Sans" font-size="11.00">Super Admin*</text>
</g>
<!-- sa_p4&#45;&gt;p4 -->
<g id="edge38" class="edge">
<title>sa_p4&#45;&gt;p4</title>
<path fill="none" stroke="#333333" stroke-width="0.9" d="M97.01,-205.21C135.16,-210.11 189.79,-218.89 236,-233.07 246.62,-236.33 257.69,-240.63 268.09,-245.13"/>
<polygon fill="#333333" stroke="#333333" stroke-width="0.9" points="267.46,-247.15 273.8,-247.64 269.16,-243.3 267.46,-247.15"/>
<text text-anchor="middle" x="183" y="-235.27" font-family="Liberation Sans" font-size="8.50">review removals</text>
</g>
<!-- sa_p4&#45;&gt;p4 -->
<g id="edge39" class="edge">
<title>sa_p4&#45;&gt;p4</title>
<path fill="none" stroke="#333333" stroke-width="0.9" d="M103.22,-188.36C141.53,-182.49 193.55,-179.69 236,-196.07 255.19,-203.47 272.63,-217.81 286.33,-231.83"/>
<polygon fill="#333333" stroke="#333333" stroke-width="0.9" points="102.79,-186.3 97.2,-189.32 103.45,-190.45 102.79,-186.3"/>
<text text-anchor="middle" x="183" y="-198.27" font-family="Liberation Sans" font-size="8.50">order ledger</text>
</g>
<!-- em_p4 -->
<g id="node30" class="node">
<title>em_p4</title>
<polygon fill="#f2f2f2" stroke="black" stroke-width="1.2" points="97,-159.07 0,-159.07 0,-129.07 97,-129.07 97,-159.07"/>
<text text-anchor="middle" x="48.5" y="-141.27" font-family="Liberation Sans" font-size="11.00">Email Service*</text>
</g>
<!-- em_p4&#45;&gt;p4 -->
<g id="edge48" class="edge">
<title>em_p4&#45;&gt;p4</title>
<path fill="none" stroke="#333333" stroke-width="0.9" d="M103.53,-141.38C142.67,-141.77 195.59,-147.29 236,-170.07 259.54,-183.34 278.93,-206.45 292.77,-227"/>
<polygon fill="#333333" stroke="#333333" stroke-width="0.9" points="103.38,-139.28 97.37,-141.36 103.36,-143.48 103.38,-139.28"/>
<text text-anchor="middle" x="183" y="-172.27" font-family="Liberation Sans" font-size="8.50">low&#45;stock alerts</text>
</g>
<!-- sch_p4 -->
<g id="node34" class="node">
<title>sch_p4</title>
<polygon fill="#f2f2f2" stroke="black" stroke-width="1.2" points="97,-111.07 0,-111.07 0,-81.07 97,-81.07 97,-111.07"/>
<text text-anchor="middle" x="48.5" y="-93.27" font-family="Liberation Sans" font-size="11.00">Scheduler</text>
</g>
<!-- sch_p4&#45;&gt;p4 -->
<g id="edge37" class="edge">
<title>sch_p4&#45;&gt;p4</title>
<path fill="none" stroke="#333333" stroke-width="0.9" d="M97.38,-93.77C137.78,-94.19 195.36,-100.54 236,-129.07 266.35,-150.38 286.83,-187.04 299.53,-217.5"/>
<polygon fill="#333333" stroke="#333333" stroke-width="0.9" points="297.61,-218.35 301.82,-223.11 301.5,-216.76 297.61,-218.35"/>
<text text-anchor="middle" x="183" y="-131.27" font-family="Liberation Sans" font-size="8.50">hourly sweep</text>
</g>
</g>
</svg>
